<svg width="48" height="48" viewBox="0 0 48 48" fill="none" xmlns="http://www.w3.org/2000/svg">
<path fill-rule="evenodd" clip-rule="evenodd" d="M16 0C16.4493 0 16.8136 0.343634 16.8136 0.767528V2.90211C18.9443 2.72983 21.3305 2.65682 24 2.65682C26.6695 2.65682 29.0557 2.72983 31.1864 2.90211V0.767528C31.1864 0.343634 31.5507 0 32 0C32.4493 0 32.8136 0.343634 32.8136 0.767528V3.05896C43.2034 4.23537 46.8859 8.28214 47.7711 18.893C47.7921 19.1451 47.8116 19.4009 47.8295 19.6605C47.8469 19.9124 47.8628 20.1678 47.8774 20.4267C47.9623 21.936 48 23.5669 48 25.3284C48 43.9985 43.764 48 24 48C4.236 48 0 43.9985 0 25.3284C0 23.5669 0.0377067 21.936 0.122604 20.4267C0.137171 20.1678 0.153127 19.9124 0.170521 19.6605C0.188448 19.4009 0.207902 19.1451 0.228935 18.893C1.11415 8.28214 4.7966 4.23537 15.1864 3.05896V0.767528C15.1864 0.343634 15.5507 0 16 0ZM15.1864 4.60624C11.4084 5.05023 8.73504 5.87666 6.81423 7.2069C3.91763 9.21291 2.39967 12.6282 1.86125 18.893H46.1387C45.6003 12.6282 44.0824 9.21291 41.1858 7.2069C39.265 5.87666 36.5916 5.05023 32.8136 4.60624V8.32472C32.8136 8.74862 32.4493 9.09225 32 9.09225C31.5507 9.09225 31.1864 8.74862 31.1864 8.32472V4.44405C29.1052 4.2706 26.7252 4.19188 24 4.19188C21.2748 4.19188 18.8948 4.2706 16.8136 4.44405V8.32472C16.8136 8.74862 16.4493 9.09225 16 9.09225C15.5507 9.09225 15.1864 8.74862 15.1864 8.32472V4.60624ZM46.3729 25.3284C46.3729 23.5547 46.3342 21.9254 46.248 20.428H1.75199C1.66581 21.9254 1.62712 23.5547 1.62712 25.3284C1.62712 29.9609 1.892 33.5789 2.55915 36.4147C3.22222 39.2331 4.26082 41.1836 5.7398 42.5807C7.21861 43.9777 9.28284 44.9585 12.2655 45.5846C15.2668 46.2147 19.0962 46.4649 24 46.4649C28.9038 46.4649 32.7332 46.2147 35.7345 45.5846C38.7172 44.9585 40.7814 43.9777 42.2602 42.5807C43.7392 41.1836 44.7778 39.2331 45.4408 36.4147C46.108 33.5789 46.3729 29.9609 46.3729 25.3284Z" fill="url(#paint0_linear_554_1089)"/>
<path d="M11.1864 29.107C11.1864 28.6831 11.5507 28.3395 12 28.3395H18C18.4493 28.3395 18.8136 28.6831 18.8136 29.107C18.8136 29.5309 18.4493 29.8745 18 29.8745H12C11.5507 29.8745 11.1864 29.5309 11.1864 29.107Z" fill="url(#paint1_linear_554_1089)"/>
<path d="M11.1864 36.6642C11.1864 36.2403 11.5507 35.8967 12 35.8967H18C18.4493 35.8967 18.8136 36.2403 18.8136 36.6642C18.8136 37.0881 18.4493 37.4317 18 37.4317H12C11.5507 37.4317 11.1864 37.0881 11.1864 36.6642Z" fill="url(#paint2_linear_554_1089)"/>
<path d="M37.5756 29.6494C37.8932 29.3494 37.8928 28.8635 37.5749 28.5639C37.257 28.2644 36.7419 28.2647 36.4244 28.5646L29 35.5781L26.5756 33.2879C26.2581 32.988 25.743 32.9876 25.4251 33.2872C25.1072 33.5867 25.1068 34.0727 25.4244 34.3726L28.4244 37.2066C28.577 37.3507 28.784 37.4317 29 37.4317C29.216 37.4317 29.423 37.3507 29.5756 37.2066L37.5756 29.6494Z" fill="url(#paint3_linear_554_1089)"/>
<defs>
<linearGradient id="paint0_linear_554_1089" x1="-5.21287e-07" y1="48" x2="51.7627" y2="1.7725" gradientUnits="userSpaceOnUse">
<stop stop-color="#00A983"/>
<stop offset="1" stop-color="#3162AC"/>
</linearGradient>
<linearGradient id="paint1_linear_554_1089" x1="-5.21287e-07" y1="48" x2="51.7627" y2="1.7725" gradientUnits="userSpaceOnUse">
<stop stop-color="#00A983"/>
<stop offset="1" stop-color="#3162AC"/>
</linearGradient>
<linearGradient id="paint2_linear_554_1089" x1="-5.21287e-07" y1="48" x2="51.7627" y2="1.7725" gradientUnits="userSpaceOnUse">
<stop stop-color="#00A983"/>
<stop offset="1" stop-color="#3162AC"/>
</linearGradient>
<linearGradient id="paint3_linear_554_1089" x1="-5.21287e-07" y1="48" x2="51.7627" y2="1.7725" gradientUnits="userSpaceOnUse">
<stop stop-color="#00A983"/>
<stop offset="1" stop-color="#3162AC"/>
</linearGradient>
</defs>
</svg>
