<svg width="54" height="50" viewBox="0 0 54 50" fill="none" xmlns="http://www.w3.org/2000/svg">
<path fill-rule="evenodd" clip-rule="evenodd" d="M10 15.7994V15.7992C10 10.778 12.0468 7.65273 15.0933 5.73011C18.2106 3.76284 22.4722 2.99804 26.9253 2.99805C31.3809 2.99806 35.6819 3.74878 38.8375 5.71133C41.9208 7.6289 44 10.7538 44 15.7992V15.7994L43.875 15.7992C35.5371 15.7992 33.75 17.8292 33.75 27.3002C33.75 36.7712 35.5371 38.8012 43.875 38.8012C52.2129 38.8012 54 36.7712 54 27.3002C54 18.6938 52.5244 16.2319 45.9985 15.8541C45.9995 15.8359 46 15.8176 46 15.7992C46 10.0807 43.5792 6.30502 39.8938 4.01299C36.2807 1.76595 31.5444 0.998055 26.9253 0.998047C22.3036 0.998037 17.6026 1.78156 14.0259 4.03875C10.3785 6.3406 8 10.1159 8 15.7992C8 15.8176 8.0005 15.8359 8.00148 15.8541C1.47564 16.2319 0 18.6938 0 27.3002C0 35.9066 1.47565 38.3685 8.00148 38.7463C8.0005 38.7645 8 38.7828 8 38.8012V44.0019C8 46.7633 10.2382 49.0019 12.9997 49.0019H20.25C20.8023 49.0019 21.25 48.5542 21.25 48.0019C21.25 47.4497 20.8023 47.0019 20.25 47.0019H12.9997C11.3429 47.0019 10 45.6589 10 44.0019V38.8012C10 38.8011 10 38.8011 10 38.801C10.0415 38.8011 10.0832 38.8012 10.125 38.8012C18.4629 38.8012 20.25 36.7712 20.25 27.3002C20.25 17.8292 18.4629 15.7992 10.125 15.7992L10 15.7994ZM2 27.3002C2 29.6283 2.11191 31.3779 2.37229 32.7088C2.63074 34.0298 3.00886 34.7945 3.43693 35.2808C4.2724 36.2298 5.91344 36.8012 10.125 36.8012C14.3366 36.8012 15.9776 36.2298 16.8131 35.2808C17.2411 34.7945 17.6193 34.0298 17.8777 32.7088C18.1381 31.3779 18.25 29.6283 18.25 27.3002C18.25 24.9721 18.1381 23.2225 17.8777 21.8916C17.6193 20.5706 17.2411 19.8059 16.8131 19.3196C15.9776 18.3706 14.3366 17.7992 10.125 17.7992C5.91344 17.7992 4.2724 18.3706 3.43693 19.3196C3.00886 19.8059 2.63074 20.5706 2.37229 21.8916C2.11191 23.2225 2 24.9721 2 27.3002ZM36.1223 32.7088C35.8619 31.3779 35.75 29.6283 35.75 27.3002C35.75 24.9721 35.8619 23.2225 36.1223 21.8916C36.3807 20.5706 36.7589 19.8059 37.1869 19.3196C38.0224 18.3706 39.6634 17.7992 43.875 17.7992C48.0866 17.7992 49.7276 18.3706 50.5631 19.3196C50.9911 19.8059 51.3693 20.5706 51.6277 21.8916C51.8881 23.2225 52 24.9721 52 27.3002C52 29.6283 51.8881 31.3779 51.6277 32.7088C51.3693 34.0298 50.9911 34.7945 50.5631 35.2808C49.7276 36.2298 48.0866 36.8012 43.875 36.8012C39.6634 36.8012 38.0224 36.2298 37.1869 35.2808C36.7589 34.7945 36.3807 34.0298 36.1223 32.7088Z" fill="url(#paint0_linear_554_1095)"/>
<defs>
<linearGradient id="paint0_linear_554_1095" x1="-5.86448e-07" y1="49.0019" x2="52.0977" y2="-3.33637" gradientUnits="userSpaceOnUse">
<stop stop-color="#00A983"/>
<stop offset="1" stop-color="#3162AC"/>
</linearGradient>
</defs>
</svg>
