<svg width="50" height="42" viewBox="0 0 50 42" fill="none" xmlns="http://www.w3.org/2000/svg">
<path d="M15.4 1C19.0881 1 22.4524 2.86982 25 5C27.5476 2.86982 30.9119 1 34.6 1C42.5529 1 49 7.02332 49 14.453C49 29.4333 32.2598 38.1578 26.7412 40.627C25.6296 41.1243 24.3704 41.1243 23.2588 40.627C17.7402 38.1578 1 29.433 1 14.4527C1 7.02296 7.4471 1 15.4 1Z" stroke="url(#paint0_linear_1009_1136)" stroke-width="2"/>
<path d="M19.4 10C21.5514 10 23.5139 11.0284 25 12.2C26.4861 11.0284 28.4486 10 30.6 10C35.2392 10 39 13.3128 39 17.3992C39 25.6383 29.2349 30.4368 26.0157 31.7948C25.3673 32.0684 24.6327 32.0684 23.9843 31.7948C20.7651 30.4368 11 25.6381 11 17.399C11 13.3126 14.7608 10 19.4 10Z" stroke="url(#paint1_linear_1009_1136)" stroke-opacity="0.5" stroke-width="2"/>
<path d="M23 17C23.7684 17 24.4692 17.374 25 17.8C25.5308 17.374 26.2316 17 27 17C28.6569 17 30 18.2047 30 19.6906C30 22.6867 26.5125 24.4316 25.3628 24.9254C25.1312 25.0249 24.8688 25.0249 24.6372 24.9254C23.4875 24.4316 20 22.6866 20 19.6905C20 18.2046 21.3431 17 23 17Z" stroke="url(#paint2_linear_1009_1136)" stroke-opacity="0.2" stroke-width="2"/>
<defs>
<linearGradient id="paint0_linear_1009_1136" x1="0.699992" y1="38.1051" x2="43.7418" y2="-4.60196" gradientUnits="userSpaceOnUse">
<stop stop-color="#00A983"/>
<stop offset="1" stop-color="#3162AC"/>
</linearGradient>
<linearGradient id="paint1_linear_1009_1136" x1="10.825" y1="30.4078" x2="34.4679" y2="5.527" gradientUnits="userSpaceOnUse">
<stop stop-color="#00A983"/>
<stop offset="1" stop-color="#3162AC"/>
</linearGradient>
<linearGradient id="paint2_linear_1009_1136" x1="19.9375" y1="24.421" x2="28.5414" y2="15.5283" gradientUnits="userSpaceOnUse">
<stop stop-color="#00A983"/>
<stop offset="1" stop-color="#3162AC"/>
</linearGradient>
</defs>
</svg>
