<svg width="50" height="48" viewBox="0 0 50 48" fill="none" xmlns="http://www.w3.org/2000/svg">
<path d="M13.4615 35.9998C13.4615 37.1044 12.6005 37.9998 11.5385 37.9998C10.4764 37.9998 9.61538 37.1044 9.61538 35.9998C9.61538 34.8953 10.4764 33.9998 11.5385 33.9998C12.6005 33.9998 13.4615 34.8953 13.4615 35.9998Z" fill="url(#paint0_linear_554_1093)"/>
<path fill-rule="evenodd" clip-rule="evenodd" d="M11.5385 47.9998C2.03654 47.9998 0 43.7638 0 23.9999C0 4.23598 2.03654 0 11.5385 0C17.9065 0 20.9215 1.90259 22.2176 9.10682C31.2279 0.732357 35.1705 0.63815 40.7926 6.48515C46.1639 12.0712 46.3209 16.063 39.3025 24.5795C47.8359 25.7189 50 28.7969 50 36.0001C50 45.882 45.9269 48 26.9231 48C22.4254 48 18.7641 47.8814 15.7951 47.5692C14.5775 47.8752 13.1677 47.9998 11.5385 47.9998ZM2.01959 35.9078C1.68989 32.8221 1.5625 28.9231 1.5625 23.9999C1.5625 19.0767 1.68989 15.1777 2.01959 12.0919C2.35087 8.99147 2.87565 6.83019 3.60319 5.31691C4.30292 3.86148 5.19155 2.9984 6.3609 2.45786C7.59329 1.88818 9.24531 1.62712 11.5385 1.62712C13.8316 1.62712 15.4836 1.88818 16.716 2.45786C17.8854 2.9984 18.774 3.86148 19.4737 5.31691C20.2013 6.83019 20.726 8.99147 21.0573 12.0919C21.387 15.1777 21.5144 19.0767 21.5144 23.9999C21.5144 28.9231 21.387 32.8221 21.0573 35.9078C20.726 39.0083 20.2013 41.1696 19.4737 42.6829C18.774 44.1383 17.8854 45.0014 16.716 45.5419C15.4836 46.1116 13.8316 46.3727 11.5385 46.3727C9.24531 46.3727 7.59329 46.1116 6.3609 45.5419C5.19155 45.0014 4.30292 44.1383 3.60319 42.6829C2.87565 41.1696 2.35087 39.0083 2.01959 35.9078ZM18.7457 46.1754C21.0779 46.3146 23.7841 46.3729 26.9231 46.3729C31.657 46.3729 35.4064 46.2404 38.3738 45.8975C41.3553 45.5529 43.4342 45.007 44.8899 44.25C46.2902 43.5219 47.1198 42.5975 47.6391 41.3824C48.1865 40.1016 48.4375 38.3845 48.4375 36.0001C48.4375 33.6156 48.1865 31.8985 47.6391 30.6177C47.1198 29.4026 46.2902 28.4782 44.8899 27.7501C43.4342 26.9931 41.3553 26.4472 38.3738 26.1026C38.2653 26.0901 38.1557 26.0778 38.0452 26.0659C36.5217 27.8251 34.7227 29.7684 32.6337 31.9409C27.9246 36.8384 24.3351 40.2035 21.3698 42.2081C20.7304 43.9975 19.8749 45.2799 18.7457 46.1754ZM23.0769 23.9999C23.0769 18.5885 22.9242 14.3412 22.5075 11.0262C23.7093 9.88384 24.815 8.88973 25.8413 8.0359C28.1837 6.08704 30.0246 4.94448 31.5683 4.40934C33.053 3.89461 34.2682 3.938 35.4621 4.41551C36.7204 4.91878 38.0657 5.94873 39.6871 7.63494C41.3084 9.32115 42.2988 10.7203 42.7827 12.0289C43.2418 13.2706 43.2836 14.5343 42.7886 16.0785C42.2741 17.6839 41.1754 19.5984 39.3015 22.0345C37.4365 24.459 34.8755 27.3098 31.5281 30.7911C28.1808 34.2723 25.4396 36.9358 23.1083 38.8754C22.7456 39.1771 22.395 39.4595 22.0556 39.7234C22.8183 36.1132 23.0769 31.0423 23.0769 23.9999Z" fill="url(#paint1_linear_554_1093)"/>
<defs>
<linearGradient id="paint0_linear_554_1093" x1="-5.43008e-07" y1="48" x2="51.9583" y2="-0.33563" gradientUnits="userSpaceOnUse">
<stop stop-color="#00A983"/>
<stop offset="1" stop-color="#3162AC"/>
</linearGradient>
<linearGradient id="paint1_linear_554_1093" x1="-5.43008e-07" y1="48" x2="51.9583" y2="-0.33563" gradientUnits="userSpaceOnUse">
<stop stop-color="#00A983"/>
<stop offset="1" stop-color="#3162AC"/>
</linearGradient>
</defs>
</svg>
