<svg width="48" height="48" viewBox="0 0 48 48" fill="none" xmlns="http://www.w3.org/2000/svg">
<path d="M14.1521 20.5559L27.4441 33.8479M9.99836 38.0017L3.35237 44.6477M5.01387 33.0172L1.69087 36.3402M14.9828 42.9862L11.6599 46.3092M19.9673 38.0017L20.9642 44.98C21.2381 46.8968 23.5827 47.6783 24.9518 46.3092L32.4286 38.8324C32.9515 38.3095 33.1978 37.5708 33.0932 36.8386L32.4286 32.1864M9.99831 28.0327L3.02002 27.0358C1.10321 26.762 0.321676 24.4174 1.69082 23.0482L9.16756 15.5715C9.69053 15.0485 10.4292 14.8023 11.1614 14.9069L15.8135 15.5715M39.0745 25.5405C34.3864 30.5952 26.9022 34.678 22.8314 36.6737C21.1144 37.5155 19.0828 37.1173 17.7306 35.7651L12.2349 30.2695C10.8827 28.9172 10.4845 26.8857 11.3263 25.1686C13.322 21.0978 17.4049 13.6136 22.4595 8.92555C28.0938 3.69988 37.0169 1.75616 42.518 1.03669C45.1624 0.690831 47.3092 2.8376 46.9633 5.48201C46.2438 10.9831 44.3001 19.9062 39.0745 25.5405ZM28.2748 13.0792C26.4396 14.9144 26.4396 17.89 28.2748 19.7252C30.1101 21.5604 33.0856 21.5604 34.9208 19.7252C36.756 17.89 36.756 14.9144 34.9208 13.0792C33.0856 11.244 30.1101 11.244 28.2748 13.0792Z" stroke="url(#paint0_linear_554_1091)" stroke-width="2"/>
<defs>
<linearGradient id="paint0_linear_554_1091" x1="-5.34698" y1="29.7952" x2="44.5584" y2="48.6089" gradientUnits="userSpaceOnUse">
<stop stop-color="#00A983"/>
<stop offset="1" stop-color="#3162AC"/>
</linearGradient>
</defs>
</svg>
