<svg width="50" height="50" viewBox="0 0 50 50" fill="none" xmlns="http://www.w3.org/2000/svg">
<path d="M33.7273 20.6364L22.8182 31.5455L18.4545 27.1818M16.2661 7.18283L12.2069 6.62472C8.95677 6.17784 6.17784 8.95677 6.62472 12.2069L7.18283 16.2661C7.30475 17.1528 6.93879 18.0363 6.22559 18.5771L2.96065 21.0528C0.346449 23.035 0.346449 26.965 2.96065 28.9472L6.22559 31.4229C6.93879 31.9637 7.30475 32.8472 7.18283 33.7339L6.62472 37.7931C6.17784 41.0432 8.95677 43.8222 12.2069 43.3753L16.2661 42.8172C17.1528 42.6953 18.0363 43.0612 18.5771 43.7744L21.0528 47.0393C23.035 49.6535 26.965 49.6535 28.9472 47.0393L31.4229 43.7744C31.9637 43.0612 32.8472 42.6953 33.7339 42.8172L37.7931 43.3753C41.0432 43.8222 43.8222 41.0432 43.3753 37.7931L42.8172 33.7339C42.6953 32.8472 43.0612 31.9637 43.7744 31.4229L47.0393 28.9472C49.6535 26.965 49.6535 23.035 47.0393 21.0528L43.7744 18.5771C43.0612 18.0363 42.6953 17.1528 42.8172 16.2661L43.3753 12.2069C43.8222 8.95677 41.0432 6.17784 37.7931 6.62472L33.7339 7.18283C32.8472 7.30475 31.9637 6.93879 31.4229 6.22559L28.9472 2.96065C26.965 0.346449 23.035 0.346449 21.0528 2.96065L18.5771 6.22559C18.0363 6.93879 17.1528 7.30475 16.2661 7.18283Z" stroke="url(#paint0_linear_554_1101)" stroke-width="2"/>
<defs>
<linearGradient id="paint0_linear_554_1101" x1="0.699992" y1="45.5261" x2="51.432" y2="3.57823" gradientUnits="userSpaceOnUse">
<stop stop-color="#00A983"/>
<stop offset="1" stop-color="#3162AC"/>
</linearGradient>
</defs>
</svg>
