<svg width="64" height="64" viewBox="0 0 64 64" fill="none" xmlns="http://www.w3.org/2000/svg">
<path d="M8.8152 39.7368V58.3623C8.8152 58.7143 9.10427 59 9.4604 59H54.5448C54.901 59 55.19 58.7143 55.19 58.3623L55.1904 39.7368H58.3548C58.5672 39.7368 58.7656 39.6332 58.8865 39.4605C59.0066 39.2874 59.0336 39.0668 58.9569 38.8707L55.1421 29.0227C55.0464 28.7755 54.8066 28.613 54.5395 28.613H52.1322V8.74795C52.1322 6.68139 50.4305 5 48.34 5L15.6637 5.00041C13.5732 5.00041 11.8715 6.6818 11.8715 8.74836V28.6134H9.46007C9.19297 28.6134 8.9536 28.7763 8.85752 29.0231L5.04306 38.8711C4.96645 39.0672 4.99337 39.2878 5.11346 39.4609C5.2348 39.6332 5.43316 39.7368 5.64561 39.7368H8.8152ZM10.1059 39.7401H35.6336C35.9007 39.7401 36.1409 39.5768 36.2361 39.3304L38.8029 32.7002V57.7246H10.1054L10.1059 39.7401ZM25.9946 25.0668L24.8434 23.3474L25.9913 22.2169L27.7265 23.3551C27.9364 23.4914 28.2064 23.4971 28.4197 23.3678C28.9912 23.0232 29.6256 22.7653 30.3044 22.6016C30.5479 22.5431 30.7355 22.3499 30.7843 22.1072L31.1927 20.0902H32.8086L33.2218 22.1088C33.2715 22.3512 33.4587 22.5435 33.7018 22.6016C34.3739 22.7637 35.0059 23.0212 35.5807 23.3678C35.7948 23.4964 36.064 23.4927 36.2732 23.3556L38.0141 22.2165L39.1621 23.347L38.005 25.0734C37.8663 25.2797 37.8613 25.5465 37.9918 25.7577C38.3396 26.3209 38.6034 26.9472 38.7749 27.6192C38.8362 27.8575 39.0304 28.04 39.2747 28.0879L41.3218 28.4919V28.6081H36.8626C36.5213 26.2555 34.4577 24.4329 31.9941 24.4329C29.5329 24.4329 27.4719 26.2551 27.1314 28.6081H22.6858V28.4915L24.7274 28.0879C24.9734 28.0392 25.1693 27.8534 25.2281 27.6115C25.3867 26.9591 25.6422 26.35 26.0096 25.7484C26.1383 25.5376 26.1326 25.2724 25.9946 25.0669L25.9946 25.0668ZM31.9932 25.7086C33.7479 25.7086 35.2208 26.9638 35.5472 28.6129H28.4454C28.7704 26.9643 30.2406 25.7086 31.9932 25.7086ZM53.9004 57.7238H40.0939V32.6994L42.6606 39.3295C42.7554 39.5763 42.9961 39.7392 43.2632 39.7392H53.8998L53.9004 57.7238ZM57.418 38.4612H43.708L40.3892 29.8886H54.0982L57.418 38.4612ZM13.1637 8.74796C13.1637 7.38457 14.2855 6.2758 15.665 6.2758H48.3413C49.7212 6.2758 50.8426 7.38499 50.8426 8.74796V12.5585H13.1635L13.1637 8.74796ZM13.1637 13.8343H50.8428V28.6133H42.6117V27.9691C42.6117 27.665 42.3938 27.4031 42.0923 27.3437L39.9153 26.914C39.7567 26.4003 39.5505 25.9104 39.3003 25.4503L40.5295 23.6167C40.6993 23.3633 40.6649 23.0269 40.4471 22.8124L38.5525 20.9461C38.3367 20.732 37.9971 20.6997 37.7408 20.8659L35.8921 22.0749C35.4233 21.8248 34.9267 21.6226 34.4083 21.47L33.9689 19.3257C33.9076 19.0285 33.643 18.8145 33.3361 18.8145H30.6633C30.3556 18.8145 30.091 19.0289 30.0305 19.3273L29.5969 21.4699C29.0751 21.6234 28.577 21.8256 28.109 22.0744L26.2661 20.8662C26.0098 20.6984 25.6702 20.7316 25.4536 20.9461L23.559 22.8124C23.3412 23.0264 23.3068 23.3629 23.4766 23.6162L24.6999 25.4441C24.4411 25.9193 24.2336 26.4117 24.0816 26.9147L21.9128 27.3436C21.6114 27.403 21.3944 27.6649 21.3944 27.969V28.6133H13.1632L13.1637 13.8343ZM9.90536 29.8885H38.5106L35.1919 38.4611L6.58452 38.4607L9.90536 29.8885Z" fill="url(#paint0_linear_1407_1500)"/>
<path d="M48.1679 8.77946H35.3272C34.971 8.77946 34.682 9.06515 34.682 9.41713C34.682 9.76912 34.971 10.0548 35.3272 10.0548H48.1679C48.524 10.0548 48.8131 9.76912 48.8131 9.41713C48.8131 9.06515 48.524 8.77946 48.1679 8.77946Z" fill="url(#paint1_linear_1407_1500)"/>
<path d="M17.0394 7.77298C16.1225 7.77298 15.3766 8.51053 15.3766 9.41675C15.3766 10.3233 16.1229 11.0605 17.0394 11.0605C17.9571 11.0605 18.7029 10.323 18.7029 9.41675C18.7029 8.51053 17.957 7.77298 17.0394 7.77298ZM17.0394 9.78547C16.8344 9.78547 16.6671 9.62012 16.6671 9.41711C16.6671 9.2141 16.8344 9.04875 17.0394 9.04875C17.2452 9.04875 17.4125 9.2141 17.4125 9.41711C17.4125 9.62012 17.2452 9.78547 17.0394 9.78547Z" fill="url(#paint2_linear_1407_1500)"/>
<path d="M23.0537 7.77298C22.1368 7.77298 21.3909 8.51053 21.3909 9.41675C21.3909 10.3233 22.1372 11.0605 23.0537 11.0605C23.9714 11.0605 24.7172 10.323 24.7172 9.41675C24.7176 8.51058 23.9714 7.77298 23.0537 7.77298ZM23.0537 9.78547C22.8487 9.78547 22.6814 9.62012 22.6814 9.41711C22.6814 9.2141 22.8487 9.04875 23.0537 9.04875C23.2595 9.04875 23.4268 9.2141 23.4268 9.41711C23.4268 9.62012 23.2595 9.78547 23.0537 9.78547Z" fill="url(#paint3_linear_1407_1500)"/>
<path d="M29.068 7.77298C28.1511 7.77298 27.4052 8.51053 27.4052 9.41675C27.4052 10.3233 28.1515 11.0605 29.068 11.0605C29.9857 11.0605 30.7315 10.323 30.7315 9.41675C30.7315 8.51053 29.9852 7.77298 29.068 7.77298ZM29.068 9.78547C28.863 9.78547 28.6957 9.62012 28.6957 9.41711C28.6957 9.2141 28.863 9.04875 29.068 9.04875C29.2738 9.04875 29.4411 9.2141 29.4411 9.41711C29.4411 9.62012 29.2738 9.78547 29.068 9.78547Z" fill="url(#paint4_linear_1407_1500)"/>
<defs>
<linearGradient id="paint0_linear_1407_1500" x1="5" y1="59" x2="59" y2="5" gradientUnits="userSpaceOnUse">
<stop stop-color="#19C8A2"/>
<stop offset="1" stop-color="#5694F2"/>
</linearGradient>
<linearGradient id="paint1_linear_1407_1500" x1="5" y1="59" x2="59" y2="5" gradientUnits="userSpaceOnUse">
<stop stop-color="#19C8A2"/>
<stop offset="1" stop-color="#5694F2"/>
</linearGradient>
<linearGradient id="paint2_linear_1407_1500" x1="5" y1="59" x2="59" y2="5" gradientUnits="userSpaceOnUse">
<stop stop-color="#19C8A2"/>
<stop offset="1" stop-color="#5694F2"/>
</linearGradient>
<linearGradient id="paint3_linear_1407_1500" x1="5" y1="59" x2="59" y2="5" gradientUnits="userSpaceOnUse">
<stop stop-color="#19C8A2"/>
<stop offset="1" stop-color="#5694F2"/>
</linearGradient>
<linearGradient id="paint4_linear_1407_1500" x1="5" y1="59" x2="59" y2="5" gradientUnits="userSpaceOnUse">
<stop stop-color="#19C8A2"/>
<stop offset="1" stop-color="#5694F2"/>
</linearGradient>
</defs>
</svg>
