<svg width="64" height="64" viewBox="0 0 64 64" fill="none" xmlns="http://www.w3.org/2000/svg">
<path d="M41.397 54.7788H5.61357C5.26997 54.7788 5 54.4982 5 54.1411V16.2993C5 15.9422 5.26996 15.6616 5.61357 15.6616H19.0265C19.2228 15.6616 19.4069 15.7636 19.5296 15.9294L24.254 22.8932H52.0851C52.4287 22.8932 52.6986 23.1738 52.6986 23.5309V37.1263C52.6986 37.4834 52.4287 37.764 52.0851 37.764C51.7415 37.764 51.4715 37.4834 51.4715 37.1263V24.1687H23.9344C23.738 24.1687 23.554 24.0667 23.4313 23.9009L18.7068 16.9372H6.22741V53.5032H41.3971C41.7407 53.5032 42.0107 53.7838 42.0107 54.1409C42.0107 54.4981 41.7285 54.7787 41.3971 54.7787L41.397 54.7788Z" fill="url(#paint0_linear_1407_1607)"/>
<path d="M37.7159 47.815H5.61468C5.27108 47.815 5.00111 47.5344 5.00111 47.1772C5.00111 46.8201 5.27107 46.5395 5.61468 46.5395H37.7159C38.0595 46.5395 38.3294 46.8201 38.3294 47.1772C38.3294 47.5344 38.0595 47.815 37.7159 47.815Z" fill="url(#paint1_linear_1407_1607)"/>
<path d="M46.4166 50.034C46.257 50.034 46.0975 49.9702 45.9871 49.8427L43.8641 47.6362C43.6187 47.3811 43.6187 46.9858 43.8641 46.7307C44.1096 46.4756 44.49 46.4756 44.7354 46.7307L46.4289 48.4908L51.0183 43.7208C51.2637 43.4657 51.6441 43.4657 51.8896 43.7208C52.135 43.9759 52.135 44.3712 51.8896 44.6263L46.8461 49.8427C46.7234 49.9702 46.5761 50.034 46.4166 50.034Z" fill="url(#paint2_linear_1407_1607)"/>
<path d="M47.6305 56.1431C47.5569 56.1431 47.4833 56.1303 47.4096 56.1048C44.7468 55.0207 42.3661 52.7251 40.8812 49.8299C39.6296 47.3811 38.9178 44.4095 38.8687 41.4633C38.8687 41.1699 39.0528 40.9021 39.335 40.8383C41.372 40.3026 44.3907 39.1802 47.25 36.859C47.4709 36.6805 47.7777 36.6805 47.9986 36.859C50.8577 39.1802 53.8888 40.3026 55.9136 40.8383C56.1835 40.9148 56.3799 41.1699 56.3799 41.4633C56.3431 44.4095 55.6191 47.3811 54.3673 49.8299C52.8825 52.7251 50.5019 55.0209 47.8389 56.1048C47.7776 56.1304 47.704 56.1431 47.6303 56.1431H47.6305ZM40.1082 41.9355C40.2186 44.5119 40.869 47.0882 41.9612 49.2308C43.262 51.7816 45.3236 53.8095 47.6305 54.817C49.9375 53.7967 51.9868 51.7816 53.2999 49.2308C54.392 47.0881 55.0424 44.5246 55.1529 41.9355C53.1159 41.3489 50.3303 40.2392 47.6305 38.1603C44.9309 40.2392 42.1452 41.3489 40.1082 41.9355Z" fill="url(#paint3_linear_1407_1607)"/>
<path d="M47.5816 59C47.5325 59 47.4834 58.9872 47.4343 58.9745C43.8388 57.8521 40.5378 54.9059 38.599 51.1053C36.8074 47.5979 35.9852 43.2361 36.3779 39.1553C36.4024 38.8492 36.6356 38.6068 36.9301 38.5813C36.9914 38.5813 42.7835 37.9181 47.2134 33.3267C47.3239 33.2119 47.4834 33.1354 47.6429 33.1354C47.8024 33.1354 47.962 33.1992 48.0724 33.3267C52.5146 37.9437 58.2944 38.5813 58.3557 38.5813C58.6503 38.6068 58.8834 38.8492 58.908 39.1553C59.2884 43.2365 58.4785 47.5984 56.6868 51.1053C54.7356 54.906 51.4348 57.8521 47.8515 58.9745C47.8024 58.9872 47.7533 59 47.7042 59H47.5816ZM37.5437 39.7666C37.286 43.4653 38.0591 47.3425 39.6666 50.4927C41.4337 53.9491 44.4034 56.6274 47.6307 57.6988C50.8581 56.6274 53.8276 53.9491 55.5947 50.4927C57.2022 47.3424 57.9754 43.4525 57.7176 39.7666C56.1837 39.5115 51.5575 38.4529 47.6307 34.6523C43.7038 38.453 39.0776 39.5116 37.5437 39.7666Z" fill="url(#paint4_linear_1407_1607)"/>
<path d="M49.7297 24.1691C49.3861 24.1691 49.1161 23.8885 49.1161 23.5314V19.0547C49.1161 18.6975 49.3861 18.4169 49.7297 18.4169C50.0733 18.4169 50.3433 18.6975 50.3433 19.0547V23.5314C50.3433 23.8885 50.061 24.1691 49.7297 24.1691Z" fill="url(#paint5_linear_1407_1607)"/>
<path d="M49.7297 19.7053C49.3861 19.7053 49.1161 19.4247 49.1161 19.0676V14.5909C49.1161 14.2338 49.3861 13.9532 49.7297 13.9532C50.0733 13.9532 50.3433 14.2338 50.3433 14.5909V19.0676C50.3433 19.412 50.061 19.7053 49.7297 19.7053Z" fill="url(#paint6_linear_1407_1607)"/>
<path d="M49.7297 15.2287C49.3861 15.2287 49.1161 14.9481 49.1161 14.591V6.27542H26.3036C25.96 6.27542 25.69 5.99483 25.69 5.63771C25.69 5.28058 25.9599 5 26.3036 5H49.7298C50.0734 5 50.3434 5.28058 50.3434 5.63771V14.591C50.3434 14.9354 50.0612 15.2287 49.7298 15.2287L49.7297 15.2287Z" fill="url(#paint7_linear_1407_1607)"/>
<path d="M26.3034 24.1691C25.9598 24.1691 25.6898 23.8885 25.6898 23.5314V5.63779C25.6898 5.28068 25.9598 5.00009 26.3034 5.00009C26.647 5.00009 26.917 5.28067 26.917 5.63779V23.5314C26.917 23.8885 26.6348 24.1691 26.3034 24.1691Z" fill="url(#paint8_linear_1407_1607)"/>
<path d="M45.4708 9.83337H30.5489C30.2053 9.83337 29.9353 9.55279 29.9353 9.19566C29.9353 8.83854 30.2053 8.55795 30.5489 8.55795H45.4708C45.8144 8.55795 46.0844 8.83854 46.0844 9.19566C46.0844 9.55279 45.8144 9.83337 45.4708 9.83337Z" fill="url(#paint9_linear_1407_1607)"/>
<path d="M45.4708 13.4295H30.5489C30.2053 13.4295 29.9353 13.1489 29.9353 12.7917C29.9353 12.4346 30.2053 12.154 30.5489 12.154H45.4708C45.8144 12.154 46.0844 12.4346 46.0844 12.7917C46.0844 13.1489 45.8144 13.4295 45.4708 13.4295Z" fill="url(#paint10_linear_1407_1607)"/>
<path d="M45.4708 17.0268H30.5489C30.2053 17.0268 29.9353 16.7462 29.9353 16.3891C29.9353 16.032 30.2053 15.7514 30.5489 15.7514H45.4708C45.8144 15.7514 46.0844 16.032 46.0844 16.3891C46.0844 16.7462 45.8144 17.0268 45.4708 17.0268Z" fill="url(#paint11_linear_1407_1607)"/>
<path d="M45.4708 20.6102H30.5489C30.2053 20.6102 29.9353 20.3296 29.9353 19.9725C29.9353 19.6154 30.2053 19.3348 30.5489 19.3348H45.4708C45.8144 19.3348 46.0844 19.6154 46.0844 19.9725C46.0844 20.3296 45.8144 20.6102 45.4708 20.6102Z" fill="url(#paint12_linear_1407_1607)"/>
<defs>
<linearGradient id="paint0_linear_1407_1607" x1="5" y1="59" x2="59" y2="5" gradientUnits="userSpaceOnUse">
<stop stop-color="#19C8A2"/>
<stop offset="1" stop-color="#5694F2"/>
</linearGradient>
<linearGradient id="paint1_linear_1407_1607" x1="5" y1="59" x2="59" y2="5" gradientUnits="userSpaceOnUse">
<stop stop-color="#19C8A2"/>
<stop offset="1" stop-color="#5694F2"/>
</linearGradient>
<linearGradient id="paint2_linear_1407_1607" x1="5" y1="59" x2="59" y2="5" gradientUnits="userSpaceOnUse">
<stop stop-color="#19C8A2"/>
<stop offset="1" stop-color="#5694F2"/>
</linearGradient>
<linearGradient id="paint3_linear_1407_1607" x1="5" y1="59" x2="59" y2="5" gradientUnits="userSpaceOnUse">
<stop stop-color="#19C8A2"/>
<stop offset="1" stop-color="#5694F2"/>
</linearGradient>
<linearGradient id="paint4_linear_1407_1607" x1="5" y1="59" x2="59" y2="5" gradientUnits="userSpaceOnUse">
<stop stop-color="#19C8A2"/>
<stop offset="1" stop-color="#5694F2"/>
</linearGradient>
<linearGradient id="paint5_linear_1407_1607" x1="5" y1="59" x2="59" y2="5" gradientUnits="userSpaceOnUse">
<stop stop-color="#19C8A2"/>
<stop offset="1" stop-color="#5694F2"/>
</linearGradient>
<linearGradient id="paint6_linear_1407_1607" x1="5" y1="59" x2="59" y2="5" gradientUnits="userSpaceOnUse">
<stop stop-color="#19C8A2"/>
<stop offset="1" stop-color="#5694F2"/>
</linearGradient>
<linearGradient id="paint7_linear_1407_1607" x1="5" y1="59" x2="59" y2="5" gradientUnits="userSpaceOnUse">
<stop stop-color="#19C8A2"/>
<stop offset="1" stop-color="#5694F2"/>
</linearGradient>
<linearGradient id="paint8_linear_1407_1607" x1="5" y1="59" x2="59" y2="5" gradientUnits="userSpaceOnUse">
<stop stop-color="#19C8A2"/>
<stop offset="1" stop-color="#5694F2"/>
</linearGradient>
<linearGradient id="paint9_linear_1407_1607" x1="5" y1="59" x2="59" y2="5" gradientUnits="userSpaceOnUse">
<stop stop-color="#19C8A2"/>
<stop offset="1" stop-color="#5694F2"/>
</linearGradient>
<linearGradient id="paint10_linear_1407_1607" x1="5" y1="59" x2="59" y2="5" gradientUnits="userSpaceOnUse">
<stop stop-color="#19C8A2"/>
<stop offset="1" stop-color="#5694F2"/>
</linearGradient>
<linearGradient id="paint11_linear_1407_1607" x1="5" y1="59" x2="59" y2="5" gradientUnits="userSpaceOnUse">
<stop stop-color="#19C8A2"/>
<stop offset="1" stop-color="#5694F2"/>
</linearGradient>
<linearGradient id="paint12_linear_1407_1607" x1="5" y1="59" x2="59" y2="5" gradientUnits="userSpaceOnUse">
<stop stop-color="#19C8A2"/>
<stop offset="1" stop-color="#5694F2"/>
</linearGradient>
</defs>
</svg>
