<svg width="64" height="64" viewBox="0 0 64 64" fill="none" xmlns="http://www.w3.org/2000/svg">
<path d="M39.6216 27.3635H22.5906C18.5902 27.3635 15.3353 24.2594 15.3353 20.4442C15.3353 18.5967 16.0899 16.8588 17.4601 15.5517C18.831 14.2446 20.6534 13.5249 22.5906 13.5249H24.0452C23.9146 13.002 23.8494 12.4655 23.8494 11.9207C23.8494 8.10462 27.1047 5 31.1061 5C35.1074 5 38.3628 8.10462 38.3628 11.9207C38.3628 12.4655 38.2971 13.0024 38.167 13.5249H39.6216C43.6225 13.5249 46.8769 16.6291 46.8769 20.4442C46.8769 22.2922 46.1222 24.0297 44.7521 25.3371C43.3807 26.6438 41.5588 27.3635 39.6216 27.3635ZM22.5906 14.7523C20.9966 14.7523 19.4979 15.3444 18.37 16.4196C17.2431 17.4948 16.6222 18.9246 16.6222 20.4447C16.6222 23.5835 19.2994 26.1368 22.5907 26.1368H39.6217C41.2157 26.1368 42.7144 25.5446 43.8423 24.4694C44.9692 23.3942 45.5901 21.9645 45.5901 20.4443C45.5901 17.3059 42.9124 14.7523 39.6216 14.7523H37.2988C37.0878 14.7523 36.8898 14.6537 36.7698 14.488C36.6494 14.3223 36.6223 14.111 36.6967 13.9225C36.9486 13.2839 37.0764 12.6102 37.0764 11.9207C37.0764 8.78141 34.3982 6.2274 31.1066 6.2274C27.815 6.2274 25.1369 8.78152 25.1369 11.9207C25.1369 12.6102 25.2646 13.2838 25.5165 13.923C25.5909 14.1115 25.5634 14.3227 25.4434 14.4884C25.323 14.6541 25.1254 14.7527 24.9144 14.7527L22.5906 14.7523Z" fill="url(#paint0_linear_1407_1722)"/>
<path d="M31.1067 35.7142C30.7514 35.7142 30.4632 35.4394 30.4632 35.1005V26.7501C30.4632 26.4113 30.7514 26.1365 31.1067 26.1365C31.462 26.1365 31.7501 26.4113 31.7501 26.7501V35.1005C31.7501 35.4394 31.462 35.7142 31.1067 35.7142Z" fill="url(#paint1_linear_1407_1722)"/>
<path d="M51.8911 35.7142C51.5358 35.7142 51.2476 35.4394 51.2476 35.1006V31.5388H40.5421C40.1868 31.5388 39.8986 31.264 39.8986 30.9251V26.7497C39.8986 26.4109 40.1868 26.136 40.5421 26.136C40.8974 26.136 41.1855 26.4109 41.1855 26.7497V30.3115H51.8911C52.2463 30.3115 52.5345 30.5863 52.5345 30.9251V35.1006C52.5345 35.4394 52.2463 35.7142 51.8911 35.7142Z" fill="url(#paint2_linear_1407_1722)"/>
<path d="M10.3164 35.7142C9.96116 35.7142 9.67298 35.4394 9.67298 35.1006V30.9251C9.67298 30.5863 9.96115 30.3115 10.3164 30.3115H21.0219V26.7497C21.0219 26.4109 21.3101 26.136 21.6654 26.136C22.0207 26.136 22.3088 26.4109 22.3088 26.7497V30.9251C22.3088 31.264 22.0207 31.5388 21.6654 31.5388H10.9599V35.1006C10.9599 35.4394 10.6722 35.7142 10.3164 35.7142Z" fill="url(#paint3_linear_1407_1722)"/>
<path d="M10.3164 38.9671C9.02124 38.9671 7.96785 37.9621 7.96785 36.7273C7.96785 35.4921 9.02172 34.4871 10.3164 34.4871C11.6116 34.4871 12.665 35.4921 12.665 36.7273C12.6655 37.9621 11.6116 38.9671 10.3164 38.9671ZM10.3164 35.7144C9.73089 35.7144 9.25475 36.169 9.25475 36.7274C9.25475 37.2858 9.73136 37.7399 10.3164 37.7399C10.902 37.7399 11.3781 37.2858 11.3781 36.7274C11.3786 36.1689 10.902 35.7144 10.3164 35.7144Z" fill="url(#paint4_linear_1407_1722)"/>
<path d="M31.1043 38.9671C29.8091 38.9671 28.7557 37.9621 28.7557 36.7273C28.7557 35.4921 29.8096 34.4871 31.1043 34.4871C32.3995 34.4871 33.4529 35.4921 33.4529 36.7273C33.4529 37.9621 32.3995 38.9671 31.1043 38.9671ZM31.1043 35.7144C30.5188 35.7144 30.0426 36.169 30.0426 36.7274C30.0426 37.2858 30.5193 37.7399 31.1043 37.7399C31.6899 37.7399 32.166 37.2858 32.166 36.7274C32.166 36.169 31.6899 35.7144 31.1043 35.7144Z" fill="url(#paint5_linear_1407_1722)"/>
<path d="M51.8911 38.9671C50.5959 38.9671 49.5425 37.9621 49.5425 36.7273C49.5425 35.4921 50.5963 34.4871 51.8911 34.4871C53.1862 34.4871 54.2401 35.4921 54.2401 36.7273C54.2396 37.9621 53.1862 38.9671 51.8911 38.9671ZM51.8911 35.7144C51.3055 35.7144 50.8294 36.169 50.8294 36.7274C50.8294 37.2858 51.3055 37.7399 51.8911 37.7399C52.4766 37.7399 52.9532 37.2858 52.9532 36.7274C52.9527 36.1689 52.4766 35.7144 51.8911 35.7144Z" fill="url(#paint6_linear_1407_1722)"/>
<path d="M14.5262 59H6.10719C5.49684 59 5 58.5262 5 57.9441L5.00046 42.3794C5.00046 41.7974 5.4973 41.3235 6.10765 41.3235H14.5267C15.1371 41.3235 15.6339 41.7974 15.6339 42.3794V57.9441C15.6334 58.5262 15.1366 59 14.5262 59ZM6.28744 57.7726H14.3466V42.5503H6.28744V57.7726Z" fill="url(#paint7_linear_1407_1722)"/>
<path d="M14.9898 45.0747H5.64373C5.28846 45.0747 5.00028 44.7999 5.00028 44.4611C5.00028 44.1223 5.28845 43.8474 5.64373 43.8474H14.9898C15.3451 43.8474 15.6333 44.1223 15.6333 44.4611C15.6333 44.7999 15.3451 45.0747 14.9898 45.0747Z" fill="url(#paint8_linear_1407_1722)"/>
<path d="M14.9898 56.4775H5.64373C5.28846 56.4775 5.00028 56.2027 5.00028 55.8639C5.00028 55.5251 5.28845 55.2502 5.64373 55.2502H14.9898C15.3451 55.2502 15.6333 55.5251 15.6333 55.8639C15.6333 56.2027 15.3451 56.4775 14.9898 56.4775Z" fill="url(#paint9_linear_1407_1722)"/>
<path d="M57.8928 59H45.8269C45.2166 59 44.7197 58.5262 44.7197 57.9441V42.3794C44.7197 41.7974 45.2166 41.3235 45.8269 41.3235H57.8928C58.5032 41.3235 59 41.7974 59 42.3794V57.9441C58.9995 58.5262 58.5032 59 57.8928 59ZM46.0069 57.7726H57.7126V42.5503H46.0069V57.7726Z" fill="url(#paint10_linear_1407_1722)"/>
<path d="M55.9173 56.6144H47.8021C47.4468 56.6144 47.1586 56.3396 47.1586 56.0008V44.3242C47.1586 43.9854 47.4468 43.7106 47.8021 43.7106H55.9173C56.2726 43.7106 56.5608 43.9854 56.5608 44.3242V56.0008C56.5608 56.3396 56.2726 56.6144 55.9173 56.6144ZM48.4455 55.3871H55.2738V44.938H48.4455V55.3871Z" fill="url(#paint11_linear_1407_1722)"/>
<path d="M40.0911 55.6483H22.1199C21.2642 55.6483 20.5683 54.9842 20.5683 54.1685V42.8039C20.5683 41.9877 21.2646 41.3237 22.1199 41.3237L40.0911 41.3241C40.9464 41.3241 41.6428 41.9882 41.6428 42.8043V54.1689C41.6432 54.9846 40.9469 55.6487 40.0911 55.6487V55.6483ZM22.1199 42.5512C21.9738 42.5512 21.8552 42.6647 21.8552 42.8041V54.1687C21.8552 54.3081 21.9738 54.4212 22.1199 54.4212H40.0911C40.2373 54.4212 40.3558 54.3081 40.3558 54.1687L40.3563 42.8041C40.3563 42.6647 40.2377 42.5512 40.0916 42.5512H22.1199Z" fill="url(#paint12_linear_1407_1722)"/>
<path d="M41.0006 53.0865H21.2128C20.8575 53.0865 20.5693 52.8117 20.5693 52.4729C20.5693 52.1341 20.8575 51.8592 21.2128 51.8592H41.0006C41.3559 51.8592 41.644 52.1341 41.644 52.4729C41.6436 52.8121 41.3559 53.0865 41.0006 53.0865Z" fill="url(#paint13_linear_1407_1722)"/>
<path d="M29.6477 59C29.2925 59 29.0043 58.7252 29.0043 58.3863V55.0341C29.0043 54.6952 29.2924 54.4204 29.6477 54.4204C30.003 54.4204 30.2912 54.6952 30.2912 55.0341V58.3863C30.2912 58.7251 30.003 59 29.6477 59Z" fill="url(#paint14_linear_1407_1722)"/>
<path d="M32.5645 59C32.2092 59 31.921 58.7252 31.921 58.3863V55.0341C31.921 54.6952 32.2092 54.4204 32.5645 54.4204C32.9197 54.4204 33.2079 54.6952 33.2079 55.0341V58.3863C33.2079 58.7251 32.9197 59 32.5645 59Z" fill="url(#paint15_linear_1407_1722)"/>
<path d="M34.7588 59H27.4548C27.0995 59 26.8114 58.7252 26.8114 58.3863C26.8114 58.0475 27.0995 57.7727 27.4548 57.7727H34.7588C35.1141 57.7727 35.4023 58.0475 35.4023 58.3863C35.4023 58.7252 35.1141 59 34.7588 59Z" fill="url(#paint16_linear_1407_1722)"/>
<defs>
<linearGradient id="paint0_linear_1407_1722" x1="5" y1="59" x2="59" y2="5" gradientUnits="userSpaceOnUse">
<stop stop-color="#19C8A2"/>
<stop offset="1" stop-color="#5694F2"/>
</linearGradient>
<linearGradient id="paint1_linear_1407_1722" x1="5" y1="59" x2="59" y2="5" gradientUnits="userSpaceOnUse">
<stop stop-color="#19C8A2"/>
<stop offset="1" stop-color="#5694F2"/>
</linearGradient>
<linearGradient id="paint2_linear_1407_1722" x1="5" y1="59" x2="59" y2="5" gradientUnits="userSpaceOnUse">
<stop stop-color="#19C8A2"/>
<stop offset="1" stop-color="#5694F2"/>
</linearGradient>
<linearGradient id="paint3_linear_1407_1722" x1="5" y1="59" x2="59" y2="5" gradientUnits="userSpaceOnUse">
<stop stop-color="#19C8A2"/>
<stop offset="1" stop-color="#5694F2"/>
</linearGradient>
<linearGradient id="paint4_linear_1407_1722" x1="5" y1="59" x2="59" y2="5" gradientUnits="userSpaceOnUse">
<stop stop-color="#19C8A2"/>
<stop offset="1" stop-color="#5694F2"/>
</linearGradient>
<linearGradient id="paint5_linear_1407_1722" x1="5" y1="59" x2="59" y2="5" gradientUnits="userSpaceOnUse">
<stop stop-color="#19C8A2"/>
<stop offset="1" stop-color="#5694F2"/>
</linearGradient>
<linearGradient id="paint6_linear_1407_1722" x1="5" y1="59" x2="59" y2="5" gradientUnits="userSpaceOnUse">
<stop stop-color="#19C8A2"/>
<stop offset="1" stop-color="#5694F2"/>
</linearGradient>
<linearGradient id="paint7_linear_1407_1722" x1="5" y1="59" x2="59" y2="5" gradientUnits="userSpaceOnUse">
<stop stop-color="#19C8A2"/>
<stop offset="1" stop-color="#5694F2"/>
</linearGradient>
<linearGradient id="paint8_linear_1407_1722" x1="5" y1="59" x2="59" y2="5" gradientUnits="userSpaceOnUse">
<stop stop-color="#19C8A2"/>
<stop offset="1" stop-color="#5694F2"/>
</linearGradient>
<linearGradient id="paint9_linear_1407_1722" x1="5" y1="59" x2="59" y2="5" gradientUnits="userSpaceOnUse">
<stop stop-color="#19C8A2"/>
<stop offset="1" stop-color="#5694F2"/>
</linearGradient>
<linearGradient id="paint10_linear_1407_1722" x1="5" y1="59" x2="59" y2="5" gradientUnits="userSpaceOnUse">
<stop stop-color="#19C8A2"/>
<stop offset="1" stop-color="#5694F2"/>
</linearGradient>
<linearGradient id="paint11_linear_1407_1722" x1="5" y1="59" x2="59" y2="5" gradientUnits="userSpaceOnUse">
<stop stop-color="#19C8A2"/>
<stop offset="1" stop-color="#5694F2"/>
</linearGradient>
<linearGradient id="paint12_linear_1407_1722" x1="5" y1="59" x2="59" y2="5" gradientUnits="userSpaceOnUse">
<stop stop-color="#19C8A2"/>
<stop offset="1" stop-color="#5694F2"/>
</linearGradient>
<linearGradient id="paint13_linear_1407_1722" x1="5" y1="59" x2="59" y2="5" gradientUnits="userSpaceOnUse">
<stop stop-color="#19C8A2"/>
<stop offset="1" stop-color="#5694F2"/>
</linearGradient>
<linearGradient id="paint14_linear_1407_1722" x1="5" y1="59" x2="59" y2="5" gradientUnits="userSpaceOnUse">
<stop stop-color="#19C8A2"/>
<stop offset="1" stop-color="#5694F2"/>
</linearGradient>
<linearGradient id="paint15_linear_1407_1722" x1="5" y1="59" x2="59" y2="5" gradientUnits="userSpaceOnUse">
<stop stop-color="#19C8A2"/>
<stop offset="1" stop-color="#5694F2"/>
</linearGradient>
<linearGradient id="paint16_linear_1407_1722" x1="5" y1="59" x2="59" y2="5" gradientUnits="userSpaceOnUse">
<stop stop-color="#19C8A2"/>
<stop offset="1" stop-color="#5694F2"/>
</linearGradient>
</defs>
</svg>
