<svg width="24" height="24" viewBox="0 0 24 24" fill="none" xmlns="http://www.w3.org/2000/svg">
<path fill-rule="evenodd" clip-rule="evenodd" d="M0 12C0 18.6274 5.37258 24 12 24C18.6274 24 24 18.6274 24 12C24 5.37259 18.6274 0 12 0C5.37258 0 0 5.37259 0 12ZM18.1728 12.0667C18.1728 12.5104 18.1247 12.9422 18.0321 13.3591C18.2676 13.8265 18.4001 14.3525 18.4001 14.9097C18.4001 16.8372 16.8151 18.4003 14.8599 18.4003C14.2541 18.4003 13.6851 18.2497 13.1862 17.9856C12.8234 18.0516 12.4501 18.0865 12.0678 18.0865C8.69624 18.0865 5.96284 15.3919 5.96284 12.0667C5.96284 11.6528 6.00574 11.2477 6.08627 10.8575C5.77771 10.3381 5.6001 9.73569 5.6001 9.09174C5.6001 7.16278 7.18505 5.60034 9.14102 5.60034C9.83265 5.60034 10.4784 5.79694 11.024 6.13599C11.3642 6.07812 11.7126 6.0477 12.0678 6.0477C15.4402 6.0477 18.1728 8.74304 18.1728 12.0667Z" fill="#1F5069"/>
<path d="M15.1994 14.9439C14.9171 15.3386 14.5002 15.6502 13.9583 15.8713C13.4233 16.0909 12.7821 16.2029 12.0513 16.2029C11.1745 16.2029 10.4392 16.0508 9.86502 15.7503C9.45486 15.5322 9.11695 15.2369 8.86032 14.8704C8.60068 14.5025 8.46973 14.1367 8.46973 13.7828C8.46973 13.5632 8.55552 13.3718 8.7241 13.2153C8.89118 13.0595 9.10566 12.9816 9.36154 12.9816C9.57076 12.9816 9.75213 13.0431 9.89889 13.1656C10.0396 13.2835 10.16 13.4579 10.2571 13.6812C10.3655 13.926 10.4829 14.1322 10.6071 14.2932C10.7275 14.4505 10.8998 14.5818 11.1196 14.685C11.3408 14.7873 11.6396 14.8408 12.0061 14.8408C12.5111 14.8408 12.925 14.7339 13.2359 14.5247C13.5407 14.3207 13.6882 14.0744 13.6882 13.7732C13.6882 13.5365 13.6106 13.3495 13.4526 13.2026C13.2855 13.0498 13.0665 12.9311 12.8009 12.848C12.5232 12.7634 12.1469 12.6707 11.681 12.5743C11.0466 12.4407 10.5085 12.2827 10.081 12.1024C9.64301 11.9192 9.29005 11.6647 9.03191 11.3464C8.77001 11.0222 8.6368 10.6164 8.6368 10.1393C8.6368 9.6853 8.77603 9.27503 9.05148 8.92188C9.32391 8.57096 9.72278 8.29646 10.2368 8.11024C10.7433 7.92551 11.3454 7.83203 12.028 7.83203C12.5728 7.83203 13.0522 7.89435 13.4526 8.01751C13.8552 8.14066 14.1939 8.30685 14.4603 8.51235C14.729 8.72009 14.9292 8.94043 15.0541 9.17042C15.1805 9.40263 15.2453 9.63336 15.2453 9.85668C15.2453 10.0718 15.161 10.2677 14.9947 10.4376C14.8276 10.6097 14.6161 10.6965 14.3678 10.6965C14.142 10.6965 13.9644 10.6416 13.8424 10.5348C13.7281 10.4346 13.6091 10.2788 13.4774 10.0562C13.3254 9.77136 13.141 9.54656 12.9296 9.3878C12.7241 9.23348 12.3817 9.15632 11.9098 9.15632C11.4733 9.15632 11.1166 9.24238 10.8524 9.41376C10.598 9.57772 10.4739 9.76691 10.4739 9.99096C10.4739 10.1275 10.5138 10.2425 10.5965 10.3404C10.6823 10.4457 10.805 10.5363 10.96 10.6134C11.1203 10.6928 11.2859 10.7566 11.4515 10.8011C11.6208 10.8479 11.9053 10.9169 12.2959 11.0059C12.7903 11.1097 13.2441 11.2277 13.6453 11.3546C14.0524 11.4822 14.4031 11.6395 14.6906 11.8242C14.9826 12.0119 15.2137 12.2523 15.3785 12.5401C15.5433 12.8302 15.6268 13.1863 15.6268 13.601C15.6268 14.0966 15.4823 14.5485 15.1994 14.9439Z" fill="#1F5069"/>
</svg>
