<svg width="150" height="40" viewBox="0 0 150 40" fill="none" xmlns="http://www.w3.org/2000/svg">
<g clip-path="url(#clip0_373_1017)">
<path d="M59.4308 15.2793H61.4618V24.636H59.4308V23.2885C58.6594 24.3554 57.5686 24.8793 56.1395 24.8793C54.8417 24.8793 53.7507 24.4115 52.8291 23.4571C51.9074 22.5027 51.4562 21.3238 51.4562 19.9579C51.4562 18.5729 51.9074 17.4127 52.8291 16.4583C53.7507 15.5038 54.8417 15.0361 56.1395 15.0361C57.5686 15.0361 58.6594 15.56 59.4308 16.6081V15.2793ZM56.4592 22.9519C57.3055 22.9519 58.0198 22.6713 58.5845 22.1097C59.1487 21.5296 59.4308 20.8186 59.4308 19.9579C59.4308 19.0969 59.1487 18.3859 58.5845 17.8244C58.0198 17.2443 57.3055 16.9636 56.4592 16.9636C55.6124 16.9636 54.8979 17.2443 54.3336 17.8244C53.7695 18.3859 53.4873 19.0969 53.4873 19.9579C53.4873 20.8186 53.7695 21.5296 54.3336 22.1097C54.8979 22.6713 55.6124 22.9519 56.4592 22.9519Z" fill="#231F20"/>
<path d="M67.2554 19.0783C68.7036 19.3964 70.5843 19.9953 70.5467 21.9976C70.5467 22.8957 70.1893 23.6067 69.4936 24.1121C68.7978 24.6173 67.9325 24.8793 66.8793 24.8793C65.0171 24.8793 63.6443 24.0559 63.0424 22.6897L64.7918 21.6793C65.1115 22.5777 65.8072 23.0266 66.8793 23.0266C67.9511 23.0266 68.4781 22.6713 68.4781 21.9788C68.4781 21.3799 67.6881 21.0243 66.6911 20.7812C65.2806 20.4255 63.3808 19.8642 63.4184 17.8991C63.4184 17.0384 63.7382 16.3462 64.3967 15.822C65.0548 15.2981 65.8825 15.0361 66.8603 15.0361C68.4215 15.0361 69.6818 15.7661 70.3399 16.9824L68.6283 17.9366C68.3084 17.2257 67.7067 16.8701 66.8603 16.8701C66.0894 16.8701 65.4875 17.207 65.4875 17.862C65.4875 18.4795 66.2775 18.7977 67.2554 19.0783Z" fill="#231F20"/>
<path d="M77.4968 17.2243H75.1647V21.7154C75.1647 22.9132 75.9548 22.8944 77.4968 22.8195V24.6347C74.3937 25.0091 73.1337 24.167 73.1337 21.7154V17.2243H71.4031V15.278H73.1337V13.2571L75.1647 12.6582V15.278H77.4968V17.2243Z" fill="#231F20"/>
<path d="M86.3628 15.2793H88.3943V24.636H86.3628V23.2885C85.5918 24.3554 84.5011 24.8793 83.0715 24.8793C81.7739 24.8793 80.6831 24.4115 79.7616 23.4571C78.84 22.5027 78.3882 21.3238 78.3882 19.9579C78.3882 18.5729 78.84 17.4127 79.7616 16.4583C80.6831 15.5038 81.7739 15.0361 83.0715 15.0361C84.5011 15.0361 85.5918 15.56 86.3628 16.6081V15.2793ZM83.3913 22.9519C84.2375 22.9519 84.9524 22.6713 85.5165 22.1097C86.0807 21.5296 86.3628 20.8186 86.3628 19.9579C86.3628 19.0969 86.0807 18.3859 85.5165 17.8244C84.9524 17.2443 84.2375 16.9636 83.3913 16.9636C82.5449 16.9636 81.8301 17.2443 81.2659 17.8244C80.7017 18.3859 80.4196 19.0969 80.4196 19.9579C80.4196 20.8186 80.7017 21.5296 81.2659 22.1097C81.8301 22.6713 82.5449 22.9519 83.3913 22.9519Z" fill="#231F20"/>
<path d="M99.1851 18.8911V24.636H97.1536V19.0969C97.1536 17.6934 96.345 16.9263 95.0475 16.9263C93.6179 16.9263 92.6586 17.8058 92.6586 19.621V24.636H90.6276V15.2793H92.6586V16.477C93.2795 15.5226 94.2387 15.0361 95.5739 15.0361C97.7369 15.0361 99.1851 16.4957 99.1851 18.8911Z" fill="#231F20"/>
<path d="M108.721 15.2793H110.752V24.636H108.721V23.2885C107.95 24.3554 106.859 24.8793 105.429 24.8793C104.132 24.8793 103.041 24.4115 102.119 23.4571C101.198 22.5027 100.746 21.3238 100.746 19.9579C100.746 18.5729 101.198 17.4127 102.119 16.4583C103.041 15.5038 104.132 15.0361 105.429 15.0361C106.859 15.0361 107.95 15.56 108.721 16.6081V15.2793ZM105.749 22.9519C106.596 22.9519 107.311 22.6713 107.875 22.1097C108.439 21.5296 108.721 20.8186 108.721 19.9579C108.721 19.0969 108.439 18.3859 107.875 17.8244C107.311 17.2443 106.596 16.9636 105.749 16.9636C104.902 16.9636 104.188 17.2443 103.624 17.8244C103.059 18.3859 102.778 19.0969 102.778 19.9579C102.778 20.8186 103.059 21.5296 103.624 22.1097C104.188 22.6713 104.902 22.9519 105.749 22.9519Z" fill="#231F20"/>
<path d="M126.383 18.8905V24.6354H124.352V19.0962C124.352 17.6929 123.543 16.9257 122.246 16.9257C120.816 16.9257 119.856 17.8052 119.856 19.6204V24.6354H117.826V11.5361H119.856V16.4764C120.478 15.522 121.436 15.0355 122.772 15.0355C124.935 15.0355 126.383 16.4951 126.383 18.8905Z" fill="#231F20"/>
<path d="M134.854 15.2783H136.885V24.635H134.854V23.4374C134.234 24.3918 133.275 24.8782 131.939 24.8782C129.777 24.8782 128.328 23.4187 128.328 21.0233V15.2783H130.359V20.8176C130.359 22.221 131.169 22.9884 132.466 22.9884C133.896 22.9884 134.854 22.1086 134.854 20.2934V15.2783Z" fill="#231F20"/>
<path d="M147.743 16.4577C148.664 17.4121 149.115 18.5723 149.115 19.9573C149.115 21.3232 148.664 22.5022 147.743 23.4565C146.821 24.411 145.73 24.8787 144.433 24.8787C143.003 24.8787 141.912 24.3548 141.141 23.2879V24.6354H139.11V11.5361H141.141V16.6075C141.912 15.5594 143.003 15.0355 144.433 15.0355C145.73 15.0355 146.821 15.5033 147.743 16.4577ZM144.113 22.9513C144.959 22.9513 145.674 22.6707 146.238 22.1091C146.802 21.529 147.084 20.818 147.084 19.9573C147.084 19.0962 146.802 18.3853 146.238 17.8239C145.674 17.2438 144.959 16.9631 144.113 16.9631C143.266 16.9631 142.551 17.2438 141.987 17.8239C141.423 18.3853 141.141 19.0962 141.141 19.9573C141.141 20.818 141.423 21.529 141.987 22.1091C142.551 22.6707 143.266 22.9513 144.113 22.9513Z" fill="#231F20"/>
<path d="M38.9851 25.4623C38.9551 25.5655 38.9245 25.6683 38.8928 25.7709L38.8623 25.8689C38.8235 25.9921 38.7833 26.1148 38.7421 26.2371L38.7139 26.3205C38.6707 26.4467 38.6262 26.5723 38.5805 26.6974L38.5484 26.7846C38.5029 26.9076 38.4561 27.03 38.4082 27.1518L38.3718 27.2434C38.3233 27.365 38.2738 27.486 38.2228 27.6063L38.1842 27.6966C38.1348 27.812 38.0842 27.9269 38.0328 28.0411L37.9893 28.1364C37.9379 28.2485 37.8856 28.3601 37.8321 28.4712L37.784 28.5706C37.7309 28.6797 37.6767 28.7882 37.6215 28.8961L37.5693 28.9978C37.513 29.1064 37.4556 29.2145 37.3974 29.3219L37.3462 29.4161C37.2858 29.5263 37.2242 29.6356 37.1616 29.7444L37.1052 29.8421C37.043 29.9491 36.9798 30.0553 36.9157 30.1611L36.8571 30.2565C36.7945 30.3586 36.7309 30.46 36.6662 30.5609L36.6 30.6636C36.537 30.7606 36.4732 30.8572 36.4085 30.9532L36.3345 31.0621C36.27 31.1565 36.2045 31.2503 36.1383 31.3435L36.0606 31.4524C35.9938 31.5452 35.9263 31.6373 35.8579 31.7289L35.7792 31.8339C35.7097 31.9257 35.6394 32.0169 35.5684 32.1074L35.4853 32.2126C35.4125 32.3043 35.3387 32.3953 35.2642 32.4858L35.1803 32.5869C35.1101 32.6709 35.0391 32.7543 34.9676 32.8371C34.9338 32.8761 34.9 32.9151 34.8659 32.9538C34.797 33.0324 34.7273 33.1105 34.6571 33.1881L34.5421 33.314C34.4732 33.3889 34.4035 33.4631 34.3334 33.537C34.2938 33.5787 34.2539 33.6203 34.2138 33.6618C34.143 33.735 34.0716 33.8078 33.9997 33.8799C33.9606 33.9192 33.9213 33.9582 33.8819 33.9972C33.8062 34.0719 33.7298 34.1461 33.6529 34.2196L33.5518 34.3158C33.4689 34.3939 33.3852 34.4712 33.3011 34.5479C33.2607 34.5847 33.2198 34.6214 33.1791 34.6578C33.1038 34.7253 33.028 34.7923 32.9516 34.8587C32.9104 34.8946 32.8689 34.9303 32.8273 34.9658C32.7505 35.0313 32.6733 35.0964 32.5955 35.1607C32.5532 35.1958 32.5106 35.231 32.4681 35.2657C32.3876 35.3312 32.3068 35.3958 32.2253 35.4601C32.1857 35.4915 32.1459 35.5229 32.1058 35.554C32.0225 35.6187 31.9385 35.6827 31.854 35.7462C31.8041 35.7836 31.754 35.821 31.7038 35.8581C31.6248 35.9163 31.5453 35.974 31.4653 36.0311C31.4159 36.0664 31.3663 36.1015 31.3166 36.1364C31.2349 36.1938 31.1527 36.2504 31.07 36.3065C31.0186 36.3415 30.967 36.376 30.9152 36.4105C30.8277 36.4688 30.7399 36.5264 30.6514 36.5832C30.6077 36.6114 30.5636 36.6392 30.5195 36.6671C30.4255 36.7265 30.3311 36.7854 30.2361 36.8432C30.1955 36.868 30.1545 36.8924 30.1137 36.9169C30.0199 36.9731 29.9257 37.0285 29.8309 37.0832L29.7075 37.1537C29.6107 37.2086 29.5134 37.2628 29.4156 37.3161L29.2972 37.3801C29.1957 37.4345 29.0937 37.488 28.9913 37.5408L28.8812 37.5971C28.7723 37.6522 28.6629 37.7063 28.553 37.7594L28.4629 37.803C28.3467 37.8585 28.2297 37.9126 28.1121 37.966L28.0168 38.0091C27.8946 38.0637 27.7717 38.1172 27.6483 38.1695L27.5688 38.2028C27.4434 38.2552 27.3172 38.3066 27.1905 38.3565L27.1137 38.3864C26.9897 38.4347 26.8651 38.4819 26.7399 38.5277L26.662 38.5559C26.5366 38.6013 26.4107 38.6454 26.2842 38.6883L26.2078 38.7139C26.08 38.7566 25.9514 38.7982 25.8225 38.8384L25.748 38.8615C25.6179 38.9015 25.4871 38.9401 25.3559 38.9776L25.2835 38.9982C25.1487 39.036 25.0133 39.0725 24.8774 39.1076L24.8161 39.1235C24.6711 39.1604 24.5255 39.1957 24.3793 39.2295L24.3509 39.2361C24.1947 39.2719 24.0378 39.3061 23.8801 39.3382L23.8652 39.3412C23.711 39.3724 23.5561 39.402 23.4007 39.4297L23.3623 39.4363C23.2134 39.4626 23.0639 39.4872 22.914 39.5103L22.8661 39.5174C22.7188 39.5396 22.5711 39.5602 22.4227 39.5791L22.3704 39.5857C22.2225 39.6042 22.0741 39.6211 21.9253 39.6363L21.8741 39.6415C21.7233 39.6565 21.5719 39.6698 21.4201 39.6816L21.376 39.685C21.2203 39.6966 21.0641 39.7064 20.9074 39.7145L20.8761 39.7161C20.7134 39.7243 20.5502 39.7304 20.3866 39.7347L20.3733 39.7351C20.2038 39.7394 20.034 39.7415 19.8636 39.7415C19.6932 39.7415 19.5234 39.7394 19.354 39.7351L19.3404 39.7347C19.1768 39.7305 19.0139 39.7242 18.8514 39.7161L18.8194 39.7145C18.6629 39.7065 18.507 39.6966 18.3513 39.685L18.307 39.6816C18.1552 39.6699 18.0041 39.6564 17.8534 39.6415L17.8016 39.6362C17.6528 39.6211 17.5046 39.6041 17.3568 39.5857L17.3045 39.5791C17.1562 39.5601 17.0084 39.5396 16.8611 39.5174L16.8132 39.5103C16.6637 39.4874 16.5149 39.4628 16.3665 39.4366L16.3258 39.4296C16.1713 39.402 16.0173 39.3727 15.864 39.3415L15.8463 39.338C15.6892 39.3059 15.5329 39.272 15.3772 39.2363L15.3462 39.2291C15.2005 39.1955 15.0555 39.1602 14.9111 39.1235L14.8498 39.1076C14.7138 39.0725 14.5784 39.036 14.4437 38.9982L14.3712 38.9776C14.2404 38.9403 14.1101 38.9018 13.9804 38.8619L13.9042 38.8382C13.776 38.7982 13.6483 38.7571 13.5212 38.7146L13.4414 38.6877C13.3158 38.6452 13.1909 38.6013 13.0665 38.5563L12.9871 38.5276C12.863 38.4822 12.7394 38.4353 12.6164 38.3875L12.535 38.3558C12.4101 38.3066 12.2858 38.2559 12.1621 38.2042L12.0745 38.1675C11.9527 38.1159 11.8316 38.0632 11.711 38.0093L11.6137 37.9654C11.4973 37.9125 11.3815 37.8588 11.2662 37.8038L11.171 37.7577C11.0622 37.7051 10.9539 37.6518 10.8462 37.5973C10.8087 37.5783 10.7714 37.5589 10.734 37.5397C10.6324 37.4873 10.531 37.4343 10.4304 37.3803L10.3096 37.3149C10.2125 37.2619 10.1159 37.2081 10.0198 37.1537L9.89635 37.0832C9.80156 37.0285 9.7073 36.9731 9.61356 36.9169L9.49114 36.8432C9.39658 36.7857 9.30269 36.7272 9.20924 36.6681C9.16233 36.6385 9.11557 36.6089 9.06894 36.5788C8.98281 36.5234 8.8972 36.4672 8.81201 36.4105C8.75948 36.3756 8.70726 36.3404 8.6551 36.3051C8.57392 36.2499 8.49302 36.1943 8.41272 36.1379C8.36226 36.1025 8.31203 36.0669 8.26186 36.0311C8.18193 35.974 8.10244 35.9162 8.0234 35.8581C7.97221 35.8203 7.92137 35.7824 7.87063 35.7442C7.78796 35.682 7.70559 35.6194 7.62396 35.5559C7.58273 35.5239 7.54166 35.4915 7.50074 35.4592C7.4197 35.3953 7.33917 35.3308 7.25916 35.2657C7.21654 35.2309 7.17407 35.1958 7.13174 35.1607C7.05394 35.0964 6.97667 35.0313 6.89991 34.9658C6.85833 34.9303 6.81688 34.8946 6.77558 34.8587C6.69919 34.7923 6.6234 34.7254 6.54805 34.6578C6.50735 34.6214 6.46657 34.5847 6.42608 34.5479C6.34186 34.4712 6.25832 34.3939 6.17543 34.3158L6.07429 34.2196C5.9979 34.1467 5.92218 34.073 5.84698 33.9988C5.80701 33.9593 5.76719 33.9198 5.72752 33.8799C5.65556 33.8078 5.5842 33.735 5.51336 33.6618C5.47332 33.6203 5.43343 33.5787 5.39375 33.537C5.32365 33.4631 5.25413 33.3889 5.18514 33.314L5.07011 33.1881C5.00081 33.1115 4.93204 33.0345 4.86392 32.9569L4.75821 32.8355C4.68729 32.7534 4.61704 32.6708 4.54751 32.5875L4.4602 32.4824C4.3867 32.3932 4.314 32.3033 4.24205 32.2129C4.21324 32.1766 4.18465 32.1402 4.15613 32.1039C4.08831 32.0174 4.02116 31.9303 3.95475 31.8426C3.92497 31.8033 3.89542 31.7638 3.86595 31.7244C3.80012 31.6361 3.73505 31.5472 3.67063 31.4579L3.58501 31.338C3.52162 31.2486 3.4589 31.1587 3.39699 31.0682L3.31433 30.9464C3.25242 30.8545 3.19126 30.762 3.13083 30.6691L3.05673 30.5541C2.99467 30.4571 2.9335 30.3595 2.87314 30.2615L2.8091 30.157C2.74667 30.0542 2.68536 29.9507 2.62478 29.8467L2.56295 29.7398C2.50215 29.634 2.4423 29.5274 2.38343 29.4202L2.32699 29.3166C2.27114 29.2135 2.2161 29.1098 2.16203 29.0056L2.10271 28.8901C2.04952 28.7859 1.99722 28.6812 1.94579 28.5759L1.89165 28.464C1.84053 28.3576 1.79037 28.2507 1.74109 28.1432L1.69123 28.0337C1.64114 27.9226 1.59208 27.811 1.54399 27.6989L1.50263 27.602C1.45239 27.483 1.40333 27.3634 1.35539 27.2434L1.31904 27.1518C1.27117 27.0303 1.22448 26.9081 1.17898 26.7854L1.14529 26.6934C1.10015 26.5696 1.05605 26.4454 1.01328 26.3205L0.98513 26.2371C0.943907 26.1148 0.903868 25.9921 0.864935 25.8689L0.834426 25.7709C0.80266 25.6684 0.772149 25.5654 0.742082 25.4623C0.510706 24.5914 0.962451 23.6708 1.80876 23.3381C6.11544 21.6453 12.6047 20.5677 19.8636 20.5677C27.1226 20.5677 33.6118 21.6453 37.9184 23.3381C38.7648 23.6708 39.2165 24.5914 38.9851 25.4623ZM0.742008 14.4037C0.772371 14.2997 0.803029 14.1957 0.835091 14.0923L0.86405 13.9996C0.903499 13.8746 0.944055 13.7502 0.985868 13.6263L1.01269 13.5468C1.05605 13.42 1.10082 13.2939 1.14669 13.1682L1.17772 13.0836C1.22389 12.959 1.27132 12.835 1.31986 12.7116L1.35443 12.6245C1.40311 12.5025 1.45298 12.3809 1.5041 12.26L1.54185 12.1716C1.59127 12.0564 1.64158 11.9417 1.69308 11.8276L1.73962 11.7255C1.78933 11.6171 1.84001 11.5091 1.89165 11.4016L1.94521 11.2909C1.99722 11.1842 2.05026 11.0781 2.10419 10.9724L2.1596 10.8646C2.21485 10.7582 2.271 10.6522 2.3281 10.5469L2.38335 10.4455C2.44223 10.3383 2.50208 10.2317 2.56295 10.1258L2.62478 10.0189C2.6858 9.91398 2.74771 9.80968 2.81058 9.70611L2.87122 9.60711C2.93239 9.50772 2.99445 9.40879 3.05731 9.31051L3.13083 9.19658C3.19162 9.10294 3.25316 9.00989 3.31551 8.91741L3.39699 8.79738C3.45942 8.70623 3.52265 8.61553 3.58656 8.52542L3.66952 8.40928C3.73452 8.31909 3.80012 8.22941 3.86662 8.14033L3.95016 8.02896C4.01872 7.93834 4.08816 7.8483 4.15827 7.75891L4.24189 7.65292C4.31459 7.5614 4.38809 7.47062 4.46249 7.38044L4.54707 7.27864C4.61822 7.19352 4.69002 7.10898 4.76257 7.02504L4.8606 6.91244C4.93137 6.8318 5.00273 6.75175 5.07476 6.6723L5.18107 6.55594C5.25266 6.4781 5.32498 6.40092 5.39782 6.32425L5.50915 6.20812C5.58162 6.13315 5.65453 6.05876 5.72812 5.98496C5.76756 5.94541 5.80723 5.90602 5.84698 5.86677C5.92218 5.7926 5.9979 5.71887 6.07429 5.64589L6.17543 5.54974C6.25823 5.47168 6.34186 5.39436 6.42608 5.31762C6.46649 5.28079 6.50726 5.24426 6.54805 5.20772C6.62347 5.14024 6.69919 5.07321 6.77558 5.00684C6.81665 4.97119 6.85787 4.93561 6.89925 4.90026C6.97733 4.83359 7.05593 4.76751 7.13498 4.70202C7.17532 4.66864 7.21565 4.63535 7.25629 4.60228C7.33747 4.53604 7.41933 4.47062 7.50162 4.40565C7.54218 4.37367 7.58266 4.34163 7.62344 4.30995C7.70677 4.24526 7.79077 4.18146 7.87513 4.11803C7.92146 4.08326 7.96784 4.04842 8.01447 4.01402C8.0969 3.95316 8.17987 3.89311 8.26327 3.83349C8.31291 3.79799 8.3627 3.76271 8.41272 3.72764C8.49302 3.67134 8.57392 3.61562 8.6551 3.56049C8.70726 3.52507 8.75948 3.48993 8.81201 3.45501C8.89727 3.39835 8.98281 3.34211 9.06894 3.2867C9.11557 3.25671 9.16233 3.227 9.20924 3.19738C9.30269 3.13836 9.39658 3.07986 9.49114 3.0223C9.53148 2.99774 9.57211 2.97349 9.61259 2.94923C9.70797 2.89212 9.80378 2.83574 9.90011 2.78017L10.0156 2.71416C10.1134 2.65875 10.2116 2.60406 10.3104 2.55018L10.4304 2.4852C10.531 2.43125 10.6323 2.37818 10.734 2.32585C10.7714 2.30658 10.8087 2.28725 10.8462 2.26829C10.9539 2.21375 11.0622 2.16046 11.171 2.10783L11.2662 2.06167C11.3814 2.00661 11.4973 1.95295 11.6137 1.90018L11.711 1.85622C11.8316 1.80235 11.9527 1.74964 12.0745 1.69804L12.1621 1.66129C12.2858 1.60962 12.4101 1.5589 12.535 1.50965L12.6164 1.47805C12.7394 1.43019 12.863 1.38337 12.9871 1.33788L13.0665 1.30921C13.1908 1.26422 13.3158 1.22034 13.4414 1.17778L13.5212 1.15095C13.6483 1.10854 13.776 1.0673 13.9042 1.02732L13.9804 1.00365C14.1101 0.963809 14.2404 0.925293 14.3712 0.887953L14.4437 0.867298C14.5784 0.82937 14.7138 0.792986 14.8498 0.757924L14.9111 0.742047C15.0554 0.705221 15.2005 0.670013 15.3462 0.636421L15.3772 0.629145C15.5329 0.593421 15.6892 0.559609 15.8463 0.527562L15.864 0.524034C16.0173 0.492868 16.1713 0.463613 16.3258 0.435975L16.3665 0.428919C16.5149 0.402752 16.6638 0.378201 16.8132 0.355268L16.8611 0.348137C17.0084 0.325939 17.1562 0.305358 17.3045 0.286394L17.3568 0.279852C17.5046 0.261403 17.6528 0.24457 17.8016 0.229281L17.8534 0.224062C18.0041 0.209068 18.1552 0.19569 18.307 0.184003L18.3513 0.180548C18.507 0.168934 18.6629 0.159158 18.8194 0.151073L18.8514 0.149382C19.0139 0.141297 19.1768 0.135049 19.3404 0.130859L19.354 0.130418C19.5233 0.126229 19.6932 0.124023 19.8636 0.124023C20.034 0.124023 20.2038 0.126081 20.3733 0.130418L20.3866 0.130859C20.5502 0.135049 20.7133 0.141223 20.8761 0.149382L20.9074 0.151073C21.0641 0.159158 21.2202 0.168934 21.376 0.180548L21.4201 0.184003C21.5719 0.19569 21.7233 0.208995 21.8741 0.224062L21.9253 0.229208C22.0741 0.244423 22.2225 0.261329 22.3704 0.279852L22.4227 0.286394C22.571 0.305285 22.7188 0.325939 22.8661 0.348137L22.914 0.355268C23.0639 0.378275 23.2134 0.402972 23.3623 0.429213L23.4007 0.435829C23.5561 0.463539 23.711 0.493088 23.8652 0.524401L23.8801 0.527341C24.0378 0.559462 24.1947 0.593495 24.3509 0.629365L24.3793 0.636054C24.5256 0.669793 24.6711 0.705149 24.8161 0.742047L24.8774 0.757924C25.0133 0.792986 25.1487 0.829444 25.2835 0.867298L25.3559 0.887953C25.4871 0.92544 25.6179 0.96403 25.748 1.00402L25.8225 1.0271C25.9514 1.0673 26.08 1.10883 26.2078 1.15161L26.2842 1.17719C26.4107 1.22012 26.5366 1.2643 26.662 1.30965L26.7399 1.3378C26.8652 1.38359 26.9897 1.43086 27.1137 1.47915L27.1905 1.50899C27.3173 1.5589 27.4434 1.61028 27.5688 1.66276L27.6483 1.69606C27.7717 1.74832 27.8946 1.80176 28.0168 1.85645L28.1121 1.89959C28.2297 1.95288 28.3467 2.00706 28.4629 2.06255L28.553 2.10614C28.6629 2.15935 28.7723 2.21331 28.8812 2.26844L28.9913 2.32482C29.0937 2.37752 29.1957 2.43102 29.2972 2.48542L29.4148 2.54908C29.5142 2.60332 29.6133 2.65831 29.7116 2.71416L29.8271 2.78017C29.9234 2.83574 30.0193 2.89212 30.1146 2.94923C30.1551 2.97349 30.1957 2.99774 30.2361 3.0223C30.3311 3.08021 30.4255 3.13902 30.5195 3.19841C30.5636 3.22628 30.6077 3.25413 30.6514 3.28229C30.7399 3.33918 30.8277 3.3968 30.9152 3.45501C30.967 3.48949 31.0186 3.52411 31.07 3.55902C31.1526 3.61511 31.2349 3.67186 31.3166 3.72912C31.3658 3.76366 31.415 3.7985 31.4639 3.83349C31.5473 3.89311 31.6303 3.95316 31.7127 4.01402C31.7585 4.04775 31.8041 4.08187 31.8496 4.11604C31.9356 4.18073 32.0213 4.24584 32.1062 4.31185C32.1459 4.34266 32.1851 4.37367 32.2245 4.40477C32.3071 4.47004 32.3894 4.53575 32.471 4.60228L32.5922 4.70202C32.6713 4.76751 32.7499 4.83359 32.828 4.90026C32.8693 4.93561 32.9106 4.97119 32.9516 5.00684C33.0279 5.07329 33.1038 5.14024 33.1791 5.20772C33.2199 5.24418 33.2606 5.28079 33.3011 5.31762C33.3853 5.39428 33.469 5.47161 33.5518 5.54974L33.6529 5.64589C33.7298 5.71947 33.8062 5.79363 33.8819 5.86838C33.9211 5.90712 33.9603 5.94593 33.9991 5.98496C34.0727 6.05876 34.1456 6.13315 34.218 6.20812C34.2552 6.24671 34.2924 6.28537 34.3294 6.32425C34.4023 6.40092 34.4746 6.4781 34.5461 6.55594L34.6524 6.6723C34.7254 6.75272 34.7975 6.83371 34.8691 6.9153L34.9634 7.02358C35.0366 7.10818 35.1091 7.19345 35.1808 7.27937L35.2621 7.37713C35.3373 7.46849 35.4118 7.56059 35.4855 7.65321L35.5663 7.75553C35.6397 7.84902 35.7124 7.94319 35.784 8.03808L35.8572 8.13569C35.9261 8.22802 35.9942 8.32092 36.0615 8.41449L36.1369 8.51998C36.2036 8.61399 36.2695 8.70844 36.3345 8.80356L36.4073 8.91087C36.4724 9.00731 36.5366 9.10441 36.6 9.20202L36.6657 9.3039C36.7311 9.406 36.7956 9.50869 36.8591 9.61203L36.9141 9.70207C36.9789 9.80858 37.0425 9.91575 37.1052 10.0235L37.1616 10.1212C37.2242 10.2301 37.2858 10.3394 37.3462 10.4496L37.3963 10.5417C37.4558 10.6514 37.5145 10.7618 37.5719 10.8727L37.62 10.9664C37.6759 11.0757 37.7307 11.1857 37.7846 11.2961L37.8321 11.3944C37.8861 11.5065 37.9389 11.6191 37.9908 11.7323L38.0307 11.82C38.0837 11.9374 38.1356 12.0554 38.1864 12.174L38.2214 12.2559C38.2731 12.3782 38.3234 12.5011 38.3727 12.6245L38.4074 12.7116C38.4561 12.8353 38.5035 12.9595 38.5498 13.0844L38.5791 13.1644C38.6255 13.2913 38.6707 13.4187 38.7146 13.5468L38.7414 13.6263C38.7831 13.7502 38.8238 13.8746 38.8631 13.9996L38.8921 14.0923C38.9241 14.1957 38.9549 14.2997 38.9852 14.4037C39.2162 15.2745 38.7646 16.1949 37.9184 16.5274C33.6118 18.2202 27.1226 19.2979 19.8636 19.2979C12.6047 19.2979 6.11544 18.2202 1.80876 16.5274C0.962599 16.1949 0.511002 15.2745 0.742008 14.4037Z" fill="#231F20" fill-opacity="0.1"/>
<path d="M36.5571 22.8477C35.1693 30.7706 28.2238 36.7943 19.8636 36.7943C11.5034 36.7943 4.55785 30.7706 3.17004 22.8477C7.42582 21.44 13.3331 20.5678 19.8636 20.5678C26.3942 20.5678 32.3013 21.44 36.5571 22.8477ZM3.17012 17.0179C4.55792 9.09489 11.5034 3.07129 19.8636 3.07129C28.2238 3.07129 35.1693 9.09489 36.5571 17.0179C32.3013 18.4256 26.3942 19.2979 19.8636 19.2979C13.3331 19.2979 7.42589 18.4256 3.17012 17.0179Z" fill="#231F20" fill-opacity="0.3"/>
<path d="M33.6887 22.0391C32.6681 28.7237 26.8671 33.8463 19.8635 33.8463C12.8602 33.8463 7.05917 28.7237 6.03851 22.0391C9.91664 21.1134 14.6949 20.5668 19.8635 20.5668C25.0324 20.5668 29.8105 21.1134 33.6887 22.0391ZM6.03859 17.8247C7.05924 11.1399 12.8602 6.01758 19.8635 6.01758C26.8671 6.01758 32.668 11.1399 33.6886 17.8247C29.8105 18.7505 25.0324 19.297 19.8635 19.297C14.6949 19.297 9.91672 18.7505 6.03859 17.8247Z" fill="#231F20" fill-opacity="0.3"/>
<path d="M30.781 21.4471C30.0397 26.7873 25.4347 30.9001 19.8636 30.9001C14.2925 30.9001 9.6875 26.7873 8.94617 21.4471C12.2076 20.8856 15.9221 20.5679 19.8636 20.5679C23.8052 20.5679 27.5195 20.8856 30.781 21.4471ZM8.94617 18.4189C9.6875 13.0785 14.2925 8.96582 19.8636 8.96582C25.4347 8.96582 30.0397 13.0785 30.781 18.4189C27.5195 18.9803 23.8052 19.298 19.8636 19.298C15.9221 19.298 12.2076 18.9803 8.94617 18.4189Z" fill="#231F20" fill-opacity="0.3"/>
<path d="M27.8496 21.0239C27.3148 24.9371 23.9436 27.9531 19.8637 27.9531C15.784 27.9531 12.4128 24.9371 11.8778 21.0239C14.3708 20.729 17.0597 20.5681 19.8637 20.5681C22.6677 20.5681 25.3567 20.729 27.8496 21.0239ZM11.8778 18.8423C12.4128 14.929 15.7841 11.9131 19.8637 11.9131C23.9435 11.9131 27.3148 14.929 27.8496 18.8423C25.3567 19.1372 22.6677 19.2982 19.8637 19.2982C17.0597 19.2982 14.3708 19.1372 11.8778 18.8423Z" fill="#231F20"/>
</g>
<defs>
<clipPath id="clip0_373_1017">
<rect width="150" height="40" fill="white"/>
</clipPath>
</defs>
</svg>
