<svg width="200" height="45" viewBox="0 0 200 45" fill="none" xmlns="http://www.w3.org/2000/svg">
<g clip-path="url(#clip0_107_121)">
<path fill-rule="evenodd" clip-rule="evenodd" d="M73.3071 41.2279V19.18H75.5439L88.886 36.8531V19.18H91.2193V41.2371H89.3158L75.6404 23.153V41.2371H73.3071V41.2279ZM64.2281 45H63.6492V15.408H64.2281V45ZM108.526 41.2279V35.6474L98.2106 19.18H101.114L109.772 33.355L118.483 19.18H121.263L110.947 35.6201V41.2279H108.526ZM144.053 38.2505C142.018 40.4881 139.421 41.6024 136.272 41.6024C133.123 41.6024 130.544 40.4881 128.526 38.2596C126.509 36.031 125.5 33.3458 125.5 30.1948C125.5 27.0621 126.518 24.386 128.553 22.1484C130.588 19.9107 133.184 18.7964 136.333 18.7964C139.482 18.7964 142.061 19.9107 144.079 22.1392C146.097 24.3678 147.105 27.053 147.105 30.204C147.105 33.3367 146.088 36.0128 144.053 38.2505ZM130.36 36.6612C131.947 38.424 133.939 39.3099 136.333 39.3099C138.737 39.3099 140.719 38.4331 142.281 36.6795C143.842 34.9259 144.623 32.7704 144.623 30.204C144.623 27.6649 143.833 25.5094 142.246 23.7467C140.658 21.984 138.667 21.098 136.272 21.098C133.868 21.098 131.886 21.9748 130.325 23.7284C128.763 25.482 127.982 27.6375 127.982 30.204C127.982 32.743 128.772 34.8985 130.36 36.6612ZM155.342 41.2279V19.18H157.737V32.3503L169.895 19.18H172.982L163.904 28.8248L173.377 41.2371H170.377L162.237 30.5602L157.728 35.3186V41.2371H155.342V41.2279ZM194.947 35.4008L189.202 21.92L183.421 35.4008L180.912 41.2279H178.465L188.114 19.0156H190.351L200 41.2279H197.43L194.947 35.4008Z" fill="white"/>
<path fill-rule="evenodd" clip-rule="evenodd" d="M22.5876 20.5226V3.76294H29.8859L46.7543 26.8338V10.001C50.0789 14.6225 52.6403 19.4632 54.5701 24.4682V41.2279H47.8333L30.4034 17.4082V34.9898C27.0876 30.3684 24.5175 25.5277 22.5876 20.5226Z" fill="white"/>
<path fill-rule="evenodd" clip-rule="evenodd" d="M76.8772 3.87254C74.9035 6.79521 72.4825 7.19708 69.8772 6.60341C73.3158 5.96408 75.2456 3.67161 75.8597 0C75.8948 1.644 75.886 3.27887 75.0176 4.62147C75.6755 4.51187 76.272 4.19221 76.8772 3.87254ZM54.5702 20.1025V12.1839C54.5702 11.435 54.8597 10.7865 55.4211 10.3115C55.9737 9.83661 56.6404 9.65395 57.3509 9.80008C58.5527 10.0375 59.8158 10.0923 61.0878 10.0923C64.0878 10.0923 66.8071 9.02375 68.7018 7.05094C68.5 6.90481 68.3071 6.75868 68.1141 6.61254C68.6053 5.69921 69.0965 4.79501 69.5965 3.88167C68.2983 4.31094 66.9825 4.42967 65.7106 4.14654C63.1667 3.57114 63.1404 1.3426 57.079 1.3426C51.693 1.3426 46.772 5.35214 46.772 10.0101C49.772 13.1886 52.3597 16.5588 54.5702 20.1025ZM61.9913 3.76294C61.5176 4.14654 61.0176 4.27441 60.4211 4.10087C59.9474 3.96387 59.4649 3.54374 59.2281 3.11447C59.7632 2.14634 61.3685 3.40674 61.9913 3.76294Z" fill="white"/>
<path fill-rule="evenodd" clip-rule="evenodd" d="M0 37.7482C1.97368 40.6708 4.40351 41.0727 7 40.479C3.5614 39.8397 1.63158 37.5472 1.01754 33.8756C0.982456 35.5196 0.982456 37.1545 1.85965 38.4971C1.20175 38.3875 0.605263 38.0587 0 37.7482ZM22.5877 24.8884V32.807C22.5877 33.556 22.2982 34.2044 21.7368 34.6794C21.1842 35.1543 20.5175 35.337 19.807 35.1908C13.7456 35.1908 13.7281 37.4194 11.1754 37.9948C9.90351 38.287 8.57895 38.1592 7.28947 37.7299C7.7807 38.6432 8.27193 39.5474 8.77193 40.4608C8.57018 40.6069 8.37719 40.753 8.18421 40.8992C10.0789 42.872 12.7895 43.9406 15.7982 43.9406C21.4211 43.9406 30.4035 42.6162 30.4035 34.9808C27.386 31.8115 24.7982 28.4322 22.5877 24.8884ZM14.886 37.6386C15.5088 37.2824 17.114 36.022 17.6491 36.9901C17.4123 37.4194 16.9298 37.8486 16.4561 37.9765C15.8509 38.1409 15.3509 38.013 14.886 37.6386Z" fill="white"/>
</g>
<defs>
<clipPath id="clip0_107_121">
<rect width="200" height="45" fill="white"/>
</clipPath>
</defs>
</svg>
