<svg width="259" height="148" viewBox="0 0 259 148" fill="none" xmlns="http://www.w3.org/2000/svg">
<path fill-rule="evenodd" clip-rule="evenodd" d="M76.0793 69.1236V12.6738H100.661L157.477 90.3807V33.6848C168.675 49.2508 177.302 65.5551 183.802 82.4131V138.863H161.111L102.404 58.6335V117.852C91.2362 102.286 82.5794 85.9816 76.0793 69.1236Z" fill="white"/>
<path fill-rule="evenodd" clip-rule="evenodd" d="M258.937 13.0434C252.289 22.8875 244.135 24.2411 235.36 22.2415C246.942 20.0881 253.442 12.3667 255.51 0C255.628 5.53731 255.598 11.0439 252.673 15.566C254.889 15.1968 256.898 14.1201 258.937 13.0434ZM183.803 67.709V41.0376C183.803 38.5151 184.778 36.3309 186.669 34.7312C188.53 33.1316 190.776 32.5163 193.169 33.0085C197.216 33.8083 201.471 33.9929 205.755 33.9929C215.86 33.9929 225.019 30.3937 231.401 23.7489C230.721 23.2567 230.071 22.7645 229.421 22.2723C231.076 19.196 232.73 16.1505 234.414 13.0742C230.041 14.5201 225.61 14.92 221.326 13.9663C212.757 12.0283 212.669 4.52214 192.253 4.52214C174.112 4.52214 157.537 18.027 157.537 33.7161C167.641 44.4215 176.357 55.773 183.803 67.709ZM208.798 12.6743C207.203 13.9663 205.519 14.397 203.51 13.8125C201.914 13.3511 200.289 11.936 199.491 10.4901C201.294 7.22926 206.701 11.4745 208.798 12.6743Z" fill="#3162AC"/>
<path fill-rule="evenodd" clip-rule="evenodd" d="M0 127.142C6.64774 136.986 14.8318 138.34 23.5773 136.34C11.9955 134.187 5.49546 126.465 3.42728 114.099C3.3091 119.636 3.3091 125.143 6.26365 129.665C4.04773 129.296 2.03864 128.188 0 127.142ZM76.0797 83.8281V110.499C76.0797 113.022 75.1047 115.206 73.2138 116.806C71.3524 118.406 69.1069 119.021 66.7138 118.529C46.2978 118.529 46.2387 126.035 37.641 127.973C33.3569 128.957 28.8955 128.527 24.5523 127.081C26.2069 130.157 27.8614 133.202 29.5455 136.279C28.866 136.771 28.216 137.263 27.566 137.755C33.9478 144.4 43.0773 147.999 53.2115 147.999C72.1501 147.999 102.405 143.539 102.405 117.821C92.2411 107.146 83.5251 95.7641 76.0797 83.8281ZM50.1387 126.773C52.2365 125.573 57.6433 121.328 59.4456 124.589C58.6478 126.035 57.0228 127.481 55.4274 127.911C53.3887 128.465 51.7046 128.034 50.1387 126.773Z" fill="#00A983"/>
</svg>
