<svg width="64" height="64" viewBox="0 0 64 64" fill="none" xmlns="http://www.w3.org/2000/svg">
<path d="M58.3617 52.1806H55.9391V23.7056C55.9391 21.4121 54.1426 19.5462 51.9345 19.5462H49.2581V16.8878C49.2581 16.7118 49.1909 16.5435 49.071 16.4193L47.1702 14.445V11.0449H48.8012C49.1532 11.0449 49.4389 10.7481 49.4389 10.3825L49.4393 5.66235C49.4393 5.29674 49.1536 5.00001 48.8016 5.00001H44.263C43.911 5.00001 43.6253 5.29675 43.6253 5.66235V10.3825C43.6253 10.7481 43.911 11.0449 44.263 11.0449H45.8948V14.7193C45.8948 14.8953 45.9619 15.0636 46.0819 15.1878L47.9827 17.1621V19.5462L32.6418 19.5466V11.0449H34.2728C34.6248 11.0449 34.9105 10.7482 34.9105 10.3826L34.9109 5.66242C34.9109 5.29681 34.6252 5.00008 34.2732 5.00008H29.735C29.383 5.00008 29.0973 5.29682 29.0973 5.66242V10.3826C29.0973 10.7482 29.383 11.0449 29.735 11.0449H31.3668V19.5466H16.0249V17.1625L17.9249 15.1882C18.0444 15.0641 18.1119 14.8957 18.1119 14.7197V11.0453H19.7438C20.0958 11.0453 20.3814 10.7486 20.3814 10.383L20.3819 5.66234C20.3819 5.29673 20.0962 5 19.7442 5H15.2059C14.8539 5 14.5682 5.29674 14.5682 5.66234V10.3825C14.5682 10.7481 14.8539 11.0449 15.2059 11.0449H16.8369V14.445L14.937 16.4193C14.8174 16.5435 14.7499 16.7118 14.7499 16.8878V19.5462H12.0727C9.86452 19.5462 8.06806 21.4121 8.06806 23.7056V52.1806H5.63768C5.28568 52.1806 5 52.4773 5 52.8429C5 56.2379 7.65922 59 10.927 59H53.0812C56.3449 59 59 56.2379 59 52.8429C58.9996 52.4773 58.7139 52.1806 58.3619 52.1806L58.3617 52.1806ZM44.9006 6.3251H48.1635V9.72013H44.9006V6.3251ZM30.3717 6.3251H33.6347V9.72013H30.3717V6.3251ZM15.8429 6.3251H19.1059V9.72013H15.8429V6.3251ZM9.34285 23.7056C9.34285 22.1425 10.5671 20.8713 12.0716 20.8713H51.9343C53.4392 20.8713 54.6631 22.1429 54.6631 23.7056V52.1806H37.6205C37.4011 52.1806 37.1977 52.2979 37.0807 52.4901L35.7378 54.7071H26.8413L25.4976 52.4901C25.3806 52.2971 25.1772 52.1806 24.9578 52.1806H9.34237L9.34285 23.7056ZM10.9271 57.6744C8.57858 57.6744 6.63113 55.857 6.31889 53.5049H24.6062L25.9499 55.7219C26.067 55.9149 26.2704 56.0314 26.4898 56.0314H36.0907C36.3101 56.0314 36.5135 55.914 36.6305 55.7219L37.9734 53.5049H57.6815C57.37 55.857 55.4263 57.6744 53.0819 57.6744H10.9271Z" fill="url(#paint0_linear_1408_1747)"/>
<path d="M52.5736 49.3476V23.7056C52.5736 23.34 52.2879 23.0433 51.9359 23.0433H12.0723C11.7203 23.0433 11.4346 23.34 11.4346 23.7056V49.3476C11.4346 49.7133 11.7203 50.01 12.0723 50.01H51.9359C52.2883 50.01 52.574 49.7132 52.574 49.3476H52.5736ZM51.2982 48.6853H12.7097V24.3689H51.2982V48.6853Z" fill="url(#paint1_linear_1408_1747)"/>
<path d="M21.3481 44.2685C21.0665 43.2082 20.141 42.4225 19.0335 42.4225C17.704 42.4225 16.6227 43.5483 16.6227 44.9308C16.6227 46.3117 17.704 47.4348 19.0335 47.4348C20.1406 47.4348 21.066 46.6513 21.3476 45.5932H23.641C23.8104 45.5932 23.9725 45.5234 24.092 45.3989L25.9388 43.4807C27.6009 45.0596 29.7264 45.9299 32.0001 45.9299C34.2795 45.9299 36.4074 45.0592 38.0692 43.4811L39.9159 45.3993C40.0354 45.5234 40.1975 45.5936 40.367 45.5936H42.6611C42.9427 46.6517 43.8682 47.4353 44.9753 47.4353C46.3039 47.4353 47.3853 46.3121 47.3853 44.9312C47.3853 43.5487 46.3039 42.423 44.9753 42.423C43.8678 42.423 42.942 43.2086 42.6607 44.2689H40.6314L38.9525 42.5251C40.1698 41.0133 40.8889 39.1606 41.0215 37.1914H42.662C42.9444 38.2487 43.8691 39.0313 44.9757 39.0313C46.3044 39.0313 47.3857 37.9082 47.3857 36.5273C47.3857 35.1448 46.3044 34.019 44.9757 34.019C43.8674 34.019 42.9415 34.8055 42.6607 35.8667H41.0203C40.8803 33.7458 40.0732 31.7825 38.7003 30.2227L40.0838 28.7858H42.6616C42.9436 29.8435 43.8686 30.6266 44.9757 30.6266C46.3044 30.6266 47.3857 29.5035 47.3857 28.1235C47.3857 26.741 46.3044 25.6152 44.9757 25.6152C43.8682 25.6152 42.9424 26.4009 42.6611 27.4611H39.8194C39.6499 27.4611 39.4879 27.5308 39.3683 27.6554L37.7795 29.3057C36.1578 27.896 34.1314 27.1197 32.0006 27.1197C29.8747 27.1197 27.8504 27.896 26.2263 29.3028L24.6402 27.6554C24.5207 27.5313 24.3586 27.4611 24.1892 27.4611H21.3483C21.0667 26.4009 20.1412 25.6152 19.0337 25.6152C17.7042 25.6152 16.6229 26.741 16.6229 28.1235C16.6229 29.5035 17.7042 30.6266 19.0337 30.6266C20.1408 30.6266 21.0662 29.8435 21.3478 28.7858H23.9248L25.3058 30.2202C23.9297 31.7898 23.1218 33.7531 22.981 35.8668H21.3487C21.0679 34.8057 20.1416 34.0191 19.0337 34.0191C17.7042 34.0191 16.6229 35.1449 16.6229 36.5274C16.6229 37.9083 17.7042 39.0314 19.0337 39.0314C20.1404 39.0314 21.065 38.2488 21.3474 37.1915H22.9797C23.1123 39.1641 23.8347 41.0185 25.0549 42.5265L23.3771 44.2691L21.3481 44.2685ZM19.033 46.1101C18.4068 46.1101 17.8976 45.5813 17.8976 44.9308C17.8976 44.2778 18.4068 43.7472 19.033 43.7472C19.6593 43.7472 20.1684 44.2778 20.1684 44.9308C20.1684 45.5813 19.6593 46.1101 19.033 46.1101ZM44.9756 43.7477C45.601 43.7477 46.1102 44.2782 46.1102 44.9312C46.1102 45.5817 45.601 46.1105 44.9756 46.1105C44.3494 46.1105 43.8402 45.5817 43.8402 44.9312C43.8402 44.2782 44.3494 43.7477 44.9756 43.7477ZM44.9756 26.9396C45.601 26.9396 46.1102 27.4702 46.1102 28.1231C46.1102 28.7727 45.601 29.3016 44.9756 29.3016C44.3494 29.3016 43.8402 28.7727 43.8402 28.1231C43.8402 27.4702 44.3494 26.9396 44.9756 26.9396ZM19.033 29.3012C18.4068 29.3012 17.8976 28.7723 17.8976 28.1227C17.8976 27.4697 18.4068 26.9392 19.033 26.9392C19.6593 26.9392 20.1684 27.4697 20.1684 28.1227C20.1684 28.7727 19.6593 29.3012 19.033 29.3012ZM44.9756 35.3435C45.601 35.3435 46.1102 35.8741 46.1102 36.5271C46.1102 37.1775 45.601 37.7064 44.9756 37.7064C44.3494 37.7064 43.8402 37.1775 43.8402 36.5271C43.8402 35.8741 44.3494 35.3435 44.9756 35.3435ZM19.033 37.7064C18.4068 37.7064 17.8976 37.1775 17.8976 36.5271C17.8976 35.8741 18.4068 35.3435 19.033 35.3435C19.6593 35.3435 20.1684 35.8741 20.1684 36.5271C20.1684 37.1775 19.6593 37.7064 19.033 37.7064ZM31.9996 28.4442C36.172 28.4442 39.775 31.9473 39.775 36.5293C39.775 40.9531 36.3152 44.6054 31.9996 44.6054C27.7015 44.6054 24.2242 40.9573 24.2242 36.5293C24.2242 32.0297 27.754 28.4442 31.9996 28.4442Z" fill="url(#paint2_linear_1408_1747)"/>
<path d="M28.7371 38.558L28.0233 39.6825L28.9676 40.6632L30.0502 39.9138C30.3649 40.1131 30.7104 40.2564 31.0787 40.3521L31.3321 41.6755H32.6676L32.921 40.3521C33.2893 40.2564 33.6348 40.1127 33.9495 39.9138L35.0321 40.6632L35.9764 39.6825L35.2548 38.5504C35.4541 38.2235 35.5925 37.8728 35.685 37.4901L36.9591 37.2189V35.8317L35.685 35.5686C35.5929 35.186 35.4545 34.8272 35.2548 34.5002L35.9764 33.3758L35.0321 32.395L33.9495 33.1445C33.6348 32.937 33.2893 32.7938 32.921 32.6981L32.6676 31.3747H31.3321L31.0787 32.6981C30.7104 32.7938 30.3649 32.9375 30.0502 33.1445L28.9676 32.395L28.0233 33.3758L28.7371 34.5002C28.553 34.8272 28.4068 35.186 28.3148 35.5686L27.0406 35.8317V37.2189L28.3148 37.4901C28.4073 37.8723 28.553 38.2311 28.7371 38.558ZM31.9997 34.3876C33.1359 34.3876 34.0568 35.3445 34.0568 36.5247C34.0568 37.7129 33.1359 38.6695 31.9997 38.6695C30.8635 38.6695 29.9348 37.7125 29.9348 36.5247C29.9348 35.3445 30.8635 34.3876 31.9997 34.3876Z" fill="url(#paint3_linear_1408_1747)"/>
<defs>
<linearGradient id="paint0_linear_1408_1747" x1="4.99998" y1="59.0001" x2="50.415" y2="5.6869" gradientUnits="userSpaceOnUse">
<stop stop-color="#19C8A2"/>
<stop offset="1" stop-color="#5694F2"/>
</linearGradient>
<linearGradient id="paint1_linear_1408_1747" x1="4.99998" y1="59.0001" x2="50.415" y2="5.6869" gradientUnits="userSpaceOnUse">
<stop stop-color="#19C8A2"/>
<stop offset="1" stop-color="#5694F2"/>
</linearGradient>
<linearGradient id="paint2_linear_1408_1747" x1="4.99998" y1="59.0001" x2="50.415" y2="5.6869" gradientUnits="userSpaceOnUse">
<stop stop-color="#19C8A2"/>
<stop offset="1" stop-color="#5694F2"/>
</linearGradient>
<linearGradient id="paint3_linear_1408_1747" x1="4.99998" y1="59.0001" x2="50.415" y2="5.6869" gradientUnits="userSpaceOnUse">
<stop stop-color="#19C8A2"/>
<stop offset="1" stop-color="#5694F2"/>
</linearGradient>
</defs>
</svg>
