<svg width="64" height="64" viewBox="0 0 64 64" fill="none" xmlns="http://www.w3.org/2000/svg">
<path d="M20.7596 13.1056C20.4334 13.1056 20.1694 12.8459 20.1694 12.522V12.5152C20.1694 8.37144 23.557 5 27.7209 5C31.8883 5 35.2791 8.37144 35.2791 12.5152C35.2791 12.8396 35.0147 13.102 34.6889 13.102C34.3627 13.102 34.0987 12.8392 34.0987 12.5152C34.0987 9.01894 31.2376 6.17399 27.7212 6.17399C24.2081 6.17399 21.3502 9.01884 21.3502 12.5152C21.3498 12.8392 21.0854 13.1056 20.7596 13.1056Z" fill="url(#paint0_linear_1408_1988)"/>
<path d="M14.2099 23.0322C13.9914 23.0322 13.7812 22.9113 13.6791 22.7027C13.1859 21.6992 12.9251 20.5699 12.9251 19.4363C12.9251 15.2961 16.3158 11.9278 20.4833 11.9278C22.8687 11.9278 25.0591 13.0067 26.4926 14.8872C26.6896 15.1453 26.6386 15.5137 26.3786 15.7096C26.1182 15.9058 25.7489 15.8547 25.5515 15.5962C24.3429 14.011 22.4954 13.1018 20.4829 13.1018C16.9666 13.1018 14.1054 15.9435 14.1054 19.4362C14.1054 20.3922 14.3247 21.3434 14.7394 22.1872C14.8826 22.4782 14.761 22.8299 14.4683 22.9723C14.3849 23.0127 14.2964 23.0322 14.2099 23.0322Z" fill="url(#paint1_linear_1408_1988)"/>
<path d="M13.7903 35.3446C10.0479 35.3446 7.00338 32.3173 7.00338 28.5962C7.00338 24.8751 10.0479 21.8474 13.7903 21.8474C14.804 21.8474 15.7793 22.0643 16.6893 22.4925C16.984 22.6309 17.11 22.981 16.9704 23.274C16.8313 23.567 16.4791 23.6916 16.1845 23.5536C15.4336 23.2003 14.6281 23.0215 13.7903 23.0215C10.6991 23.0215 8.18365 25.5222 8.18365 28.5963C8.18365 31.6699 10.6987 34.171 13.7903 34.171C14.0044 34.171 14.2158 34.1591 14.4235 34.1361C14.7505 34.0973 15.0396 34.332 15.0759 34.654C15.1122 34.9763 14.8789 35.2666 14.5551 35.3026C14.3023 35.3304 14.0451 35.3446 13.7903 35.3446Z" fill="url(#paint2_linear_1408_1988)"/>
<path d="M12.5582 45.8878C8.39071 45.8878 5 42.5163 5 38.3725C5 35.7596 6.39732 33.295 8.64715 31.9406C8.92629 31.7724 9.28916 31.8613 9.45784 32.1384C9.62691 32.416 9.53759 32.7768 9.25886 32.9445C7.33121 34.1047 6.18082 36.1339 6.18082 38.3722C6.18082 41.8685 9.04193 44.7134 12.5583 44.7134C12.7397 44.7134 12.9216 44.7079 13.0974 44.69C13.4212 44.6559 13.7115 44.8911 13.745 45.2138C13.7785 45.5362 13.5429 45.8244 13.2183 45.8577C13.0037 45.8799 12.7808 45.8879 12.5583 45.8879L12.5582 45.8878Z" fill="url(#paint3_linear_1408_1988)"/>
<path d="M20.0685 53.6345C15.9022 53.6345 12.5122 50.2643 12.5122 46.1212C12.5122 45.3215 12.6383 44.5336 12.8863 43.7803C12.9876 43.4727 13.3205 43.3041 13.6312 43.4056C13.9406 43.5064 14.1097 43.8382 14.008 44.1463C13.7987 44.7815 13.6926 45.4461 13.6926 46.1217C13.6926 49.6172 16.553 52.4609 20.068 52.4609C21.929 52.4609 23.6928 51.6548 24.9063 50.2496C25.1188 50.0038 25.4921 49.9752 25.7389 50.1866C25.9862 50.3979 26.0149 50.7682 25.8023 51.0145C24.3644 52.6793 22.2741 53.6345 20.0685 53.6345Z" fill="url(#paint4_linear_1408_1988)"/>
<path d="M28.8865 59C25.3619 59 22.4943 56.1488 22.4943 52.6441C22.4943 52.5363 22.4947 52.4288 22.5023 52.3214C22.525 51.9982 22.8054 51.7584 23.1327 51.777C23.4577 51.7996 23.703 52.0803 23.6802 52.4039C23.6747 52.484 23.6751 52.5636 23.6751 52.6441C23.6751 55.5017 26.013 57.826 28.8865 57.826C31.7604 57.826 34.0984 55.5014 34.0984 52.6441C34.0984 52.3198 34.3628 52.0573 34.6886 52.0573C35.0148 52.0573 35.2788 52.3202 35.2788 52.6441C35.2792 56.1488 32.4111 59 28.8865 59Z" fill="url(#paint5_linear_1408_1988)"/>
<path d="M29.2111 51.171C29.06 51.171 28.9089 51.1135 28.7936 50.9989C28.5631 50.7698 28.5631 50.3982 28.7936 50.1691C29.6881 49.2797 29.6881 47.8329 28.7936 46.9436C27.9271 46.082 26.4162 46.082 25.5497 46.9436C25.3192 47.1728 24.9456 47.1728 24.7151 46.9436C24.4846 46.7144 24.4846 46.3429 24.7151 46.1137C26.0697 44.7668 28.2736 44.7668 29.6283 46.1137C30.9829 47.4607 30.9829 49.6524 29.6283 50.9994C29.513 51.1136 29.3619 51.171 29.2111 51.171Z" fill="url(#paint6_linear_1408_1988)"/>
<path d="M18.1728 43.2304C17.8466 43.2304 17.5826 42.9675 17.5826 42.6436C17.5826 40.0068 19.74 37.8618 22.3917 37.8618H25.3553C25.6815 37.8618 25.9455 38.1247 25.9455 38.4487C25.9455 38.773 25.6811 39.0355 25.3553 39.0355H22.3917C20.3906 39.0355 18.7629 40.6539 18.7629 42.6436C18.7629 42.9676 18.4986 43.2304 18.1728 43.2304Z" fill="url(#paint7_linear_1408_1988)"/>
<path d="M34.6879 39.0363H29.7448C29.4186 39.0363 29.1546 38.7734 29.1546 38.4494C29.1546 38.1251 29.419 37.8626 29.7448 37.8626H34.6879C35.0141 37.8626 35.2781 38.1255 35.2781 38.4494C35.2785 38.7734 35.0141 39.0363 34.6879 39.0363Z" fill="url(#paint8_linear_1408_1988)"/>
<path d="M29.7471 28.8656C29.578 28.8656 29.4105 28.7938 29.2937 28.6551C28.735 27.9901 28.014 27.4731 27.2093 27.1599C26.9054 27.0418 26.7559 26.7012 26.8748 26.3994C26.9936 26.0981 27.3361 25.949 27.6396 26.0668C28.6289 26.4518 29.5141 27.0862 30.2 27.9026C30.409 28.1512 30.3755 28.5215 30.1255 28.7293C30.0146 28.8209 29.8802 28.8656 29.7471 28.8656Z" fill="url(#paint9_linear_1408_1988)"/>
<path d="M34.6879 20.6022C34.3617 20.6022 34.0977 20.3393 34.0977 20.0154V12.5151C34.0977 12.1908 34.3621 11.9283 34.6879 11.9283C35.0141 11.9283 35.2781 12.1912 35.2781 12.5151V20.0154C35.2785 20.3393 35.0141 20.6022 34.6879 20.6022Z" fill="url(#paint10_linear_1408_1988)"/>
<path d="M34.6859 44.889C34.3597 44.889 34.0957 44.6261 34.0957 44.3022L34.0953 29.1477C34.0953 28.8233 34.3597 28.5608 34.6855 28.5608C35.0117 28.5608 35.2756 28.8237 35.2756 29.1477V44.3022C35.276 44.6265 35.0117 44.889 34.6859 44.889Z" fill="url(#paint11_linear_1408_1988)"/>
<path d="M34.6879 53.2305C34.3617 53.2305 34.0977 52.9677 34.0977 52.6437V50.7901C34.0977 50.4657 34.3621 50.2032 34.6879 50.2032C35.0141 50.2032 35.2781 50.4661 35.2781 50.7901V52.6437C35.2785 52.9677 35.0141 53.2305 34.6879 53.2305Z" fill="url(#paint12_linear_1408_1988)"/>
<path d="M42.1615 10.3282H34.1088C33.7826 10.3282 33.5186 10.0653 33.5186 9.74135C33.5186 9.41702 33.783 9.15454 34.1088 9.15454H42.1615C42.4877 9.15454 42.7516 9.41741 42.7516 9.74135C42.752 10.0653 42.4877 10.3282 42.1615 10.3282Z" fill="url(#paint13_linear_1408_1988)"/>
<path d="M42.8322 21.4579H32.6258C32.2996 21.4579 32.0357 21.195 32.0357 20.8711C32.0357 20.5467 32.3 20.2842 32.6258 20.2842H42.5878L46.6249 16.2757C46.733 16.1551 46.8901 16.0786 47.0647 16.0786C47.3909 16.0786 47.6549 16.3387 47.6549 16.6626V16.6682C47.6549 16.824 47.5927 16.9735 47.4818 17.0833L43.2493 21.2862C43.1389 21.3964 42.9889 21.4579 42.8322 21.4579Z" fill="url(#paint14_linear_1408_1988)"/>
<path d="M46.202 44.8889H44.1878C43.8616 44.8889 43.5977 44.6261 43.5977 44.3021C43.5977 43.9778 43.862 43.7153 44.1878 43.7153H46.202C46.5281 43.7153 46.7921 43.9782 46.7921 44.3021C46.7925 44.6261 46.5281 44.8889 46.202 44.8889Z" fill="url(#paint15_linear_1408_1988)"/>
<path d="M39.5451 44.8889H32.6229C32.2967 44.8889 32.0327 44.6261 32.0327 44.3021C32.0327 43.9778 32.2971 43.7153 32.6229 43.7153H39.5451C39.8713 43.7153 40.1352 43.9782 40.1352 44.3021C40.1352 44.6261 39.8709 44.8889 39.5451 44.8889Z" fill="url(#paint16_linear_1408_1988)"/>
<path d="M43.2568 54.8444H34.4553C34.1291 54.8444 33.8619 54.5816 33.8619 54.2576C33.8619 53.9333 34.1231 53.6708 34.4489 53.6708H43.2564C43.5826 53.6708 43.8466 53.9337 43.8466 54.2576C43.847 54.5816 43.5826 54.8444 43.2568 54.8444Z" fill="url(#paint17_linear_1408_1988)"/>
<path d="M51.2204 37.5706C51.0693 37.5706 50.9185 37.5131 50.8033 37.3989L45.9583 32.587H34.6852C34.359 32.587 34.095 32.3241 34.095 32.0002C34.095 31.6758 34.3594 31.4134 34.6852 31.4134H46.2023C46.3586 31.4134 46.5085 31.4748 46.6194 31.585L51.637 36.5683C51.8679 36.7974 51.8679 37.169 51.6374 37.3981C51.5222 37.5131 51.3714 37.5706 51.2199 37.5706L51.2204 37.5706Z" fill="url(#paint18_linear_1408_1988)"/>
<path d="M55.463 29.9527C53.5127 29.9527 51.9263 28.3754 51.9263 26.4361C51.9263 24.4969 53.5126 22.9192 55.463 22.9192C57.4133 22.9192 59 24.4969 59 26.4361C59 28.3753 57.4133 29.9527 55.463 29.9527ZM55.463 24.0932C54.1638 24.0932 53.1071 25.1443 53.1071 26.4361C53.1071 27.7279 54.1642 28.7786 55.463 28.7786C56.7622 28.7786 57.8193 27.7275 57.8193 26.4361C57.8193 25.1443 56.7625 24.0932 55.463 24.0932Z" fill="url(#paint19_linear_1408_1988)"/>
<path d="M53.3008 42.5726C51.3505 42.5726 49.7639 40.995 49.7639 39.0557C49.7639 37.1165 51.3505 35.5388 53.3008 35.5388C55.2512 35.5388 56.8378 37.1165 56.8378 39.0557C56.8378 40.995 55.2512 42.5726 53.3008 42.5726ZM53.3008 36.7128C52.0016 36.7128 50.9446 37.7639 50.9446 39.0557C50.9446 40.3476 52.0016 41.3986 53.3008 41.3986C54.6001 41.3986 55.6572 40.3476 55.6572 39.0557C55.6572 37.7636 54.6004 36.7128 53.3008 36.7128Z" fill="url(#paint20_linear_1408_1988)"/>
<path d="M46.204 57.7759C44.2537 57.7759 42.6673 56.1982 42.6673 54.259C42.6673 52.3198 44.2536 50.7421 46.204 50.7421C48.1544 50.7421 49.741 52.3198 49.741 54.259C49.741 56.1982 48.1543 57.7759 46.204 57.7759ZM46.204 51.9161C44.9048 51.9161 43.8481 52.9671 43.8481 54.259C43.8481 55.5508 44.9052 56.6019 46.204 56.6019C47.5032 56.6019 48.5603 55.5508 48.5603 54.259C48.5603 52.9671 47.5035 51.9161 46.204 51.9161Z" fill="url(#paint21_linear_1408_1988)"/>
<path d="M49.1471 18.1103C47.1967 18.1103 45.6101 16.533 45.6101 14.5937C45.6101 12.6543 47.1967 11.0768 49.1471 11.0768C51.0974 11.0768 52.6841 12.6544 52.6841 14.5937C52.6837 16.5329 51.097 18.1103 49.1471 18.1103ZM49.1471 12.2508C47.8478 12.2508 46.7908 13.3018 46.7908 14.5937C46.7908 15.8855 47.8478 16.9362 49.1471 16.9362C50.4463 16.9362 51.5034 15.8851 51.5034 14.5937C51.5034 13.3015 50.4463 12.2508 49.1471 12.2508Z" fill="url(#paint22_linear_1408_1988)"/>
<path d="M52.5169 27.0223H44.4447C44.1185 27.0223 43.8545 26.7594 43.8545 26.4355C43.8545 26.1112 44.1189 25.8487 44.4447 25.8487H52.5169C52.8431 25.8487 53.107 26.1115 53.107 26.4355C53.1074 26.7598 52.8431 27.0223 52.5169 27.0223Z" fill="url(#paint23_linear_1408_1988)"/>
<path d="M15.0194 29.7355H13.1585C12.8323 29.7355 12.5683 29.4726 12.5683 29.1487C12.5683 28.8243 12.8327 28.5618 13.1585 28.5618H15.0194C15.3456 28.5618 15.6096 28.8247 15.6096 29.1487C15.6096 29.4726 15.3452 29.7355 15.0194 29.7355Z" fill="url(#paint24_linear_1408_1988)"/>
<path d="M23.3168 29.7355H19.3084C18.9822 29.7355 18.7182 29.4726 18.7182 29.1486C18.7182 28.8243 18.9826 28.5618 19.3084 28.5618H23.3168C25.5235 28.5618 27.3188 26.7768 27.3188 24.5826C27.3188 22.3884 25.5235 20.6033 23.3168 20.6033C22.9906 20.6033 22.7266 20.3405 22.7266 20.0165C22.7266 19.6922 22.991 19.4297 23.3168 19.4297C26.1747 19.4297 28.4996 21.7413 28.4996 24.583C28.4996 27.4235 26.1744 29.7356 23.3168 29.7356V29.7355Z" fill="url(#paint25_linear_1408_1988)"/>
<defs>
<linearGradient id="paint0_linear_1408_1988" x1="4.99998" y1="59.0001" x2="50.415" y2="5.6869" gradientUnits="userSpaceOnUse">
<stop stop-color="#19C8A2"/>
<stop offset="1" stop-color="#5694F2"/>
</linearGradient>
<linearGradient id="paint1_linear_1408_1988" x1="4.99998" y1="59.0001" x2="50.415" y2="5.6869" gradientUnits="userSpaceOnUse">
<stop stop-color="#19C8A2"/>
<stop offset="1" stop-color="#5694F2"/>
</linearGradient>
<linearGradient id="paint2_linear_1408_1988" x1="4.99998" y1="59.0001" x2="50.415" y2="5.6869" gradientUnits="userSpaceOnUse">
<stop stop-color="#19C8A2"/>
<stop offset="1" stop-color="#5694F2"/>
</linearGradient>
<linearGradient id="paint3_linear_1408_1988" x1="4.99998" y1="59.0001" x2="50.415" y2="5.6869" gradientUnits="userSpaceOnUse">
<stop stop-color="#19C8A2"/>
<stop offset="1" stop-color="#5694F2"/>
</linearGradient>
<linearGradient id="paint4_linear_1408_1988" x1="4.99998" y1="59.0001" x2="50.415" y2="5.6869" gradientUnits="userSpaceOnUse">
<stop stop-color="#19C8A2"/>
<stop offset="1" stop-color="#5694F2"/>
</linearGradient>
<linearGradient id="paint5_linear_1408_1988" x1="4.99998" y1="59.0001" x2="50.415" y2="5.6869" gradientUnits="userSpaceOnUse">
<stop stop-color="#19C8A2"/>
<stop offset="1" stop-color="#5694F2"/>
</linearGradient>
<linearGradient id="paint6_linear_1408_1988" x1="4.99998" y1="59.0001" x2="50.415" y2="5.6869" gradientUnits="userSpaceOnUse">
<stop stop-color="#19C8A2"/>
<stop offset="1" stop-color="#5694F2"/>
</linearGradient>
<linearGradient id="paint7_linear_1408_1988" x1="4.99998" y1="59.0001" x2="50.415" y2="5.6869" gradientUnits="userSpaceOnUse">
<stop stop-color="#19C8A2"/>
<stop offset="1" stop-color="#5694F2"/>
</linearGradient>
<linearGradient id="paint8_linear_1408_1988" x1="4.99998" y1="59.0001" x2="50.415" y2="5.6869" gradientUnits="userSpaceOnUse">
<stop stop-color="#19C8A2"/>
<stop offset="1" stop-color="#5694F2"/>
</linearGradient>
<linearGradient id="paint9_linear_1408_1988" x1="4.99998" y1="59.0001" x2="50.415" y2="5.6869" gradientUnits="userSpaceOnUse">
<stop stop-color="#19C8A2"/>
<stop offset="1" stop-color="#5694F2"/>
</linearGradient>
<linearGradient id="paint10_linear_1408_1988" x1="4.99998" y1="59.0001" x2="50.415" y2="5.6869" gradientUnits="userSpaceOnUse">
<stop stop-color="#19C8A2"/>
<stop offset="1" stop-color="#5694F2"/>
</linearGradient>
<linearGradient id="paint11_linear_1408_1988" x1="4.99998" y1="59.0001" x2="50.415" y2="5.6869" gradientUnits="userSpaceOnUse">
<stop stop-color="#19C8A2"/>
<stop offset="1" stop-color="#5694F2"/>
</linearGradient>
<linearGradient id="paint12_linear_1408_1988" x1="4.99998" y1="59.0001" x2="50.415" y2="5.6869" gradientUnits="userSpaceOnUse">
<stop stop-color="#19C8A2"/>
<stop offset="1" stop-color="#5694F2"/>
</linearGradient>
<linearGradient id="paint13_linear_1408_1988" x1="4.99998" y1="59.0001" x2="50.415" y2="5.6869" gradientUnits="userSpaceOnUse">
<stop stop-color="#19C8A2"/>
<stop offset="1" stop-color="#5694F2"/>
</linearGradient>
<linearGradient id="paint14_linear_1408_1988" x1="4.99998" y1="59.0001" x2="50.415" y2="5.6869" gradientUnits="userSpaceOnUse">
<stop stop-color="#19C8A2"/>
<stop offset="1" stop-color="#5694F2"/>
</linearGradient>
<linearGradient id="paint15_linear_1408_1988" x1="4.99998" y1="59.0001" x2="50.415" y2="5.6869" gradientUnits="userSpaceOnUse">
<stop stop-color="#19C8A2"/>
<stop offset="1" stop-color="#5694F2"/>
</linearGradient>
<linearGradient id="paint16_linear_1408_1988" x1="4.99998" y1="59.0001" x2="50.415" y2="5.6869" gradientUnits="userSpaceOnUse">
<stop stop-color="#19C8A2"/>
<stop offset="1" stop-color="#5694F2"/>
</linearGradient>
<linearGradient id="paint17_linear_1408_1988" x1="4.99998" y1="59.0001" x2="50.415" y2="5.6869" gradientUnits="userSpaceOnUse">
<stop stop-color="#19C8A2"/>
<stop offset="1" stop-color="#5694F2"/>
</linearGradient>
<linearGradient id="paint18_linear_1408_1988" x1="4.99998" y1="59.0001" x2="50.415" y2="5.6869" gradientUnits="userSpaceOnUse">
<stop stop-color="#19C8A2"/>
<stop offset="1" stop-color="#5694F2"/>
</linearGradient>
<linearGradient id="paint19_linear_1408_1988" x1="4.99998" y1="59.0001" x2="50.415" y2="5.6869" gradientUnits="userSpaceOnUse">
<stop stop-color="#19C8A2"/>
<stop offset="1" stop-color="#5694F2"/>
</linearGradient>
<linearGradient id="paint20_linear_1408_1988" x1="4.99998" y1="59.0001" x2="50.415" y2="5.6869" gradientUnits="userSpaceOnUse">
<stop stop-color="#19C8A2"/>
<stop offset="1" stop-color="#5694F2"/>
</linearGradient>
<linearGradient id="paint21_linear_1408_1988" x1="4.99998" y1="59.0001" x2="50.415" y2="5.6869" gradientUnits="userSpaceOnUse">
<stop stop-color="#19C8A2"/>
<stop offset="1" stop-color="#5694F2"/>
</linearGradient>
<linearGradient id="paint22_linear_1408_1988" x1="4.99998" y1="59.0001" x2="50.415" y2="5.6869" gradientUnits="userSpaceOnUse">
<stop stop-color="#19C8A2"/>
<stop offset="1" stop-color="#5694F2"/>
</linearGradient>
<linearGradient id="paint23_linear_1408_1988" x1="4.99998" y1="59.0001" x2="50.415" y2="5.6869" gradientUnits="userSpaceOnUse">
<stop stop-color="#19C8A2"/>
<stop offset="1" stop-color="#5694F2"/>
</linearGradient>
<linearGradient id="paint24_linear_1408_1988" x1="4.99998" y1="59.0001" x2="50.415" y2="5.6869" gradientUnits="userSpaceOnUse">
<stop stop-color="#19C8A2"/>
<stop offset="1" stop-color="#5694F2"/>
</linearGradient>
<linearGradient id="paint25_linear_1408_1988" x1="4.99998" y1="59.0001" x2="50.415" y2="5.6869" gradientUnits="userSpaceOnUse">
<stop stop-color="#19C8A2"/>
<stop offset="1" stop-color="#5694F2"/>
</linearGradient>
</defs>
</svg>
