<svg width="64" height="64" viewBox="0 0 64 64" fill="none" xmlns="http://www.w3.org/2000/svg">
<path d="M43.3615 25.9902C43.2095 25.9902 43.0603 25.9307 42.9482 25.8181L39.4904 22.3451H29.3297C27.7344 22.3451 26.4372 21.0391 26.4372 19.434V18.7707C26.4372 18.4464 26.6986 18.1839 27.0215 18.1839C27.3444 18.1839 27.6057 18.4468 27.6057 18.7707V19.434C27.6057 20.392 28.3791 21.1715 29.3293 21.1715H39.7316C39.8867 21.1715 40.0351 21.2333 40.1449 21.3435L42.7764 23.9866V21.7587C42.7764 21.4344 43.0377 21.1719 43.3607 21.1719H44.4238C45.3744 21.1719 46.1478 20.3928 46.1478 19.4345L46.1486 13.2415C46.1486 12.2868 45.3753 11.51 44.4246 11.51H39.3167C38.9938 11.51 38.7324 11.2471 38.7324 10.9232C38.7324 10.5989 38.9938 10.3364 39.3167 10.3364H44.4246C46.0199 10.3364 47.3175 11.6397 47.3175 13.2419V19.434C47.3175 21.0394 46.0199 22.3451 44.4246 22.3451H43.9458V25.4033C43.9458 25.6408 43.8036 25.8545 43.5849 25.9457C43.5127 25.9755 43.4365 25.9902 43.3615 25.9902Z" fill="url(#paint0_linear_1408_2240)"/>
<path d="M40.1063 59H23.8951C22.9283 59 22.1419 58.2102 22.1419 57.2391C22.1419 56.4128 22.462 55.6361 23.0435 55.0516C23.629 54.4636 24.4047 54.1401 25.2278 54.1401H28.9094V49.9785C28.9094 49.6541 29.1708 49.3916 29.4937 49.3916C29.8166 49.3916 30.0779 49.6545 30.0779 49.9785V54.7273C30.0779 55.0516 29.8166 55.3141 29.4937 55.3141H25.2278C24.717 55.3141 24.2349 55.5155 23.8701 55.8819C23.5093 56.2443 23.3107 56.726 23.3107 57.2391C23.3107 57.5682 23.5677 57.8259 23.895 57.8259H40.1062C40.2637 57.8259 40.4134 57.764 40.5286 57.6518C40.6313 57.5491 40.6909 57.4004 40.6909 57.2391C40.6909 56.1777 39.8307 55.3141 38.7739 55.3141H34.508C34.185 55.3141 33.9237 55.0512 33.9237 54.7273V49.961C33.9237 49.6366 34.185 49.3742 34.508 49.3742C34.8309 49.3742 35.0922 49.637 35.0922 49.961V54.1401H38.7739C40.4749 54.1401 41.8598 55.5301 41.8598 57.2391C41.8598 57.7141 41.6782 58.1577 41.3497 58.4876C41.009 58.8199 40.5693 58.9999 40.1062 58.9999L40.1063 59Z" fill="url(#paint1_linear_1408_2240)"/>
<path d="M38.6743 40.8746C38.3514 40.8746 38.09 40.6117 38.09 40.2878V31.624C38.09 29.9928 37.4572 28.4551 36.3084 27.2951C35.1572 26.1397 33.6272 25.5025 32.0007 25.5025C28.6431 25.5025 25.9113 28.2487 25.9113 31.6244V40.2879C25.9113 40.6122 25.65 40.8747 25.3271 40.8747C25.0042 40.8747 24.7428 40.6118 24.7428 40.2879L24.7424 31.6241C24.7424 27.6012 27.9981 24.3285 32.0007 24.3285C33.9394 24.3285 35.7629 25.0878 37.1358 26.4664C38.5057 27.849 39.2589 29.6804 39.2589 31.624V40.2875C39.2589 40.6118 38.9975 40.8747 38.6742 40.8747L38.6743 40.8746Z" fill="url(#paint2_linear_1408_2240)"/>
<path d="M31.9961 50.9985C31.9515 50.9985 31.9069 50.9981 31.8627 50.9973C27.493 50.9231 23.9381 47.2908 23.9381 42.9004V41.199C23.9381 40.3675 24.6116 39.6908 25.4398 39.6908H38.5616C39.3898 39.6908 40.0632 40.3676 40.0632 41.199V42.7299C40.0632 44.9431 39.1549 47.1099 37.5702 48.6745C36.0496 50.1764 34.0749 50.9984 31.9965 50.9984L31.9961 50.9985ZM25.4394 40.8652C25.2562 40.8652 25.1066 41.0151 25.1066 41.1995V42.9009C25.1066 46.6549 28.1463 49.7602 31.882 49.8237C33.6988 49.8566 35.4227 49.1488 36.75 47.8381C38.1123 46.4928 38.8936 44.6312 38.8936 42.7304V41.1996C38.8936 41.0152 38.744 40.8653 38.5608 40.8653L25.4394 40.8652Z" fill="url(#paint3_linear_1408_2240)"/>
<path d="M38.357 30.171H33.7856C33.4626 30.171 33.2013 29.9082 33.2013 29.5842C33.2013 29.2599 33.4626 28.9974 33.7856 28.9974H38.357C38.6799 28.9974 38.9412 29.2603 38.9412 29.5842C38.9412 29.9082 38.6799 30.171 38.357 30.171Z" fill="url(#paint4_linear_1408_2240)"/>
<path d="M38.6743 34.1267H33.7859C33.4629 34.1267 33.2016 33.8638 33.2016 33.5398C33.2016 33.2155 33.4629 32.953 33.7859 32.953H38.6743C38.9972 32.953 39.2585 33.2159 39.2585 33.5398C39.2589 33.8638 38.9976 34.1267 38.6743 34.1267Z" fill="url(#paint5_linear_1408_2240)"/>
<path d="M38.6743 38.0781H33.7859C33.4629 38.0781 33.2016 37.8153 33.2016 37.4913C33.2016 37.167 33.4629 36.9045 33.7859 36.9045H38.6743C38.9972 36.9045 39.2585 37.1674 39.2585 37.4913C39.2589 37.8153 38.9976 38.0781 38.6743 38.0781Z" fill="url(#paint6_linear_1408_2240)"/>
<path d="M48.8865 42.4012C48.7325 42.4012 48.579 42.3405 48.4641 42.2196C48.2411 41.9852 48.2493 41.6137 48.4823 41.3897C50.6416 39.316 51.8311 36.5282 51.8311 33.539C51.8311 30.5503 50.6416 27.7621 48.4823 25.6884C48.2493 25.4644 48.2407 25.0928 48.4641 24.8585C48.6867 24.6238 49.0566 24.6151 49.2904 24.8399C51.6823 27.1372 53 30.2267 53 33.539C53 36.8518 51.6823 39.9408 49.2904 42.2381C49.1771 42.3472 49.0314 42.4012 48.8865 42.4012Z" fill="url(#paint7_linear_1408_2240)"/>
<path d="M45.9466 39.3104C45.7927 39.3104 45.6383 39.2494 45.5238 39.1284C45.3012 38.8937 45.3099 38.5222 45.5432 38.2986C46.8558 37.0416 47.5791 35.3518 47.5791 33.5394C47.5791 31.727 46.8558 30.0367 45.544 28.7806C45.3099 28.5566 45.3016 28.1855 45.5239 27.9507C45.7469 27.7164 46.1168 27.7077 46.3497 27.9305C47.8965 29.4106 48.7479 31.4026 48.7479 33.5394C48.7479 35.6761 47.8964 37.6677 46.3504 39.1482C46.2367 39.2565 46.0919 39.3104 45.9466 39.3104Z" fill="url(#paint8_linear_1408_2240)"/>
<path d="M43.0179 36.2247C42.8639 36.2247 42.7092 36.1636 42.5943 36.0423C42.3717 35.8072 42.3807 35.4361 42.6148 35.2124C43.0736 34.7739 43.3266 34.1799 43.3266 33.5397C43.3266 32.8997 43.074 32.3058 42.6148 31.8672C42.3807 31.6436 42.3717 31.2721 42.5943 31.0373C42.817 30.8022 43.1877 30.7939 43.4206 31.0167C44.1035 31.6697 44.4952 32.5892 44.4952 33.54C44.4952 34.4908 44.1035 35.4107 43.4206 36.0632C43.3081 36.1711 43.1632 36.2247 43.0179 36.2247Z" fill="url(#paint9_linear_1408_2240)"/>
<path d="M15.1139 42.4012C14.9682 42.4012 14.8233 42.3472 14.7097 42.2382C12.3177 39.9413 11 36.8518 11 33.5391C11 30.2267 12.3177 27.1373 14.7097 24.84C14.9438 24.6159 15.3133 24.6243 15.5359 24.8586C15.7589 25.0929 15.7507 25.4644 15.5177 25.6885C13.3584 27.7622 12.1689 30.5503 12.1689 33.5391C12.1689 36.5283 13.3584 39.3165 15.5177 41.3898C15.7507 41.6138 15.7593 41.9853 15.5359 42.2196C15.4214 42.3406 15.2679 42.4012 15.1139 42.4012Z" fill="url(#paint10_linear_1408_2240)"/>
<path d="M18.0538 39.3104C17.9089 39.3104 17.764 39.2565 17.6503 39.1482C16.1044 37.6681 15.2528 35.6761 15.2528 33.5394C15.2528 31.4026 16.1043 29.411 17.651 27.9305C17.8843 27.7077 18.2542 27.716 18.4769 27.9507C18.6995 28.1855 18.6908 28.557 18.4567 28.7806C17.1446 30.0367 16.4217 31.7269 16.4217 33.5394C16.4217 35.3517 17.1449 37.042 18.4575 38.2986C18.6908 38.5222 18.6995 38.8937 18.4769 39.1284C18.3616 39.2494 18.2077 39.3104 18.0538 39.3104Z" fill="url(#paint11_linear_1408_2240)"/>
<path d="M20.9825 36.2247C20.8376 36.2247 20.6927 36.1712 20.5794 36.0629C19.8965 35.4099 19.5049 34.4905 19.5049 33.5397C19.5049 32.5889 19.8965 31.6694 20.5794 31.0164C20.8128 30.7936 21.1831 30.8019 21.4057 31.037C21.6284 31.2722 21.6193 31.6433 21.3852 31.8669C20.9265 32.3054 20.6734 32.8994 20.6734 33.5394C20.6734 34.1797 20.9261 34.7736 21.3852 35.2121C21.6193 35.4358 21.6284 35.8073 21.4057 36.042C21.2912 36.1637 21.1365 36.2247 20.9825 36.2247Z" fill="url(#paint12_linear_1408_2240)"/>
<path d="M20.6379 20.6541C20.5625 20.6541 20.4867 20.6395 20.4141 20.6093C20.1954 20.5185 20.0533 20.3044 20.0533 20.0669V17.0087H19.574C17.9788 17.0087 16.6811 15.7027 16.6811 14.0976V7.90553C16.6811 6.3033 17.9788 5 19.574 5H34.6685C36.2638 5 37.5614 6.3033 37.5614 7.90553V14.0976C37.5614 15.703 36.2638 17.0087 34.6685 17.0087L24.5078 17.0091L21.05 20.4821C20.9383 20.5943 20.7887 20.6541 20.6371 20.6541H20.6379ZM19.574 6.1737C18.6234 6.1737 17.85 6.95043 17.85 7.90524L17.8496 14.0973C17.8496 15.0553 18.623 15.8348 19.5736 15.8348H20.6375C20.9604 15.8348 21.2218 16.0976 21.2218 16.4216V18.6495L23.8533 16.0064C23.963 15.8962 24.1111 15.8344 24.2666 15.8344L34.6688 15.8347C35.6195 15.8347 36.3929 15.0556 36.3929 14.0973L36.3932 7.90522C36.3932 6.95046 35.6199 6.17368 34.6692 6.17368L19.574 6.1737Z" fill="url(#paint13_linear_1408_2240)"/>
<path d="M21.4979 12.7023C21.175 12.7023 20.9137 12.4394 20.9137 12.1155V9.89429C20.9137 9.56995 21.175 9.30748 21.4979 9.30748C21.8209 9.30748 22.0822 9.57035 22.0822 9.89429V12.1155C22.0822 12.4394 21.8209 12.7023 21.4979 12.7023Z" fill="url(#paint14_linear_1408_2240)"/>
<path d="M25.2473 13.9499C24.9244 13.9499 24.663 13.687 24.663 13.363L24.6626 8.64711C24.6626 8.32277 24.924 8.0603 25.2469 8.0603C25.5698 8.0603 25.8312 8.32317 25.8312 8.64711V13.3626C25.8316 13.687 25.5702 13.9499 25.2473 13.9499Z" fill="url(#paint15_linear_1408_2240)"/>
<path d="M28.9967 12.0858C28.6738 12.0858 28.4124 11.8229 28.4124 11.499V10.5109C28.4124 10.1866 28.6738 9.92408 28.9967 9.92408C29.3196 9.92408 29.5809 10.1869 29.5809 10.5109V11.499C29.5809 11.8233 29.3196 12.0858 28.9967 12.0858Z" fill="url(#paint16_linear_1408_2240)"/>
<path d="M32.746 13.5507C32.4231 13.5507 32.1618 13.2879 32.1618 12.9639V9.0457C32.1618 8.72136 32.4231 8.45889 32.746 8.45889C33.069 8.45889 33.3303 8.72176 33.3303 9.0457V12.9635C33.3303 13.2878 33.069 13.5507 32.746 13.5507Z" fill="url(#paint17_linear_1408_2240)"/>
<defs>
<linearGradient id="paint0_linear_1408_2240" x1="11" y1="59.0001" x2="56.8104" y2="17.1733" gradientUnits="userSpaceOnUse">
<stop stop-color="#19C8A2"/>
<stop offset="1" stop-color="#5694F2"/>
</linearGradient>
<linearGradient id="paint1_linear_1408_2240" x1="11" y1="59.0001" x2="56.8104" y2="17.1733" gradientUnits="userSpaceOnUse">
<stop stop-color="#19C8A2"/>
<stop offset="1" stop-color="#5694F2"/>
</linearGradient>
<linearGradient id="paint2_linear_1408_2240" x1="11" y1="59.0001" x2="56.8104" y2="17.1733" gradientUnits="userSpaceOnUse">
<stop stop-color="#19C8A2"/>
<stop offset="1" stop-color="#5694F2"/>
</linearGradient>
<linearGradient id="paint3_linear_1408_2240" x1="11" y1="59.0001" x2="56.8104" y2="17.1733" gradientUnits="userSpaceOnUse">
<stop stop-color="#19C8A2"/>
<stop offset="1" stop-color="#5694F2"/>
</linearGradient>
<linearGradient id="paint4_linear_1408_2240" x1="11" y1="59.0001" x2="56.8104" y2="17.1733" gradientUnits="userSpaceOnUse">
<stop stop-color="#19C8A2"/>
<stop offset="1" stop-color="#5694F2"/>
</linearGradient>
<linearGradient id="paint5_linear_1408_2240" x1="11" y1="59.0001" x2="56.8104" y2="17.1733" gradientUnits="userSpaceOnUse">
<stop stop-color="#19C8A2"/>
<stop offset="1" stop-color="#5694F2"/>
</linearGradient>
<linearGradient id="paint6_linear_1408_2240" x1="11" y1="59.0001" x2="56.8104" y2="17.1733" gradientUnits="userSpaceOnUse">
<stop stop-color="#19C8A2"/>
<stop offset="1" stop-color="#5694F2"/>
</linearGradient>
<linearGradient id="paint7_linear_1408_2240" x1="11" y1="59.0001" x2="56.8104" y2="17.1733" gradientUnits="userSpaceOnUse">
<stop stop-color="#19C8A2"/>
<stop offset="1" stop-color="#5694F2"/>
</linearGradient>
<linearGradient id="paint8_linear_1408_2240" x1="11" y1="59.0001" x2="56.8104" y2="17.1733" gradientUnits="userSpaceOnUse">
<stop stop-color="#19C8A2"/>
<stop offset="1" stop-color="#5694F2"/>
</linearGradient>
<linearGradient id="paint9_linear_1408_2240" x1="11" y1="59.0001" x2="56.8104" y2="17.1733" gradientUnits="userSpaceOnUse">
<stop stop-color="#19C8A2"/>
<stop offset="1" stop-color="#5694F2"/>
</linearGradient>
<linearGradient id="paint10_linear_1408_2240" x1="11" y1="59.0001" x2="56.8104" y2="17.1733" gradientUnits="userSpaceOnUse">
<stop stop-color="#19C8A2"/>
<stop offset="1" stop-color="#5694F2"/>
</linearGradient>
<linearGradient id="paint11_linear_1408_2240" x1="11" y1="59.0001" x2="56.8104" y2="17.1733" gradientUnits="userSpaceOnUse">
<stop stop-color="#19C8A2"/>
<stop offset="1" stop-color="#5694F2"/>
</linearGradient>
<linearGradient id="paint12_linear_1408_2240" x1="11" y1="59.0001" x2="56.8104" y2="17.1733" gradientUnits="userSpaceOnUse">
<stop stop-color="#19C8A2"/>
<stop offset="1" stop-color="#5694F2"/>
</linearGradient>
<linearGradient id="paint13_linear_1408_2240" x1="11" y1="59.0001" x2="56.8104" y2="17.1733" gradientUnits="userSpaceOnUse">
<stop stop-color="#19C8A2"/>
<stop offset="1" stop-color="#5694F2"/>
</linearGradient>
<linearGradient id="paint14_linear_1408_2240" x1="11" y1="59.0001" x2="56.8104" y2="17.1733" gradientUnits="userSpaceOnUse">
<stop stop-color="#19C8A2"/>
<stop offset="1" stop-color="#5694F2"/>
</linearGradient>
<linearGradient id="paint15_linear_1408_2240" x1="11" y1="59.0001" x2="56.8104" y2="17.1733" gradientUnits="userSpaceOnUse">
<stop stop-color="#19C8A2"/>
<stop offset="1" stop-color="#5694F2"/>
</linearGradient>
<linearGradient id="paint16_linear_1408_2240" x1="11" y1="59.0001" x2="56.8104" y2="17.1733" gradientUnits="userSpaceOnUse">
<stop stop-color="#19C8A2"/>
<stop offset="1" stop-color="#5694F2"/>
</linearGradient>
<linearGradient id="paint17_linear_1408_2240" x1="11" y1="59.0001" x2="56.8104" y2="17.1733" gradientUnits="userSpaceOnUse">
<stop stop-color="#19C8A2"/>
<stop offset="1" stop-color="#5694F2"/>
</linearGradient>
</defs>
</svg>
