<svg width="64" height="64" viewBox="0 0 64 64" fill="none" xmlns="http://www.w3.org/2000/svg">
<path d="M53.6681 49.8139H39.8115C39.4894 49.8139 39.2287 49.551 39.2287 49.2271C39.2287 48.9028 39.4898 48.6403 39.8115 48.6403H53.6681C54.3112 48.6403 54.8341 48.1137 54.8341 47.4663L54.8337 18.5519C54.8337 17.9044 54.3107 17.3779 53.6677 17.3779H35.8583C35.2153 17.3779 34.6923 17.9045 34.6923 18.5519V38.1858C34.6923 38.5101 34.4313 38.7726 34.1095 38.7726C33.7874 38.7726 33.5267 38.5097 33.5267 38.1858V18.5519C33.5267 17.2573 34.5726 16.2042 35.8584 16.2042H53.6678C54.9535 16.2042 55.9994 17.2573 55.9994 18.5519L55.9998 47.4653C55.9998 48.7599 54.9539 49.8134 53.6682 49.8134L53.6681 49.8139Z" fill="url(#paint0_linear_1408_2127)"/>
<path d="M50.806 24.8359H38.7197C37.4753 24.8359 36.4629 23.8165 36.4629 22.5635V21.73C36.4629 20.4767 37.4753 19.4573 38.7197 19.4573H50.806C52.0505 19.4573 53.0629 20.4767 53.0629 21.73V22.5635C53.0629 23.8165 52.0501 24.8359 50.8056 24.8359H50.806ZM38.7197 20.631C38.118 20.631 37.6286 21.1238 37.6286 21.7296V22.5631C37.6286 23.1689 38.118 23.6617 38.7197 23.6617H50.806C51.4078 23.6617 51.8972 23.1689 51.8972 22.5631V21.7296C51.8972 21.1238 51.4077 20.631 50.806 20.631H38.7197Z" fill="url(#paint1_linear_1408_2127)"/>
<path d="M40.1936 22.7337H39.512C39.1899 22.7337 38.9292 22.4708 38.9292 22.1469C38.9292 21.8226 39.1902 21.5601 39.512 21.5601H40.1936C40.5158 21.5601 40.7764 21.823 40.7764 22.1469C40.7764 22.4708 40.5154 22.7337 40.1936 22.7337Z" fill="url(#paint2_linear_1408_2127)"/>
<path d="M43.467 22.7337H42.7853C42.4632 22.7337 42.2025 22.4708 42.2025 22.1469C42.2025 21.8226 42.4636 21.5601 42.7853 21.5601H43.467C43.7891 21.5601 44.0498 21.823 44.0498 22.1469C44.0498 22.4708 43.7887 22.7337 43.467 22.7337Z" fill="url(#paint3_linear_1408_2127)"/>
<path d="M46.7393 22.7337H46.0577C45.7355 22.7337 45.4749 22.4708 45.4749 22.1469C45.4749 21.8226 45.7359 21.5601 46.0577 21.5601H46.7393C47.0614 21.5601 47.3221 21.823 47.3221 22.1469C47.3225 22.4708 47.0614 22.7337 46.7393 22.7337Z" fill="url(#paint4_linear_1408_2127)"/>
<path d="M50.0126 22.7337H49.331C49.0089 22.7337 48.7482 22.4708 48.7482 22.1469C48.7482 21.8226 49.0093 21.5601 49.331 21.5601H50.0126C50.3348 21.5601 50.5955 21.823 50.5955 22.1469C50.5959 22.4708 50.3348 22.7337 50.0126 22.7337Z" fill="url(#paint5_linear_1408_2127)"/>
<path d="M50.8061 33.624H38.7198C37.4753 33.624 36.4629 32.6046 36.4629 31.3513L36.4625 30.5178C36.4625 29.2645 37.475 28.2451 38.7194 28.2451H50.8057C52.0501 28.2451 53.0625 29.2645 53.0625 30.5178V31.3509C53.0629 32.6042 52.0501 33.6241 50.8057 33.6241L50.8061 33.624ZM38.7198 29.4192C38.118 29.4192 37.6286 29.912 37.6286 30.5178V31.3509C37.6286 31.9567 38.1181 32.4495 38.7198 32.4495H50.8061C51.4078 32.4495 51.8973 31.9567 51.8973 31.3509L51.8969 30.5178C51.8969 29.912 51.4074 29.4192 50.8057 29.4192H38.7198Z" fill="url(#paint6_linear_1408_2127)"/>
<path d="M40.1936 31.5219H39.512C39.1899 31.5219 38.9292 31.259 38.9292 30.9351C38.9292 30.6108 39.1902 30.3483 39.512 30.3483H40.1936C40.5158 30.3483 40.7764 30.6112 40.7764 30.9351C40.7764 31.259 40.5154 31.5219 40.1936 31.5219Z" fill="url(#paint7_linear_1408_2127)"/>
<path d="M43.467 31.5219H42.7853C42.4632 31.5219 42.2025 31.259 42.2025 30.9351C42.2025 30.6108 42.4636 30.3483 42.7853 30.3483H43.467C43.7891 30.3483 44.0498 30.6112 44.0498 30.9351C44.0498 31.259 43.7887 31.5219 43.467 31.5219Z" fill="url(#paint8_linear_1408_2127)"/>
<path d="M46.7393 31.5219H46.0577C45.7355 31.5219 45.4749 31.259 45.4749 30.9351C45.4749 30.6108 45.7359 30.3483 46.0577 30.3483H46.7393C47.0614 30.3483 47.3221 30.6112 47.3221 30.9351C47.3225 31.259 47.0614 31.5219 46.7393 31.5219Z" fill="url(#paint9_linear_1408_2127)"/>
<path d="M50.0126 31.5219H49.331C49.0089 31.5219 48.7482 31.259 48.7482 30.9351C48.7482 30.6108 49.0093 30.3483 49.331 30.3483H50.0126C50.3348 30.3483 50.5955 30.6112 50.5955 30.9351C50.5959 31.259 50.3348 31.5219 50.0126 31.5219Z" fill="url(#paint10_linear_1408_2127)"/>
<path d="M50.806 42.4123H38.7197C37.4753 42.4123 36.4629 41.3928 36.4629 40.1395V39.306C36.4629 38.0531 37.4753 37.0337 38.7197 37.0337H50.806C52.0505 37.0337 53.0629 38.0531 53.0629 39.306V40.1395C53.0629 41.3928 52.0501 42.4123 50.8056 42.4123H50.806ZM38.7197 38.2078C38.118 38.2078 37.6286 38.7006 37.6286 39.3064V40.1399C37.6286 40.7457 38.118 41.2386 38.7197 41.2386H50.806C51.4078 41.2386 51.8972 40.7457 51.8972 40.1399V39.3064C51.8972 38.7006 51.4077 38.2078 50.806 38.2078H38.7197Z" fill="url(#paint11_linear_1408_2127)"/>
<path d="M40.1936 40.3101H39.512C39.1899 40.3101 38.9292 40.0472 38.9292 39.7233C38.9292 39.399 39.1902 39.1365 39.512 39.1365H40.1936C40.5158 39.1365 40.7764 39.3994 40.7764 39.7233C40.7764 40.0472 40.5154 40.3101 40.1936 40.3101Z" fill="url(#paint12_linear_1408_2127)"/>
<path d="M43.467 40.3101H42.7853C42.4632 40.3101 42.2025 40.0472 42.2025 39.7233C42.2025 39.399 42.4636 39.1365 42.7853 39.1365H43.467C43.7891 39.1365 44.0498 39.3994 44.0498 39.7233C44.0498 40.0472 43.7887 40.3101 43.467 40.3101Z" fill="url(#paint13_linear_1408_2127)"/>
<path d="M46.7393 40.3101H46.0577C45.7355 40.3101 45.4749 40.0472 45.4749 39.7233C45.4749 39.399 45.7359 39.1365 46.0577 39.1365H46.7393C47.0614 39.1365 47.3221 39.3994 47.3221 39.7233C47.3225 40.0472 47.0614 40.3101 46.7393 40.3101Z" fill="url(#paint14_linear_1408_2127)"/>
<path d="M50.0126 40.3101H49.331C49.0089 40.3101 48.7482 40.0472 48.7482 39.7233C48.7482 39.399 49.0093 39.1365 49.331 39.1365H50.0126C50.3348 39.1365 50.5955 39.3994 50.5955 39.7233C50.5959 40.0472 50.3348 40.3101 50.0126 40.3101Z" fill="url(#paint15_linear_1408_2127)"/>
<path d="M39.4154 45.6645C39.0932 45.6645 38.8325 45.4016 38.8325 45.0776C38.8325 44.7533 39.0936 44.4908 39.4154 44.4908H55.4172C55.7393 44.4908 56 44.7537 56 45.0776C56.0004 45.4016 55.7393 45.6645 55.4176 45.6645H39.4154Z" fill="url(#paint16_linear_1408_2127)"/>
<path d="M33.037 55.6961C32.8381 55.6961 32.6448 55.5938 32.5353 55.4094C32.3707 55.1307 32.4613 54.7706 32.7381 54.6045C35.7955 52.7714 37.3108 50.0431 36.8962 47.1194C36.3067 42.9633 32.0336 39.2576 26.0015 37.6645H25.9129C25.5907 37.6645 25.33 37.4016 25.33 37.0777C25.33 36.7534 25.5911 36.4909 25.9129 36.4909H26.0759C26.1251 36.4909 26.1743 36.4972 26.222 36.5095C32.8495 38.2378 37.3818 42.2393 38.0502 46.9533C38.5346 50.3691 36.8161 53.5252 33.3345 55.6132C33.2412 55.6691 33.1384 55.6956 33.0368 55.6956L33.037 55.6961Z" fill="url(#paint17_linear_1408_2127)"/>
<path d="M13.0995 55.6961C12.9983 55.6961 12.8955 55.6699 12.8022 55.6136C9.31751 53.528 7.59656 50.3722 8.08015 46.9556C8.74803 42.2397 13.2822 38.2369 19.9144 36.5099C19.9621 36.4976 20.0113 36.4912 20.0605 36.4912H20.2236C20.5457 36.4912 20.8064 36.7541 20.8064 37.078C20.8064 37.4024 20.5453 37.6649 20.2236 37.6649H20.135C14.0981 39.2575 9.82293 42.9641 9.23419 47.1214C8.82031 50.0456 10.3376 52.7731 13.3978 54.6049C13.6747 54.7703 13.7656 55.1307 13.601 55.409C13.4919 55.5942 13.2982 55.6965 13.0993 55.6965L13.0995 55.6961Z" fill="url(#paint18_linear_1408_2127)"/>
<path d="M24.0426 40.5578H22.0953C20.7422 40.5578 19.6412 39.4492 19.6412 38.0868V35.7744C19.6412 35.4501 19.9022 35.1876 20.224 35.1876C20.5461 35.1876 20.8068 35.4505 20.8068 35.7744V38.0868C20.8068 38.8021 21.3845 39.3841 22.0953 39.3841H24.0425C24.7529 39.3841 25.331 38.8024 25.331 38.0868V35.7744C25.331 35.4501 25.5921 35.1876 25.9138 35.1876C26.2359 35.1876 26.4966 35.4505 26.4966 35.7744V38.0868C26.4966 39.4492 25.3956 40.5578 24.0425 40.5578H24.0426Z" fill="url(#paint19_linear_1408_2127)"/>
<path d="M23.8319 36.7778H22.3044C18.9871 36.7778 16.2879 34.0578 16.2879 30.7145V30.0571C15.7059 29.8252 15.2972 29.2546 15.2972 28.5897V27.5389C15.2972 26.874 15.7091 26.3042 16.2891 26.0742C16.3088 25.7681 16.5616 25.5259 16.8708 25.5259C17.1929 25.5259 17.4536 25.7888 17.4536 26.1127V26.5528C17.4536 26.8771 17.1925 27.1396 16.8708 27.1396C16.6404 27.1396 16.4628 27.3184 16.4628 27.5385V28.5893C16.4628 28.8125 16.6404 28.9941 16.8589 28.9941C17.1811 28.9941 17.4536 29.257 17.4536 29.5809V30.7137C17.4536 33.4098 19.6293 35.6029 22.3039 35.6029H23.8314C26.5056 35.6029 28.6814 33.4095 28.6814 30.7137L28.6818 29.5817C28.6818 29.2574 28.9428 28.9949 29.2646 28.9949C29.4949 28.9949 29.6725 28.8133 29.6725 28.5901V27.5393C29.6725 27.3192 29.4949 27.1404 29.2764 27.1404C28.9543 27.1404 28.6818 26.8776 28.6818 26.5536V25.5497C28.6818 25.2253 28.9428 24.9629 29.2646 24.9629C29.5867 24.9629 29.8474 25.2257 29.8474 25.5497V26.0774C30.4294 26.309 30.8382 26.8772 30.8382 27.5393V28.59C30.8382 29.257 30.427 29.8287 29.8474 30.0598V30.7148C29.8478 34.0578 27.1491 36.7777 23.8318 36.7777L23.8319 36.7778Z" fill="url(#paint20_linear_1408_2127)"/>
<path d="M23.0677 34.0128C21.4169 34.0128 20.0737 32.8253 20.0737 31.3654C20.0737 31.0411 20.3348 30.7786 20.6565 30.7786C20.9787 30.7786 21.2394 31.0415 21.2394 31.3654C21.2394 32.1778 22.0592 32.8388 23.0674 32.8388C24.0755 32.8388 24.8954 32.1779 24.8954 31.3654C24.8954 31.0411 25.1565 30.7786 25.4782 30.7786C25.8003 30.7786 26.061 31.0415 26.061 31.3654C26.0618 32.8249 24.7185 34.0128 23.0677 34.0128Z" fill="url(#paint21_linear_1408_2127)"/>
<path d="M31.2113 59H14.9242C13.5959 59 12.5153 57.912 12.5153 56.5746V44.8021C12.5153 43.4647 13.5959 42.3767 14.9242 42.3767H31.2113C32.5396 42.3767 33.6202 43.4647 33.6202 44.8021V56.5746C33.6202 57.912 32.5396 59 31.2113 59ZM14.9242 43.5511C14.239 43.5511 13.6814 44.1125 13.6814 44.8024V56.5749C13.6814 57.2648 14.239 57.8262 14.9242 57.8262H31.2113C31.8965 57.8262 32.4541 57.2648 32.4541 56.5749V44.8024C32.4541 44.1125 31.8965 43.5511 31.2113 43.5511H14.9242Z" fill="url(#paint22_linear_1408_2127)"/>
<path d="M29.7566 27.1379C29.7397 27.1379 29.7231 27.1375 29.7062 27.1356C29.4778 27.1157 29.2817 26.9627 29.2061 26.7446C28.513 24.7506 26.8331 24.3803 25.0542 23.9886C24.1351 23.786 23.1952 23.579 22.4371 23.1163C21.3569 22.9783 20.6374 23.648 19.571 24.7328C18.8248 25.4917 18.0537 26.2764 16.9987 26.6978C16.7616 26.7926 16.4899 26.7208 16.3296 26.5202C14.6477 24.4171 14.6438 21.9422 15.5094 20.5843C16.0831 19.6842 17.0085 19.2572 18.0253 19.4078C22.0487 16.1046 26.4872 16.745 28.9482 18.775C31.3595 20.7647 31.8765 23.9291 30.2651 26.8366C30.1615 27.0242 29.9658 27.138 29.7563 27.138L29.7566 27.1379ZM17.6229 20.5517C17.0495 20.5517 16.6955 20.8958 16.4896 21.219C15.8961 22.1499 15.8965 23.8433 16.9649 25.4167C17.6198 25.0487 18.1884 24.4702 18.7409 23.908C19.4852 23.1507 20.3014 22.3204 21.3707 22.0318C21.2844 21.7832 21.3734 21.4985 21.6018 21.3478C21.8716 21.1702 22.2327 21.2463 22.4087 21.5171C22.5493 21.7332 22.7316 21.9085 22.9482 22.0552C22.9584 22.0615 22.9683 22.0683 22.9781 22.0754C23.5637 22.4596 24.3883 22.6412 25.3023 22.8423C26.8153 23.1757 28.6347 23.5762 29.7302 25.1931C30.5698 22.78 29.5668 20.8043 28.2085 19.6842C26.0667 17.9166 22.1342 17.413 18.5629 20.4851C18.4192 20.6096 18.2246 20.654 18.0411 20.6076C17.8907 20.5687 17.7513 20.5517 17.6229 20.5517Z" fill="url(#paint23_linear_1408_2127)"/>
<path d="M25.6707 28.4636C25.3486 28.4636 25.0879 28.2007 25.0879 27.8768V27.2158C25.0879 26.8915 25.349 26.629 25.6707 26.629C25.9928 26.629 26.2535 26.8919 26.2535 27.2158V27.8768C26.2535 28.2007 25.9924 28.4636 25.6707 28.4636Z" fill="url(#paint24_linear_1408_2127)"/>
<path d="M20.4658 28.4636C20.1437 28.4636 19.883 28.2007 19.883 27.8768V27.2158C19.883 26.8915 20.1441 26.629 20.4658 26.629C20.7879 26.629 21.0486 26.8919 21.0486 27.2158V27.8768C21.049 28.2007 20.7879 28.4636 20.4658 28.4636Z" fill="url(#paint25_linear_1408_2127)"/>
<path d="M13.0985 55.6808C12.7764 55.6808 12.5157 55.418 12.5157 55.094C12.5157 54.7697 12.7767 54.5072 13.0985 54.5072H33.038C33.3601 54.5072 33.6208 54.7701 33.6208 55.094C33.6208 55.4184 33.3597 55.6808 33.0376 55.6808H13.0985Z" fill="url(#paint26_linear_1408_2127)"/>
<path d="M19.8266 46.7932H16.2782C15.9561 46.7932 15.6954 46.5303 15.6954 46.2064C15.6954 45.882 15.9564 45.6195 16.2782 45.6195H19.8266C20.1488 45.6195 20.4095 45.8824 20.4095 46.2064C20.4095 46.5303 20.1484 46.7932 19.8266 46.7932Z" fill="url(#paint27_linear_1408_2127)"/>
<path d="M40.5414 10.7151C40.3556 10.7151 40.1732 10.6259 40.0602 10.4602C38.231 7.77632 35.2177 6.17368 31.9996 6.17368C28.7815 6.17368 25.7683 7.77592 23.939 10.4602C23.7567 10.7274 23.3936 10.7956 23.1282 10.612C22.8628 10.4285 22.7951 10.0633 22.9774 9.79565C25.0244 6.79296 28.3972 5 31.9996 5C35.602 5 38.9749 6.79296 41.0219 9.79606C41.2042 10.0633 41.1364 10.4289 40.871 10.6125C40.7702 10.6818 40.6552 10.7151 40.5414 10.7151Z" fill="url(#paint28_linear_1408_2127)"/>
<path d="M37.4495 12.8534C37.2641 12.8534 37.0813 12.7642 36.9683 12.5985C35.8412 10.9451 33.9834 9.95815 31.999 9.95815C30.0146 9.95815 28.1568 10.945 27.0297 12.5985C26.8478 12.8653 26.4851 12.9339 26.2193 12.7499C25.9539 12.5663 25.8861 12.2016 26.0688 11.9339C27.4137 9.96171 29.6303 8.78376 31.999 8.78376C34.3677 8.78376 36.5847 9.9614 37.9291 11.9339C38.1115 12.2012 38.0441 12.5663 37.7787 12.7499C37.6779 12.8201 37.563 12.8534 37.4495 12.8534Z" fill="url(#paint29_linear_1408_2127)"/>
<path d="M34.3486 14.991C34.1631 14.991 33.9808 14.9022 33.8674 14.7364C33.4425 14.1139 32.7435 13.7424 31.9988 13.7424C31.2538 13.7424 30.5552 14.1143 30.1303 14.7364C29.9472 15.0045 29.5853 15.0711 29.3194 14.8879C29.054 14.7043 28.9871 14.3387 29.169 14.0715C29.8121 13.1302 30.8698 12.5683 31.9988 12.5683C33.1278 12.5683 34.1855 13.1302 34.8286 14.0715C35.0109 14.3387 34.9436 14.7039 34.6782 14.8879C34.5773 14.9577 34.4624 14.991 34.3486 14.991Z" fill="url(#paint30_linear_1408_2127)"/>
<defs>
<linearGradient id="paint0_linear_1408_2127" x1="7.99998" y1="59.0001" x2="53.9584" y2="11.0435" gradientUnits="userSpaceOnUse">
<stop stop-color="#19C8A2"/>
<stop offset="1" stop-color="#5694F2"/>
</linearGradient>
<linearGradient id="paint1_linear_1408_2127" x1="7.99998" y1="59.0001" x2="53.9584" y2="11.0435" gradientUnits="userSpaceOnUse">
<stop stop-color="#19C8A2"/>
<stop offset="1" stop-color="#5694F2"/>
</linearGradient>
<linearGradient id="paint2_linear_1408_2127" x1="7.99998" y1="59.0001" x2="53.9584" y2="11.0435" gradientUnits="userSpaceOnUse">
<stop stop-color="#19C8A2"/>
<stop offset="1" stop-color="#5694F2"/>
</linearGradient>
<linearGradient id="paint3_linear_1408_2127" x1="7.99998" y1="59.0001" x2="53.9584" y2="11.0435" gradientUnits="userSpaceOnUse">
<stop stop-color="#19C8A2"/>
<stop offset="1" stop-color="#5694F2"/>
</linearGradient>
<linearGradient id="paint4_linear_1408_2127" x1="7.99998" y1="59.0001" x2="53.9584" y2="11.0435" gradientUnits="userSpaceOnUse">
<stop stop-color="#19C8A2"/>
<stop offset="1" stop-color="#5694F2"/>
</linearGradient>
<linearGradient id="paint5_linear_1408_2127" x1="7.99998" y1="59.0001" x2="53.9584" y2="11.0435" gradientUnits="userSpaceOnUse">
<stop stop-color="#19C8A2"/>
<stop offset="1" stop-color="#5694F2"/>
</linearGradient>
<linearGradient id="paint6_linear_1408_2127" x1="7.99998" y1="59.0001" x2="53.9584" y2="11.0435" gradientUnits="userSpaceOnUse">
<stop stop-color="#19C8A2"/>
<stop offset="1" stop-color="#5694F2"/>
</linearGradient>
<linearGradient id="paint7_linear_1408_2127" x1="7.99998" y1="59.0001" x2="53.9584" y2="11.0435" gradientUnits="userSpaceOnUse">
<stop stop-color="#19C8A2"/>
<stop offset="1" stop-color="#5694F2"/>
</linearGradient>
<linearGradient id="paint8_linear_1408_2127" x1="7.99998" y1="59.0001" x2="53.9584" y2="11.0435" gradientUnits="userSpaceOnUse">
<stop stop-color="#19C8A2"/>
<stop offset="1" stop-color="#5694F2"/>
</linearGradient>
<linearGradient id="paint9_linear_1408_2127" x1="7.99998" y1="59.0001" x2="53.9584" y2="11.0435" gradientUnits="userSpaceOnUse">
<stop stop-color="#19C8A2"/>
<stop offset="1" stop-color="#5694F2"/>
</linearGradient>
<linearGradient id="paint10_linear_1408_2127" x1="7.99998" y1="59.0001" x2="53.9584" y2="11.0435" gradientUnits="userSpaceOnUse">
<stop stop-color="#19C8A2"/>
<stop offset="1" stop-color="#5694F2"/>
</linearGradient>
<linearGradient id="paint11_linear_1408_2127" x1="7.99998" y1="59.0001" x2="53.9584" y2="11.0435" gradientUnits="userSpaceOnUse">
<stop stop-color="#19C8A2"/>
<stop offset="1" stop-color="#5694F2"/>
</linearGradient>
<linearGradient id="paint12_linear_1408_2127" x1="7.99998" y1="59.0001" x2="53.9584" y2="11.0435" gradientUnits="userSpaceOnUse">
<stop stop-color="#19C8A2"/>
<stop offset="1" stop-color="#5694F2"/>
</linearGradient>
<linearGradient id="paint13_linear_1408_2127" x1="7.99998" y1="59.0001" x2="53.9584" y2="11.0435" gradientUnits="userSpaceOnUse">
<stop stop-color="#19C8A2"/>
<stop offset="1" stop-color="#5694F2"/>
</linearGradient>
<linearGradient id="paint14_linear_1408_2127" x1="7.99998" y1="59.0001" x2="53.9584" y2="11.0435" gradientUnits="userSpaceOnUse">
<stop stop-color="#19C8A2"/>
<stop offset="1" stop-color="#5694F2"/>
</linearGradient>
<linearGradient id="paint15_linear_1408_2127" x1="7.99998" y1="59.0001" x2="53.9584" y2="11.0435" gradientUnits="userSpaceOnUse">
<stop stop-color="#19C8A2"/>
<stop offset="1" stop-color="#5694F2"/>
</linearGradient>
<linearGradient id="paint16_linear_1408_2127" x1="7.99998" y1="59.0001" x2="53.9584" y2="11.0435" gradientUnits="userSpaceOnUse">
<stop stop-color="#19C8A2"/>
<stop offset="1" stop-color="#5694F2"/>
</linearGradient>
<linearGradient id="paint17_linear_1408_2127" x1="7.99998" y1="59.0001" x2="53.9584" y2="11.0435" gradientUnits="userSpaceOnUse">
<stop stop-color="#19C8A2"/>
<stop offset="1" stop-color="#5694F2"/>
</linearGradient>
<linearGradient id="paint18_linear_1408_2127" x1="7.99998" y1="59.0001" x2="53.9584" y2="11.0435" gradientUnits="userSpaceOnUse">
<stop stop-color="#19C8A2"/>
<stop offset="1" stop-color="#5694F2"/>
</linearGradient>
<linearGradient id="paint19_linear_1408_2127" x1="7.99998" y1="59.0001" x2="53.9584" y2="11.0435" gradientUnits="userSpaceOnUse">
<stop stop-color="#19C8A2"/>
<stop offset="1" stop-color="#5694F2"/>
</linearGradient>
<linearGradient id="paint20_linear_1408_2127" x1="7.99998" y1="59.0001" x2="53.9584" y2="11.0435" gradientUnits="userSpaceOnUse">
<stop stop-color="#19C8A2"/>
<stop offset="1" stop-color="#5694F2"/>
</linearGradient>
<linearGradient id="paint21_linear_1408_2127" x1="7.99998" y1="59.0001" x2="53.9584" y2="11.0435" gradientUnits="userSpaceOnUse">
<stop stop-color="#19C8A2"/>
<stop offset="1" stop-color="#5694F2"/>
</linearGradient>
<linearGradient id="paint22_linear_1408_2127" x1="7.99998" y1="59.0001" x2="53.9584" y2="11.0435" gradientUnits="userSpaceOnUse">
<stop stop-color="#19C8A2"/>
<stop offset="1" stop-color="#5694F2"/>
</linearGradient>
<linearGradient id="paint23_linear_1408_2127" x1="7.99998" y1="59.0001" x2="53.9584" y2="11.0435" gradientUnits="userSpaceOnUse">
<stop stop-color="#19C8A2"/>
<stop offset="1" stop-color="#5694F2"/>
</linearGradient>
<linearGradient id="paint24_linear_1408_2127" x1="7.99998" y1="59.0001" x2="53.9584" y2="11.0435" gradientUnits="userSpaceOnUse">
<stop stop-color="#19C8A2"/>
<stop offset="1" stop-color="#5694F2"/>
</linearGradient>
<linearGradient id="paint25_linear_1408_2127" x1="7.99998" y1="59.0001" x2="53.9584" y2="11.0435" gradientUnits="userSpaceOnUse">
<stop stop-color="#19C8A2"/>
<stop offset="1" stop-color="#5694F2"/>
</linearGradient>
<linearGradient id="paint26_linear_1408_2127" x1="7.99998" y1="59.0001" x2="53.9584" y2="11.0435" gradientUnits="userSpaceOnUse">
<stop stop-color="#19C8A2"/>
<stop offset="1" stop-color="#5694F2"/>
</linearGradient>
<linearGradient id="paint27_linear_1408_2127" x1="7.99998" y1="59.0001" x2="53.9584" y2="11.0435" gradientUnits="userSpaceOnUse">
<stop stop-color="#19C8A2"/>
<stop offset="1" stop-color="#5694F2"/>
</linearGradient>
<linearGradient id="paint28_linear_1408_2127" x1="7.99998" y1="59.0001" x2="53.9584" y2="11.0435" gradientUnits="userSpaceOnUse">
<stop stop-color="#19C8A2"/>
<stop offset="1" stop-color="#5694F2"/>
</linearGradient>
<linearGradient id="paint29_linear_1408_2127" x1="7.99998" y1="59.0001" x2="53.9584" y2="11.0435" gradientUnits="userSpaceOnUse">
<stop stop-color="#19C8A2"/>
<stop offset="1" stop-color="#5694F2"/>
</linearGradient>
<linearGradient id="paint30_linear_1408_2127" x1="7.99998" y1="59.0001" x2="53.9584" y2="11.0435" gradientUnits="userSpaceOnUse">
<stop stop-color="#19C8A2"/>
<stop offset="1" stop-color="#5694F2"/>
</linearGradient>
</defs>
</svg>
