<svg width="64" height="64" viewBox="0 0 64 64" fill="none" xmlns="http://www.w3.org/2000/svg">
<path d="M32 20.9534C31.8935 20.9534 31.7871 20.9263 31.6921 20.871L25.2925 17.1892C25.102 17.0797 24.9846 16.8772 24.9846 16.658V9.29521C24.9846 9.07606 25.102 8.87355 25.2925 8.76397L31.6921 5.08218C31.8825 4.97261 32.1174 4.97261 32.3079 5.08218L38.7079 8.76397C38.8984 8.87355 39.0159 9.07605 39.0159 9.29521V16.6585C39.0159 16.8776 38.8984 17.0801 38.7079 17.1897L32.3079 20.8715C32.2129 20.9263 32.1065 20.9534 32 20.9534ZM26.2163 16.3037L32 19.6314L37.7841 16.3042V9.64921L32 6.32155L26.2163 9.64876V16.3037Z" fill="url(#paint0_linear_1408_1656)"/>
<path d="M24.8615 59H16.8506C16.5105 59 16.2347 58.7252 16.2347 58.3864V50.6808C16.2347 50.3419 16.5105 50.0671 16.8506 50.0671H24.8615C25.2015 50.0671 25.4773 50.3419 25.4773 50.6808V58.3864C25.4773 58.7252 25.2015 59 24.8615 59ZM17.4669 57.7727H24.2461V51.2944H17.4669V57.7727Z" fill="url(#paint1_linear_1408_1656)"/>
<path d="M47.2703 59H39.2598C38.9198 59 38.6439 58.7252 38.6439 58.3864V50.6808C38.6439 50.3419 38.9198 50.0671 39.2598 50.0671H47.2703C47.6103 50.0671 47.8861 50.3419 47.8861 50.6808V58.3864C47.8861 58.7252 47.6108 59 47.2703 59ZM39.8757 57.7727H46.6544V51.2944H39.8757V57.7727Z" fill="url(#paint2_linear_1408_1656)"/>
<path d="M36.0664 59H28.056C27.7159 59 27.4401 58.7252 27.4401 58.3864V50.6808C27.4401 50.3419 27.7159 50.0671 28.056 50.0671H36.0664C36.4065 50.0671 36.6823 50.3419 36.6823 50.6808V58.3864C36.6823 58.7252 36.4065 59 36.0664 59ZM28.6718 57.7727H35.4506V51.2944H28.6718V57.7727Z" fill="url(#paint3_linear_1408_1656)"/>
<path d="M32 44.3489C31.66 44.3489 31.3841 44.0741 31.3841 43.7353V37.7988C31.3841 37.4599 31.6599 37.1851 32 37.1851C32.34 37.1851 32.6158 37.4599 32.6158 37.7988V43.7353C32.6158 44.0741 32.34 44.3489 32 44.3489Z" fill="url(#paint4_linear_1408_1656)"/>
<path d="M43.1442 48.6869C42.8041 48.6869 42.5283 48.4121 42.5283 48.0733V44.3489H21.472V48.0733C21.472 48.4121 21.1962 48.6869 20.8561 48.6869C20.5161 48.6869 20.2403 48.4121 20.2403 48.0733V43.7353C20.2403 43.3965 20.5161 43.1216 20.8561 43.1216H43.1433C43.4833 43.1216 43.7592 43.3965 43.7592 43.7353V48.0733C43.7592 48.4121 43.4833 48.6869 43.1433 48.6869H43.1442Z" fill="url(#paint5_linear_1408_1656)"/>
<path d="M32 38.412C28.6327 38.412 25.893 35.6821 25.893 32.3269C25.893 28.9716 28.6327 26.2418 32 26.2418C35.3674 26.2418 38.107 28.9716 38.107 32.3269C38.107 35.6821 35.3674 38.412 32 38.412ZM32 27.469C29.3118 27.469 27.1247 29.6484 27.1247 32.3269C27.1247 35.0054 29.3118 37.1847 32 37.1847C34.6882 37.1847 36.8754 35.0054 36.8754 32.3269C36.8754 29.6484 34.6882 27.469 32 27.469Z" fill="url(#paint6_linear_1408_1656)"/>
<path d="M44.553 36.3249C44.4109 36.3249 44.2705 36.2762 44.1575 36.182L39.9631 32.6829C39.8232 32.5663 39.7427 32.3941 39.7427 32.2126C39.7427 32.0311 39.8232 31.8589 39.9627 31.7423L44.176 28.2192C44.3594 28.0657 44.6154 28.032 44.8327 28.1332C45.0496 28.2345 45.1882 28.4519 45.1877 28.6908L45.1833 30.3673C46.6671 30.0486 48.0136 29.3158 49.1102 28.2231C50.6142 26.7241 51.443 24.7311 51.443 22.6118C51.443 20.492 50.6147 18.4995 49.1102 17.0004C47.6063 15.5019 45.6061 14.6765 43.4787 14.6765H43.2324C42.8923 14.6765 42.6165 14.4017 42.6165 14.0628L42.6161 11.7451C42.6161 11.4063 42.8919 11.1314 43.2319 11.1314H43.4783C45.0333 11.1314 46.5426 11.4352 47.9639 12.0344C49.3359 12.6129 50.568 13.4404 51.6256 14.4937C52.6831 15.5479 53.5136 16.7752 54.0938 18.1423C54.6951 19.5585 55 21.0623 55 22.6118C55 24.1613 54.6952 25.6647 54.0938 27.0813C53.5136 28.4484 52.6831 29.6761 51.6256 30.7299C50.5681 31.7836 49.3359 32.6112 47.9639 33.1893C47.0687 33.5667 46.1321 33.8283 45.1736 33.969L45.1688 35.7126C45.1684 35.9506 45.0294 36.1667 44.8129 36.2675C44.7298 36.3061 44.6409 36.3249 44.553 36.3249ZM41.3171 32.2118L43.9407 34.4003L43.9433 33.4246C43.9442 33.1095 44.1844 32.8465 44.4989 32.8153C45.5274 32.715 46.5317 32.4603 47.484 32.0588C48.7096 31.5425 49.8097 30.8031 50.7547 29.862C51.6991 28.9205 52.4413 27.8238 52.9594 26.6031C53.4961 25.339 53.7684 23.9961 53.7679 22.6119C53.7679 21.2277 53.4961 19.8846 52.9594 18.6206C52.4408 17.3994 51.6991 16.3033 50.7542 15.3613C49.8093 14.4202 48.7092 13.6812 47.4836 13.1645C46.3275 12.6771 45.1065 12.4088 43.8474 12.365V13.4559C46.1648 13.5467 48.3308 14.4886 49.9804 16.1323C51.7176 17.8633 52.6739 20.1644 52.6739 22.6115C52.6739 25.0585 51.7176 27.3597 49.9809 29.0906C48.52 30.5463 46.6733 31.4493 44.6415 31.7021C44.4664 31.724 44.2896 31.6696 44.1567 31.5526C44.0243 31.4356 43.9486 31.2677 43.9491 31.0915L43.9517 30.0075L41.3171 32.2118Z" fill="url(#paint7_linear_1408_1656)"/>
<path d="M19.447 36.3249C19.3591 36.3249 19.2702 36.306 19.1871 36.2675C18.9706 36.1671 18.8316 35.951 18.8312 35.7125L18.8264 33.9689C17.8674 33.8282 16.9313 33.5666 16.0361 33.1892C14.6641 32.611 13.432 31.7835 12.3744 30.7298C11.3169 29.6756 10.4864 28.4484 9.90618 27.0812C9.30485 25.665 9 24.1612 9 22.6117C9 21.0627 9.30484 19.5589 9.90618 18.1427C10.4864 16.7755 11.3169 15.5479 12.3744 14.4941C13.4319 13.4404 14.6641 12.6128 16.0361 12.0347C17.4574 11.4355 18.9663 11.1318 20.5208 11.1318H20.7672C21.1063 11.1318 21.3817 11.4053 21.383 11.7432L21.3839 11.9887V14.0632C21.3839 14.402 21.1081 14.6769 20.7681 14.6769H20.5217C18.3943 14.6769 16.3942 15.5022 14.8902 17.0013C13.3862 18.5002 12.5579 20.4928 12.5579 22.6126C12.5579 24.7323 13.3862 26.7252 14.8906 28.2239C15.9873 29.3166 17.3338 30.0495 18.8175 30.3681L18.8131 28.6916C18.8127 28.4527 18.9508 28.2353 19.1681 28.134C19.385 28.0328 19.6415 28.0665 19.8249 28.22L24.0382 31.7431C24.1776 31.8597 24.2581 32.0319 24.2581 32.2134C24.2581 32.3949 24.1772 32.5671 24.0377 32.6837L19.8434 36.1828C19.7294 36.2757 19.5891 36.3249 19.447 36.3249ZM20.1522 12.365C18.8936 12.4088 17.6721 12.6771 16.516 13.1645C15.2905 13.6808 14.1899 14.4202 13.2454 15.3613C12.301 16.3028 11.5588 17.3994 11.0407 18.6202C10.504 19.8847 10.2317 21.2272 10.2317 22.6114C10.2317 23.9956 10.5036 25.3386 11.0407 26.6027C11.5589 27.8238 12.3009 28.92 13.2459 29.862C14.1903 30.8031 15.2909 31.5421 16.5165 32.0588C17.4689 32.4603 18.4731 32.715 19.5016 32.8153C19.8162 32.846 20.0563 33.1095 20.0572 33.4246L20.0599 34.3999L22.6834 32.2113L20.0485 30.0079L20.0516 31.0919C20.052 31.2681 19.9763 31.4359 19.8439 31.553C19.7115 31.67 19.5347 31.7243 19.3592 31.7024C17.3273 31.4495 15.481 30.5466 14.0202 29.091C12.283 27.3601 11.3267 25.0589 11.3267 22.6119C11.3267 20.1647 12.2831 17.8636 14.0197 16.1327C15.6693 14.4891 17.8354 13.5471 20.1527 13.4563L20.1522 12.365Z" fill="url(#paint8_linear_1408_1656)"/>
<defs>
<linearGradient id="paint0_linear_1408_1656" x1="8.99998" y1="59.0001" x2="55.0001" y2="13.0001" gradientUnits="userSpaceOnUse">
<stop stop-color="#19C8A2"/>
<stop offset="1" stop-color="#5694F2"/>
</linearGradient>
<linearGradient id="paint1_linear_1408_1656" x1="8.99998" y1="59.0001" x2="55.0001" y2="13.0001" gradientUnits="userSpaceOnUse">
<stop stop-color="#19C8A2"/>
<stop offset="1" stop-color="#5694F2"/>
</linearGradient>
<linearGradient id="paint2_linear_1408_1656" x1="8.99998" y1="59.0001" x2="55.0001" y2="13.0001" gradientUnits="userSpaceOnUse">
<stop stop-color="#19C8A2"/>
<stop offset="1" stop-color="#5694F2"/>
</linearGradient>
<linearGradient id="paint3_linear_1408_1656" x1="8.99998" y1="59.0001" x2="55.0001" y2="13.0001" gradientUnits="userSpaceOnUse">
<stop stop-color="#19C8A2"/>
<stop offset="1" stop-color="#5694F2"/>
</linearGradient>
<linearGradient id="paint4_linear_1408_1656" x1="8.99998" y1="59.0001" x2="55.0001" y2="13.0001" gradientUnits="userSpaceOnUse">
<stop stop-color="#19C8A2"/>
<stop offset="1" stop-color="#5694F2"/>
</linearGradient>
<linearGradient id="paint5_linear_1408_1656" x1="8.99998" y1="59.0001" x2="55.0001" y2="13.0001" gradientUnits="userSpaceOnUse">
<stop stop-color="#19C8A2"/>
<stop offset="1" stop-color="#5694F2"/>
</linearGradient>
<linearGradient id="paint6_linear_1408_1656" x1="8.99998" y1="59.0001" x2="55.0001" y2="13.0001" gradientUnits="userSpaceOnUse">
<stop stop-color="#19C8A2"/>
<stop offset="1" stop-color="#5694F2"/>
</linearGradient>
<linearGradient id="paint7_linear_1408_1656" x1="8.99998" y1="59.0001" x2="55.0001" y2="13.0001" gradientUnits="userSpaceOnUse">
<stop stop-color="#19C8A2"/>
<stop offset="1" stop-color="#5694F2"/>
</linearGradient>
<linearGradient id="paint8_linear_1408_1656" x1="8.99998" y1="59.0001" x2="55.0001" y2="13.0001" gradientUnits="userSpaceOnUse">
<stop stop-color="#19C8A2"/>
<stop offset="1" stop-color="#5694F2"/>
</linearGradient>
</defs>
</svg>
