<?xml version="1.0" standalone="no"?>
<!DOCTYPE svg PUBLIC "-//W3C//DTD SVG 20010904//EN"
 "http://www.w3.org/TR/2001/REC-SVG-20010904/DTD/svg10.dtd">
<svg version="1.0" xmlns="http://www.w3.org/2000/svg"
 width="700.000000pt" height="700.000000pt" viewBox="0 0 700.000000 700.000000"
 preserveAspectRatio="xMidYMid meet">
<metadata>
Created by potrace 1.14, written by Peter Selinger 2001-2017
</metadata>
<g transform="translate(0.000000,700.000000) scale(0.100000,-0.100000)"
fill="#000000" stroke="none">
<path d="M6765 5418 c-32 -155 -116 -305 -218 -392 -51 -43 -167 -101 -239
-120 -51 -13 -52 -14 -22 -20 210 -46 417 32 548 207 l29 37 -64 -30 c-61 -29
-89 -36 -89 -25 0 4 7 19 15 35 24 46 43 147 49 248 2 50 3 92 1 92 -2 0 -6
-15 -10 -32z"/>
<path d="M4935 5331 c-377 -82 -654 -344 -700 -661 -4 -25 -7 -380 -7 -790 l0
-744 -23 29 c-13 17 -59 78 -102 136 -43 58 -86 117 -96 130 -44 59 -700 954
-962 1312 l-290 396 -321 1 -321 0 0 -732 c0 -673 1 -735 17 -773 10 -22 37
-85 60 -140 124 -294 319 -652 505 -927 41 -60 70 -108 67 -107 -9 1 -190 208
-280 320 -85 106 -229 305 -306 422 -31 48 -59 87 -60 87 -2 0 -3 -163 -3
-362 -1 -403 -1 -405 -67 -471 -43 -43 -88 -57 -181 -55 -71 1 -235 -11 -246
-18 -4 -2 -24 -6 -45 -10 -38 -6 -88 -23 -149 -50 -17 -7 -66 -36 -108 -63
-136 -89 -187 -109 -302 -115 -53 -2 -163 12 -216 29 -24 8 -21 0 49 -129 l54
-100 -24 -21 -24 -21 21 -20 c106 -106 307 -205 472 -231 58 -9 352 -9 443 0
565 55 897 256 987 597 16 59 17 142 18 877 0 447 3 813 6 813 3 0 21 -21 40
-47 18 -27 37 -52 41 -58 22 -27 122 -163 288 -390 101 -137 216 -295 256
-350 41 -55 210 -285 376 -511 167 -227 350 -475 407 -553 57 -78 111 -145
120 -149 12 -6 502 -8 569 -3 10 1 12 149 10 744 l-3 742 -62 140 c-116 265
-243 514 -345 678 -26 43 -48 80 -48 82 0 6 -162 250 -170 255 -4 3 -13 16
-20 30 -15 30 33 -20 167 -175 112 -129 322 -408 413 -547 35 -54 65 -97 66
-95 2 2 4 165 4 363 1 334 3 362 21 398 25 52 53 81 102 105 42 21 89 21 227
2 67 -10 356 -8 400 3 14 3 39 8 55 12 127 24 278 101 390 198 l40 34 -23 25
-23 24 27 49 c15 27 42 76 60 110 19 33 34 63 34 65 0 3 -37 -2 -82 -12 -172
-34 -289 -10 -438 91 -164 111 -301 148 -549 148 -92 0 -162 -6 -216 -17z
m510 -125 c28 -12 65 -32 84 -44 l33 -20 -27 -18 c-55 -36 -158 -10 -200 49
-20 29 -19 36 8 47 34 14 48 12 102 -14z m-3773 -2950 c18 -27 -59 -90 -121
-100 -35 -5 -101 16 -101 31 0 12 100 72 136 82 33 10 76 3 86 -13z"/>
<path d="M226 2398 c7 -120 23 -191 55 -246 l19 -34 -32 7 c-18 4 -50 16 -71
27 -21 10 -43 18 -48 16 -13 -4 109 -130 161 -165 78 -52 162 -77 264 -77 50
-1 109 3 131 8 l40 8 -55 14 c-148 38 -296 149 -367 275 -31 55 -83 195 -83
224 0 8 -4 15 -9 15 -5 0 -7 -33 -5 -72z"/>
</g>
</svg>
