<svg width="50" height="50" viewBox="0 0 50 50" fill="none" xmlns="http://www.w3.org/2000/svg">
<path d="M33.3536 18.6464L32.6464 19.3536V19.3536L33.3536 18.6464ZM33.3536 19.3536L32.6464 18.6464L32.6464 18.6464L33.3536 19.3536ZM32.6464 18.6464L31.9393 17.9393L31.9393 17.9393L32.6464 18.6464ZM23 28.2929L22.2929 29L23 29.7071L23.7071 29L23 28.2929ZM18.3536 23.6464L17.6464 24.3536H17.6464L18.3536 23.6464ZM17.6464 23.6464L18.3536 24.3536L18.3536 24.3536L17.6464 23.6464ZM17.6464 24.3536L18.3536 23.6464L18.3536 23.6464L17.6464 24.3536ZM22.6464 29.3536L21.9393 30.0607L22.6464 29.3536ZM23.3536 29.3536L22.6464 28.6464L23.3536 29.3536ZM32.6464 19.3536C32.4512 19.1583 32.4512 18.8417 32.6464 18.6464L34.0607 20.0607C34.6464 19.4749 34.6464 18.5251 34.0607 17.9393L32.6464 19.3536ZM33.3536 19.3536C33.1583 19.5488 32.8417 19.5488 32.6464 19.3536L34.0607 17.9393C33.4749 17.3536 32.5251 17.3536 31.9393 17.9393L33.3536 19.3536ZM23.7071 29L33.3536 19.3536L31.9393 17.9393L22.2929 27.5858L23.7071 29ZM17.6464 24.3536L22.2929 29L23.7071 27.5858L19.0607 22.9393L17.6464 24.3536ZM18.3536 24.3536C18.1583 24.5488 17.8417 24.5488 17.6464 24.3536L19.0607 22.9393C18.4749 22.3536 17.5251 22.3536 16.9393 22.9393L18.3536 24.3536ZM18.3536 23.6464C18.5488 23.8417 18.5488 24.1583 18.3536 24.3536L16.9393 22.9393C16.3536 23.5251 16.3536 24.4749 16.9393 25.0607L18.3536 23.6464ZM23.3536 28.6464L18.3536 23.6464L16.9393 25.0607L21.9393 30.0607L23.3536 28.6464ZM22.6464 28.6464C22.8417 28.4512 23.1583 28.4512 23.3536 28.6464L21.9393 30.0607C22.5251 30.6464 23.4749 30.6464 24.0607 30.0607L22.6464 28.6464ZM32.6464 18.6464L22.6464 28.6464L24.0607 30.0607L34.0607 20.0607L32.6464 18.6464Z" fill="url(#paint0_linear_1021_1140)"/>
<path d="M1 25C1 44.764 5.236 49 25 49C44.764 49 49 44.764 49 25C49 5.236 44.764 1 25 1C5.236 1 1 5.236 1 25Z" stroke="url(#paint1_linear_1021_1140)" stroke-width="2"/>
<defs>
<linearGradient id="paint0_linear_1021_1140" x1="17.4" y1="28.7039" x2="29.0381" y2="14.7069" gradientUnits="userSpaceOnUse">
<stop stop-color="#00A983"/>
<stop offset="1" stop-color="#3162AC"/>
</linearGradient>
<linearGradient id="paint1_linear_1021_1140" x1="0.699992" y1="4.47392" x2="51.432" y2="46.4218" gradientUnits="userSpaceOnUse">
<stop stop-color="#00A983"/>
<stop offset="1" stop-color="#3162AC"/>
</linearGradient>
</defs>
</svg>
