<svg width="49" height="40" viewBox="0 0 49 40" fill="none" xmlns="http://www.w3.org/2000/svg">
<path fill-rule="evenodd" clip-rule="evenodd" d="M37.9705 5.40369C31.6873 1.91924 27.8797 2.92063e-06 24.0017 0C20.1237 -2.6226e-06 16.3161 1.91923 10.0328 5.40369L9.974 5.43631C6.85093 7.16824 4.43721 8.50679 2.80975 9.63495C1.99022 10.203 1.31235 10.7562 0.832391 11.3218C0.348432 11.8921 0 12.5538 0 13.3158V29.7369C0 30.2892 0.447715 30.7369 1 30.7369C1.55228 30.7369 2 30.2892 2 29.7369V16.4016C2.25076 16.5989 2.52149 16.7969 2.80974 16.9967C3.92705 17.7712 5.41493 18.6449 7.24852 19.677C6.99983 21.4481 7.00002 23.9151 7.00028 27.3428L7.0003 27.6843C7.0003 37.9475 9.98888 40.0002 23.9328 40.0002C37.0025 40.0002 41.0028 37.9477 41.0028 27.6843C41.0028 24.0857 41.0028 21.5171 40.7346 19.6884C42.5775 18.6513 44.0722 17.7741 45.1936 16.9967C46.0131 16.4286 46.691 15.8755 47.1709 15.3099C47.6549 14.7396 48.0033 14.0778 48.0033 13.3158C48.0033 12.5538 47.6549 11.8921 47.1709 11.3218C46.691 10.7562 46.0131 10.203 45.1936 9.63494C43.5661 8.50678 41.1524 7.16823 38.0294 5.4363L37.9705 5.40369ZM38.8465 20.742C38.5797 20.8901 38.3073 21.0412 38.0293 21.1954L37.9705 21.228C31.6873 24.7124 27.8797 26.6317 24.0017 26.6317C20.1237 26.6317 16.3161 24.7124 10.0328 21.228L9.97402 21.1954L9.97397 21.1953C9.69054 21.0382 9.41296 20.8842 9.14127 20.7334C9.00022 22.3125 9.00025 24.466 9.0003 27.5174L9.0003 27.6843C9.0003 32.7938 9.79285 34.9042 11.4075 36.0689C12.2938 36.7081 13.6262 37.2145 15.7155 37.5434C17.7994 37.8715 20.4758 38.0002 23.9328 38.0002C27.1656 38.0002 29.7422 37.8719 31.7989 37.544C33.859 37.2156 35.2627 36.7065 36.2421 36.0386C38.0175 34.8279 39.0028 32.6535 39.0028 27.6843C39.0028 24.5462 38.9989 22.3449 38.8465 20.742ZM2.35734 14.0159C2.04814 13.6515 2 13.4335 2 13.3158C2 13.1981 2.04815 12.9802 2.35734 12.6158C2.67053 12.2467 3.18239 11.8102 3.94916 11.2786C5.4841 10.2146 7.80919 8.92379 11.0028 7.15274C17.41 3.59957 20.741 2 24.0017 2C27.2624 2 30.5935 3.59958 37.0006 7.15274C40.1942 8.92378 42.5193 10.2146 44.0542 11.2786C44.821 11.8102 45.3328 12.2467 45.646 12.6158C45.9552 12.9802 46.0033 13.1981 46.0033 13.3158C46.0033 13.4335 45.9552 13.6515 45.646 14.0158C45.3328 14.3849 44.821 14.8215 44.0542 15.353C42.5192 16.417 40.1942 17.7079 37.0006 19.4789C30.5935 23.0321 27.2624 24.6317 24.0017 24.6317C20.741 24.6317 17.41 23.0321 11.0028 19.4789C7.80919 17.7079 5.4841 16.417 3.94916 15.353C3.18238 14.8215 2.67053 14.3849 2.35734 14.0159Z" fill="url(#paint0_linear_554_1070)"/>
<defs>
<linearGradient id="paint0_linear_554_1070" x1="0.346938" y1="42.427" x2="54.9686" y2="1.71146" gradientUnits="userSpaceOnUse">
<stop stop-color="#00A983"/>
<stop offset="1" stop-color="#3162AC"/>
</linearGradient>
</defs>
</svg>
