<svg width="27" height="50" viewBox="0 0 27 50" fill="none" xmlns="http://www.w3.org/2000/svg">
<path d="M1.6439 26.4915L14.7659 4.50679C16.2012 2.10207 16.9189 0.899709 17.437 1.00655C17.955 1.11338 17.7175 2.41475 17.2424 5.01749L14.2039 21.663H15.2296C15.2684 21.663 15.3086 21.663 15.3501 21.663H24.459C25.3632 21.663 25.8153 21.663 25.9594 21.9596C26.1036 22.2562 25.8544 22.6736 25.3561 23.5085L12.2341 45.4932C10.7987 47.8979 10.0811 49.1003 9.56303 48.9935C9.04496 48.8866 9.28252 47.5852 9.75763 44.9825L12.7962 28.3368H11.8298C11.7728 28.337 11.7129 28.337 11.6499 28.337H2.54102C1.63684 28.337 1.18475 28.337 1.04057 28.0404C0.896394 27.7438 1.14556 27.3264 1.6439 26.4915Z" stroke="url(#paint0_linear_554_1083)" stroke-width="2"/>
<defs>
<linearGradient id="paint0_linear_554_1083" x1="-2.44766" y1="45.5261" x2="38.1017" y2="36.3375" gradientUnits="userSpaceOnUse">
<stop stop-color="#00A983"/>
<stop offset="1" stop-color="#3162AC"/>
</linearGradient>
</defs>
</svg>
