<svg width="50" height="50" viewBox="0 0 50 50" fill="none" xmlns="http://www.w3.org/2000/svg">
<path d="M25.068 1C27.8647 0.999999 32.6364 16.7178 32.6364 16.7178C32.6364 16.7178 49 16.9161 49 19.9004C49 22.8847 37 31.5498 37 31.5498C37 31.5498 42.285 46.7588 39.8619 48.7483C37.4388 50.7378 25 40.2783 25 40.2783C25 40.2783 12.525 50.7378 10.2742 48.7483C8.02329 46.7588 13 31.5498 13 31.5498C13 31.5498 1 22.8847 1 19.9004C1 16.9161 17.3636 16.7178 17.3636 16.7178C17.3636 16.7178 22.2713 1 25.068 1Z" stroke="url(#paint0_linear_554_1081)" stroke-width="2"/>
<defs>
<linearGradient id="paint0_linear_554_1081" x1="0.699992" y1="45.5261" x2="51.432" y2="3.57823" gradientUnits="userSpaceOnUse">
<stop stop-color="#00A983"/>
<stop offset="1" stop-color="#3162AC"/>
</linearGradient>
</defs>
</svg>
