<svg width="340" height="600" viewBox="0 0 340 600" fill="none" xmlns="http://www.w3.org/2000/svg">
<g clip-path="url(#clip0_1385_4186)">
<rect width="340" height="600" rx="4" fill="url(#paint0_linear_1385_4186)"/>
<g style="mix-blend-mode:lighten">
<path d="M174.96 255.39L124.65 226.39L174.96 197.34L225.28 226.39L174.96 255.39ZM126.07 226.39L174.96 254.62L223.85 226.39L174.96 198.17L126.07 226.39Z" fill="#8686F2"/>
</g>
<path d="M221.47 215.54V206.16L174.96 231.82L128.46 206.16V215.54L174.96 242.39L221.47 215.54Z" fill="url(#paint1_linear_1385_4186)"/>
<path d="M174.96 233L128.46 206.16L174.96 179.31L221.47 206.16L174.96 233Z" fill="url(#paint2_linear_1385_4186)"/>
<path opacity="0.5" d="M174.96 232.23L129.13 205.77L128.46 206.16L174.96 233L221.47 206.16L220.8 205.77L174.96 232.23Z" fill="white"/>
<path d="M174.96 222.75L146.21 206.16L174.96 189.56L203.71 206.16L174.96 222.75Z" fill="#0F054C"/>
<path opacity="0.5" d="M174.96 222.75L146.21 206.16L174.96 189.56L203.71 206.16L174.96 222.75Z" fill="url(#paint3_linear_1385_4186)"/>
<path opacity="0.5" d="M174.96 166.34L203.71 182.93V206.16L174.96 189.56V166.34Z" fill="url(#paint4_linear_1385_4186)"/>
<path opacity="0.5" d="M174.96 189.56L146.21 206.16V182.93L174.96 166.34V189.56Z" fill="url(#paint5_linear_1385_4186)"/>
<path opacity="0.5" d="M174.96 199.53L146.21 182.93L174.96 166.34L203.71 182.93L174.96 199.53Z" fill="url(#paint6_linear_1385_4186)"/>
<path opacity="0.5" d="M174.96 199.53V222.75L203.71 206.16V182.93L174.96 199.53Z" fill="url(#paint7_linear_1385_4186)"/>
<path opacity="0.5" d="M146.21 182.93V206.16L174.96 222.75V199.53L146.21 182.93Z" fill="url(#paint8_linear_1385_4186)"/>
<path style="mix-blend-mode:lighten" opacity="0.5" d="M169.63 483.3C320.752 483.3 443.26 412.57 443.26 325.32C443.26 238.07 320.752 167.34 169.63 167.34C18.5083 167.34 -104 238.07 -104 325.32C-104 412.57 18.5083 483.3 169.63 483.3Z" fill="url(#paint9_radial_1385_4186)"/>
<g style="mix-blend-mode:lighten">
<path d="M48.19 314.16C46.7855 314.154 45.4068 313.782 44.19 313.08L-2.50995 286.08C-2.86732 285.875 -3.16427 285.579 -3.37077 285.223C-3.57728 284.867 -3.68604 284.462 -3.68604 284.05C-3.68604 283.638 -3.57728 283.233 -3.37077 282.877C-3.16427 282.52 -2.86732 282.225 -2.50995 282.02L82 233.23C82.0721 233.191 82.1529 233.17 82.235 233.17C82.3172 233.17 82.398 233.191 82.47 233.23L132.93 262.48C133.287 262.686 133.584 262.983 133.79 263.34C133.996 263.697 134.105 264.102 134.105 264.515C134.105 264.927 133.996 265.333 133.79 265.69C133.584 266.047 133.287 266.344 132.93 266.55L52.25 313.08C51.0149 313.79 49.6147 314.162 48.19 314.16ZM82.19 234.16L-2.07995 282.81C-2.29378 282.934 -2.47129 283.112 -2.5947 283.326C-2.7181 283.54 -2.78306 283.783 -2.78306 284.03C-2.78306 284.277 -2.7181 284.52 -2.5947 284.734C-2.47129 284.948 -2.29378 285.126 -2.07995 285.25L44.6301 312.25C45.7248 312.865 46.9594 313.188 48.2151 313.188C49.4707 313.188 50.7053 312.865 51.8 312.25L132.48 265.66C132.695 265.537 132.873 265.359 132.996 265.145C133.119 264.931 133.182 264.687 133.18 264.44C133.18 264.193 133.116 263.951 132.993 263.736C132.87 263.522 132.693 263.344 132.48 263.22L82.19 234.16Z" fill="#42E8E0"/>
</g>
<path d="M138.98 249.33L134.08 251.89L84.9299 223.48C84.421 223.251 83.8657 223.145 83.3083 223.169C82.751 223.194 82.2071 223.348 81.7199 223.62L-3.07008 272.62C-3.88008 272.16 -7.58008 270.38 -7.58008 270.38L-5.78008 275.06C-5.68812 275.302 -5.51007 275.501 -5.28008 275.62L46.5199 305.48C47.0287 305.707 47.5833 305.814 48.1402 305.792C48.6971 305.769 49.2412 305.618 49.7299 305.35L136.52 255.26C136.846 255.095 137.102 254.818 137.24 254.48L138.98 249.33Z" fill="url(#paint10_linear_1385_4186)"/>
<path d="M138.23 250.14L49.31 301.48C48.8102 301.758 48.252 301.915 47.6805 301.937C47.1091 301.96 46.5403 301.848 46.0201 301.61L-7.03995 270.98C-7.87995 270.49 -7.77995 269.64 -6.79995 269.08L82.11 217.74C82.6099 217.462 83.1681 217.306 83.7396 217.283C84.311 217.261 84.8798 217.373 85.4001 217.61L138.46 248.24C139.31 248.73 139.2 249.58 138.23 250.14Z" fill="url(#paint11_linear_1385_4186)"/>
<path d="M138.23 249.63L49.3099 300.96C48.8109 301.239 48.2531 301.398 47.6816 301.422C47.1102 301.446 46.541 301.336 46.02 301.1L-7.04004 270.48C-7.27572 270.356 -7.45735 270.149 -7.55004 269.9C-7.61691 270.112 -7.60162 270.342 -7.50719 270.544C-7.41276 270.746 -7.24606 270.905 -7.04004 270.99L46.02 301.62C46.5402 301.857 47.109 301.969 47.6804 301.947C48.2519 301.924 48.8101 301.768 49.3099 301.49L138.23 250.15C138.88 249.77 139.13 249.26 138.98 248.82C138.834 249.17 138.568 249.457 138.23 249.63Z" fill="white"/>
<path d="M22.52 290.37V289.37C22.52 289.27 22.58 289.23 22.65 289.27L26.09 291.27C26.1267 291.299 26.1566 291.335 26.1773 291.377C26.1981 291.418 26.2093 291.464 26.21 291.51V292.51C26.21 292.6 26.15 292.65 26.09 292.61L22.65 290.61C22.6115 290.583 22.5797 290.547 22.5572 290.505C22.5347 290.464 22.5219 290.417 22.52 290.37Z" fill="#2842A2"/>
<path d="M27.6301 293.34V292.34C27.6301 292.25 27.6901 292.21 27.7601 292.25L31.2001 294.25C31.2386 294.277 31.2698 294.313 31.2907 294.355C31.3117 294.397 31.3218 294.443 31.3201 294.49V295.49C31.3201 295.58 31.2701 295.63 31.2001 295.59L27.7601 293.59C27.7203 293.561 27.6877 293.524 27.6651 293.481C27.6425 293.437 27.6305 293.389 27.6301 293.34Z" fill="#2842A2"/>
<path d="M22.8801 277.94L96.7701 235.28C97.0125 235.142 97.2864 235.07 97.5651 235.07C97.8438 235.07 98.1178 235.142 98.3601 235.28L124.67 250.48C124.763 250.526 124.84 250.598 124.895 250.686C124.949 250.774 124.978 250.876 124.978 250.98C124.978 251.083 124.949 251.185 124.895 251.273C124.84 251.362 124.763 251.433 124.67 251.48L50.8101 294.12C50.5678 294.257 50.2938 294.33 50.0151 294.33C49.7364 294.33 49.4625 294.257 49.2201 294.12L22.8801 278.91C22.795 278.861 22.7243 278.79 22.6751 278.705C22.626 278.62 22.6001 278.523 22.6001 278.425C22.6001 278.326 22.626 278.23 22.6751 278.145C22.7243 278.06 22.795 277.989 22.8801 277.94Z" fill="#ADB1F2"/>
<path d="M22.88 278.92L23.14 279.08L96.77 236.57C97.0123 236.432 97.2862 236.36 97.565 236.36C97.8437 236.36 98.1176 236.432 98.36 236.57L124.36 251.64L124.62 251.49C124.713 251.443 124.79 251.372 124.845 251.283C124.899 251.195 124.928 251.093 124.928 250.99C124.928 250.886 124.899 250.785 124.845 250.696C124.79 250.608 124.713 250.536 124.62 250.49L98.36 235.28C98.1176 235.142 97.8437 235.07 97.565 235.07C97.2862 235.07 97.0123 235.142 96.77 235.28L22.88 277.94C22.7924 277.988 22.7195 278.059 22.6687 278.145C22.6179 278.232 22.5911 278.33 22.5911 278.43C22.5911 278.53 22.6179 278.628 22.6687 278.714C22.7195 278.8 22.7924 278.871 22.88 278.92Z" fill="#297FFF"/>
<path d="M100.34 239.14L32.2799 278.43L28.9099 277.09L97.4899 237.49L100.34 239.14Z" fill="#42E8E0"/>
<path d="M107.34 243.18L47.14 277.94L44.28 276.29L104.49 241.53L107.34 243.18Z" fill="#24126A"/>
<path d="M111.9 245.81L41.0199 286.73L38.1599 285.08L109.04 244.16L111.9 245.81Z" fill="#42E8E0"/>
<path d="M116.45 248.44L45.57 289.36L42.72 287.72L113.6 246.79L116.45 248.44Z" fill="#42E8E0"/>
<path d="M121.01 251.07L50.13 291.99L47.28 290.35L118.16 249.42L121.01 251.07Z" fill="#24126A"/>
<path d="M32.2801 278.43L29.4301 280.08L26.5801 278.43L29.4301 276.79L32.2801 278.43Z" fill="#42E8E0"/>
<path d="M50.6001 275.94L36.4301 284.12L33.5701 282.47L47.8501 274.23L50.6001 275.94Z" fill="#42E8E0"/>
<path d="M49.18 258.82L69.11 247.32C69.2806 247.263 69.4289 247.153 69.534 247.007C69.639 246.861 69.6955 246.685 69.6955 246.505C69.6955 246.325 69.639 246.15 69.534 246.003C69.4289 245.857 69.2806 245.748 69.11 245.69L55.52 237.83C55.0832 237.608 54.6001 237.492 54.11 237.492C53.62 237.492 53.1368 237.608 52.7 237.83L32.78 249.33C32.6094 249.388 32.4611 249.497 32.3561 249.643C32.2511 249.79 32.1946 249.965 32.1946 250.145C32.1946 250.325 32.2511 250.501 32.3561 250.647C32.4611 250.793 32.6094 250.903 32.78 250.96L46.4 258.82C46.8317 259.036 47.3075 259.148 47.79 259.148C48.2725 259.148 48.7484 259.036 49.18 258.82Z" fill="url(#paint12_linear_1385_4186)"/>
<path d="M32.7401 250L52.6601 238.48C53.0969 238.258 53.58 238.142 54.0701 238.142C54.5602 238.142 55.0433 238.258 55.4801 238.48L69.1101 246.35C69.3147 246.462 69.4843 246.628 69.6001 246.83C69.8001 246.44 69.6001 245.99 69.1101 245.68L55.5201 237.83C55.0833 237.608 54.6002 237.492 54.1101 237.492C53.62 237.492 53.1369 237.608 52.7001 237.83L32.7801 249.33C32.2401 249.64 32.0801 250.08 32.2901 250.48C32.3892 250.279 32.5458 250.112 32.7401 250Z" fill="#297FFF"/>
<path d="M138.84 248.02L127.6 181.33L128.51 180.95L127.15 180.17C126.992 180.093 126.816 180.059 126.641 180.071C126.465 180.083 126.296 180.142 126.15 180.24L36.3201 232.1C35.9422 232.346 35.636 232.687 35.4323 233.089C35.2286 233.491 35.1347 233.94 35.1601 234.39L46.4901 301.6C46.5043 301.745 46.5548 301.885 46.6369 302.005C46.719 302.126 46.8302 302.224 46.9601 302.29L48.2901 303.05L48.5201 301.81H48.4401L137.73 250.26C138.092 250.013 138.384 249.678 138.578 249.286C138.773 248.893 138.863 248.457 138.84 248.02Z" fill="url(#paint13_linear_1385_4186)"/>
<path d="M36.7701 233.94L35.3001 233.28C35.1298 233.627 35.0638 234.016 35.1101 234.4L46.4401 301.61C46.4543 301.755 46.5048 301.894 46.5869 302.015C46.669 302.135 46.7802 302.233 46.9101 302.3L48.2401 303.06L48.4701 301.82H48.3901L52.9101 299.21L36.7701 233.94Z" fill="url(#paint14_linear_1385_4186)"/>
<path d="M139.09 251.11L49.2599 302.97C48.5599 303.37 47.9699 303.14 47.8499 302.42L36.5199 235.2C36.4953 234.751 36.5897 234.304 36.7933 233.904C36.997 233.504 37.3029 233.164 37.6799 232.92L127.52 181.06C128.22 180.66 128.81 180.89 128.93 181.61L140.26 248.82C140.284 249.271 140.189 249.72 139.983 250.123C139.778 250.525 139.47 250.865 139.09 251.11Z" fill="#3E81CF"/>
<g style="mix-blend-mode:lighten">
<path d="M301.52 314.16C300.116 314.152 298.738 313.78 297.52 313.08L216.83 266.48C216.47 266.276 216.171 265.98 215.963 265.623C215.755 265.265 215.645 264.859 215.645 264.445C215.645 264.032 215.755 263.625 215.963 263.268C216.171 262.91 216.47 262.614 216.83 262.41L267.35 233.24C267.422 233.201 267.503 233.18 267.585 233.18C267.667 233.18 267.748 233.201 267.82 233.24L352.32 282.03C352.675 282.237 352.969 282.533 353.174 282.89C353.379 283.246 353.486 283.649 353.486 284.06C353.486 284.471 353.379 284.875 353.174 285.231C352.969 285.587 352.675 285.883 352.32 286.09L305.62 313.09C304.372 313.803 302.957 314.173 301.52 314.16ZM297.93 312.27C299.027 312.885 300.263 313.208 301.52 313.208C302.777 313.208 304.014 312.885 305.11 312.27L351.81 285.27C352.024 285.146 352.201 284.968 352.325 284.754C352.448 284.54 352.513 284.297 352.513 284.05C352.513 283.803 352.448 283.56 352.325 283.346C352.201 283.132 352.024 282.954 351.81 282.83L267.54 234.18L267.38 234.27L217.25 263.21C217.037 263.334 216.86 263.513 216.737 263.727C216.614 263.941 216.55 264.183 216.55 264.43C216.548 264.677 216.611 264.921 216.734 265.135C216.857 265.35 217.035 265.527 217.25 265.65L297.93 312.27Z" fill="#42E8E0"/>
</g>
<path d="M210.77 249.33L215.67 251.89L264.83 223.48C265.339 223.251 265.894 223.145 266.452 223.169C267.009 223.194 267.553 223.348 268.04 223.62L352.82 272.62C353.63 272.16 357.33 270.38 357.33 270.38L355.52 275.04C355.421 275.277 355.245 275.474 355.02 275.6L303.25 305.48C302.743 305.707 302.19 305.814 301.635 305.791C301.079 305.769 300.537 305.618 300.05 305.35L213.29 255.26C212.948 255.101 212.675 254.824 212.52 254.48L210.77 249.33Z" fill="url(#paint15_linear_1385_4186)"/>
<path d="M211.52 250.14L300.44 301.48C300.94 301.758 301.498 301.915 302.07 301.937C302.641 301.96 303.21 301.848 303.73 301.61L356.79 270.98C357.63 270.49 357.53 269.64 356.56 269.08L267.64 217.74C267.14 217.462 266.582 217.306 266.011 217.283C265.439 217.261 264.87 217.373 264.35 217.61L211.29 248.24C210.45 248.73 210.52 249.58 211.52 250.14Z" fill="url(#paint16_linear_1385_4186)"/>
<path d="M211.52 249.63L300.43 300.96C300.929 301.239 301.487 301.397 302.058 301.421C302.63 301.445 303.199 301.335 303.72 301.1L356.79 270.48C357.028 270.357 357.213 270.15 357.31 269.9C357.374 270.114 357.356 270.344 357.26 270.545C357.164 270.747 356.996 270.905 356.79 270.99L303.73 301.62C303.21 301.858 302.641 301.97 302.069 301.947C301.498 301.925 300.94 301.768 300.44 301.49L211.52 250.14C210.86 249.76 210.61 249.25 210.77 248.81C210.911 249.166 211.178 249.458 211.52 249.63Z" fill="white"/>
<path d="M327.26 290.37V289.37C327.26 289.27 327.21 289.23 327.14 289.27L323.7 291.27C323.66 291.296 323.628 291.332 323.605 291.374C323.582 291.416 323.57 291.463 323.57 291.51V292.51C323.57 292.6 323.63 292.65 323.7 292.61L327.14 290.61C327.177 290.582 327.208 290.546 327.228 290.504C327.249 290.463 327.26 290.417 327.26 290.37Z" fill="#42E8E0"/>
<path d="M322.12 293.34V292.34C322.12 292.25 322.06 292.21 321.99 292.25L318.56 294.25C318.52 294.276 318.488 294.312 318.465 294.354C318.442 294.395 318.43 294.442 318.43 294.49V295.49C318.43 295.58 318.49 295.63 318.56 295.59L321.99 293.59C322.03 293.561 322.062 293.524 322.085 293.481C322.108 293.437 322.12 293.389 322.12 293.34Z" fill="#42E8E0"/>
<path d="M326.88 277.94L252.99 235.28C252.748 235.142 252.474 235.07 252.195 235.07C251.916 235.07 251.642 235.142 251.4 235.28L225.08 250.48C224.99 250.529 224.915 250.601 224.863 250.689C224.811 250.777 224.784 250.878 224.784 250.98C224.784 251.082 224.811 251.182 224.863 251.27C224.915 251.358 224.99 251.431 225.08 251.48L298.94 294.12C299.182 294.257 299.456 294.33 299.735 294.33C300.014 294.33 300.288 294.257 300.53 294.12L326.88 278.91C326.965 278.861 327.036 278.79 327.085 278.705C327.134 278.62 327.16 278.523 327.16 278.425C327.16 278.326 327.134 278.23 327.085 278.145C327.036 278.06 326.965 277.989 326.88 277.94Z" fill="#ADB1F2"/>
<path d="M326.88 278.92L326.61 279.08L252.99 236.57C252.748 236.432 252.474 236.36 252.195 236.36C251.916 236.36 251.642 236.432 251.4 236.57L225.35 251.64L225.08 251.49C224.99 251.441 224.915 251.368 224.863 251.28C224.811 251.192 224.784 251.092 224.784 250.99C224.784 250.888 224.811 250.787 224.863 250.699C224.915 250.611 224.99 250.539 225.08 250.49L251.4 235.26C251.642 235.122 251.916 235.05 252.195 235.05C252.474 235.05 252.748 235.122 252.99 235.26L326.88 277.92C326.973 277.966 327.05 278.038 327.105 278.126C327.159 278.214 327.188 278.316 327.188 278.42C327.188 278.523 327.159 278.625 327.105 278.713C327.05 278.802 326.973 278.873 326.88 278.92Z" fill="#297FFF"/>
<path d="M249.41 239.14L317.47 278.43L320.85 277.09L252.26 237.49L249.41 239.14Z" fill="#42E8E0"/>
<path d="M242.41 243.18L302.62 277.94L305.47 276.29L245.27 241.53L242.41 243.18Z" fill="#24126A"/>
<path d="M237.86 245.81L308.74 286.73L311.59 285.08L240.71 244.16L237.86 245.81Z" fill="#42E8E0"/>
<path d="M233.3 248.44L304.18 289.36L307.03 287.72L236.15 246.79L233.3 248.44Z" fill="#42E8E0"/>
<path d="M228.74 251.07L299.62 291.99L302.48 290.35L231.6 249.42L228.74 251.07Z" fill="#24126A"/>
<path d="M317.47 278.43L320.33 280.08L323.18 278.43L320.33 276.79L317.47 278.43Z" fill="#42E8E0"/>
<path d="M299.15 275.94L313.33 284.12L316.18 282.47L301.9 274.23L299.15 275.94Z" fill="#42E8E0"/>
<path d="M300.57 258.82L280.65 247.32C280.479 247.263 280.331 247.153 280.226 247.007C280.121 246.861 280.064 246.685 280.064 246.505C280.064 246.325 280.121 246.15 280.226 246.003C280.331 245.857 280.479 245.748 280.65 245.69L294.27 237.83C294.707 237.608 295.19 237.492 295.68 237.492C296.17 237.492 296.653 237.608 297.09 237.83L317.02 249.33C317.191 249.388 317.339 249.497 317.444 249.643C317.549 249.79 317.605 249.965 317.605 250.145C317.605 250.325 317.549 250.501 317.444 250.647C317.339 250.793 317.191 250.903 317.02 250.96L303.39 258.82C302.953 259.042 302.47 259.158 301.98 259.158C301.49 259.158 301.007 259.042 300.57 258.82Z" fill="url(#paint17_linear_1385_4186)"/>
<path d="M317.02 250L297.09 238.48C296.653 238.258 296.17 238.142 295.68 238.142C295.19 238.142 294.707 238.258 294.27 238.48L280.65 246.35C280.443 246.458 280.273 246.625 280.16 246.83C279.95 246.44 280.11 245.99 280.65 245.68L294.27 237.82C294.707 237.598 295.19 237.482 295.68 237.482C296.17 237.482 296.653 237.598 297.09 237.82L317.02 249.32C317.55 249.63 317.71 250.07 317.5 250.47C317.392 250.267 317.225 250.103 317.02 250Z" fill="#297FFF"/>
<path d="M210.91 248.02L222.15 181.33L221.25 180.95L222.6 180.17C222.764 180.083 222.95 180.044 223.135 180.056C223.321 180.068 223.499 180.132 223.65 180.24L313.52 232.11C313.899 232.356 314.207 232.696 314.412 233.098C314.617 233.5 314.713 233.949 314.69 234.4L303.32 301.61C303.304 301.756 303.252 301.896 303.168 302.016C303.084 302.137 302.971 302.234 302.84 302.3L301.52 303.06L301.29 301.82H301.36L212.08 250.27C211.705 250.031 211.4 249.697 211.194 249.302C210.989 248.907 210.891 248.465 210.91 248.02Z" fill="url(#paint18_linear_1385_4186)"/>
<path d="M312.98 233.94L314.46 233.28C314.621 233.63 314.687 234.016 314.65 234.4L303.32 301.61C303.304 301.756 303.252 301.895 303.168 302.016C303.084 302.136 302.971 302.234 302.84 302.3L301.52 303.06L301.29 301.82H301.36L296.84 299.21L312.98 233.94Z" fill="url(#paint19_linear_1385_4186)"/>
<path d="M210.67 251.11L300.52 302.97C301.21 303.37 301.8 303.14 301.93 302.42L313.26 235.2C313.285 234.75 313.189 234.302 312.984 233.902C312.778 233.501 312.47 233.162 312.09 232.92L222.26 181.06C221.57 180.66 220.97 180.89 220.85 181.61L209.52 248.82C209.491 249.269 209.583 249.718 209.785 250.121C209.987 250.523 210.293 250.864 210.67 251.11Z" fill="#3E81CF"/>
<path d="M174.88 330.24L91.24 281.95L174.88 233.66L258.52 281.95L174.88 330.24Z" fill="#BCBEFF"/>
<path d="M174.88 317.06L114.07 281.95L174.88 246.85L235.68 281.95L174.88 317.06Z" fill="#E4E3EE"/>
<path d="M174.88 249.23L233.62 283.14L235.68 281.95L174.88 246.85L114.07 281.95L116.13 283.14L174.88 249.23Z" fill="white"/>
<path d="M258.52 281.95V309.33L174.88 357.62V330.24L258.52 281.95Z" fill="url(#paint20_linear_1385_4186)"/>
<path d="M91.24 281.95V309.32L174.88 357.62V330.24L91.24 281.95Z" fill="#3162AC"/>
<g opacity="0.51">
<path d="M96.8999 294.25V302.87L169.21 344.62V336L96.8999 294.25Z" fill="#453C9E"/>
</g>
<path d="M174.88 328.67L92.59 281.17L91.24 281.95L174.88 330.24L258.52 281.95L257.16 281.17L174.88 328.67Z" fill="white"/>
<path d="M245.97 301.14V306.04L187.42 339.84V334.94L245.97 301.14Z" fill="#42E8E0"/>
<path opacity="0.51" d="M91.24 282V309.37L174.88 357.67V330.29L91.24 282Z" fill="#E4E3EE"/>
<path d="M150.46 328.79L135.31 320.04V321.85L150.46 330.6V328.79Z" fill="#42E8E0"/>
<path d="M133.13 318.8L129.03 316.43L129.02 318.24L133.13 320.61V318.8Z" fill="#42E8E0"/>
<path d="M113.91 307.7L105.51 302.86V304.66L113.9 309.51L113.91 307.7Z" fill="#42E8E0"/>
<path d="M121.57 312.13L115.5 308.62L115.49 310.43L121.57 313.94V312.13Z" fill="#42E8E0"/>
<path d="M127.26 315.42L123.16 313.05V314.85L127.26 317.22V315.42Z" fill="#42E8E0"/>
<path d="M174.96 258.9L172.31 257.37L174.96 255.83L177.62 257.37L174.96 258.9Z" fill="#42E8E0"/>
<path opacity="0.1" d="M180.27 261.97L177.62 260.44L180.27 258.9L182.93 260.44L180.27 261.97Z" fill="#42E8E0"/>
<path opacity="0.4" d="M185.59 265.04L182.93 263.5L185.59 261.97L188.24 263.5L185.59 265.04Z" fill="#42E8E0"/>
<path d="M190.9 268.1L188.24 266.57L190.9 265.04L193.56 266.57L190.9 268.1Z" fill="#42E8E0"/>
<path opacity="0.4" d="M196.21 271.17L193.56 269.64L196.21 268.1L198.87 269.64L196.21 271.17Z" fill="#42E8E0"/>
<path d="M201.52 274.24L198.87 272.7L201.52 271.17L204.18 272.7L201.52 274.24Z" fill="#42E8E0"/>
<path d="M206.83 277.3L204.18 275.77L206.83 274.24L209.49 275.77L206.83 277.3Z" fill="#42E8E0"/>
<path d="M212.15 280.37L209.49 278.84L212.15 277.3L214.8 278.84L212.15 280.37Z" fill="#42E8E0"/>
<path opacity="0.1" d="M217.46 283.44L214.8 281.9L217.46 280.37L220.12 281.9L217.46 283.44Z" fill="#42E8E0"/>
<path d="M169.63 261.98L166.97 260.45L169.63 258.91L172.28 260.45L169.63 261.98Z" fill="#42E8E0"/>
<path d="M174.94 265.05L172.28 263.51L174.94 261.98L177.6 263.51L174.94 265.05Z" fill="#42E8E0"/>
<path d="M180.25 268.11L177.6 266.58L180.25 265.05L182.91 266.58L180.25 268.11Z" fill="#42E8E0"/>
<path d="M185.57 271.18L182.91 269.65L185.57 268.11L188.22 269.65L185.57 271.18Z" fill="#42E8E0"/>
<path d="M190.88 274.25L188.22 272.72L190.88 271.18L193.53 272.72L190.88 274.25Z" fill="#42E8E0"/>
<path d="M196.19 277.32L193.53 275.78L196.19 274.25L198.84 275.78L196.19 277.32Z" fill="#42E8E0"/>
<path d="M201.5 280.38L198.84 278.85L201.5 277.32L204.16 278.85L201.5 280.38Z" fill="#42E8E0"/>
<path d="M206.81 283.45L204.16 281.92L206.81 280.38L209.47 281.92L206.81 283.45Z" fill="#42E8E0"/>
<path d="M212.13 286.52L209.47 284.98L212.13 283.45L214.78 284.98L212.13 286.52Z" fill="#42E8E0"/>
<path d="M164.3 265.06L161.64 263.53L164.3 261.99L166.95 263.53L164.3 265.06Z" fill="#42E8E0"/>
<path d="M169.61 268.13L166.95 266.59L169.61 265.06L172.26 266.59L169.61 268.13Z" fill="#42E8E0"/>
<path d="M174.92 271.19L172.26 269.66L174.92 268.13L177.58 269.66L174.92 271.19Z" fill="#42E8E0"/>
<path opacity="0.1" d="M180.23 274.26L177.58 272.73L180.23 271.19L182.89 272.73L180.23 274.26Z" fill="#42E8E0"/>
<path opacity="0.4" d="M185.54 277.33L182.89 275.79L185.54 274.26L188.2 275.79L185.54 277.33Z" fill="#42E8E0"/>
<path opacity="0.4" d="M190.86 280.39L188.2 278.86L190.86 277.33L193.51 278.86L190.86 280.39Z" fill="#42E8E0"/>
<path d="M196.17 283.46L193.51 281.93L196.17 280.39L198.82 281.93L196.17 283.46Z" fill="#42E8E0"/>
<path d="M201.48 286.53L198.82 284.99L201.48 283.46L204.14 284.99L201.48 286.53Z" fill="#42E8E0"/>
<path d="M206.79 289.6L204.14 288.06L206.79 286.53L209.45 288.06L206.79 289.6Z" fill="#42E8E0"/>
<path opacity="0.4" d="M158.96 268.14L156.31 266.61L158.96 265.07L161.62 266.61L158.96 268.14Z" fill="#42E8E0"/>
<path opacity="0.4" d="M164.27 271.21L161.62 269.67L164.27 268.14L166.93 269.67L164.27 271.21Z" fill="#42E8E0"/>
<path opacity="0.1" d="M169.59 274.27L166.93 272.74L169.59 271.21L172.24 272.74L169.59 274.27Z" fill="#42E8E0"/>
<path d="M174.9 277.34L172.24 275.81L174.9 274.27L177.55 275.81L174.9 277.34Z" fill="#42E8E0"/>
<path d="M180.21 280.41L177.55 278.87L180.21 277.34L182.87 278.87L180.21 280.41Z" fill="#42E8E0"/>
<path d="M185.52 283.47L182.87 281.94L185.52 280.41L188.18 281.94L185.52 283.47Z" fill="#42E8E0"/>
<path opacity="0.4" d="M190.83 286.54L188.18 285.01L190.83 283.47L193.49 285.01L190.83 286.54Z" fill="#42E8E0"/>
<path d="M196.15 289.61L193.49 288.07L196.15 286.54L198.8 288.07L196.15 289.61Z" fill="#42E8E0"/>
<path d="M201.46 292.67L198.8 291.14L201.46 289.61L204.11 291.14L201.46 292.67Z" fill="#42E8E0"/>
<path d="M153.63 271.22L150.97 269.69L153.63 268.15L156.28 269.69L153.63 271.22Z" fill="#42E8E0"/>
<path d="M158.94 274.29L156.28 272.75L158.94 271.22L161.6 272.75L158.94 274.29Z" fill="#42E8E0"/>
<path d="M164.25 277.35L161.6 275.82L164.25 274.29L166.91 275.82L164.25 277.35Z" fill="#42E8E0"/>
<path d="M169.57 280.42L166.91 278.89L169.57 277.35L172.22 278.89L169.57 280.42Z" fill="#42E8E0"/>
<path d="M174.88 283.49L172.22 281.95L174.88 280.42L177.53 281.95L174.88 283.49Z" fill="#42E8E0"/>
<path d="M180.19 286.55L177.53 285.02L180.19 283.49L182.84 285.02L180.19 286.55Z" fill="#42E8E0"/>
<path d="M185.5 289.62L182.84 288.09L185.5 286.55L188.16 288.09L185.5 289.62Z" fill="#42E8E0"/>
<path d="M190.81 292.69L188.16 291.15L190.81 289.62L193.47 291.15L190.81 292.69Z" fill="#42E8E0"/>
<path d="M196.13 295.75L193.47 294.22L196.13 292.69L198.78 294.22L196.13 295.75Z" fill="#42E8E0"/>
<path d="M148.29 274.3L145.64 272.76L148.29 271.23L150.95 272.76L148.29 274.3Z" fill="#42E8E0"/>
<path d="M153.61 277.36L150.95 275.83L153.61 274.3L156.26 275.83L153.61 277.36Z" fill="#42E8E0"/>
<path opacity="0.4" d="M158.92 280.43L156.26 278.9L158.92 277.36L161.58 278.9L158.92 280.43Z" fill="#42E8E0"/>
<path d="M164.23 283.5L161.58 281.97L164.23 280.43L166.89 281.97L164.23 283.5Z" fill="#42E8E0"/>
<path opacity="0.1" d="M169.54 286.57L166.89 285.03L169.54 283.5L172.2 285.03L169.54 286.57Z" fill="#42E8E0"/>
<path d="M174.85 289.63L172.2 288.1L174.85 286.57L177.51 288.1L174.85 289.63Z" fill="#42E8E0"/>
<path d="M180.17 292.7L177.51 291.17L180.17 289.63L182.82 291.17L180.17 292.7Z" fill="#42E8E0"/>
<path d="M185.48 295.77L182.82 294.23L185.48 292.7L188.14 294.23L185.48 295.77Z" fill="#42E8E0"/>
<path d="M190.79 298.83L188.14 297.3L190.79 295.77L193.45 297.3L190.79 298.83Z" fill="#42E8E0"/>
<path d="M142.96 277.38L140.31 275.84L142.96 274.31L145.62 275.84L142.96 277.38Z" fill="#42E8E0"/>
<path d="M148.27 280.44L145.62 278.91L148.27 277.38L150.93 278.91L148.27 280.44Z" fill="#42E8E0"/>
<path opacity="0.4" d="M153.59 283.51L150.93 281.98L153.59 280.44L156.24 281.98L153.59 283.51Z" fill="#42E8E0"/>
<path d="M158.9 286.58L156.24 285.04L158.9 283.51L161.55 285.04L158.9 286.58Z" fill="#42E8E0"/>
<path d="M164.21 289.64L161.55 288.11L164.21 286.58L166.87 288.11L164.21 289.64Z" fill="#42E8E0"/>
<path opacity="0.1" d="M169.52 292.71L166.87 291.18L169.52 289.64L172.18 291.18L169.52 292.71Z" fill="#42E8E0"/>
<path opacity="0.4" d="M174.83 295.78L172.18 294.24L174.83 292.71L177.49 294.24L174.83 295.78Z" fill="#42E8E0"/>
<path d="M180.15 298.85L177.49 297.31L180.15 295.78L182.8 297.31L180.15 298.85Z" fill="#42E8E0"/>
<path opacity="0.1" d="M185.46 301.91L182.8 300.38L185.46 298.85L188.11 300.38L185.46 301.91Z" fill="#42E8E0"/>
<path d="M137.63 280.46L134.97 278.92L137.63 277.39L140.28 278.92L137.63 280.46Z" fill="#42E8E0"/>
<path opacity="0.4" d="M142.94 283.52L140.28 281.99L142.94 280.46L145.6 281.99L142.94 283.52Z" fill="#42E8E0"/>
<path d="M148.25 286.59L145.6 285.06L148.25 283.52L150.91 285.06L148.25 286.59Z" fill="#42E8E0"/>
<path d="M153.56 289.66L150.91 288.12L153.56 286.59L156.22 288.12L153.56 289.66Z" fill="#42E8E0"/>
<path d="M158.88 292.72L156.22 291.19L158.88 289.66L161.53 291.19L158.88 292.72Z" fill="#42E8E0"/>
<path d="M164.19 295.79L161.53 294.26L164.19 292.72L166.84 294.26L164.19 295.79Z" fill="#42E8E0"/>
<path d="M169.5 298.86L166.84 297.32L169.5 295.79L172.16 297.32L169.5 298.86Z" fill="#42E8E0"/>
<path opacity="0.4" d="M174.81 301.92L172.16 300.39L174.81 298.86L177.47 300.39L174.81 301.92Z" fill="#42E8E0"/>
<path d="M180.12 304.99L177.47 303.46L180.12 301.92L182.78 303.46L180.12 304.99Z" fill="#42E8E0"/>
<path d="M132.29 283.54L129.64 282L132.29 280.47L134.95 282L132.29 283.54Z" fill="#42E8E0"/>
<path opacity="0.1" d="M137.61 286.6L134.95 285.07L137.61 283.54L140.26 285.07L137.61 286.6Z" fill="#42E8E0"/>
<path d="M142.92 289.67L140.26 288.14L142.92 286.6L145.58 288.14L142.92 289.67Z" fill="#42E8E0"/>
<path d="M148.23 292.74L145.58 291.2L148.23 289.67L150.89 291.2L148.23 292.74Z" fill="#42E8E0"/>
<path d="M153.54 295.8L150.89 294.27L153.54 292.74L156.2 294.27L153.54 295.8Z" fill="#42E8E0"/>
<path d="M158.85 298.87L156.2 297.34L158.85 295.8L161.51 297.34L158.85 298.87Z" fill="#42E8E0"/>
<path opacity="0.4" d="M164.17 301.94L161.51 300.4L164.17 298.87L166.82 300.4L164.17 301.94Z" fill="#42E8E0"/>
<path d="M169.48 305L166.82 303.47L169.48 301.94L172.14 303.47L169.48 305Z" fill="#42E8E0"/>
<path d="M174.79 308.07L172.14 306.54L174.79 305L177.45 306.54L174.79 308.07Z" fill="#42E8E0"/>
<path d="M174.88 282.85L91.24 234.56L174.88 186.27L258.52 234.56L174.88 282.85Z" fill="#42E8E0"/>
<path d="M174.88 269.66L114.07 234.56L174.88 199.45L235.68 234.56L174.88 269.66Z" fill="#5694F2"/>
<path d="M174.88 201.83L233.62 235.75L235.68 234.56L174.88 199.45L114.07 234.56L116.13 235.75L174.88 201.83Z" fill="white"/>
<path d="M258.52 234.56V261.93L174.88 310.22V282.85L258.52 234.56Z" fill="url(#paint21_linear_1385_4186)"/>
<path d="M91.24 234.56V261.93L174.88 310.22V282.85L91.24 234.56Z" fill="url(#paint22_linear_1385_4186)"/>
<g opacity="0.51">
<path d="M96.8999 246.86V255.48L169.21 297.23V288.61L96.8999 246.86Z" fill="#5694F2"/>
</g>
<path d="M174.88 281.28L92.59 233.77L91.24 234.56L174.88 282.85L258.52 234.56L257.16 233.77L174.88 281.28Z" fill="white"/>
<path d="M245.97 253.74V258.64L187.42 292.44V287.54L245.97 253.74Z" fill="#5694F2"/>
<path opacity="0.51" d="M91 234V261.493L175 310V282.507L91 234Z" fill="#F0FFFC"/>
<path d="M150.46 281.39L135.31 272.65V274.45L150.46 283.2V281.39Z" fill="#5694F2"/>
<path d="M133.13 271.41L129.03 269.04L129.02 270.84L133.13 273.21V271.41Z" fill="#5694F2"/>
<path d="M113.91 260.31L105.51 255.46V257.27L113.9 262.12L113.91 260.31Z" fill="#5694F2"/>
<path d="M121.57 264.73L115.5 261.23L115.49 263.04L121.57 266.54V264.73Z" fill="#5694F2"/>
<path d="M127.26 268.02L123.16 265.65V267.46L127.26 269.83V268.02Z" fill="#5694F2"/>
<path d="M174.96 211.51L172.31 209.97L174.96 208.44L177.62 209.97L174.96 211.51Z" fill="#42E8E0"/>
<path opacity="0.1" d="M180.27 214.57L177.62 213.04L180.27 211.51L182.93 213.04L180.27 214.57Z" fill="#42E8E0"/>
<path opacity="0.4" d="M185.59 217.64L182.93 216.11L185.59 214.57L188.24 216.11L185.59 217.64Z" fill="#42E8E0"/>
<path d="M190.9 220.71L188.24 219.17L190.9 217.64L193.56 219.17L190.9 220.71Z" fill="#42E8E0"/>
<path opacity="0.4" d="M196.21 223.77L193.56 222.24L196.21 220.71L198.87 222.24L196.21 223.77Z" fill="#42E8E0"/>
<path d="M201.52 226.84L198.87 225.31L201.52 223.77L204.18 225.31L201.52 226.84Z" fill="#42E8E0"/>
<path d="M206.83 229.91L204.18 228.38L206.83 226.84L209.49 228.38L206.83 229.91Z" fill="#42E8E0"/>
<path d="M212.15 232.98L209.49 231.44L212.15 229.91L214.8 231.44L212.15 232.98Z" fill="#42E8E0"/>
<path opacity="0.1" d="M217.46 236.04L214.8 234.51L217.46 232.98L220.12 234.51L217.46 236.04Z" fill="#42E8E0"/>
<path d="M169.63 214.59L166.97 213.05L169.63 211.52L172.28 213.05L169.63 214.59Z" fill="#42E8E0"/>
<path d="M174.94 217.65L172.28 216.12L174.94 214.59L177.6 216.12L174.94 217.65Z" fill="#42E8E0"/>
<path d="M180.25 220.72L177.6 219.19L180.25 217.65L182.91 219.19L180.25 220.72Z" fill="#42E8E0"/>
<path d="M185.57 223.79L182.91 222.25L185.57 220.72L188.22 222.25L185.57 223.79Z" fill="#42E8E0"/>
<path d="M190.88 226.85L188.22 225.32L190.88 223.79L193.53 225.32L190.88 226.85Z" fill="#42E8E0"/>
<path d="M196.19 229.92L193.53 228.39L196.19 226.85L198.84 228.39L196.19 229.92Z" fill="#42E8E0"/>
<path d="M201.5 232.99L198.84 231.45L201.5 229.92L204.16 231.45L201.5 232.99Z" fill="#42E8E0"/>
<path d="M206.81 236.05L204.16 234.52L206.81 232.99L209.47 234.52L206.81 236.05Z" fill="#42E8E0"/>
<path d="M212.13 239.12L209.47 237.59L212.13 236.05L214.78 237.59L212.13 239.12Z" fill="#42E8E0"/>
<path d="M164.3 217.67L161.64 216.13L164.3 214.6L166.95 216.13L164.3 217.67Z" fill="#42E8E0"/>
<path d="M169.61 220.73L166.95 219.2L169.61 217.67L172.26 219.2L169.61 220.73Z" fill="#42E8E0"/>
<path d="M174.92 223.8L172.26 222.27L174.92 220.73L177.58 222.27L174.92 223.8Z" fill="#42E8E0"/>
<path opacity="0.1" d="M180.23 226.87L177.58 225.33L180.23 223.8L182.89 225.33L180.23 226.87Z" fill="#42E8E0"/>
<path opacity="0.4" d="M185.54 229.93L182.89 228.4L185.54 226.87L188.2 228.4L185.54 229.93Z" fill="#42E8E0"/>
<path opacity="0.4" d="M190.86 233L188.2 231.47L190.86 229.93L193.51 231.47L190.86 233Z" fill="#42E8E0"/>
<path d="M196.17 236.07L193.51 234.53L196.17 233L198.82 234.53L196.17 236.07Z" fill="#42E8E0"/>
<path d="M201.48 239.13L198.82 237.6L201.48 236.07L204.14 237.6L201.48 239.13Z" fill="#42E8E0"/>
<path d="M206.79 242.2L204.14 240.67L206.79 239.13L209.45 240.67L206.79 242.2Z" fill="#42E8E0"/>
<path opacity="0.4" d="M158.96 220.74L156.31 219.21L158.96 217.68L161.62 219.21L158.96 220.74Z" fill="#42E8E0"/>
<path opacity="0.4" d="M164.27 223.81L161.62 222.28L164.27 220.74L166.93 222.28L164.27 223.81Z" fill="#42E8E0"/>
<path opacity="0.1" d="M169.59 226.88L166.93 225.35L169.59 223.81L172.24 225.35L169.59 226.88Z" fill="#42E8E0"/>
<path d="M174.9 229.95L172.24 228.41L174.9 226.88L177.55 228.41L174.9 229.95Z" fill="#42E8E0"/>
<path d="M180.21 233.01L177.55 231.48L180.21 229.95L182.87 231.48L180.21 233.01Z" fill="#42E8E0"/>
<path d="M185.52 236.08L182.87 234.55L185.52 233.01L188.18 234.55L185.52 236.08Z" fill="#42E8E0"/>
<path opacity="0.4" d="M190.83 239.15L188.18 237.61L190.83 236.08L193.49 237.61L190.83 239.15Z" fill="#42E8E0"/>
<path d="M196.15 242.21L193.49 240.68L196.15 239.15L198.8 240.68L196.15 242.21Z" fill="#42E8E0"/>
<path d="M201.46 245.28L198.8 243.75L201.46 242.21L204.11 243.75L201.46 245.28Z" fill="#42E8E0"/>
<path d="M153.63 223.82L150.97 222.29L153.63 220.76L156.28 222.29L153.63 223.82Z" fill="#42E8E0"/>
<path d="M158.94 226.89L156.28 225.36L158.94 223.82L161.6 225.36L158.94 226.89Z" fill="#42E8E0"/>
<path d="M164.25 229.96L161.6 228.42L164.25 226.89L166.91 228.42L164.25 229.96Z" fill="#42E8E0"/>
<path d="M169.57 233.02L166.91 231.49L169.57 229.96L172.22 231.49L169.57 233.02Z" fill="#42E8E0"/>
<path d="M174.88 236.09L172.22 234.56L174.88 233.02L177.53 234.56L174.88 236.09Z" fill="#42E8E0"/>
<path d="M180.19 239.16L177.53 237.63L180.19 236.09L182.84 237.63L180.19 239.16Z" fill="#42E8E0"/>
<path d="M185.5 242.23L182.84 240.69L185.5 239.16L188.16 240.69L185.5 242.23Z" fill="#42E8E0"/>
<path d="M190.81 245.29L188.16 243.76L190.81 242.23L193.47 243.76L190.81 245.29Z" fill="#42E8E0"/>
<path d="M196.13 248.36L193.47 246.83L196.13 245.29L198.78 246.83L196.13 248.36Z" fill="#42E8E0"/>
<path d="M148.29 226.9L145.64 225.37L148.29 223.84L150.95 225.37L148.29 226.9Z" fill="#42E8E0"/>
<path d="M153.61 229.97L150.95 228.44L153.61 226.9L156.26 228.44L153.61 229.97Z" fill="#42E8E0"/>
<path opacity="0.4" d="M158.92 233.04L156.26 231.5L158.92 229.97L161.58 231.5L158.92 233.04Z" fill="#42E8E0"/>
<path d="M164.23 236.1L161.58 234.57L164.23 233.04L166.89 234.57L164.23 236.1Z" fill="#42E8E0"/>
<path opacity="0.1" d="M169.54 239.17L166.89 237.64L169.54 236.1L172.2 237.64L169.54 239.17Z" fill="#42E8E0"/>
<path d="M174.85 242.24L172.2 240.7L174.85 239.17L177.51 240.7L174.85 242.24Z" fill="#42E8E0"/>
<path d="M180.17 245.3L177.51 243.77L180.17 242.24L182.82 243.77L180.17 245.3Z" fill="#42E8E0"/>
<path d="M185.48 248.37L182.82 246.84L185.48 245.3L188.14 246.84L185.48 248.37Z" fill="#42E8E0"/>
<path d="M190.79 251.44L188.14 249.91L190.79 248.37L193.45 249.91L190.79 251.44Z" fill="#42E8E0"/>
<path d="M142.96 229.98L140.31 228.45L142.96 226.92L145.62 228.45L142.96 229.98Z" fill="#42E8E0"/>
<path d="M148.27 233.05L145.62 231.52L148.27 229.98L150.93 231.52L148.27 233.05Z" fill="#42E8E0"/>
<path opacity="0.4" d="M153.59 236.12L150.93 234.58L153.59 233.05L156.24 234.58L153.59 236.12Z" fill="#42E8E0"/>
<path d="M158.9 239.18L156.24 237.65L158.9 236.12L161.55 237.65L158.9 239.18Z" fill="#42E8E0"/>
<path d="M164.21 242.25L161.55 240.72L164.21 239.18L166.87 240.72L164.21 242.25Z" fill="#42E8E0"/>
<path opacity="0.1" d="M169.52 245.32L166.87 243.78L169.52 242.25L172.18 243.78L169.52 245.32Z" fill="#42E8E0"/>
<path opacity="0.4" d="M174.83 248.38L172.18 246.85L174.83 245.32L177.49 246.85L174.83 248.38Z" fill="#42E8E0"/>
<path d="M180.15 251.45L177.49 249.92L180.15 248.38L182.8 249.92L180.15 251.45Z" fill="#42E8E0"/>
<path opacity="0.1" d="M185.46 254.52L182.8 252.98L185.46 251.45L188.11 252.98L185.46 254.52Z" fill="#42E8E0"/>
<path d="M137.63 233.06L134.97 231.53L137.63 229.99L140.28 231.53L137.63 233.06Z" fill="#42E8E0"/>
<path opacity="0.4" d="M142.94 236.13L140.28 234.6L142.94 233.06L145.6 234.6L142.94 236.13Z" fill="#42E8E0"/>
<path d="M148.25 239.2L145.6 237.66L148.25 236.13L150.91 237.66L148.25 239.2Z" fill="#42E8E0"/>
<path d="M153.56 242.26L150.91 240.73L153.56 239.2L156.22 240.73L153.56 242.26Z" fill="#42E8E0"/>
<path d="M158.88 245.33L156.22 243.8L158.88 242.26L161.53 243.8L158.88 245.33Z" fill="#42E8E0"/>
<path d="M164.19 248.4L161.53 246.86L164.19 245.33L166.84 246.86L164.19 248.4Z" fill="#42E8E0"/>
<path d="M169.5 251.46L166.84 249.93L169.5 248.4L172.16 249.93L169.5 251.46Z" fill="#42E8E0"/>
<path opacity="0.4" d="M174.81 254.53L172.16 253L174.81 251.46L177.47 253L174.81 254.53Z" fill="#42E8E0"/>
<path d="M180.12 257.6L177.47 256.06L180.12 254.53L182.78 256.06L180.12 257.6Z" fill="#42E8E0"/>
<path d="M132.29 236.14L129.64 234.61L132.29 233.07L134.95 234.61L132.29 236.14Z" fill="#42E8E0"/>
<path opacity="0.1" d="M137.61 239.21L134.95 237.67L137.61 236.14L140.26 237.67L137.61 239.21Z" fill="#42E8E0"/>
<path d="M142.92 242.27L140.26 240.74L142.92 239.21L145.58 240.74L142.92 242.27Z" fill="#42E8E0"/>
<path d="M148.23 245.34L145.58 243.81L148.23 242.27L150.89 243.81L148.23 245.34Z" fill="#42E8E0"/>
<path d="M153.54 248.41L150.89 246.88L153.54 245.34L156.2 246.88L153.54 248.41Z" fill="#42E8E0"/>
<path d="M158.85 251.48L156.2 249.94L158.85 248.41L161.51 249.94L158.85 251.48Z" fill="#42E8E0"/>
<path opacity="0.4" d="M164.17 254.54L161.51 253.01L164.17 251.48L166.82 253.01L164.17 254.54Z" fill="#42E8E0"/>
<path d="M169.48 257.61L166.82 256.08L169.48 254.54L172.14 256.08L169.48 257.61Z" fill="#42E8E0"/>
<path d="M174.79 260.68L172.14 259.14L174.79 257.61L177.45 259.14L174.79 260.68Z" fill="#42E8E0"/>
<g style="mix-blend-mode:lighten">
<path d="M264.92 430.18C263.471 430.18 262.047 429.801 260.79 429.08L213.26 401.64C212.901 401.429 212.604 401.128 212.397 400.766C212.19 400.405 212.082 399.996 212.082 399.58C212.082 399.164 212.19 398.755 212.397 398.393C212.604 398.032 212.901 397.731 213.26 397.52L299.26 347.87C299.33 347.825 299.412 347.802 299.495 347.802C299.578 347.802 299.66 347.825 299.73 347.87L300.13 348.1L351.13 377.55C351.489 377.761 351.786 378.062 351.993 378.423C352.199 378.785 352.308 379.194 352.308 379.61C352.308 380.026 352.199 380.435 351.993 380.796C351.786 381.158 351.489 381.459 351.13 381.67L269.04 429.08C267.786 429.8 266.366 430.179 264.92 430.18ZM299.52 348.81L213.75 398.33C213.532 398.458 213.352 398.64 213.226 398.86C213.101 399.079 213.035 399.327 213.035 399.58C213.035 399.832 213.101 400.081 213.226 400.3C213.352 400.519 213.532 400.702 213.75 400.83L261.28 428.27C262.397 428.894 263.655 429.222 264.935 429.222C266.215 429.222 267.473 428.894 268.59 428.27L350.7 380.86C350.921 380.735 351.104 380.553 351.23 380.333C351.357 380.113 351.423 379.863 351.42 379.61C351.42 379.357 351.354 379.108 351.228 378.888C351.101 378.669 350.919 378.486 350.7 378.36L299.52 348.81Z" fill="#42E8E0"/>
</g>
<path d="M299.6 328.69L288.16 260.82L289.08 260.43L287.7 259.64C287.535 259.551 287.347 259.51 287.16 259.523C286.972 259.535 286.792 259.6 286.64 259.71L195.22 312.48C194.834 312.729 194.521 313.076 194.312 313.485C194.103 313.894 194.006 314.351 194.03 314.81L205.52 383.23C205.534 383.378 205.586 383.519 205.67 383.642C205.754 383.764 205.867 383.863 206 383.93L207.35 384.71L207.59 383.44H207.51L298.37 330.98C298.758 330.74 299.076 330.402 299.292 330C299.508 329.598 299.614 329.146 299.6 328.69Z" fill="url(#paint23_linear_1385_4186)"/>
<path d="M195.73 314.36L194.22 313.69C194.054 314.045 193.988 314.44 194.03 314.83L205.52 383.23C205.535 383.378 205.586 383.519 205.67 383.642C205.754 383.764 205.868 383.863 206 383.93L207.35 384.71L207.59 383.44H207.51L212.11 380.78L195.73 314.36Z" fill="url(#paint24_linear_1385_4186)"/>
<path d="M299.85 331.83L208.43 384.61C207.72 385.02 207.12 384.78 206.99 384.05L195.46 315.65C195.435 315.192 195.531 314.736 195.74 314.329C195.95 313.921 196.264 313.576 196.65 313.33L288.07 260.55C288.78 260.14 289.38 260.37 289.5 261.1L301.03 329.48C301.065 329.942 300.974 330.405 300.766 330.819C300.558 331.233 300.242 331.582 299.85 331.83Z" fill="#E4E3EE"/>
<g opacity="0.51">
<path d="M286.88 264.91L198.76 315.79L209.68 380.21L297.74 329.37L286.88 264.91Z" fill="#453C9E"/>
</g>
<path d="M357.31 364.22L352.31 366.82L302.31 337.94C301.793 337.705 301.227 337.594 300.659 337.617C300.092 337.639 299.537 337.794 299.04 338.07L212.76 387.89C211.93 387.43 208.17 385.62 208.17 385.62L210 390.37C210.097 390.612 210.278 390.811 210.51 390.93L263.2 421.35C263.717 421.587 264.282 421.699 264.85 421.677C265.419 421.654 265.974 421.498 266.47 421.22L354.76 370.22C355.093 370.072 355.363 369.809 355.52 369.48L357.31 364.22Z" fill="url(#paint25_linear_1385_4186)"/>
<path d="M356.52 365.04L266.05 417.28C265.543 417.561 264.976 417.721 264.397 417.745C263.817 417.769 263.239 417.658 262.71 417.42L208.71 386.24C207.85 385.75 207.96 384.88 208.95 384.31L299.44 332.07C299.946 331.784 300.513 331.622 301.093 331.597C301.674 331.573 302.252 331.687 302.78 331.93L356.78 363.1C357.64 363.6 357.52 364.48 356.52 365.04Z" fill="url(#paint26_linear_1385_4186)"/>
<path d="M356.52 364.48L266.03 416.73C265.523 417.012 264.956 417.171 264.377 417.195C263.797 417.219 263.219 417.108 262.69 416.87L208.69 385.69C208.451 385.564 208.264 385.359 208.16 385.11C208.099 385.326 208.119 385.558 208.216 385.761C208.314 385.963 208.482 386.123 208.69 386.21L262.69 417.39C263.219 417.628 263.797 417.739 264.377 417.715C264.956 417.691 265.523 417.531 266.03 417.25L356.52 365.04C357.19 364.65 357.44 364.14 357.29 363.69C357.135 364.036 356.862 364.316 356.52 364.48Z" fill="white"/>
<path d="M238.76 405.98V404.98C238.76 404.88 238.82 404.84 238.89 404.88L242.39 406.88C242.427 406.908 242.458 406.944 242.478 406.986C242.499 407.028 242.51 407.074 242.51 407.12V408.12C242.51 408.21 242.46 408.25 242.39 408.21L238.89 406.21C238.853 406.184 238.822 406.149 238.799 406.11C238.777 406.07 238.763 406.026 238.76 405.98Z" fill="#42E8E0"/>
<path d="M243.99 409V408C243.99 407.9 244.05 407.86 244.12 407.9L247.62 409.9C247.66 409.929 247.692 409.966 247.715 410.009C247.738 410.053 247.75 410.101 247.75 410.15V411.15C247.75 411.24 247.69 411.29 247.62 411.24L244.12 409.24C244.081 409.213 244.05 409.177 244.027 409.135C244.005 409.094 243.992 409.047 243.99 409Z" fill="#42E8E0"/>
<path d="M222.79 383.32L297.98 339.91C298.226 339.768 298.506 339.693 298.79 339.693C299.074 339.693 299.354 339.768 299.6 339.91L326.38 355.4C326.467 355.451 326.539 355.524 326.589 355.612C326.64 355.7 326.666 355.799 326.666 355.9C326.666 356.001 326.64 356.1 326.589 356.188C326.539 356.276 326.467 356.349 326.38 356.4L251.22 399.79C250.974 399.932 250.694 400.007 250.41 400.007C250.126 400.007 249.846 399.932 249.6 399.79L222.79 384.32C222.7 384.271 222.625 384.199 222.573 384.111C222.521 384.023 222.494 383.922 222.494 383.82C222.494 383.718 222.521 383.617 222.573 383.529C222.625 383.441 222.7 383.369 222.79 383.32Z" fill="#ADB1F2"/>
<path d="M222.79 384.32L223.06 384.48L297.98 341.22C298.226 341.078 298.506 341.003 298.79 341.003C299.074 341.003 299.354 341.078 299.6 341.22L326.11 356.56L326.38 356.4C326.467 356.349 326.539 356.276 326.589 356.188C326.64 356.1 326.666 356.001 326.666 355.9C326.666 355.799 326.64 355.7 326.589 355.612C326.539 355.524 326.467 355.451 326.38 355.4L299.6 339.91C299.354 339.768 299.074 339.693 298.79 339.693C298.506 339.693 298.226 339.768 297.98 339.91L222.79 383.32C222.7 383.369 222.625 383.441 222.573 383.529C222.521 383.617 222.494 383.718 222.494 383.82C222.494 383.922 222.521 384.023 222.573 384.111C222.625 384.199 222.7 384.271 222.79 384.32Z" fill="#49CAE6"/>
<path d="M301.62 343.83L236.31 381.54L233.4 379.87L298.72 342.16L301.62 343.83Z" fill="#42E8E0"/>
<path d="M308.74 347.94L247.48 383.31L244.57 381.64L305.84 346.27L308.74 347.94Z" fill="#42E8E0"/>
<path d="M313.38 350.62L241.25 392.27L238.34 390.59L310.48 348.94L313.38 350.62Z" fill="#42E8E0"/>
<path d="M318.02 353.3L245.88 394.94L242.98 393.27L315.11 351.62L318.02 353.3Z" fill="#42E8E0"/>
<path d="M322.66 355.98L250.52 397.62L247.62 395.94L319.75 354.3L322.66 355.98Z" fill="#42E8E0"/>
<path d="M232.36 383.82L229.45 385.5L226.55 383.82L229.45 382.15L232.36 383.82Z" fill="#42E8E0"/>
<path d="M242.6 386.13L236.57 389.61L233.67 387.93L239.7 384.45L242.6 386.13Z" fill="#42E8E0"/>
<path d="M300.88 393.83L321.15 382.12C321.95 381.66 321.95 380.92 321.15 380.47L307.29 372.47C306.846 372.244 306.354 372.125 305.855 372.125C305.356 372.125 304.864 372.244 304.42 372.47L284.14 384.18C283.967 384.238 283.817 384.349 283.71 384.497C283.603 384.645 283.546 384.823 283.546 385.005C283.546 385.188 283.603 385.365 283.71 385.513C283.817 385.661 283.967 385.772 284.14 385.83L298.01 393.83C298.454 394.057 298.946 394.175 299.445 394.175C299.944 394.175 300.436 394.057 300.88 393.83Z" fill="url(#paint27_linear_1385_4186)"/>
<path d="M284.14 384.84L304.42 373.14C304.864 372.914 305.356 372.795 305.855 372.795C306.354 372.795 306.846 372.914 307.29 373.14L321.15 381.14C321.362 381.249 321.537 381.42 321.65 381.63C321.86 381.23 321.7 380.78 321.15 380.47L307.29 372.47C306.846 372.244 306.354 372.125 305.855 372.125C305.356 372.125 304.864 372.244 304.42 372.47L284.14 384.18C283.59 384.49 283.43 384.94 283.64 385.34C283.763 385.135 283.935 384.963 284.14 384.84Z" fill="#297FFF"/>
<g opacity="0.5">
<mask id="mask0_1385_4186" style="mask-type:luminance" maskUnits="userSpaceOnUse" x="198" y="264" width="100" height="117">
<path d="M286.88 264.91L198.76 315.79L209.68 380.21L297.74 329.37L286.88 264.91Z" fill="white"/>
</mask>
<g mask="url(#mask0_1385_4186)">
<path d="M299.52 331.96L209.03 384.2C208.521 384.484 207.953 384.645 207.372 384.669C206.79 384.693 206.21 384.581 205.68 384.34L151.68 353.17C150.83 352.67 150.93 351.81 151.92 351.23L242.41 298.99C242.919 298.708 243.487 298.549 244.068 298.525C244.65 298.5 245.229 298.612 245.76 298.85L299.76 330.03C300.62 330.48 300.52 331.39 299.52 331.96Z" fill="url(#paint28_linear_1385_4186)"/>
<path d="M208.77 341.33L229.04 329.62C229.217 329.564 229.371 329.454 229.481 329.305C229.59 329.155 229.649 328.975 229.649 328.79C229.649 328.605 229.59 328.424 229.481 328.275C229.371 328.126 229.217 328.015 229.04 327.96L215.18 319.96C214.736 319.733 214.244 319.615 213.745 319.615C213.246 319.615 212.754 319.733 212.31 319.96L192.03 331.66C191.858 331.72 191.709 331.833 191.604 331.981C191.499 332.13 191.442 332.308 191.442 332.49C191.442 332.672 191.499 332.85 191.604 332.998C191.709 333.147 191.858 333.259 192.03 333.32L205.9 341.32C206.345 341.543 206.836 341.661 207.334 341.662C207.832 341.664 208.323 341.55 208.77 341.33Z" fill="url(#paint29_linear_1385_4186)"/>
<path d="M192.03 332.34L212.31 320.64C212.754 320.413 213.246 320.295 213.745 320.295C214.244 320.295 214.735 320.413 215.18 320.64L229.04 328.64C229.252 328.749 229.427 328.92 229.54 329.13C229.75 328.73 229.59 328.28 229.04 327.96L215.18 319.96C214.735 319.733 214.244 319.615 213.745 319.615C213.246 319.615 212.754 319.733 212.31 319.96L192.03 331.66C191.49 331.98 191.33 332.43 191.54 332.83C191.652 332.622 191.822 332.452 192.03 332.34Z" fill="#63A1FF"/>
<path d="M183.12 359.62L258.32 316.2C258.567 316.06 258.846 315.986 259.13 315.986C259.414 315.986 259.693 316.06 259.94 316.2L286.71 331.69C286.8 331.739 286.874 331.811 286.926 331.899C286.979 331.987 287.006 332.088 287.006 332.19C287.006 332.292 286.979 332.392 286.926 332.48C286.874 332.568 286.8 332.641 286.71 332.69L211.52 376.09C211.274 376.232 210.994 376.307 210.71 376.307C210.425 376.307 210.146 376.232 209.9 376.09L183.12 360.62C183.033 360.569 182.96 360.496 182.91 360.408C182.86 360.32 182.834 360.221 182.834 360.12C182.834 360.019 182.86 359.92 182.91 359.832C182.96 359.744 183.033 359.671 183.12 359.62Z" fill="#ADB1F2"/>
<path d="M183.12 360.62L183.39 360.77L258.32 317.48C258.566 317.338 258.845 317.263 259.13 317.263C259.414 317.263 259.694 317.338 259.94 317.48L286.44 332.81L286.71 332.66C286.8 332.611 286.874 332.539 286.927 332.451C286.979 332.363 287.006 332.262 287.006 332.16C287.006 332.058 286.979 331.957 286.927 331.869C286.874 331.781 286.8 331.709 286.71 331.66L259.94 316.17C259.693 316.03 259.414 315.956 259.13 315.956C258.846 315.956 258.567 316.03 258.32 316.17L183.12 359.59C183.025 359.639 182.946 359.713 182.891 359.804C182.836 359.894 182.807 359.999 182.807 360.105C182.807 360.211 182.836 360.316 182.891 360.406C182.946 360.497 183.025 360.571 183.12 360.62Z" fill="#63A1FF"/>
<path d="M279.71 330.64L214.2 368.46L216.79 369.96L282.3 332.14L279.71 330.64Z" fill="#24126A"/>
<path d="M272.8 326.66L210.54 362.61L213.13 364.1L275.4 328.15L272.8 326.66Z" fill="#24126A"/>
<path d="M205.89 365.29L200.07 368.65L202.67 370.15L208.48 366.79L205.89 365.29Z" fill="#24126A"/>
<path d="M211.03 370.29L206.98 372.63L209.57 374.13L213.62 371.79L211.03 370.29Z" fill="#24126A"/>
<path d="M268.48 324.16L195.75 366.15L198.34 367.65L271.07 325.66L268.48 324.16Z" fill="#24126A"/>
<path d="M264.15 321.66L191.42 363.65L194.02 365.15L266.75 323.16L264.15 321.66Z" fill="#24126A"/>
<path d="M259.83 319.17L187.1 361.16L189.69 362.65L262.42 320.66L259.83 319.17Z" fill="#24126A"/>
</g>
<path d="M286.88 264.91L198.76 315.79L209.68 380.21L297.74 329.37L286.88 264.91Z" fill="#5694F2" fill-opacity="0.6"/>
</g>
<path d="M231.94 355.65L239.07 351.53L239.27 352.77L232.15 356.89L231.94 355.65Z" fill="#42E8E0"/>
<path d="M240.21 350.87L244.1 348.62L244.31 349.86L240.42 352.11L240.21 350.87Z" fill="#42E8E0"/>
<path d="M250.14 345.14L252.95 343.51L253.16 344.75L250.35 346.37L250.14 345.14Z" fill="#42E8E0"/>
<path d="M248.09 346.32L249.05 345.77L249.26 347L248.3 347.56L248.09 346.32Z" fill="#42E8E0"/>
<path d="M245.26 347.96L247 346.95L247.21 348.19L245.47 349.2L245.26 347.96Z" fill="#42E8E0"/>
<path d="M237.58 346.18L240.39 344.55L240.6 345.79L237.79 347.42L237.58 346.18Z" fill="#42E8E0"/>
<path d="M230.98 349.99L236.49 346.81L236.7 348.05L231.19 351.23L230.98 349.99Z" fill="#42E8E0"/>
<path d="M238.88 329.93L244.38 326.74L244.59 327.98L239.09 331.17L238.88 329.93Z" fill="#42E8E0"/>
<path d="M236.04 331.57L237.79 330.56L238 331.8L236.25 332.8L236.04 331.57Z" fill="#42E8E0"/>
<path d="M239.79 335.59L245.3 332.41L245.51 333.65L240.01 336.83L239.79 335.59Z" fill="#42E8E0"/>
<path d="M236.96 337.23L238.71 336.22L238.91 337.46L237.17 338.47L236.96 337.23Z" fill="#42E8E0"/>
<path d="M234.81 305.49L224.44 311.48L224.23 310.24L234.6 304.25L234.81 305.49Z" fill="#42E8E0"/>
<path d="M238.47 303.37L235.9 304.86L235.69 303.62L238.26 302.14L238.47 303.37Z" fill="#42E8E0"/>
<path d="M256.7 302.17L246.32 308.17L246.12 306.93L256.49 300.93L256.7 302.17Z" fill="#42E8E0"/>
<path d="M260.35 300.06L257.79 301.54L257.58 300.3L260.15 298.82L260.35 300.06Z" fill="#42E8E0"/>
<path d="M227.73 312.69L224.91 314.31L224.71 313.07L227.52 311.45L227.73 312.69Z" fill="#42E8E0"/>
<path d="M244.83 309.02L242.02 310.64L241.81 309.41L244.62 307.78L244.83 309.02Z" fill="#42E8E0"/>
<path d="M234.32 308.87L228.82 312.06L228.61 310.82L234.11 307.64L234.32 308.87Z" fill="#42E8E0"/>
<path d="M237.15 307.24L235.41 308.24L235.2 307.01L236.95 306L237.15 307.24Z" fill="#42E8E0"/>
<path d="M243.8 303.4L238.29 306.58L238.09 305.35L243.59 302.16L243.8 303.4Z" fill="#42E8E0"/>
<path d="M246.64 301.76L244.89 302.77L244.68 301.53L246.43 300.53L246.64 301.76Z" fill="#42E8E0"/>
<path d="M244.35 306.19L241.54 307.81L241.33 306.58L244.14 304.95L244.35 306.19Z" fill="#42E8E0"/>
<path d="M250.94 302.38L245.44 305.56L245.23 304.32L250.73 301.14L250.94 302.38Z" fill="#42E8E0"/>
<path d="M253.78 300.74L252.03 301.75L251.82 300.51L253.57 299.5L253.78 300.74Z" fill="#42E8E0"/>
<path d="M231.14 313.82L225.39 317.14L225.18 315.9L230.93 312.58L231.14 313.82Z" fill="#42E8E0"/>
<path d="M236.39 310.78L232.23 313.19L232.02 311.95L236.18 309.54L236.39 310.78Z" fill="#42E8E0"/>
<path d="M240.29 308.53L237.48 310.15L237.27 308.91L240.08 307.29L240.29 308.53Z" fill="#42E8E0"/>
<path d="M267.55 295.91L261.8 299.23L261.59 298L267.34 294.67L267.55 295.91Z" fill="#42E8E0"/>
<path d="M272.8 292.88L268.64 295.28L268.43 294.04L272.59 291.64L272.8 292.88Z" fill="#42E8E0"/>
<path d="M276.7 290.63L273.89 292.25L273.68 291.01L276.49 289.39L276.7 290.63Z" fill="#42E8E0"/>
<path d="M265.3 333.28L271.05 329.95L271.26 331.19L265.51 334.52L265.3 333.28Z" fill="#42E8E0"/>
<path d="M260.06 336.31L264.21 333.91L264.42 335.15L260.27 337.55L260.06 336.31Z" fill="#42E8E0"/>
<path d="M256.16 338.56L258.97 336.94L259.17 338.18L256.37 339.8L256.16 338.56Z" fill="#42E8E0"/>
<path d="M263.4 337.5L269.15 334.17L269.35 335.41L263.6 338.73L263.4 337.5Z" fill="#42E8E0"/>
<path d="M258.15 340.53L262.31 338.13L262.51 339.36L258.36 341.77L258.15 340.53Z" fill="#42E8E0"/>
<path d="M254.25 342.78L257.06 341.16L257.27 342.4L254.46 344.02L254.25 342.78Z" fill="#42E8E0"/>
<path d="M240.17 332.27L242.12 331.14L242.33 332.38L240.38 333.5L240.17 332.27Z" fill="#42E8E0"/>
<path d="M236.52 334.38L239.08 332.9L239.29 334.13L236.73 335.62L236.52 334.38Z" fill="#42E8E0"/>
<path d="M231.66 316.63L225.91 319.95L225.7 318.71L231.45 315.39L231.66 316.63Z" fill="#42E8E0"/>
<path d="M236.91 313.59L232.75 316L232.54 314.76L236.7 312.36L236.91 313.59Z" fill="#42E8E0"/>
<path d="M240.81 311.34L238 312.96L237.79 311.73L240.6 310.1L240.81 311.34Z" fill="#42E8E0"/>
<path d="M228.33 321.66L226.39 322.78L226.18 321.54L228.12 320.42L228.33 321.66Z" fill="#42E8E0"/>
<path d="M231.98 319.54L229.42 321.02L229.21 319.79L231.77 318.3L231.98 319.54Z" fill="#42E8E0"/>
<path d="M237.21 316.52L233.07 318.91L232.86 317.67L237 315.28L237.21 316.52Z" fill="#42E8E0"/>
<path d="M242.82 340.06L244.76 338.94L244.97 340.18L243.03 341.3L242.82 340.06Z" fill="#42E8E0"/>
<path d="M239.16 342.18L241.73 340.69L241.94 341.93L239.37 343.42L239.16 342.18Z" fill="#42E8E0"/>
<path d="M233.94 345.2L238.07 342.81L238.28 344.04L234.15 346.43L233.94 345.2Z" fill="#42E8E0"/>
<path d="M245.77 335.47L249.91 333.08L250.12 334.32L245.98 336.71L245.77 335.47Z" fill="#42E8E0"/>
<path d="M239.01 339.16L244.59 335.94L244.79 337.18L239.22 340.4L239.01 339.16Z" fill="#42E8E0"/>
<path d="M236.18 340.8L237.92 339.79L238.13 341.03L236.39 342.04L236.18 340.8Z" fill="#42E8E0"/>
<path d="M233.46 342.37L235.2 341.36L235.41 342.6L233.67 343.61L233.46 342.37Z" fill="#42E8E0"/>
<path d="M233.83 326.39L239.34 323.21L239.55 324.45L234.04 327.63L233.83 326.39Z" fill="#42E8E0"/>
<path d="M231 328.03L232.74 327.02L232.95 328.26L231.21 329.27L231 328.03Z" fill="#42E8E0"/>
<path d="M234.21 323.07L236.15 321.94L236.36 323.18L234.42 324.3L234.21 323.07Z" fill="#42E8E0"/>
<path d="M241.07 325.33L243.01 324.21L243.22 325.45L241.28 326.57L241.07 325.33Z" fill="#42E8E0"/>
<path d="M243.84 323.73L248.5 321.04L248.71 322.28L244.05 324.97L243.84 323.73Z" fill="#42E8E0"/>
<path d="M249.33 320.57L252.1 318.96L252.31 320.2L249.53 321.8L249.33 320.57Z" fill="#42E8E0"/>
<path d="M230.56 325.18L233.12 323.7L233.33 324.93L230.76 326.42L230.56 325.18Z" fill="#42E8E0"/>
<path d="M230.31 322.27L232.26 321.15L232.46 322.39L230.52 323.51L230.31 322.27Z" fill="#42E8E0"/>
<path d="M226.66 324.39L229.22 322.9L229.43 324.14L226.87 325.62L226.66 324.39Z" fill="#42E8E0"/>
<path d="M238.25 326.96L239.99 325.95L240.2 327.19L238.46 328.2L238.25 326.96Z" fill="#42E8E0"/>
<path d="M235.53 328.53L237.27 327.52L237.48 328.76L235.74 329.77L235.53 328.53Z" fill="#42E8E0"/>
<path d="M248.93 342.74L254.88 339.3L255.09 340.54L249.14 343.98L248.93 342.74Z" fill="#42E8E0"/>
<path d="M242.26 346.59L247.84 343.37L248.05 344.61L242.47 347.83L242.26 346.59Z" fill="#42E8E0"/>
<path d="M239.43 348.23L241.17 347.22L241.38 348.46L239.64 349.47L239.43 348.23Z" fill="#42E8E0"/>
<path d="M236.71 349.8L238.46 348.79L238.66 350.03L236.92 351.04L236.71 349.8Z" fill="#42E8E0"/>
<path d="M235.22 350.66L231.46 352.84L231.67 354.08L235.43 351.9L235.22 350.66Z" fill="#42E8E0"/>
<g style="mix-blend-mode:lighten">
<path d="M84.8399 430.18C83.3908 430.181 81.9668 429.801 80.7099 429.08L-1.3901 381.67C-1.75137 381.461 -2.05131 381.16 -2.25983 380.799C-2.46836 380.437 -2.57812 380.027 -2.57812 379.61C-2.57813 379.193 -2.46836 378.782 -2.25983 378.421C-2.05131 378.059 -1.75137 377.759 -1.3901 377.55L50.0299 347.87C50.0987 347.826 50.1785 347.803 50.2599 347.803C50.3413 347.803 50.4211 347.826 50.4899 347.87L136.52 397.48C136.881 397.689 137.181 397.989 137.39 398.351C137.598 398.712 137.708 399.123 137.708 399.54C137.708 399.957 137.598 400.367 137.39 400.729C137.181 401.091 136.881 401.391 136.52 401.6L88.9599 429.08C87.7067 429.801 86.2859 430.181 84.8399 430.18ZM81.1799 428.27C82.2969 428.894 83.5552 429.222 84.8349 429.222C86.1146 429.222 87.3729 428.894 88.4899 428.27L136.02 400.83C136.238 400.702 136.418 400.519 136.544 400.3C136.669 400.081 136.735 399.833 136.735 399.58C136.735 399.327 136.669 399.079 136.544 398.86C136.418 398.641 136.238 398.458 136.02 398.33L50.2599 348.82L50.0899 348.91L-0.910088 378.36C-1.12943 378.487 -1.31149 378.669 -1.4379 378.888C-1.56432 379.108 -1.63061 379.357 -1.6301 379.61C-1.63268 379.864 -1.56727 380.113 -1.44065 380.333C-1.31403 380.553 -1.13082 380.735 -0.910088 380.86L81.1799 428.27Z" fill="#42E8E0"/>
</g>
<path d="M50.15 328.69L61.59 260.82L60.67 260.43L62.05 259.64C62.2166 259.549 62.4057 259.507 62.5952 259.519C62.7847 259.532 62.9667 259.598 63.12 259.71L154.52 312.48C154.905 312.73 155.217 313.077 155.424 313.486C155.631 313.895 155.726 314.352 155.7 314.81L144.17 383.21C144.157 383.358 144.107 383.5 144.022 383.623C143.938 383.746 143.824 383.845 143.69 383.91L142.34 384.69L142.11 383.42H142.19L51.32 330.96C50.9462 330.714 50.6421 330.376 50.4371 329.978C50.2321 329.581 50.1333 329.137 50.15 328.69Z" fill="url(#paint30_linear_1385_4186)"/>
<path d="M154.03 314.36L155.53 313.69C155.701 314.044 155.767 314.44 155.72 314.83L144.19 383.23C144.177 383.378 144.127 383.521 144.042 383.643C143.958 383.766 143.844 383.865 143.71 383.93L142.36 384.71L142.13 383.44H142.21L137.61 380.78L154.03 314.36Z" fill="url(#paint31_linear_1385_4186)"/>
<path d="M49.9099 331.83L141.32 384.61C142.03 385.02 142.63 384.78 142.76 384.05L154.29 315.65C154.315 315.192 154.219 314.736 154.01 314.329C153.8 313.921 153.486 313.576 153.1 313.33L61.6799 260.55C60.9799 260.14 60.3699 260.37 60.2499 261.1L48.7199 329.48C48.6889 329.942 48.783 330.405 48.9924 330.818C49.2018 331.232 49.5187 331.581 49.9099 331.83Z" fill="#E4E3EE"/>
<g opacity="0.51">
<path d="M62.88 264.91L151 315.79L140.07 380.21L52.01 329.37L62.88 264.91Z" fill="#453C9E"/>
</g>
<path d="M-7.56006 364.22L-2.56006 366.82L47.4399 337.94C47.9556 337.705 48.5192 337.594 49.0854 337.617C49.6516 337.639 50.2046 337.794 50.6999 338.07L136.98 387.89C137.81 387.43 141.57 385.62 141.57 385.62L139.75 390.37C139.653 390.612 139.472 390.811 139.24 390.93L86.5199 421.35C86.0049 421.587 85.441 421.699 84.8743 421.676C84.3077 421.654 83.7544 421.497 83.2599 421.22L-5.04005 370.22C-5.37204 370.052 -5.63411 369.772 -5.78006 369.43L-7.56006 364.22Z" fill="url(#paint32_linear_1385_4186)"/>
<path d="M-6.78991 365.04L83.7001 417.28C84.2093 417.562 84.7771 417.721 85.3586 417.745C85.94 417.769 86.5191 417.658 87.0501 417.42L141.05 386.24C141.9 385.75 141.8 384.88 140.81 384.31L50.3201 332.07C49.8124 331.784 49.2442 331.622 48.6619 331.597C48.0796 331.573 47.4999 331.687 46.9701 331.93L-7.02992 363.1C-7.88992 363.6 -7.77991 364.48 -6.78991 365.04Z" fill="url(#paint33_linear_1385_4186)"/>
<path d="M-6.79009 364.48L83.6999 416.73C84.2091 417.012 84.777 417.171 85.3584 417.195C85.9398 417.22 86.5189 417.108 87.0499 416.87L141.05 385.69C141.287 385.565 141.471 385.359 141.57 385.11C141.634 385.325 141.617 385.557 141.521 385.76C141.425 385.963 141.257 386.123 141.05 386.21L87.0499 417.39C86.5189 417.628 85.9398 417.74 85.3584 417.715C84.777 417.691 84.2091 417.532 83.6999 417.25L-6.79009 365.01C-7.45009 364.62 -7.71009 364.11 -7.55009 363.66C-7.4021 364.015 -7.13271 364.306 -6.79009 364.48Z" fill="white"/>
<path d="M110.99 405.98V404.98C110.99 404.88 110.94 404.84 110.87 404.88L107.37 406.88C107.331 406.908 107.3 406.943 107.277 406.985C107.255 407.027 107.242 407.073 107.24 407.12V408.12C107.24 408.21 107.3 408.25 107.37 408.21L110.87 406.21C110.906 406.183 110.935 406.149 110.956 406.109C110.977 406.069 110.988 406.025 110.99 405.98Z" fill="#42E8E0"/>
<path d="M105.76 409V408C105.76 407.9 105.7 407.86 105.63 407.9L102.13 409.9C102.091 409.929 102.06 409.967 102.039 410.01C102.018 410.054 102.008 410.102 102.01 410.15V411.15C102.01 411.24 102.01 411.29 102.13 411.24L105.63 409.24C105.668 409.213 105.7 409.177 105.723 409.135C105.745 409.094 105.758 409.047 105.76 409Z" fill="#42E8E0"/>
<path d="M126.97 383.32L51.7701 339.91C51.5238 339.768 51.2444 339.693 50.9601 339.693C50.6757 339.693 50.3963 339.768 50.1501 339.91L23.3701 355.4C23.283 355.451 23.2107 355.524 23.1606 355.612C23.1104 355.7 23.084 355.799 23.084 355.9C23.084 356.001 23.1104 356.1 23.1606 356.188C23.2107 356.276 23.283 356.349 23.3701 356.4L98.5201 399.79C98.7645 399.932 99.0422 400.007 99.325 400.007C99.6079 400.007 99.8856 399.932 100.13 399.79L126.95 384.32C127.038 384.27 127.112 384.199 127.164 384.112C127.216 384.025 127.244 383.927 127.246 383.826C127.248 383.725 127.224 383.625 127.175 383.536C127.127 383.447 127.056 383.373 126.97 383.32Z" fill="#ADB1F2"/>
<path d="M126.97 384.32L126.7 384.48L51.7701 341.22C51.5238 341.078 51.2444 341.003 50.9601 341.003C50.6757 341.003 50.3963 341.078 50.1501 341.22L23.64 356.56L23.3701 356.4C23.283 356.349 23.2107 356.276 23.1606 356.188C23.1104 356.1 23.084 356.001 23.084 355.9C23.084 355.799 23.1104 355.7 23.1606 355.612C23.2107 355.524 23.283 355.451 23.3701 355.4L50.1501 339.91C50.3963 339.768 50.6757 339.693 50.9601 339.693C51.2444 339.693 51.5238 339.768 51.7701 339.91L126.97 383.32C127.057 383.371 127.129 383.444 127.18 383.532C127.23 383.62 127.256 383.719 127.256 383.82C127.256 383.921 127.23 384.02 127.18 384.108C127.129 384.196 127.057 384.269 126.97 384.32Z" fill="#49CAE6"/>
<path d="M54.4199 347.46L118.07 384.21L120.82 382.45L57.3399 345.79L54.4199 347.46Z" fill="#42E8E0"/>
<path d="M50.29 353.3L108.08 386.66L110.06 384.45L53.19 351.62L50.29 353.3Z" fill="#42E8E0"/>
<path d="M36.3701 350.62L108.51 392.27L111.41 390.59L39.2801 348.94L36.3701 350.62Z" fill="#42E8E0"/>
<path d="M31.74 353.3L103.87 394.94L106.77 393.27L34.64 351.62L31.74 353.3Z" fill="#42E8E0"/>
<path d="M27.1001 355.98L99.2301 397.62L102.14 395.94L30.0001 354.3L27.1001 355.98Z" fill="#42E8E0"/>
<path d="M117.4 383.82L120.3 385.5L123.2 383.82L120.3 382.15L117.4 383.82Z" fill="#42E8E0"/>
<path d="M107.15 386.13L113.18 389.61L116.08 387.93L110.06 384.45L107.15 386.13Z" fill="#42E8E0"/>
<path d="M48.8799 393.83L28.5999 382.12C28.427 382.062 28.2766 381.951 28.17 381.803C28.0634 381.655 28.0061 381.477 28.0061 381.295C28.0061 381.112 28.0634 380.935 28.17 380.787C28.2766 380.639 28.427 380.528 28.5999 380.47L42.5199 372.48C42.9644 372.253 43.4561 372.135 43.9549 372.135C44.4538 372.135 44.9455 372.253 45.3899 372.48L65.6599 384.19C65.8329 384.248 65.9833 384.359 66.0899 384.507C66.1964 384.655 66.2538 384.832 66.2538 385.015C66.2538 385.197 66.1964 385.375 66.0899 385.523C65.9833 385.671 65.8329 385.782 65.6599 385.84L51.7999 393.84C51.3483 394.073 50.847 394.194 50.3387 394.192C49.8304 394.191 49.33 394.066 48.8799 393.83Z" fill="url(#paint34_linear_1385_4186)"/>
<path d="M65.6099 384.84L45.3399 373.14C44.8955 372.913 44.4037 372.795 43.9049 372.795C43.4061 372.795 42.9143 372.913 42.4699 373.14L28.5999 381.14C28.3919 381.255 28.2191 381.424 28.0999 381.63C27.8899 381.23 28.0499 380.78 28.5999 380.47L42.5199 372.48C42.9644 372.253 43.4561 372.135 43.9549 372.135C44.4538 372.135 44.9455 372.253 45.3899 372.48L65.6599 384.19C66.2099 384.5 66.3699 384.95 66.1599 385.35C66.0307 385.13 65.8394 384.952 65.6099 384.84Z" fill="#297FFF"/>
<g opacity="0.6">
<mask id="mask1_1385_4186" style="mask-type:luminance" maskUnits="userSpaceOnUse" x="52" y="264" width="99" height="117">
<path d="M62.88 264.91L151 315.79L140.07 380.21L52.01 329.37L62.88 264.91Z" fill="white"/>
</mask>
<g mask="url(#mask1_1385_4186)">
<path d="M50.23 331.96L140.72 384.2C141.227 384.484 141.793 384.644 142.373 384.669C142.954 384.693 143.531 384.58 144.06 384.34L198.06 353.17C198.92 352.67 198.81 351.81 197.82 351.23L107.33 298.99C106.821 298.708 106.253 298.549 105.672 298.525C105.09 298.5 104.511 298.612 103.98 298.85L49.98 330.03C49.13 330.48 49.24 331.39 50.23 331.96Z" fill="url(#paint35_linear_1385_4186)"/>
<path d="M140.99 341.33L120.71 329.62C120.538 329.559 120.39 329.447 120.284 329.298C120.179 329.15 120.123 328.972 120.123 328.79C120.123 328.608 120.179 328.43 120.284 328.281C120.39 328.133 120.538 328.02 120.71 327.96L134.57 319.96C135.015 319.733 135.506 319.615 136.005 319.615C136.504 319.615 136.996 319.733 137.44 319.96L157.72 331.66C157.892 331.72 158.041 331.833 158.146 331.981C158.251 332.13 158.308 332.308 158.308 332.49C158.308 332.672 158.251 332.85 158.146 332.998C158.041 333.147 157.892 333.259 157.72 333.32L143.86 341.32C143.415 341.543 142.924 341.661 142.426 341.662C141.928 341.664 141.437 341.55 140.99 341.33Z" fill="url(#paint36_linear_1385_4186)"/>
<path d="M157.72 332.34L137.44 320.64C136.996 320.413 136.504 320.295 136.005 320.295C135.506 320.295 135.014 320.413 134.57 320.64L120.71 328.64C120.502 328.755 120.329 328.924 120.21 329.13C120 328.73 120.16 328.28 120.71 327.96L134.57 319.96C135.014 319.733 135.506 319.615 136.005 319.615C136.504 319.615 136.996 319.733 137.44 319.96L157.72 331.66C158.27 331.98 158.43 332.43 158.22 332.83C158.101 332.624 157.928 332.455 157.72 332.34Z" fill="#297FFF"/>
<path d="M166.63 359.62L91.44 316.2C91.1931 316.06 90.9139 315.986 90.63 315.986C90.346 315.986 90.0669 316.06 89.82 316.2L63.04 331.69C62.9529 331.741 62.8806 331.814 62.8305 331.902C62.7803 331.989 62.7539 332.089 62.7539 332.19C62.7539 332.291 62.7803 332.39 62.8305 332.478C62.8806 332.566 62.9529 332.639 63.04 332.69L138.2 376.08C138.446 376.222 138.726 376.297 139.01 376.297C139.294 376.297 139.574 376.222 139.82 376.08L166.63 360.61C166.717 360.56 166.79 360.488 166.84 360.401C166.891 360.314 166.917 360.215 166.917 360.115C166.917 360.014 166.891 359.916 166.84 359.829C166.79 359.742 166.717 359.67 166.63 359.62Z" fill="#ADB1F2"/>
<path d="M166.63 360.62L166.36 360.77L91.44 317.48C91.1937 317.338 90.9143 317.263 90.63 317.263C90.3456 317.263 90.0662 317.338 89.82 317.48L63.31 332.81L63.04 332.66C62.9529 332.609 62.8806 332.536 62.8305 332.448C62.7803 332.36 62.7539 332.261 62.7539 332.16C62.7539 332.059 62.7803 331.96 62.8305 331.872C62.8806 331.784 62.9529 331.711 63.04 331.66L89.82 316.17C90.0669 316.03 90.346 315.956 90.63 315.956C90.9139 315.956 91.1931 316.03 91.44 316.17L166.63 359.59C166.727 359.636 166.81 359.709 166.867 359.8C166.925 359.892 166.956 359.997 166.956 360.105C166.956 360.213 166.925 360.319 166.867 360.41C166.81 360.501 166.727 360.574 166.63 360.62Z" fill="#297FFF"/>
<path d="M70.05 330.64L135.56 368.46L132.96 369.96L67.45 332.14L70.05 330.64Z" fill="#24126A"/>
<path d="M76.9501 326.66L139.21 362.61L136.62 364.1L74.3601 328.15L76.9501 326.66Z" fill="#24126A"/>
<path d="M143.86 365.29L149.68 368.65L147.08 370.15L141.27 366.79L143.86 365.29Z" fill="#24126A"/>
<path d="M138.73 370.29L142.78 372.63L140.18 374.13L136.13 371.79L138.73 370.29Z" fill="#24126A"/>
<path d="M81.2699 324.16L154.01 366.15L151.41 367.65L78.6799 325.66L81.2699 324.16Z" fill="#24126A"/>
<path d="M85.6 321.66L158.33 363.65L155.73 365.15L83.01 323.16L85.6 321.66Z" fill="#24126A"/>
<path d="M89.9201 319.17L162.65 361.16L160.06 362.65L87.3301 320.66L89.9201 319.17Z" fill="#24126A"/>
</g>
<path d="M62.88 264.91L151 315.79L140.07 380.21L52.01 329.37L62.88 264.91Z" fill="#5694F2" fill-opacity="0.6"/>
</g>
<path d="M82.6101 288.79L89.7401 292.91L89.9501 291.67L82.8201 287.55L82.6101 288.79Z" fill="#42E8E0"/>
<path d="M90.8801 293.57L94.7701 295.81L94.9801 294.58L91.0901 292.33L90.8801 293.57Z" fill="#42E8E0"/>
<path d="M100.81 299.3L103.62 300.93L103.83 299.69L101.02 298.07L100.81 299.3Z" fill="#42E8E0"/>
<path d="M98.76 298.12L99.72 298.67L99.93 297.44L98.97 296.88L98.76 298.12Z" fill="#42E8E0"/>
<path d="M95.9299 296.48L97.6699 297.49L97.8799 296.25L96.1399 295.24L95.9299 296.48Z" fill="#42E8E0"/>
<path d="M88.25 298.26L91.06 299.88L91.27 298.65L88.46 297.02L88.25 298.26Z" fill="#42E8E0"/>
<path d="M81.6499 294.45L87.1599 297.63L87.3699 296.39L81.8599 293.21L81.6499 294.45Z" fill="#42E8E0"/>
<path d="M89.55 314.51L95.05 317.69L95.2601 316.45L89.7601 313.27L89.55 314.51Z" fill="#42E8E0"/>
<path d="M86.71 312.87L88.46 313.88L88.67 312.64L86.92 311.64L86.71 312.87Z" fill="#42E8E0"/>
<path d="M90.47 308.85L95.97 312.03L96.18 310.79L90.68 307.61L90.47 308.85Z" fill="#42E8E0"/>
<path d="M87.6301 307.21L89.3801 308.22L89.5901 306.98L87.8401 305.97L87.6301 307.21Z" fill="#42E8E0"/>
<path d="M85.4799 338.95L75.1099 332.96L74.8999 334.19L85.2699 340.19L85.4799 338.95Z" fill="#42E8E0"/>
<path d="M89.1401 341.06L86.5701 339.58L86.3601 340.82L88.9301 342.3L89.1401 341.06Z" fill="#42E8E0"/>
<path d="M107.37 342.27L96.99 336.27L96.79 337.51L107.16 343.5L107.37 342.27Z" fill="#42E8E0"/>
<path d="M111.02 344.38L108.46 342.9L108.25 344.13L110.82 345.62L111.02 344.38Z" fill="#42E8E0"/>
<path d="M78.4001 331.75L75.5901 330.13L75.3801 331.37L78.1901 332.99L78.4001 331.75Z" fill="#42E8E0"/>
<path d="M95.5 335.42L92.69 333.8L92.48 335.03L95.29 336.66L95.5 335.42Z" fill="#42E8E0"/>
<path d="M84.99 335.56L79.49 332.38L79.28 333.62L84.78 336.8L84.99 335.56Z" fill="#42E8E0"/>
<path d="M87.8301 337.2L86.0801 336.19L85.8701 337.43L87.6201 338.44L87.8301 337.2Z" fill="#42E8E0"/>
<path d="M94.47 341.04L88.97 337.85L88.76 339.09L94.26 342.28L94.47 341.04Z" fill="#42E8E0"/>
<path d="M97.3101 342.67L95.5601 341.67L95.3501 342.91L97.1001 343.91L97.3101 342.67Z" fill="#42E8E0"/>
<path d="M95.02 338.25L92.21 336.62L92 337.86L94.81 339.49L95.02 338.25Z" fill="#42E8E0"/>
<path d="M101.61 342.06L96.1099 338.88L95.8999 340.12L101.41 343.3L101.61 342.06Z" fill="#42E8E0"/>
<path d="M104.45 343.7L102.71 342.69L102.49 343.93L104.24 344.94L104.45 343.7Z" fill="#42E8E0"/>
<path d="M81.8101 330.62L76.0601 327.3L75.8601 328.54L81.6101 331.86L81.8101 330.62Z" fill="#42E8E0"/>
<path d="M87.06 333.66L82.9 331.25L82.7 332.49L86.85 334.9L87.06 333.66Z" fill="#42E8E0"/>
<path d="M90.9599 335.91L88.1499 334.29L87.9399 335.52L90.7499 337.15L90.9599 335.91Z" fill="#42E8E0"/>
<path d="M118.22 348.53L112.47 345.2L112.26 346.44L118.01 349.77L118.22 348.53Z" fill="#42E8E0"/>
<path d="M123.47 351.56L119.31 349.16L119.1 350.4L123.26 352.8L123.47 351.56Z" fill="#42E8E0"/>
<path d="M127.37 353.81L124.56 352.19L124.35 353.43L127.16 355.05L127.37 353.81Z" fill="#42E8E0"/>
<path d="M115.98 311.16L121.73 314.48L121.93 313.25L116.18 309.92L115.98 311.16Z" fill="#42E8E0"/>
<path d="M110.73 308.13L114.89 310.53L115.09 309.29L110.94 306.89L110.73 308.13Z" fill="#42E8E0"/>
<path d="M106.83 305.87L109.64 307.5L109.85 306.26L107.04 304.64L106.83 305.87Z" fill="#42E8E0"/>
<path d="M114.07 306.94L119.82 310.27L120.03 309.03L114.27 305.7L114.07 306.94Z" fill="#42E8E0"/>
<path d="M108.82 303.91L112.98 306.31L113.19 305.07L109.03 302.67L108.82 303.91Z" fill="#42E8E0"/>
<path d="M104.92 301.66L107.73 303.28L107.94 302.04L105.13 300.42L104.92 301.66Z" fill="#42E8E0"/>
<path d="M90.8501 312.17L92.7901 313.29L93.0001 312.06L91.0501 310.93L90.8501 312.17Z" fill="#42E8E0"/>
<path d="M87.1899 310.06L89.7599 311.54L89.9599 310.3L87.3999 308.82L87.1899 310.06Z" fill="#42E8E0"/>
<path d="M82.3301 327.81L76.5801 324.49L76.3701 325.73L82.1201 329.05L82.3301 327.81Z" fill="#42E8E0"/>
<path d="M87.58 330.85L83.42 328.44L83.21 329.68L87.37 332.08L87.58 330.85Z" fill="#42E8E0"/>
<path d="M91.48 333.1L88.67 331.48L88.46 332.71L91.27 334.34L91.48 333.1Z" fill="#42E8E0"/>
<path d="M79.0001 322.78L77.0601 321.66L76.8501 322.9L78.7901 324.02L79.0001 322.78Z" fill="#42E8E0"/>
<path d="M82.6501 324.9L80.0901 323.41L79.8801 324.65L82.4501 326.14L82.6501 324.9Z" fill="#42E8E0"/>
<path d="M87.88 327.92L83.74 325.53L83.53 326.76L87.67 329.16L87.88 327.92Z" fill="#42E8E0"/>
<path d="M93.49 304.38L95.43 305.5L95.64 304.26L93.7 303.14L93.49 304.38Z" fill="#42E8E0"/>
<path d="M89.8301 302.26L92.4001 303.74L92.6101 302.51L90.0401 301.02L89.8301 302.26Z" fill="#42E8E0"/>
<path d="M84.6101 299.24L88.7401 301.63L88.9501 300.39L84.8201 298L84.6101 299.24Z" fill="#42E8E0"/>
<path d="M96.45 308.97L100.58 311.36L100.79 310.12L96.66 307.73L96.45 308.97Z" fill="#42E8E0"/>
<path d="M89.6799 305.28L95.2599 308.5L95.4699 307.26L89.8899 304.04L89.6799 305.28Z" fill="#42E8E0"/>
<path d="M86.8501 303.64L88.5901 304.65L88.8001 303.41L87.0601 302.4L86.8501 303.64Z" fill="#42E8E0"/>
<path d="M84.1301 302.07L85.8701 303.08L86.0801 301.84L84.3401 300.83L84.1301 302.07Z" fill="#42E8E0"/>
<path d="M84.5 318.05L90.01 321.23L90.22 319.99L84.71 316.81L84.5 318.05Z" fill="#42E8E0"/>
<path d="M81.6699 316.41L83.4099 317.42L83.6199 316.18L81.8799 315.17L81.6699 316.41Z" fill="#42E8E0"/>
<path d="M84.8801 321.37L86.8201 322.5L87.0301 321.26L85.0901 320.14L84.8801 321.37Z" fill="#42E8E0"/>
<path d="M91.74 319.11L93.68 320.23L93.89 318.99L91.95 317.87L91.74 319.11Z" fill="#42E8E0"/>
<path d="M94.51 320.71L99.17 323.4L99.38 322.16L94.72 319.47L94.51 320.71Z" fill="#42E8E0"/>
<path d="M100 323.87L102.77 325.48L102.98 324.24L100.21 322.64L100 323.87Z" fill="#42E8E0"/>
<path d="M81.23 319.26L83.79 320.74L84 319.51L81.43 318.02L81.23 319.26Z" fill="#42E8E0"/>
<path d="M80.98 322.17L82.93 323.29L83.14 322.05L81.19 320.93L80.98 322.17Z" fill="#42E8E0"/>
<path d="M77.3301 320.05L79.9001 321.54L80.1001 320.3L77.5401 318.82L77.3301 320.05Z" fill="#42E8E0"/>
<path d="M88.9199 317.48L90.6699 318.49L90.8699 317.25L89.1299 316.24L88.9199 317.48Z" fill="#42E8E0"/>
<path d="M86.2 315.91L87.95 316.92L88.15 315.68L86.41 314.67L86.2 315.91Z" fill="#42E8E0"/>
<path d="M99.6001 301.7L105.55 305.14L105.76 303.9L99.8101 300.46L99.6001 301.7Z" fill="#42E8E0"/>
<path d="M92.9399 297.85L98.5099 301.07L98.7199 299.83L93.1499 296.61L92.9399 297.85Z" fill="#42E8E0"/>
<path d="M90.1001 296.21L91.8501 297.22L92.0501 295.98L90.3101 294.97L90.1001 296.21Z" fill="#42E8E0"/>
<path d="M87.3801 294.64L89.1301 295.64L89.3401 294.41L87.5901 293.4L87.3801 294.64Z" fill="#42E8E0"/>
<path d="M85.9001 293.78L82.1301 291.6L82.3401 290.36L86.1101 292.54L85.9001 293.78Z" fill="#42E8E0"/>
<path d="M48.1301 343.83L51.0301 345.51L53.9401 343.83L51.0301 342.16L48.1301 343.83Z" fill="#42E8E0"/>
<path d="M41.01 347.94L47.04 351.42L49.94 349.75L43.92 346.27L41.01 347.94Z" fill="#42E8E0"/>
<path style="mix-blend-mode:lighten" opacity="0.5" d="M235.81 234.55V116H113.95V234.55L174.88 269.73L235.81 234.55Z" fill="url(#paint37_linear_1385_4186)"/>
<g style="mix-blend-mode:lighten">
<path d="M174.96 462.28L124.65 433.23L174.96 404.18L225.28 433.23L174.96 462.28ZM126.07 433.23L174.96 461.48L223.85 433.25L174.96 405.02L126.07 433.23Z" fill="#8686F2"/>
</g>
<path d="M221.47 422.43V413.04L174.96 438.7L128.46 413.04V422.43L174.96 449.28L221.47 422.43Z" fill="url(#paint38_linear_1385_4186)"/>
<path d="M174.96 439.89L128.46 413.04L174.96 386.19L221.47 413.04L174.96 439.89Z" fill="url(#paint39_linear_1385_4186)"/>
<path opacity="0.5" d="M174.96 439.12L129.13 412.66L128.46 413.04L174.96 439.89L221.47 413.04L220.8 412.66L174.96 439.12Z" fill="white"/>
<path d="M174.96 429.64L146.21 413.04L174.96 396.44L203.71 413.04L174.96 429.64Z" fill="#0F054C"/>
<path opacity="0.5" d="M174.96 429.64L146.21 413.04L174.96 396.44L203.71 413.04L174.96 429.64Z" fill="url(#paint40_linear_1385_4186)"/>
<path opacity="0.5" d="M174.96 373.22L203.71 389.82V413.04L174.96 396.44V373.22Z" fill="url(#paint41_linear_1385_4186)"/>
<path opacity="0.5" d="M174.96 396.44L146.21 413.04V389.82L174.96 373.22V396.44Z" fill="url(#paint42_linear_1385_4186)"/>
<path opacity="0.5" d="M174.96 406.42L146.21 389.82L174.96 373.22L203.71 389.82L174.96 406.42Z" fill="url(#paint43_linear_1385_4186)"/>
<path opacity="0.5" d="M174.96 406.42V429.64L203.71 413.04V389.82L174.96 406.42Z" fill="url(#paint44_linear_1385_4186)"/>
<path opacity="0.5" d="M146.21 389.82V413.04L174.96 429.64V406.42L146.21 389.82Z" fill="url(#paint45_linear_1385_4186)"/>
<g style="mix-blend-mode:lighten">
<path d="M357.31 360.01L307 331.01L357.31 302.01L407.63 331.01L357.31 360.01ZM308.42 331.01L357.31 359.24L406.2 331.01L357.31 302.78L308.42 331.01Z" fill="#8686F2"/>
</g>
<path d="M403.82 320.16V310.77L357.31 336.43L310.81 310.77V320.16L357.31 347.01L403.82 320.16Z" fill="url(#paint46_linear_1385_4186)"/>
<path d="M357.31 337.62L310.81 310.77L357.31 283.92L403.82 310.77L357.31 337.62Z" fill="url(#paint47_linear_1385_4186)"/>
<path opacity="0.5" d="M357.31 336.85L311.48 310.39L310.81 310.77L357.31 337.62L403.82 310.77L403.15 310.39L357.31 336.85Z" fill="white"/>
<path d="M357.31 327.37L328.56 310.77L357.31 294.18L386.06 310.77L357.31 327.37Z" fill="#0F054C"/>
<path opacity="0.5" d="M357.31 327.37L328.56 310.77L357.31 294.18L386.06 310.77L357.31 327.37Z" fill="url(#paint48_linear_1385_4186)"/>
<path opacity="0.5" d="M357.31 294.18L328.56 310.77V287.55L357.31 270.95V294.18Z" fill="url(#paint49_linear_1385_4186)"/>
<path opacity="0.5" d="M357.31 304.15L328.56 287.55L357.31 270.95L386.06 287.55L357.31 304.15Z" fill="url(#paint50_linear_1385_4186)"/>
<path opacity="0.5" d="M328.56 287.55V310.77L357.31 327.37V304.15L328.56 287.55Z" fill="url(#paint51_linear_1385_4186)"/>
<g style="mix-blend-mode:lighten">
<path d="M-7.55988 360.01L-57.8699 331.01L-7.55988 302.01L42.7601 331.01L-7.55988 360.01ZM-56.4799 330.96L-7.58987 359.19L41.3001 330.96L-7.58987 302.73L-56.4799 330.96Z" fill="#8686F2"/>
</g>
<path d="M38.9399 320.16V310.77L-7.56006 336.43L-54.0601 310.77V320.16L-7.56006 347.01L38.9399 320.16Z" fill="url(#paint52_linear_1385_4186)"/>
<path d="M-7.56006 337.62L-54.0601 310.77L-7.56006 283.92L38.9399 310.77L-7.56006 337.62Z" fill="url(#paint53_linear_1385_4186)"/>
<path opacity="0.5" d="M-7.56006 336.85L-53.3901 310.39L-54.0601 310.77L-7.56006 337.62L38.9399 310.77L38.2699 310.39L-7.56006 336.85Z" fill="white"/>
<path d="M-7.56006 327.37L-36.3101 310.77L-7.56006 294.18L21.1899 310.77L-7.56006 327.37Z" fill="#0F054C"/>
<path opacity="0.5" d="M-7.56006 327.37L-36.3101 310.77L-7.56006 294.18L21.1899 310.77L-7.56006 327.37Z" fill="url(#paint54_linear_1385_4186)"/>
<path opacity="0.5" d="M-7.56006 270.95L21.1899 287.55V310.77L-7.56006 294.18V270.95Z" fill="url(#paint55_linear_1385_4186)"/>
<path opacity="0.5" d="M-7.56006 304.15L-36.3101 287.55L-7.56006 270.95L21.1899 287.55L-7.56006 304.15Z" fill="url(#paint56_linear_1385_4186)"/>
<path opacity="0.5" d="M-7.56006 304.15V327.37L21.1899 310.77V287.55L-7.56006 304.15Z" fill="url(#paint57_linear_1385_4186)"/>
</g>
<defs>
<linearGradient id="paint0_linear_1385_4186" x1="0" y1="600" x2="347" y2="-2.27109e-06" gradientUnits="userSpaceOnUse">
<stop stop-color="#00A983"/>
<stop offset="1" stop-color="#5694F2"/>
</linearGradient>
<linearGradient id="paint1_linear_1385_4186" x1="128.46" y1="224.27" x2="194.73" y2="224.27" gradientUnits="userSpaceOnUse">
<stop offset="0.25" stop-color="#5761D7"/>
<stop offset="0.44" stop-color="#6C74DF"/>
<stop offset="0.82" stop-color="#A2A6F5"/>
<stop offset="1" stop-color="#BCBEFF"/>
</linearGradient>
<linearGradient id="paint2_linear_1385_4186" x1="128.46" y1="206.16" x2="221.47" y2="206.16" gradientUnits="userSpaceOnUse">
<stop stop-color="#C0BFF6"/>
<stop offset="0.29" stop-color="#C5C4F7"/>
<stop offset="0.64" stop-color="#D3D2F9"/>
<stop offset="1" stop-color="#E9E9FD"/>
</linearGradient>
<linearGradient id="paint3_linear_1385_4186" x1="146.21" y1="206.16" x2="203.71" y2="206.16" gradientUnits="userSpaceOnUse">
<stop stop-color="#42E8E0"/>
<stop offset="0.15" stop-color="#43E3E0"/>
<stop offset="0.33" stop-color="#45D5DF"/>
<stop offset="0.52" stop-color="#49BDDD"/>
<stop offset="0.72" stop-color="#4E9CDB"/>
<stop offset="0.93" stop-color="#5472D8"/>
<stop offset="1" stop-color="#5761D7"/>
</linearGradient>
<linearGradient id="paint4_linear_1385_4186" x1="174.96" y1="186.25" x2="203.71" y2="186.25" gradientUnits="userSpaceOnUse">
<stop stop-color="#42E8E0"/>
<stop offset="0.15" stop-color="#43E3E0"/>
<stop offset="0.33" stop-color="#45D5DF"/>
<stop offset="0.52" stop-color="#49BDDD"/>
<stop offset="0.72" stop-color="#4E9CDB"/>
<stop offset="0.93" stop-color="#5472D8"/>
<stop offset="1" stop-color="#5761D7"/>
</linearGradient>
<linearGradient id="paint5_linear_1385_4186" x1="146.21" y1="186.25" x2="174.96" y2="186.25" gradientUnits="userSpaceOnUse">
<stop stop-color="#42E8E0"/>
<stop offset="0.15" stop-color="#43E3E0"/>
<stop offset="0.33" stop-color="#45D5DF"/>
<stop offset="0.52" stop-color="#49BDDD"/>
<stop offset="0.72" stop-color="#4E9CDB"/>
<stop offset="0.93" stop-color="#5472D8"/>
<stop offset="1" stop-color="#5761D7"/>
</linearGradient>
<linearGradient id="paint6_linear_1385_4186" x1="146.21" y1="182.93" x2="203.71" y2="182.93" gradientUnits="userSpaceOnUse">
<stop stop-color="#42E8E0"/>
<stop offset="0.15" stop-color="#43E3E0"/>
<stop offset="0.33" stop-color="#45D5DF"/>
<stop offset="0.52" stop-color="#49BDDD"/>
<stop offset="0.72" stop-color="#4E9CDB"/>
<stop offset="0.93" stop-color="#5472D8"/>
<stop offset="1" stop-color="#5761D7"/>
</linearGradient>
<linearGradient id="paint7_linear_1385_4186" x1="174.96" y1="202.84" x2="203.71" y2="202.84" gradientUnits="userSpaceOnUse">
<stop stop-color="#42E8E0"/>
<stop offset="0.15" stop-color="#43E3E0"/>
<stop offset="0.33" stop-color="#45D5DF"/>
<stop offset="0.52" stop-color="#49BDDD"/>
<stop offset="0.72" stop-color="#4E9CDB"/>
<stop offset="0.93" stop-color="#5472D8"/>
<stop offset="1" stop-color="#5761D7"/>
</linearGradient>
<linearGradient id="paint8_linear_1385_4186" x1="146.21" y1="202.84" x2="174.96" y2="202.84" gradientUnits="userSpaceOnUse">
<stop stop-color="#42E8E0"/>
<stop offset="0.15" stop-color="#43E3E0"/>
<stop offset="0.33" stop-color="#45D5DF"/>
<stop offset="0.52" stop-color="#49BDDD"/>
<stop offset="0.72" stop-color="#4E9CDB"/>
<stop offset="0.93" stop-color="#5472D8"/>
<stop offset="1" stop-color="#5761D7"/>
</linearGradient>
<radialGradient id="paint9_radial_1385_4186" cx="0" cy="0" r="1" gradientUnits="userSpaceOnUse" gradientTransform="translate(169.844 325.32) rotate(29.8865) scale(224.189 193.708)">
<stop stop-color="#42E8E0"/>
<stop offset="0.12" stop-color="#39BDC0"/>
<stop offset="0.28" stop-color="#2F899A"/>
<stop offset="0.45" stop-color="#265F7B"/>
<stop offset="0.6" stop-color="#1F3D62"/>
<stop offset="0.75" stop-color="#1A2550"/>
<stop offset="0.88" stop-color="#171746"/>
<stop offset="1" stop-color="#161242"/>
</radialGradient>
<linearGradient id="paint10_linear_1385_4186" x1="-7.58991" y1="264.483" x2="138.98" y2="264.483" gradientUnits="userSpaceOnUse">
<stop stop-color="#42E8E0"/>
<stop offset="1" stop-color="#5694F2"/>
</linearGradient>
<linearGradient id="paint11_linear_1385_4186" x1="41.67" y1="259.61" x2="188.31" y2="259.61" gradientUnits="userSpaceOnUse">
<stop stop-color="#C0BFF6"/>
<stop offset="0.29" stop-color="#C5C4F7"/>
<stop offset="0.64" stop-color="#D3D2F9"/>
<stop offset="1" stop-color="#E9E9FD"/>
</linearGradient>
<linearGradient id="paint12_linear_1385_4186" x1="32.15" y1="248.33" x2="69.69" y2="248.33" gradientUnits="userSpaceOnUse">
<stop stop-color="#C0BFF6"/>
<stop offset="0.29" stop-color="#C5C4F7"/>
<stop offset="0.64" stop-color="#D3D2F9"/>
<stop offset="1" stop-color="#E9E9FD"/>
</linearGradient>
<linearGradient id="paint13_linear_1385_4186" x1="35.0901" y1="241.56" x2="138.86" y2="241.56" gradientUnits="userSpaceOnUse">
<stop stop-color="#C0BFF6"/>
<stop offset="0.29" stop-color="#C5C4F7"/>
<stop offset="0.64" stop-color="#D3D2F9"/>
<stop offset="1" stop-color="#E9E9FD"/>
</linearGradient>
<linearGradient id="paint14_linear_1385_4186" x1="35.0901" y1="268.17" x2="52.9101" y2="268.17" gradientUnits="userSpaceOnUse">
<stop stop-color="#5761D7"/>
<stop offset="0.18" stop-color="#5C66D9"/>
<stop offset="0.39" stop-color="#6A73DF"/>
<stop offset="0.61" stop-color="#8289E8"/>
<stop offset="0.85" stop-color="#A3A7F5"/>
<stop offset="1" stop-color="#BCBEFF"/>
</linearGradient>
<linearGradient id="paint15_linear_1385_4186" x1="210.76" y1="264.483" x2="357.33" y2="264.483" gradientUnits="userSpaceOnUse">
<stop stop-color="#42E8E0"/>
<stop offset="1" stop-color="#5694F2"/>
</linearGradient>
<linearGradient id="paint16_linear_1385_4186" x1="308.08" y1="259.61" x2="161.44" y2="259.61" gradientUnits="userSpaceOnUse">
<stop stop-color="#C0BFF6"/>
<stop offset="0.29" stop-color="#C5C4F7"/>
<stop offset="0.64" stop-color="#D3D2F9"/>
<stop offset="1" stop-color="#E9E9FD"/>
</linearGradient>
<linearGradient id="paint17_linear_1385_4186" x1="317.59" y1="248.33" x2="280.06" y2="248.33" gradientUnits="userSpaceOnUse">
<stop stop-color="#C0BFF6"/>
<stop offset="0.29" stop-color="#C5C4F7"/>
<stop offset="0.64" stop-color="#D3D2F9"/>
<stop offset="1" stop-color="#E9E9FD"/>
</linearGradient>
<linearGradient id="paint18_linear_1385_4186" x1="314.66" y1="241.56" x2="210.89" y2="241.56" gradientUnits="userSpaceOnUse">
<stop stop-color="#C0BFF6"/>
<stop offset="0.29" stop-color="#C5C4F7"/>
<stop offset="0.64" stop-color="#D3D2F9"/>
<stop offset="1" stop-color="#E9E9FD"/>
</linearGradient>
<linearGradient id="paint19_linear_1385_4186" x1="314.66" y1="268.17" x2="296.84" y2="268.17" gradientUnits="userSpaceOnUse">
<stop stop-color="#5761D7"/>
<stop offset="0.18" stop-color="#5C66D9"/>
<stop offset="0.39" stop-color="#6A73DF"/>
<stop offset="0.61" stop-color="#8289E8"/>
<stop offset="0.85" stop-color="#A3A7F5"/>
<stop offset="1" stop-color="#BCBEFF"/>
</linearGradient>
<linearGradient id="paint20_linear_1385_4186" x1="216.7" y1="340.72" x2="216.7" y2="283.56" gradientUnits="userSpaceOnUse">
<stop stop-color="#C0BFF6"/>
<stop offset="0.29" stop-color="#C5C4F7"/>
<stop offset="0.64" stop-color="#D3D2F9"/>
<stop offset="1" stop-color="#E9E9FD"/>
</linearGradient>
<linearGradient id="paint21_linear_1385_4186" x1="216.7" y1="293.32" x2="216.7" y2="236.16" gradientUnits="userSpaceOnUse">
<stop stop-color="#42E8E0"/>
<stop offset="1" stop-color="#5694F2"/>
</linearGradient>
<linearGradient id="paint22_linear_1385_4186" x1="133.06" y1="293.32" x2="133.06" y2="236.16" gradientUnits="userSpaceOnUse">
<stop stop-color="#42E8E0"/>
<stop offset="1" stop-color="#5694F2"/>
</linearGradient>
<linearGradient id="paint23_linear_1385_4186" x1="194.01" y1="322.12" x2="299.62" y2="322.12" gradientUnits="userSpaceOnUse">
<stop stop-color="#C0BFF6"/>
<stop offset="0.29" stop-color="#C5C4F7"/>
<stop offset="0.64" stop-color="#D3D2F9"/>
<stop offset="1" stop-color="#E9E9FD"/>
</linearGradient>
<linearGradient id="paint24_linear_1385_4186" x1="194.01" y1="349.2" x2="212.15" y2="349.2" gradientUnits="userSpaceOnUse">
<stop stop-color="#5761D7"/>
<stop offset="0.18" stop-color="#5C66D9"/>
<stop offset="0.39" stop-color="#6A73DF"/>
<stop offset="0.61" stop-color="#8289E8"/>
<stop offset="0.85" stop-color="#A3A7F5"/>
<stop offset="1" stop-color="#BCBEFF"/>
</linearGradient>
<linearGradient id="paint25_linear_1385_4186" x1="208.16" y1="379.65" x2="357.31" y2="379.65" gradientUnits="userSpaceOnUse">
<stop stop-color="#42E8E0"/>
<stop offset="1" stop-color="#5694F2"/>
</linearGradient>
<linearGradient id="paint26_linear_1385_4186" x1="258.28" y1="374.67" x2="407.51" y2="374.67" gradientUnits="userSpaceOnUse">
<stop stop-color="#C0BFF6"/>
<stop offset="0.29" stop-color="#C5C4F7"/>
<stop offset="0.64" stop-color="#D3D2F9"/>
<stop offset="1" stop-color="#E9E9FD"/>
</linearGradient>
<linearGradient id="paint27_linear_1385_4186" x1="283.55" y1="383.14" x2="321.75" y2="383.14" gradientUnits="userSpaceOnUse">
<stop stop-color="#C0BFF6"/>
<stop offset="0.29" stop-color="#C5C4F7"/>
<stop offset="0.64" stop-color="#D3D2F9"/>
<stop offset="1" stop-color="#E9E9FD"/>
</linearGradient>
<linearGradient id="paint28_linear_1385_4186" x1="201.26" y1="341.6" x2="350.49" y2="341.6" gradientUnits="userSpaceOnUse">
<stop stop-color="#C0BFF6"/>
<stop offset="0.29" stop-color="#C5C4F7"/>
<stop offset="0.64" stop-color="#D3D2F9"/>
<stop offset="1" stop-color="#E9E9FD"/>
</linearGradient>
<linearGradient id="paint29_linear_1385_4186" x1="191.44" y1="330.64" x2="229.64" y2="330.64" gradientUnits="userSpaceOnUse">
<stop stop-color="#C0BFF6"/>
<stop offset="0.29" stop-color="#C5C4F7"/>
<stop offset="0.64" stop-color="#D3D2F9"/>
<stop offset="1" stop-color="#E9E9FD"/>
</linearGradient>
<linearGradient id="paint30_linear_1385_4186" x1="155.75" y1="322.12" x2="50.14" y2="322.12" gradientUnits="userSpaceOnUse">
<stop stop-color="#C0BFF6"/>
<stop offset="0.29" stop-color="#C5C4F7"/>
<stop offset="0.64" stop-color="#D3D2F9"/>
<stop offset="1" stop-color="#E9E9FD"/>
</linearGradient>
<linearGradient id="paint31_linear_1385_4186" x1="155.75" y1="349.2" x2="137.61" y2="349.2" gradientUnits="userSpaceOnUse">
<stop stop-color="#5761D7"/>
<stop offset="0.18" stop-color="#5C66D9"/>
<stop offset="0.39" stop-color="#6A73DF"/>
<stop offset="0.61" stop-color="#8289E8"/>
<stop offset="0.85" stop-color="#A3A7F5"/>
<stop offset="1" stop-color="#BCBEFF"/>
</linearGradient>
<linearGradient id="paint32_linear_1385_4186" x1="-7.57006" y1="379.65" x2="141.57" y2="379.65" gradientUnits="userSpaceOnUse">
<stop stop-color="#42E8E0"/>
<stop offset="1" stop-color="#5694F2"/>
</linearGradient>
<linearGradient id="paint33_linear_1385_4186" x1="91.4801" y1="374.67" x2="-57.7499" y2="374.67" gradientUnits="userSpaceOnUse">
<stop stop-color="#C0BFF6"/>
<stop offset="0.29" stop-color="#C5C4F7"/>
<stop offset="0.64" stop-color="#D3D2F9"/>
<stop offset="1" stop-color="#E9E9FD"/>
</linearGradient>
<linearGradient id="paint34_linear_1385_4186" x1="66.2099" y1="383.14" x2="28.0099" y2="383.14" gradientUnits="userSpaceOnUse">
<stop stop-color="#C0BFF6"/>
<stop offset="0.29" stop-color="#C5C4F7"/>
<stop offset="0.64" stop-color="#D3D2F9"/>
<stop offset="1" stop-color="#E9E9FD"/>
</linearGradient>
<linearGradient id="paint35_linear_1385_4186" x1="148.5" y1="341.6" x2="-0.739958" y2="341.6" gradientUnits="userSpaceOnUse">
<stop stop-color="#C0BFF6"/>
<stop offset="0.29" stop-color="#C5C4F7"/>
<stop offset="0.64" stop-color="#D3D2F9"/>
<stop offset="1" stop-color="#E9E9FD"/>
</linearGradient>
<linearGradient id="paint36_linear_1385_4186" x1="158.32" y1="330.64" x2="120.12" y2="330.64" gradientUnits="userSpaceOnUse">
<stop stop-color="#C0BFF6"/>
<stop offset="0.29" stop-color="#C5C4F7"/>
<stop offset="0.64" stop-color="#D3D2F9"/>
<stop offset="1" stop-color="#E9E9FD"/>
</linearGradient>
<linearGradient id="paint37_linear_1385_4186" x1="174.88" y1="269.73" x2="174.88" y2="116" gradientUnits="userSpaceOnUse">
<stop stop-color="#42E8E0"/>
<stop offset="0.12" stop-color="#39BDC0"/>
<stop offset="0.28" stop-color="#2F899A"/>
<stop offset="0.45" stop-color="#265F7B"/>
<stop offset="0.6" stop-color="#1F3D62"/>
<stop offset="0.75" stop-color="#1A2550"/>
<stop offset="0.88" stop-color="#171746"/>
<stop offset="1" stop-color="#161242"/>
</linearGradient>
<linearGradient id="paint38_linear_1385_4186" x1="128.454" y1="431.161" x2="221.47" y2="431.161" gradientUnits="userSpaceOnUse">
<stop stop-color="#42E8E0"/>
<stop offset="1" stop-color="#5694F2"/>
</linearGradient>
<linearGradient id="paint39_linear_1385_4186" x1="128.46" y1="413.04" x2="221.47" y2="413.04" gradientUnits="userSpaceOnUse">
<stop stop-color="#C0BFF6"/>
<stop offset="0.29" stop-color="#C5C4F7"/>
<stop offset="0.64" stop-color="#D3D2F9"/>
<stop offset="1" stop-color="#E9E9FD"/>
</linearGradient>
<linearGradient id="paint40_linear_1385_4186" x1="146.21" y1="413.04" x2="203.71" y2="413.04" gradientUnits="userSpaceOnUse">
<stop stop-color="#42E8E0"/>
<stop offset="0.15" stop-color="#43E3E0"/>
<stop offset="0.33" stop-color="#45D5DF"/>
<stop offset="0.52" stop-color="#49BDDD"/>
<stop offset="0.72" stop-color="#4E9CDB"/>
<stop offset="0.93" stop-color="#5472D8"/>
<stop offset="1" stop-color="#5761D7"/>
</linearGradient>
<linearGradient id="paint41_linear_1385_4186" x1="174.96" y1="393.13" x2="203.71" y2="393.13" gradientUnits="userSpaceOnUse">
<stop stop-color="#42E8E0"/>
<stop offset="0.15" stop-color="#43E3E0"/>
<stop offset="0.33" stop-color="#45D5DF"/>
<stop offset="0.52" stop-color="#49BDDD"/>
<stop offset="0.72" stop-color="#4E9CDB"/>
<stop offset="0.93" stop-color="#5472D8"/>
<stop offset="1" stop-color="#5761D7"/>
</linearGradient>
<linearGradient id="paint42_linear_1385_4186" x1="146.21" y1="393.13" x2="174.96" y2="393.13" gradientUnits="userSpaceOnUse">
<stop stop-color="#42E8E0"/>
<stop offset="0.15" stop-color="#43E3E0"/>
<stop offset="0.33" stop-color="#45D5DF"/>
<stop offset="0.52" stop-color="#49BDDD"/>
<stop offset="0.72" stop-color="#4E9CDB"/>
<stop offset="0.93" stop-color="#5472D8"/>
<stop offset="1" stop-color="#5761D7"/>
</linearGradient>
<linearGradient id="paint43_linear_1385_4186" x1="146.21" y1="389.82" x2="203.71" y2="389.82" gradientUnits="userSpaceOnUse">
<stop stop-color="#42E8E0"/>
<stop offset="0.15" stop-color="#43E3E0"/>
<stop offset="0.33" stop-color="#45D5DF"/>
<stop offset="0.52" stop-color="#49BDDD"/>
<stop offset="0.72" stop-color="#4E9CDB"/>
<stop offset="0.93" stop-color="#5472D8"/>
<stop offset="1" stop-color="#5761D7"/>
</linearGradient>
<linearGradient id="paint44_linear_1385_4186" x1="174.96" y1="409.73" x2="203.71" y2="409.73" gradientUnits="userSpaceOnUse">
<stop stop-color="#42E8E0"/>
<stop offset="0.15" stop-color="#43E3E0"/>
<stop offset="0.33" stop-color="#45D5DF"/>
<stop offset="0.52" stop-color="#49BDDD"/>
<stop offset="0.72" stop-color="#4E9CDB"/>
<stop offset="0.93" stop-color="#5472D8"/>
<stop offset="1" stop-color="#5761D7"/>
</linearGradient>
<linearGradient id="paint45_linear_1385_4186" x1="146.21" y1="409.73" x2="174.96" y2="409.73" gradientUnits="userSpaceOnUse">
<stop stop-color="#42E8E0"/>
<stop offset="0.15" stop-color="#43E3E0"/>
<stop offset="0.33" stop-color="#45D5DF"/>
<stop offset="0.52" stop-color="#49BDDD"/>
<stop offset="0.72" stop-color="#4E9CDB"/>
<stop offset="0.93" stop-color="#5472D8"/>
<stop offset="1" stop-color="#5761D7"/>
</linearGradient>
<linearGradient id="paint46_linear_1385_4186" x1="310.804" y1="328.891" x2="403.82" y2="328.891" gradientUnits="userSpaceOnUse">
<stop stop-color="#42E8E0"/>
<stop offset="1" stop-color="#5694F2"/>
</linearGradient>
<linearGradient id="paint47_linear_1385_4186" x1="310.81" y1="310.77" x2="403.82" y2="310.77" gradientUnits="userSpaceOnUse">
<stop stop-color="#C0BFF6"/>
<stop offset="0.29" stop-color="#C5C4F7"/>
<stop offset="0.64" stop-color="#D3D2F9"/>
<stop offset="1" stop-color="#E9E9FD"/>
</linearGradient>
<linearGradient id="paint48_linear_1385_4186" x1="328.56" y1="310.77" x2="386.06" y2="310.77" gradientUnits="userSpaceOnUse">
<stop stop-color="#42E8E0"/>
<stop offset="0.15" stop-color="#43E3E0"/>
<stop offset="0.33" stop-color="#45D5DF"/>
<stop offset="0.52" stop-color="#49BDDD"/>
<stop offset="0.72" stop-color="#4E9CDB"/>
<stop offset="0.93" stop-color="#5472D8"/>
<stop offset="1" stop-color="#5761D7"/>
</linearGradient>
<linearGradient id="paint49_linear_1385_4186" x1="328.56" y1="290.86" x2="357.31" y2="290.86" gradientUnits="userSpaceOnUse">
<stop stop-color="#42E8E0"/>
<stop offset="0.15" stop-color="#43E3E0"/>
<stop offset="0.33" stop-color="#45D5DF"/>
<stop offset="0.52" stop-color="#49BDDD"/>
<stop offset="0.72" stop-color="#4E9CDB"/>
<stop offset="0.93" stop-color="#5472D8"/>
<stop offset="1" stop-color="#5761D7"/>
</linearGradient>
<linearGradient id="paint50_linear_1385_4186" x1="328.56" y1="287.55" x2="386.06" y2="287.55" gradientUnits="userSpaceOnUse">
<stop stop-color="#42E8E0"/>
<stop offset="0.15" stop-color="#43E3E0"/>
<stop offset="0.33" stop-color="#45D5DF"/>
<stop offset="0.52" stop-color="#49BDDD"/>
<stop offset="0.72" stop-color="#4E9CDB"/>
<stop offset="0.93" stop-color="#5472D8"/>
<stop offset="1" stop-color="#5761D7"/>
</linearGradient>
<linearGradient id="paint51_linear_1385_4186" x1="328.56" y1="307.46" x2="357.31" y2="307.46" gradientUnits="userSpaceOnUse">
<stop stop-color="#42E8E0"/>
<stop offset="0.15" stop-color="#43E3E0"/>
<stop offset="0.33" stop-color="#45D5DF"/>
<stop offset="0.52" stop-color="#49BDDD"/>
<stop offset="0.72" stop-color="#4E9CDB"/>
<stop offset="0.93" stop-color="#5472D8"/>
<stop offset="1" stop-color="#5761D7"/>
</linearGradient>
<linearGradient id="paint52_linear_1385_4186" x1="-54.0601" y1="328.89" x2="12.2099" y2="328.89" gradientUnits="userSpaceOnUse">
<stop offset="0.25" stop-color="#5761D7"/>
<stop offset="0.44" stop-color="#6C74DF"/>
<stop offset="0.82" stop-color="#A2A6F5"/>
<stop offset="1" stop-color="#BCBEFF"/>
</linearGradient>
<linearGradient id="paint53_linear_1385_4186" x1="-54.0601" y1="310.77" x2="38.9399" y2="310.77" gradientUnits="userSpaceOnUse">
<stop stop-color="#C0BFF6"/>
<stop offset="0.29" stop-color="#C5C4F7"/>
<stop offset="0.64" stop-color="#D3D2F9"/>
<stop offset="1" stop-color="#E9E9FD"/>
</linearGradient>
<linearGradient id="paint54_linear_1385_4186" x1="-36.3101" y1="310.77" x2="21.1899" y2="310.77" gradientUnits="userSpaceOnUse">
<stop stop-color="#42E8E0"/>
<stop offset="0.15" stop-color="#43E3E0"/>
<stop offset="0.33" stop-color="#45D5DF"/>
<stop offset="0.52" stop-color="#49BDDD"/>
<stop offset="0.72" stop-color="#4E9CDB"/>
<stop offset="0.93" stop-color="#5472D8"/>
<stop offset="1" stop-color="#5761D7"/>
</linearGradient>
<linearGradient id="paint55_linear_1385_4186" x1="-7.56006" y1="290.86" x2="21.1899" y2="290.86" gradientUnits="userSpaceOnUse">
<stop stop-color="#42E8E0"/>
<stop offset="0.15" stop-color="#43E3E0"/>
<stop offset="0.33" stop-color="#45D5DF"/>
<stop offset="0.52" stop-color="#49BDDD"/>
<stop offset="0.72" stop-color="#4E9CDB"/>
<stop offset="0.93" stop-color="#5472D8"/>
<stop offset="1" stop-color="#5761D7"/>
</linearGradient>
<linearGradient id="paint56_linear_1385_4186" x1="-36.3101" y1="287.55" x2="21.1899" y2="287.55" gradientUnits="userSpaceOnUse">
<stop stop-color="#42E8E0"/>
<stop offset="0.15" stop-color="#43E3E0"/>
<stop offset="0.33" stop-color="#45D5DF"/>
<stop offset="0.52" stop-color="#49BDDD"/>
<stop offset="0.72" stop-color="#4E9CDB"/>
<stop offset="0.93" stop-color="#5472D8"/>
<stop offset="1" stop-color="#5761D7"/>
</linearGradient>
<linearGradient id="paint57_linear_1385_4186" x1="-7.56006" y1="307.46" x2="21.1899" y2="307.46" gradientUnits="userSpaceOnUse">
<stop stop-color="#42E8E0"/>
<stop offset="0.15" stop-color="#43E3E0"/>
<stop offset="0.33" stop-color="#45D5DF"/>
<stop offset="0.52" stop-color="#49BDDD"/>
<stop offset="0.72" stop-color="#4E9CDB"/>
<stop offset="0.93" stop-color="#5472D8"/>
<stop offset="1" stop-color="#5761D7"/>
</linearGradient>
<clipPath id="clip0_1385_4186">
<rect width="340" height="600" fill="white"/>
</clipPath>
</defs>
</svg>
