<svg width="64" height="64" viewBox="0 0 64 64" fill="none" xmlns="http://www.w3.org/2000/svg">
<path d="M56.5334 29.5464C55.3211 29.5464 54.3158 30.4268 54.1083 31.5807H46.3101V28.0016H48.5607C48.6687 28.0016 48.7767 27.9601 48.8513 27.8769L51.8328 24.8958C52.1569 25.0454 52.5054 25.1367 52.8874 25.1367C54.2412 25.1367 55.3373 24.0407 55.3373 22.6871C55.3373 21.3335 54.2411 20.2375 52.8874 20.2375C51.5255 20.2375 50.4207 21.3335 50.4207 22.6871C50.4207 23.3596 50.6946 23.9657 51.1349 24.4145L48.3861 27.1628H46.3015V25.7762C46.3015 24.6468 45.6953 23.5924 44.7153 23.0278L36.8172 18.4689V15.5958L39.566 12.8474C40.0062 13.2876 40.6205 13.5696 41.2936 13.5696C42.6473 13.5696 43.7435 12.4651 43.7435 11.1033C43.7435 9.74964 42.6473 8.65366 41.2936 8.65366C39.9398 8.65366 38.8437 9.74967 38.8437 11.1033C38.8437 11.477 38.935 11.8341 39.0846 12.1495L36.1112 15.1225C36.0366 15.1971 35.9865 15.3051 35.9865 15.4131V17.9789L33.5696 16.5837C33.2043 16.3763 32.8057 16.2434 32.3984 16.1851V9.87437C33.5529 9.67506 34.4415 8.67032 34.4415 7.44959C34.4415 6.09597 33.3453 5 31.9916 5C30.6378 5 29.5417 6.096 29.5417 7.44959C29.5417 8.66176 30.4222 9.66688 31.5762 9.87437V16.1851C31.1694 16.2348 30.7707 16.3677 30.405 16.5837L27.9967 17.9789V15.4131C27.9967 15.3051 27.9551 15.1971 27.872 15.1225L24.8905 12.1495C25.0401 11.8255 25.1395 11.477 25.1395 11.0951C25.1395 9.74149 24.0434 8.64552 22.6896 8.64552C21.3358 8.64552 20.2397 9.74153 20.2397 11.0951C20.2397 12.4568 21.3359 13.5615 22.6896 13.5615C23.3622 13.5615 23.9684 13.2876 24.4172 12.8474L27.1659 15.5958V18.4689L19.2597 23.0359C18.2798 23.6004 17.6736 24.6553 17.6736 25.7843V27.171H15.5889L12.8402 24.4226C13.2805 23.9824 13.5544 23.3681 13.5544 22.6952C13.5544 21.3416 12.4497 20.2456 11.0877 20.2456C9.7339 20.2456 8.63778 21.3416 8.63778 22.6952C8.63778 24.0488 9.73393 25.1448 11.0877 25.1448C11.4696 25.1448 11.8186 25.0535 12.1423 24.9039L15.1156 27.885C15.1902 27.9596 15.2983 28.0098 15.4063 28.0098H17.665V31.5888H9.875C9.67567 30.4344 8.6708 29.5545 7.4499 29.5545C6.09611 29.5545 5 30.6505 5 32.0041C5 33.3577 6.09615 34.4537 7.4499 34.4537C8.6708 34.4537 9.6756 33.5733 9.875 32.4109H17.665V35.998H15.4063C15.2982 35.998 15.1902 36.0396 15.1156 36.1228L12.1423 39.0957C11.8182 38.9462 11.4696 38.8549 11.0958 38.8549C9.74204 38.8549 8.64593 39.9509 8.64593 41.3044C8.64593 42.6581 9.74207 43.754 11.0958 43.754C12.4577 43.754 13.5625 42.658 13.5625 41.3044C13.5625 40.6319 13.2886 40.0173 12.8402 39.5771L15.5889 36.8287H17.6736V38.6474C17.6736 39.7768 18.2798 40.8312 19.2597 41.3957L27.1659 45.9628V48.4042L24.4172 51.1526C23.977 50.7124 23.3626 50.4385 22.6896 50.4385C21.3358 50.4385 20.2397 51.543 20.2397 52.9049C20.2397 54.2585 21.3359 55.3545 22.6896 55.3545C24.0434 55.3545 25.1395 54.2585 25.1395 52.9049C25.1395 52.523 25.0482 52.1741 24.8986 51.8505L27.8801 48.8694C27.9547 48.7948 28.0049 48.6868 28.0049 48.5788V46.4446L30.4132 47.8398C30.7784 48.0473 31.1771 48.1802 31.5843 48.2385V54.1256C30.4299 54.3249 29.5498 55.3297 29.5498 56.5504C29.5498 57.904 30.646 59 31.9997 59C33.3535 59 34.4496 57.904 34.4496 56.5504C34.4496 55.3297 33.5691 54.325 32.4065 54.1256V48.2385C32.8134 48.1887 33.212 48.0559 33.5777 47.8398L35.9946 46.4446V48.5788C35.9946 48.6868 36.0362 48.7948 36.1193 48.8694L39.0927 51.8505C38.9431 52.1659 38.8518 52.523 38.8518 52.8968C38.8518 54.2504 39.9479 55.3463 41.3017 55.3463C42.6555 55.3463 43.7516 54.2503 43.7516 52.8968C43.7516 51.535 42.6555 50.4304 41.3017 50.4304C40.6291 50.4304 40.0144 50.7043 39.5741 51.1526L36.8254 48.3957V45.9542L44.7235 41.3953C45.7035 40.8308 46.3096 39.7759 46.3096 38.6469V36.8283H48.3943L51.1516 39.5767C50.7113 40.0169 50.4292 40.6311 50.4292 41.304C50.4292 42.6576 51.5339 43.7536 52.8959 43.7536C54.2497 43.7536 55.3458 42.6576 55.3458 41.304C55.3458 39.9504 54.2497 38.8544 52.8959 38.8544C52.5221 38.8544 52.165 38.9457 51.8495 39.0953L48.868 36.1223C48.7934 36.0477 48.6854 35.9976 48.5774 35.9976H46.3268V32.4112H54.125C54.3243 33.5656 55.3292 34.454 56.5501 34.454C57.9039 34.454 59 33.358 59 32.0044C59 30.6509 57.8871 29.5463 56.5333 29.5463L56.5334 29.5464ZM52.896 21.0681C53.7928 21.0681 54.5155 21.7989 54.5155 22.6875C54.5155 23.5842 53.7846 24.3069 52.896 24.3069C51.9991 24.3069 51.2601 23.576 51.2601 22.6875C51.2597 21.7908 51.9906 21.0681 52.896 21.0681ZM41.3027 9.47634C42.1995 9.47634 42.9223 10.2072 42.9223 11.0957C42.9223 11.9924 42.1914 12.7313 41.3027 12.7313C40.4059 12.7313 39.6831 12.0005 39.6831 11.0957C39.6831 10.2072 40.4059 9.47634 41.3027 9.47634ZM22.6837 12.7318C21.7869 12.7318 21.0641 12.001 21.0641 11.0962C21.0641 10.1995 21.795 9.47678 22.6837 9.47678C23.5805 9.47678 24.3033 10.2076 24.3033 11.0962C24.3033 12.001 23.5805 12.7318 22.6837 12.7318ZM9.47065 22.6879C9.47065 21.7912 10.2016 21.0685 11.0902 21.0685C11.987 21.0685 12.7261 21.7994 12.7261 22.6879C12.7261 23.5846 11.9952 24.3073 11.0902 24.3073C10.2016 24.3073 9.47065 23.5846 9.47065 22.6879ZM7.4528 33.6158C6.55599 33.6158 5.83321 32.885 5.83321 31.9964C5.83321 31.0997 6.56412 30.3771 7.4528 30.3771C8.34961 30.3771 9.08863 31.1079 9.08863 31.9964C9.08863 32.8931 8.35816 33.6158 7.4528 33.6158ZM11.0902 42.9243C10.1934 42.9243 9.47065 42.1935 9.47065 41.305C9.47065 40.4083 10.2016 39.6856 11.0902 39.6856C11.987 39.6856 12.7261 40.4164 12.7261 41.305C12.7265 42.1935 11.9956 42.9243 11.0902 42.9243ZM22.6835 54.5161C21.7867 54.5161 21.0639 53.7853 21.0639 52.8967C21.0639 52 21.7948 51.2611 22.6835 51.2611C23.5803 51.2611 24.3031 51.9919 24.3031 52.8967C24.3031 53.7853 23.5803 54.5161 22.6835 54.5161ZM41.3025 51.2607C42.1993 51.2607 42.9221 51.9915 42.9221 52.8963C42.9221 53.793 42.1912 54.5156 41.3025 54.5156C40.4057 54.5156 39.6829 53.7848 39.6829 52.8963C39.6829 51.9914 40.4057 51.2607 41.3025 51.2607ZM54.5155 41.3045C54.5155 42.2012 53.7846 42.9239 52.896 42.9239C51.9991 42.9239 51.2601 42.1931 51.2601 41.3045C51.2601 40.4078 51.991 39.6851 52.896 39.6851C53.7846 39.6851 54.5155 40.4078 54.5155 41.3045ZM30.3732 7.45865C30.3732 6.56196 31.1041 5.83927 31.9928 5.83927C32.8896 5.83927 33.6124 6.57009 33.6124 7.45865C33.6124 8.35534 32.8814 9.09427 31.9928 9.09427C31.096 9.09427 30.3732 8.36389 30.3732 7.45865ZM33.6124 56.5338C33.6124 57.4305 32.8814 58.1532 31.9928 58.1532C31.096 58.1532 30.3732 57.4223 30.3732 56.5338C30.3732 55.6371 31.1041 54.8982 31.9928 54.8982C32.8896 54.8982 33.6124 55.6285 33.6124 56.5338ZM45.48 38.648C45.48 39.4868 45.0316 40.2588 44.3088 40.6822L33.1644 47.1095C32.8073 47.317 32.4005 47.4168 32.0018 47.425H31.9855C31.5868 47.425 31.18 47.317 30.8229 47.1095L19.6774 40.6741C18.955 40.2588 18.5062 39.4783 18.5062 38.6399V25.7687C18.5062 24.9298 18.9546 24.1578 19.6774 23.7425L27.7413 19.0842C27.7494 19.0842 27.758 19.0761 27.7661 19.0675L30.8223 17.299C31.1875 17.0915 31.5862 16.9835 31.9934 16.9835C32.4003 16.9835 32.8075 17.0915 33.1646 17.299L44.3101 23.7344C45.0325 24.1497 45.4813 24.9302 45.4813 25.7605L45.48 38.648ZM56.5333 33.6159C55.6365 33.6159 54.8975 32.8851 54.8975 31.9965C54.8975 31.0999 55.6284 30.3772 56.5333 30.3772C57.4301 30.3772 58.1529 31.108 58.1529 31.9965C58.1529 32.8932 57.422 33.6159 56.5333 33.6159Z" fill="url(#paint0_linear_1409_1542)"/>
<path d="M32.2001 19.4898C32.0754 19.4152 31.9095 19.4152 31.7847 19.4898L21.0796 25.6676C20.9549 25.7422 20.8721 25.875 20.8721 26.0246L20.8726 38.3889C20.8726 38.5385 20.9557 38.6714 21.08 38.7459L31.7851 44.9238C31.8516 44.9568 31.918 44.9821 31.9926 44.9821C32.0672 44.9821 32.1337 44.9654 32.2001 44.9238L42.9052 38.7459C43.0299 38.6714 43.1127 38.5385 43.1127 38.3889V26.0323C43.1127 25.8827 43.0295 25.7499 42.9052 25.6753L32.2001 19.4898ZM42.2823 38.148L31.9926 44.0854L21.6947 38.148V26.2655L31.9926 20.3282L42.2823 26.2655V38.148Z" fill="url(#paint1_linear_1409_1542)"/>
<path d="M25.6726 28.1671C25.4317 28.2833 25.4149 28.4744 25.4149 28.549V35.873C25.4149 36.0389 25.5144 36.1884 25.6726 36.2549L31.8263 38.8541C31.876 38.879 31.9343 38.8872 31.9841 38.8872C32.0338 38.8872 32.0921 38.879 32.1418 38.8541L38.2956 36.2549C38.4533 36.1885 38.5532 36.0389 38.5532 35.873V28.549C38.5532 28.4744 38.5862 28.2914 38.2956 28.1671L32.1418 25.5679C32.0424 25.5263 31.9258 25.5263 31.8177 25.5679L25.6726 28.1671ZM26.2457 29.1718L31.5692 31.4221V37.8494L26.2457 35.5991V29.1718ZM37.7314 35.5991L32.408 37.8494V31.4221L37.7314 29.1718V35.5991ZM37.0837 28.549L31.9926 30.6912L26.9015 28.5403L31.9926 26.3984L37.0837 28.549Z" fill="url(#paint2_linear_1409_1542)"/>
<path d="M56.5334 29.5464C55.3211 29.5464 54.3158 30.4268 54.1083 31.5807H46.3101V28.0016H48.5607C48.6687 28.0016 48.7767 27.9601 48.8513 27.8769L51.8328 24.8958C52.1569 25.0454 52.5054 25.1367 52.8874 25.1367C54.2412 25.1367 55.3373 24.0407 55.3373 22.6871C55.3373 21.3335 54.2411 20.2375 52.8874 20.2375C51.5255 20.2375 50.4207 21.3335 50.4207 22.6871C50.4207 23.3596 50.6946 23.9657 51.1349 24.4145L48.3861 27.1628H46.3015V25.7762C46.3015 24.6468 45.6953 23.5924 44.7153 23.0278L36.8172 18.4689V15.5958L39.566 12.8474C40.0062 13.2876 40.6205 13.5696 41.2936 13.5696C42.6473 13.5696 43.7435 12.4651 43.7435 11.1033C43.7435 9.74964 42.6473 8.65366 41.2936 8.65366C39.9398 8.65366 38.8437 9.74967 38.8437 11.1033C38.8437 11.477 38.935 11.8341 39.0846 12.1495L36.1112 15.1225C36.0366 15.1971 35.9865 15.3051 35.9865 15.4131V17.9789L33.5696 16.5837C33.2043 16.3763 32.8057 16.2434 32.3984 16.1851V9.87437C33.5529 9.67506 34.4415 8.67032 34.4415 7.44959C34.4415 6.09597 33.3453 5 31.9916 5C30.6378 5 29.5417 6.096 29.5417 7.44959C29.5417 8.66176 30.4222 9.66688 31.5762 9.87437V16.1851C31.1694 16.2348 30.7707 16.3677 30.405 16.5837L27.9967 17.9789V15.4131C27.9967 15.3051 27.9551 15.1971 27.872 15.1225L24.8905 12.1495C25.0401 11.8255 25.1395 11.477 25.1395 11.0951C25.1395 9.74149 24.0434 8.64552 22.6896 8.64552C21.3358 8.64552 20.2397 9.74153 20.2397 11.0951C20.2397 12.4568 21.3359 13.5615 22.6896 13.5615C23.3622 13.5615 23.9684 13.2876 24.4172 12.8474L27.1659 15.5958V18.4689L19.2597 23.0359C18.2798 23.6004 17.6736 24.6553 17.6736 25.7843V27.171H15.5889L12.8402 24.4226C13.2805 23.9824 13.5544 23.3681 13.5544 22.6952C13.5544 21.3416 12.4497 20.2456 11.0877 20.2456C9.7339 20.2456 8.63778 21.3416 8.63778 22.6952C8.63778 24.0488 9.73393 25.1448 11.0877 25.1448C11.4696 25.1448 11.8186 25.0535 12.1423 24.9039L15.1156 27.885C15.1902 27.9596 15.2983 28.0098 15.4063 28.0098H17.665V31.5888H9.875C9.67567 30.4344 8.6708 29.5545 7.4499 29.5545C6.09611 29.5545 5 30.6505 5 32.0041C5 33.3577 6.09615 34.4537 7.4499 34.4537C8.6708 34.4537 9.6756 33.5733 9.875 32.4109H17.665V35.998H15.4063C15.2982 35.998 15.1902 36.0396 15.1156 36.1228L12.1423 39.0957C11.8182 38.9462 11.4696 38.8549 11.0958 38.8549C9.74204 38.8549 8.64593 39.9509 8.64593 41.3044C8.64593 42.6581 9.74207 43.754 11.0958 43.754C12.4577 43.754 13.5625 42.658 13.5625 41.3044C13.5625 40.6319 13.2886 40.0173 12.8402 39.5771L15.5889 36.8287H17.6736V38.6474C17.6736 39.7768 18.2798 40.8312 19.2597 41.3957L27.1659 45.9628V48.4042L24.4172 51.1526C23.977 50.7124 23.3626 50.4385 22.6896 50.4385C21.3358 50.4385 20.2397 51.543 20.2397 52.9049C20.2397 54.2585 21.3359 55.3545 22.6896 55.3545C24.0434 55.3545 25.1395 54.2585 25.1395 52.9049C25.1395 52.523 25.0482 52.1741 24.8986 51.8505L27.8801 48.8694C27.9547 48.7948 28.0049 48.6868 28.0049 48.5788V46.4446L30.4132 47.8398C30.7784 48.0473 31.1771 48.1802 31.5843 48.2385V54.1256C30.4299 54.3249 29.5498 55.3297 29.5498 56.5504C29.5498 57.904 30.646 59 31.9997 59C33.3535 59 34.4496 57.904 34.4496 56.5504C34.4496 55.3297 33.5691 54.325 32.4065 54.1256V48.2385C32.8134 48.1887 33.212 48.0559 33.5777 47.8398L35.9946 46.4446V48.5788C35.9946 48.6868 36.0362 48.7948 36.1193 48.8694L39.0927 51.8505C38.9431 52.1659 38.8518 52.523 38.8518 52.8968C38.8518 54.2504 39.9479 55.3463 41.3017 55.3463C42.6555 55.3463 43.7516 54.2503 43.7516 52.8968C43.7516 51.535 42.6555 50.4304 41.3017 50.4304C40.6291 50.4304 40.0144 50.7043 39.5741 51.1526L36.8254 48.3957V45.9542L44.7235 41.3953C45.7035 40.8308 46.3096 39.7759 46.3096 38.6469V36.8283H48.3943L51.1516 39.5767C50.7113 40.0169 50.4292 40.6311 50.4292 41.304C50.4292 42.6576 51.5339 43.7536 52.8959 43.7536C54.2497 43.7536 55.3458 42.6576 55.3458 41.304C55.3458 39.9504 54.2497 38.8544 52.8959 38.8544C52.5221 38.8544 52.165 38.9457 51.8495 39.0953L48.868 36.1223C48.7934 36.0477 48.6854 35.9976 48.5774 35.9976H46.3268V32.4112H54.125C54.3243 33.5656 55.3292 34.454 56.5501 34.454C57.9039 34.454 59 33.358 59 32.0044C59 30.6509 57.8871 29.5463 56.5333 29.5463L56.5334 29.5464ZM52.896 21.0681C53.7928 21.0681 54.5155 21.7989 54.5155 22.6875C54.5155 23.5842 53.7846 24.3069 52.896 24.3069C51.9991 24.3069 51.2601 23.576 51.2601 22.6875C51.2597 21.7908 51.9906 21.0681 52.896 21.0681ZM41.3027 9.47634C42.1995 9.47634 42.9223 10.2072 42.9223 11.0957C42.9223 11.9924 42.1914 12.7313 41.3027 12.7313C40.4059 12.7313 39.6831 12.0005 39.6831 11.0957C39.6831 10.2072 40.4059 9.47634 41.3027 9.47634ZM22.6837 12.7318C21.7869 12.7318 21.0641 12.001 21.0641 11.0962C21.0641 10.1995 21.795 9.47678 22.6837 9.47678C23.5805 9.47678 24.3033 10.2076 24.3033 11.0962C24.3033 12.001 23.5805 12.7318 22.6837 12.7318ZM9.47065 22.6879C9.47065 21.7912 10.2016 21.0685 11.0902 21.0685C11.987 21.0685 12.7261 21.7994 12.7261 22.6879C12.7261 23.5846 11.9952 24.3073 11.0902 24.3073C10.2016 24.3073 9.47065 23.5846 9.47065 22.6879ZM7.4528 33.6158C6.55599 33.6158 5.83321 32.885 5.83321 31.9964C5.83321 31.0997 6.56412 30.3771 7.4528 30.3771C8.34961 30.3771 9.08863 31.1079 9.08863 31.9964C9.08863 32.8931 8.35816 33.6158 7.4528 33.6158ZM11.0902 42.9243C10.1934 42.9243 9.47065 42.1935 9.47065 41.305C9.47065 40.4083 10.2016 39.6856 11.0902 39.6856C11.987 39.6856 12.7261 40.4164 12.7261 41.305C12.7265 42.1935 11.9956 42.9243 11.0902 42.9243ZM22.6835 54.5161C21.7867 54.5161 21.0639 53.7853 21.0639 52.8967C21.0639 52 21.7948 51.2611 22.6835 51.2611C23.5803 51.2611 24.3031 51.9919 24.3031 52.8967C24.3031 53.7853 23.5803 54.5161 22.6835 54.5161ZM41.3025 51.2607C42.1993 51.2607 42.9221 51.9915 42.9221 52.8963C42.9221 53.793 42.1912 54.5156 41.3025 54.5156C40.4057 54.5156 39.6829 53.7848 39.6829 52.8963C39.6829 51.9914 40.4057 51.2607 41.3025 51.2607ZM54.5155 41.3045C54.5155 42.2012 53.7846 42.9239 52.896 42.9239C51.9991 42.9239 51.2601 42.1931 51.2601 41.3045C51.2601 40.4078 51.991 39.6851 52.896 39.6851C53.7846 39.6851 54.5155 40.4078 54.5155 41.3045ZM30.3732 7.45865C30.3732 6.56196 31.1041 5.83927 31.9928 5.83927C32.8896 5.83927 33.6124 6.57009 33.6124 7.45865C33.6124 8.35534 32.8814 9.09427 31.9928 9.09427C31.096 9.09427 30.3732 8.36389 30.3732 7.45865ZM33.6124 56.5338C33.6124 57.4305 32.8814 58.1532 31.9928 58.1532C31.096 58.1532 30.3732 57.4223 30.3732 56.5338C30.3732 55.6371 31.1041 54.8982 31.9928 54.8982C32.8896 54.8982 33.6124 55.6285 33.6124 56.5338ZM45.48 38.648C45.48 39.4868 45.0316 40.2588 44.3088 40.6822L33.1644 47.1095C32.8073 47.317 32.4005 47.4168 32.0018 47.425H31.9855C31.5868 47.425 31.18 47.317 30.8229 47.1095L19.6774 40.6741C18.955 40.2588 18.5062 39.4783 18.5062 38.6399V25.7687C18.5062 24.9298 18.9546 24.1578 19.6774 23.7425L27.7413 19.0842C27.7494 19.0842 27.758 19.0761 27.7661 19.0675L30.8223 17.299C31.1875 17.0915 31.5862 16.9835 31.9934 16.9835C32.4003 16.9835 32.8075 17.0915 33.1646 17.299L44.3101 23.7344C45.0325 24.1497 45.4813 24.9302 45.4813 25.7605L45.48 38.648ZM56.5333 33.6159C55.6365 33.6159 54.8975 32.8851 54.8975 31.9965C54.8975 31.0999 55.6284 30.3772 56.5333 30.3772C57.4301 30.3772 58.1529 31.108 58.1529 31.9965C58.1529 32.8932 57.422 33.6159 56.5333 33.6159Z" stroke="url(#paint3_linear_1409_1542)" stroke-width="0.4"/>
<path d="M32.2001 19.4898C32.0754 19.4152 31.9095 19.4152 31.7847 19.4898L21.0796 25.6676C20.9549 25.7422 20.8721 25.875 20.8721 26.0246L20.8726 38.3889C20.8726 38.5385 20.9557 38.6714 21.08 38.7459L31.7851 44.9238C31.8516 44.9568 31.918 44.9821 31.9926 44.9821C32.0672 44.9821 32.1337 44.9654 32.2001 44.9238L42.9052 38.7459C43.0299 38.6714 43.1127 38.5385 43.1127 38.3889V26.0323C43.1127 25.8827 43.0295 25.7499 42.9052 25.6753L32.2001 19.4898ZM42.2823 38.148L31.9926 44.0854L21.6947 38.148V26.2655L31.9926 20.3282L42.2823 26.2655V38.148Z" stroke="url(#paint4_linear_1409_1542)" stroke-width="0.4"/>
<path d="M25.6726 28.1671C25.4317 28.2833 25.4149 28.4744 25.4149 28.549V35.873C25.4149 36.0389 25.5144 36.1884 25.6726 36.2549L31.8263 38.8541C31.876 38.879 31.9343 38.8872 31.9841 38.8872C32.0338 38.8872 32.0921 38.879 32.1418 38.8541L38.2956 36.2549C38.4533 36.1885 38.5532 36.0389 38.5532 35.873V28.549C38.5532 28.4744 38.5862 28.2914 38.2956 28.1671L32.1418 25.5679C32.0424 25.5263 31.9258 25.5263 31.8177 25.5679L25.6726 28.1671ZM26.2457 29.1718L31.5692 31.4221V37.8494L26.2457 35.5991V29.1718ZM37.7314 35.5991L32.408 37.8494V31.4221L37.7314 29.1718V35.5991ZM37.0837 28.549L31.9926 30.6912L26.9015 28.5403L31.9926 26.3984L37.0837 28.549Z" stroke="url(#paint5_linear_1409_1542)" stroke-width="0.4"/>
<defs>
<linearGradient id="paint0_linear_1409_1542" x1="4.99998" y1="59.0001" x2="50.415" y2="5.6869" gradientUnits="userSpaceOnUse">
<stop stop-color="#19C8A2"/>
<stop offset="1" stop-color="#5694F2"/>
</linearGradient>
<linearGradient id="paint1_linear_1409_1542" x1="4.99998" y1="59.0001" x2="50.415" y2="5.6869" gradientUnits="userSpaceOnUse">
<stop stop-color="#19C8A2"/>
<stop offset="1" stop-color="#5694F2"/>
</linearGradient>
<linearGradient id="paint2_linear_1409_1542" x1="4.99998" y1="59.0001" x2="50.415" y2="5.6869" gradientUnits="userSpaceOnUse">
<stop stop-color="#19C8A2"/>
<stop offset="1" stop-color="#5694F2"/>
</linearGradient>
<linearGradient id="paint3_linear_1409_1542" x1="5" y1="59" x2="59" y2="5" gradientUnits="userSpaceOnUse">
<stop stop-color="#19C8A2"/>
<stop offset="1" stop-color="#5694F2"/>
</linearGradient>
<linearGradient id="paint4_linear_1409_1542" x1="5" y1="59" x2="59" y2="5" gradientUnits="userSpaceOnUse">
<stop stop-color="#19C8A2"/>
<stop offset="1" stop-color="#5694F2"/>
</linearGradient>
<linearGradient id="paint5_linear_1409_1542" x1="5" y1="59" x2="59" y2="5" gradientUnits="userSpaceOnUse">
<stop stop-color="#19C8A2"/>
<stop offset="1" stop-color="#5694F2"/>
</linearGradient>
</defs>
</svg>
