<svg width="64" height="64" viewBox="0 0 64 64" fill="none" xmlns="http://www.w3.org/2000/svg">
<path d="M44.9131 45.2988C44.9131 43.7784 43.6839 42.5402 42.1744 42.5402C40.665 42.5402 39.4442 43.7784 39.4442 45.2988C39.4442 46.163 39.8568 46.977 40.533 47.5007L39.6422 51.0651C39.6094 51.1899 39.6422 51.3229 39.7163 51.4224C39.7904 51.5219 39.9143 51.5802 40.0382 51.5802H44.311C44.4349 51.5802 44.5584 51.5219 44.6329 51.4224C44.707 51.3229 44.7402 51.1899 44.707 51.0651L43.8243 47.5007C44.5009 46.977 44.9131 46.163 44.9131 45.2988ZM43.1396 46.9522C42.983 47.0435 42.9004 47.2348 42.9497 47.4094L43.7745 50.7495L40.5661 50.7491L41.3994 47.4256C41.4407 47.2511 41.3666 47.0602 41.2095 46.9684C40.624 46.6193 40.2608 45.988 40.2608 45.3065C40.2608 44.2428 41.1188 43.3786 42.1662 43.3786C43.2221 43.3786 44.0802 44.2428 44.0802 45.3065C44.0883 45.9798 43.7255 46.6116 43.1396 46.9521L43.1396 46.9522Z" fill="url(#paint0_linear_1409_1993)"/>
<path d="M53.0632 35.1044H52.4365V29.2467C52.4365 24.0122 48.6256 19.6749 43.5277 19.0102V16.9748C43.5277 15.5873 42.7851 14.2994 41.5976 13.6098L27.6899 5.51723C26.502 4.82759 25.0258 4.82759 23.8378 5.51723L9.93011 13.6098C8.73402 14.2994 8 15.5874 8 16.9748V33.1441C8 34.5315 8.74258 35.8194 9.93011 36.509L23.8378 44.6016C24.4317 44.9421 25.0998 45.1167 25.7679 45.1167C26.436 45.1167 27.104 44.9421 27.698 44.6016L28.3746 44.2109V56.0587C28.3746 57.6791 29.686 59 31.2946 59H53.0799C54.6886 59 56 57.6791 56 56.0587V38.046C55.9834 36.4256 54.6719 35.1047 53.0634 35.1047L53.0632 35.1044ZM51.6113 29.2467V35.1044H48.2293V29.2467C48.2293 26.2557 46.1093 23.7296 43.1892 23.2394C42.8673 23.181 42.5293 23.148 42.1665 23.148C38.8258 23.148 36.1117 25.8817 36.1117 29.2467V35.1044H32.7301V29.2467C32.7301 24.0041 36.9616 19.7333 42.175 19.7333C42.4803 19.7333 42.7856 19.75 43.0823 19.7831C47.9491 20.2484 51.6113 24.3197 51.6113 29.2467ZM36.945 34.5812L39.329 33.1937C39.4529 33.1191 39.5351 32.9861 39.5351 32.8364V24.719C40.3105 24.2618 41.2097 23.9963 42.1746 23.9963C42.3645 23.9963 42.5374 24.0212 42.7107 24.046V33.1607C42.7107 33.8833 42.4467 34.573 41.9847 35.1215H36.9527L36.9535 34.5811L36.945 34.5812ZM36.945 33.617V29.2467C36.945 27.6847 37.6297 26.2805 38.7103 25.3169V32.5869L36.945 33.617ZM43.5359 33.1517V24.1868C45.8044 24.7933 47.4127 26.8374 47.4127 29.2468V35.1045H42.9994C43.3379 34.5148 43.5359 33.85 43.5359 33.1518L43.5359 33.1517ZM28.366 38.0457V38.6105L25.7678 40.1227L12.8172 32.5868V17.5395L25.7591 10.0036L38.7097 17.5395V19.5253C36.7463 20.2398 35.0556 21.5358 33.851 23.2146V20.4727C33.851 20.4727 33.8838 20.1652 33.6036 20.082L25.924 16.8165C25.8252 16.7749 25.7094 16.7749 25.6021 16.8165L17.9226 20.082C17.6586 20.1815 17.6667 20.3895 17.6667 20.4641V29.6701C17.6667 29.8361 17.7654 29.9857 17.9226 30.0522L25.6021 33.3177C25.6515 33.3426 25.7094 33.3507 25.7588 33.3507C25.8167 33.3507 25.8661 33.3426 25.9155 33.3177L31.8957 30.7753V35.104H31.269C29.6688 35.104 28.3655 36.425 28.3655 38.0453L28.366 38.0457ZM31.9047 29.2467V29.878L26.1799 32.3123V24.0036L33.0348 21.0872V24.5685C32.3173 25.9816 31.9047 27.5685 31.9047 29.2467ZM25.3471 24.004V32.3128L18.4923 29.3964V21.0877L25.3471 24.004ZM19.1357 20.4645L25.7594 17.6481L32.383 20.4645L25.7594 23.2809L19.1357 20.4645ZM27.2772 43.8868C26.3452 44.4268 25.1819 44.4268 24.2417 43.8868L10.3341 35.7942C9.3935 35.2543 8.8161 34.2404 8.8161 33.1519V16.9749C8.8161 15.8864 9.40157 14.8729 10.3341 14.3326L24.2417 6.24005C25.1738 5.70009 26.3371 5.70009 27.2772 6.24005L41.1849 14.3326C42.125 14.873 42.7109 15.8864 42.7109 16.9749V18.9357C42.5295 18.9276 42.3563 18.9108 42.1749 18.9108C41.2594 18.9108 40.3767 19.0438 39.5354 19.2681L39.5349 17.2991C39.5349 17.1494 39.4523 17.0164 39.3288 16.9418L25.9662 9.1649C25.8423 9.09027 25.6775 9.09027 25.5536 9.1649L12.191 16.9418C12.0671 17.0164 11.9849 17.1494 11.9849 17.2991V32.8283C11.9849 32.978 12.0675 33.1109 12.191 33.1856L25.5536 40.9625C25.6196 40.9955 25.6856 41.0208 25.7597 41.0208C25.8338 41.0208 25.8998 41.0041 25.9658 40.9625L28.3578 39.575V43.2556L27.2772 43.8868ZM55.159 56.0673C55.159 57.2305 54.2185 58.1779 53.0637 58.1779H31.2784C30.1236 58.1779 29.183 57.2305 29.183 56.0673V38.0458C29.183 36.8826 30.1236 35.9352 31.2784 35.9352H53.0637C54.2185 35.9352 55.159 36.8826 55.159 38.0458V56.0673Z" fill="url(#paint1_linear_1409_1993)"/>
<path d="M44.9131 45.2988C44.9131 43.7784 43.6839 42.5402 42.1744 42.5402C40.665 42.5402 39.4442 43.7784 39.4442 45.2988C39.4442 46.163 39.8568 46.977 40.533 47.5007L39.6422 51.0651C39.6094 51.1899 39.6422 51.3229 39.7163 51.4224C39.7904 51.5219 39.9143 51.5802 40.0382 51.5802H44.311C44.4349 51.5802 44.5584 51.5219 44.6329 51.4224C44.707 51.3229 44.7402 51.1899 44.707 51.0651L43.8243 47.5007C44.5009 46.977 44.9131 46.163 44.9131 45.2988ZM43.1396 46.9522C42.983 47.0435 42.9004 47.2348 42.9497 47.4094L43.7745 50.7495L40.5661 50.7491L41.3994 47.4256C41.4407 47.2511 41.3666 47.0602 41.2095 46.9684C40.624 46.6193 40.2608 45.988 40.2608 45.3065C40.2608 44.2428 41.1188 43.3786 42.1662 43.3786C43.2221 43.3786 44.0802 44.2428 44.0802 45.3065C44.0883 45.9798 43.7255 46.6116 43.1396 46.9521L43.1396 46.9522Z" stroke="url(#paint2_linear_1409_1993)" stroke-width="0.4"/>
<path d="M53.0632 35.1044H52.4365V29.2467C52.4365 24.0122 48.6256 19.6749 43.5277 19.0102V16.9748C43.5277 15.5873 42.7851 14.2994 41.5976 13.6098L27.6899 5.51723C26.502 4.82759 25.0258 4.82759 23.8378 5.51723L9.93011 13.6098C8.73402 14.2994 8 15.5874 8 16.9748V33.1441C8 34.5315 8.74258 35.8194 9.93011 36.509L23.8378 44.6016C24.4317 44.9421 25.0998 45.1167 25.7679 45.1167C26.436 45.1167 27.104 44.9421 27.698 44.6016L28.3746 44.2109V56.0587C28.3746 57.6791 29.686 59 31.2946 59H53.0799C54.6886 59 56 57.6791 56 56.0587V38.046C55.9834 36.4256 54.6719 35.1047 53.0634 35.1047L53.0632 35.1044ZM51.6113 29.2467V35.1044H48.2293V29.2467C48.2293 26.2557 46.1093 23.7296 43.1892 23.2394C42.8673 23.181 42.5293 23.148 42.1665 23.148C38.8258 23.148 36.1117 25.8817 36.1117 29.2467V35.1044H32.7301V29.2467C32.7301 24.0041 36.9616 19.7333 42.175 19.7333C42.4803 19.7333 42.7856 19.75 43.0823 19.7831C47.9491 20.2484 51.6113 24.3197 51.6113 29.2467ZM36.945 34.5812L39.329 33.1937C39.4529 33.1191 39.5351 32.9861 39.5351 32.8364V24.719C40.3105 24.2618 41.2097 23.9963 42.1746 23.9963C42.3645 23.9963 42.5374 24.0212 42.7107 24.046V33.1607C42.7107 33.8833 42.4467 34.573 41.9847 35.1215H36.9527L36.9535 34.5811L36.945 34.5812ZM36.945 33.617V29.2467C36.945 27.6847 37.6297 26.2805 38.7103 25.3169V32.5869L36.945 33.617ZM43.5359 33.1517V24.1868C45.8044 24.7933 47.4127 26.8374 47.4127 29.2468V35.1045H42.9994C43.3379 34.5148 43.5359 33.85 43.5359 33.1518L43.5359 33.1517ZM28.366 38.0457V38.6105L25.7678 40.1227L12.8172 32.5868V17.5395L25.7591 10.0036L38.7097 17.5395V19.5253C36.7463 20.2398 35.0556 21.5358 33.851 23.2146V20.4727C33.851 20.4727 33.8838 20.1652 33.6036 20.082L25.924 16.8165C25.8252 16.7749 25.7094 16.7749 25.6021 16.8165L17.9226 20.082C17.6586 20.1815 17.6667 20.3895 17.6667 20.4641V29.6701C17.6667 29.8361 17.7654 29.9857 17.9226 30.0522L25.6021 33.3177C25.6515 33.3426 25.7094 33.3507 25.7588 33.3507C25.8167 33.3507 25.8661 33.3426 25.9155 33.3177L31.8957 30.7753V35.104H31.269C29.6688 35.104 28.3655 36.425 28.3655 38.0453L28.366 38.0457ZM31.9047 29.2467V29.878L26.1799 32.3123V24.0036L33.0348 21.0872V24.5685C32.3173 25.9816 31.9047 27.5685 31.9047 29.2467ZM25.3471 24.004V32.3128L18.4923 29.3964V21.0877L25.3471 24.004ZM19.1357 20.4645L25.7594 17.6481L32.383 20.4645L25.7594 23.2809L19.1357 20.4645ZM27.2772 43.8868C26.3452 44.4268 25.1819 44.4268 24.2417 43.8868L10.3341 35.7942C9.3935 35.2543 8.8161 34.2404 8.8161 33.1519V16.9749C8.8161 15.8864 9.40157 14.8729 10.3341 14.3326L24.2417 6.24005C25.1738 5.70009 26.3371 5.70009 27.2772 6.24005L41.1849 14.3326C42.125 14.873 42.7109 15.8864 42.7109 16.9749V18.9357C42.5295 18.9276 42.3563 18.9108 42.1749 18.9108C41.2594 18.9108 40.3767 19.0438 39.5354 19.2681L39.5349 17.2991C39.5349 17.1494 39.4523 17.0164 39.3288 16.9418L25.9662 9.1649C25.8423 9.09027 25.6775 9.09027 25.5536 9.1649L12.191 16.9418C12.0671 17.0164 11.9849 17.1494 11.9849 17.2991V32.8283C11.9849 32.978 12.0675 33.1109 12.191 33.1856L25.5536 40.9625C25.6196 40.9955 25.6856 41.0208 25.7597 41.0208C25.8338 41.0208 25.8998 41.0041 25.9658 40.9625L28.3578 39.575V43.2556L27.2772 43.8868ZM55.159 56.0673C55.159 57.2305 54.2185 58.1779 53.0637 58.1779H31.2784C30.1236 58.1779 29.183 57.2305 29.183 56.0673V38.0458C29.183 36.8826 30.1236 35.9352 31.2784 35.9352H53.0637C54.2185 35.9352 55.159 36.8826 55.159 38.0458V56.0673Z" stroke="url(#paint3_linear_1409_1993)" stroke-width="0.4"/>
<defs>
<linearGradient id="paint0_linear_1409_1993" x1="7.99998" y1="59.0001" x2="53.9584" y2="11.0435" gradientUnits="userSpaceOnUse">
<stop stop-color="#19C8A2"/>
<stop offset="1" stop-color="#5694F2"/>
</linearGradient>
<linearGradient id="paint1_linear_1409_1993" x1="7.99998" y1="59.0001" x2="53.9584" y2="11.0435" gradientUnits="userSpaceOnUse">
<stop stop-color="#19C8A2"/>
<stop offset="1" stop-color="#5694F2"/>
</linearGradient>
<linearGradient id="paint2_linear_1409_1993" x1="8" y1="59" x2="61.6276" y2="11.331" gradientUnits="userSpaceOnUse">
<stop stop-color="#19C8A2"/>
<stop offset="1" stop-color="#5694F2"/>
</linearGradient>
<linearGradient id="paint3_linear_1409_1993" x1="8" y1="59" x2="61.6276" y2="11.331" gradientUnits="userSpaceOnUse">
<stop stop-color="#19C8A2"/>
<stop offset="1" stop-color="#5694F2"/>
</linearGradient>
</defs>
</svg>
