<svg width="64" height="64" viewBox="0 0 64 64" fill="none" xmlns="http://www.w3.org/2000/svg">
<path d="M33.9484 54.9624H30.0425C29.8075 54.9624 29.6223 55.1451 29.6223 55.3779C29.6223 55.6103 29.8071 55.7934 30.0425 55.7934H33.9484C34.1834 55.7934 34.3686 55.6108 34.3686 55.3779C34.3682 55.1451 34.1834 54.9624 33.9484 54.9624Z" fill="url(#paint0_linear_1409_1721)"/>
<path d="M31.9071 9.03676H35.5442C35.7792 9.03676 35.9643 8.85407 35.9643 8.62121C35.9643 8.38878 35.7796 8.20567 35.5442 8.20567H31.9071C31.6721 8.20567 31.4869 8.38836 31.4869 8.62121C31.4869 8.85407 31.6716 9.03676 31.9071 9.03676Z" fill="url(#paint1_linear_1409_1721)"/>
<path d="M28.455 9.03676H29.0429C29.2779 9.03676 29.4631 8.85407 29.4631 8.62121C29.4631 8.38878 29.2784 8.20567 29.0429 8.20567H28.455C28.2199 8.20567 28.0348 8.38836 28.0348 8.62121C28.0348 8.85407 28.2195 9.03676 28.455 9.03676Z" fill="url(#paint2_linear_1409_1721)"/>
<path d="M38.0888 28.1275L32.1584 25.6518C32.0491 25.6102 31.9398 25.6102 31.8306 25.6518L25.9002 28.1275C25.892 28.1356 25.6652 28.2188 25.6396 28.5096V35.4879C25.6396 35.6539 25.7402 35.8035 25.9002 35.87L31.8306 38.3457C31.8809 38.3706 31.9399 38.3787 31.9902 38.3787C32.0404 38.3787 32.0994 38.3706 32.1497 38.3457L38.0801 35.87C38.2397 35.8036 38.3407 35.6539 38.3407 35.4879V28.5096C38.3494 28.435 38.3242 28.2356 38.0888 28.1275ZM31.9989 26.4825L36.8457 28.5096L31.9989 30.5367L27.1521 28.5096L31.9989 26.4825ZM26.4882 29.1328L31.5786 31.2593V37.3324L26.4882 35.2058V29.1328ZM32.419 37.3411V31.268L37.5094 29.1414V35.2145L32.419 37.3411Z" fill="url(#paint3_linear_1409_1721)"/>
<path d="M52.6556 29.682C51.5048 29.682 50.547 30.5045 50.3454 31.5843H48.5225V26.2093C49.7995 26.1925 50.8327 25.1625 50.8327 23.8996C50.8327 22.6367 49.7994 21.5985 48.5225 21.5899L48.5229 8.23174C48.5229 6.4456 47.0531 5 45.2471 5H18.7443C16.9383 5 15.4766 6.45372 15.4766 8.23174V21.5822C14.1997 21.5904 13.1581 22.629 13.1581 23.8919C13.1581 25.1548 14.1996 26.193 15.4766 26.2016V31.5766H13.6537C13.4521 30.4968 12.4948 29.6743 11.3436 29.6743C10.0502 29.6743 9 30.7129 9 31.9921C9 33.2713 10.0502 34.3099 11.3436 34.3099C12.4943 34.3099 13.4522 33.4874 13.6537 32.4076H15.4766V37.7826C14.1997 37.7908 13.1581 38.8294 13.1581 40.0923C13.1581 41.3633 14.1996 42.3934 15.4766 42.402V55.7601C15.4766 57.5463 16.9465 59 18.7443 59H45.2471C47.0531 59 48.5229 57.5463 48.5229 55.7601L48.5234 42.4174C49.8003 42.4006 50.8336 41.3706 50.8336 40.1077C50.8336 38.8366 49.8003 37.8065 48.5234 37.798V32.4149H50.3463C50.5479 33.4947 51.5052 34.3172 52.6564 34.3172C53.9498 34.3172 55 33.2785 55 31.9993C54.9996 30.7202 53.9498 29.6815 52.656 29.6815L52.6556 29.682ZM11.344 33.487C10.5124 33.487 9.84029 32.8223 9.84029 31.9998C9.84029 31.1773 10.5124 30.5126 11.344 30.5126C12.1757 30.5126 12.856 31.1773 12.856 31.9998C12.856 32.8223 12.1757 33.487 11.344 33.487ZM47.6916 42.2682V51.7638H16.3169V42.2682C17.2075 41.9358 17.8541 41.0966 17.8541 40.1081C17.8541 39.5017 17.6104 38.9532 17.224 38.5462L19.0972 36.7018H22.2976C22.5916 37.5492 23.1713 38.2804 23.9778 38.7456L27.2537 40.6149V42.1187L25.3806 43.9713C24.9691 43.5892 24.4145 43.3564 23.8097 43.3564C22.5245 43.3564 21.4743 44.395 21.4743 45.6742C21.4743 46.9452 22.5245 47.9838 23.8097 47.9838C25.0949 47.9838 26.145 46.9452 26.145 45.6742C26.145 45.3002 26.0444 44.9516 25.8931 44.6441L27.9762 42.5922C28.0516 42.5176 28.1023 42.4095 28.1023 42.3014V41.105L30.1186 42.2599C30.5808 42.5177 31.0764 42.6755 31.5885 42.7334V45.45C30.4967 45.6494 29.6732 46.5881 29.6732 47.7262C29.6732 48.9973 30.7234 50.0359 32.0086 50.0359C33.2938 50.0359 34.344 48.9973 34.344 47.7262C34.344 46.5881 33.5206 45.6494 32.4287 45.45V42.7334C32.9413 42.6751 33.4369 42.5258 33.8986 42.2599L35.9231 41.105V42.3014C35.9231 42.4095 35.9651 42.5176 36.0493 42.5922L38.1323 44.6523C37.9728 44.968 37.8804 45.3085 37.8804 45.6824C37.8804 46.9534 38.9306 47.9921 40.2158 47.9921C41.501 47.9921 42.5511 46.9534 42.5511 45.6824C42.5511 44.4032 41.501 43.3646 40.2158 43.3646C39.6109 43.3646 39.0568 43.6056 38.6449 43.9795L36.7717 42.127V40.6231L40.0476 38.7538C40.8541 38.2967 41.442 37.5574 41.7278 36.7101H44.9365L46.8014 38.5545C46.415 38.97 46.1714 39.5099 46.1714 40.1163C46.154 41.0966 46.7927 41.9358 47.6915 42.2683L47.6916 42.2682ZM16.3169 21.7314V12.2358H47.6916V21.7314C46.7927 22.0556 46.1544 22.903 46.1544 23.8915C46.1544 24.4978 46.3981 25.0377 46.7844 25.4533L44.9195 27.3059H41.7109C41.4169 26.4585 40.8372 25.7192 40.0306 25.2621L36.7548 23.3928V21.8889L38.6197 20.0364C39.0399 20.4185 39.5858 20.6595 40.1989 20.6595C41.4841 20.6595 42.5343 19.6209 42.5343 18.3417C42.5343 17.0706 41.4841 16.032 40.1989 16.032C38.9137 16.032 37.8635 17.0706 37.8635 18.3417C37.8635 18.7156 37.9559 19.0561 38.1155 19.3717L36.0407 21.4319C35.9653 21.5065 35.9146 21.6146 35.9146 21.7226V22.919L33.8901 21.7641C33.4366 21.5064 32.9323 21.3486 32.4202 21.2907V18.574C33.5038 18.3746 34.3354 17.4359 34.3354 16.2978C34.3354 15.0268 33.2853 13.9882 32.0001 13.9882C30.7149 13.9882 29.6647 15.0268 29.6647 16.2978C29.6647 17.4359 30.4964 18.3832 31.5799 18.574V21.2826C31.0674 21.3409 30.5636 21.4901 30.1101 21.756L28.0938 22.9109V21.7145C28.0938 21.6064 28.0518 21.4984 27.9676 21.4238L25.8846 19.3636C26.0442 19.0561 26.1365 18.7075 26.1365 18.3336C26.1365 17.0625 25.0863 16.0239 23.8011 16.0239C22.516 16.0239 21.4658 17.0625 21.4658 18.3336C21.4658 19.6127 22.516 20.6514 23.8011 20.6514C24.406 20.6514 24.9601 20.4104 25.3804 20.0283L27.2535 21.8808V23.3847L23.9776 25.254C23.1711 25.7111 22.5832 26.4503 22.2974 27.2977H19.097L17.2321 25.4533C17.6184 25.0378 17.8621 24.4979 17.8621 23.8915C17.846 22.903 17.2073 22.0638 16.3172 21.7314H16.3169ZM33.47 41.5205C32.5629 42.0356 31.4373 42.0356 30.5298 41.5205L24.3978 38.0148C23.4907 37.4998 22.928 36.5276 22.928 35.4975V28.5024C22.928 28.2949 22.9531 28.0869 23.0034 27.8875C23.0203 27.8544 23.0203 27.8128 23.0286 27.7794C23.2219 27.0315 23.7089 26.3835 24.4061 25.9847L30.538 22.4789C30.9916 22.2212 31.4959 22.0883 32.0079 22.0883C32.5118 22.0883 33.0243 22.2212 33.4778 22.4789L39.6098 25.9847C40.5169 26.4997 41.0797 27.4633 41.0797 28.502V35.5052C41.0797 36.5439 40.5168 37.5074 39.6098 38.0225L33.47 41.5205ZM32.0001 46.2146C32.8235 46.2146 33.4952 46.8793 33.4952 47.7018C33.4952 48.5161 32.8231 49.1804 32.0001 49.1804C31.1767 49.1804 30.505 48.5157 30.505 47.7018C30.505 46.8793 31.1767 46.2146 32.0001 46.2146ZM32.0084 17.7857H31.9915C31.168 17.7857 30.5046 17.1128 30.5046 16.2985C30.5046 15.4841 31.1767 14.8198 31.9997 14.8198C32.8231 14.8198 33.4948 15.4845 33.4948 16.2985C33.4952 17.1128 32.8318 17.7771 32.0084 17.7857ZM38.6949 18.3337C38.6949 17.5193 39.367 16.8551 40.19 16.8551C41.0134 16.8551 41.6851 17.5198 41.6851 18.3337C41.6851 19.1562 41.013 19.8209 40.19 19.8209C39.367 19.8209 38.6949 19.1562 38.6949 18.3337ZM23.8096 19.8209C22.9861 19.8209 22.3145 19.1562 22.3145 18.3337C22.3145 17.5193 22.9866 16.8551 23.8096 16.8551C24.633 16.8551 25.3046 17.5198 25.3046 18.3337C25.3051 19.1562 24.633 19.8209 23.8096 19.8209ZM25.3051 45.6667C25.3051 46.481 24.633 47.1453 23.81 47.1453C22.9866 47.1453 22.3149 46.4806 22.3149 45.6667C22.3149 44.8442 22.987 44.1795 23.81 44.1795C24.633 44.1795 25.3051 44.8442 25.3051 45.6667ZM40.1904 44.1709C41.0138 44.1709 41.6855 44.8356 41.6855 45.6581C41.6855 46.4725 41.0134 47.1368 40.1904 47.1368C39.367 47.1368 38.6953 46.4721 38.6953 45.6581C38.6949 44.8442 39.367 44.1709 40.1904 44.1709ZM41.8871 28.1374H45.0875C45.1967 28.1374 45.306 28.0958 45.3815 28.0126L47.448 25.9607C47.5234 26.0023 47.5993 26.0353 47.683 26.0602V31.5848H41.9122V28.4942C41.9122 28.378 41.904 28.2536 41.8871 28.1374ZM50.0015 23.8919C50.0015 24.7144 49.3294 25.3791 48.4978 25.3791C47.6661 25.3791 46.9858 24.7144 46.9858 23.8919C46.9858 23.0694 47.6661 22.4047 48.4978 22.4047C49.3294 22.4133 50.0015 23.0776 50.0015 23.8919ZM18.7445 5.83074H45.2473C46.5914 5.83074 47.6833 6.91053 47.6833 8.23176V11.4051H16.3175V8.23176C16.3175 6.91098 17.4093 5.83074 18.7448 5.83074H18.7445ZM13.9988 23.8919C13.9988 23.0694 14.6709 22.4047 15.5025 22.4047C16.3342 22.4047 17.0145 23.0694 17.0145 23.8919C17.0145 24.7144 16.3342 25.3791 15.5025 25.3791C14.6709 25.3791 13.9988 24.7144 13.9988 23.8919ZM16.3173 26.0601C16.3927 26.0352 16.4686 25.9936 16.544 25.9606L18.6188 28.0125C18.6942 28.0871 18.8035 28.1373 18.9128 28.1373H22.1049C22.0967 28.2535 22.0798 28.3783 22.0798 28.5027V31.5932H16.309L16.3086 26.06L16.3173 26.0601ZM22.088 32.4159V35.4979C22.088 35.6227 22.0963 35.7389 22.1132 35.8632H18.921C18.8117 35.8632 18.7024 35.9048 18.627 35.988L16.544 38.0399C16.4685 38.0069 16.4013 37.9735 16.3172 37.9404V32.4158L22.088 32.4159ZM13.9988 40.1006C13.9988 39.2781 14.6709 38.6133 15.5025 38.6133C16.3342 38.6133 17.0145 39.278 17.0145 40.1006C17.0145 40.9231 16.3342 41.5878 15.5025 41.5878C14.6709 41.5873 13.9988 40.9231 13.9988 40.1006ZM45.2469 58.1694H18.7441C17.4 58.1694 16.3164 57.0896 16.3164 55.7603V52.5951H47.691V55.7603C47.6915 57.0892 46.5992 58.1694 45.2468 58.1694H45.2469ZM50.0013 40.1006C50.0013 40.9231 49.3292 41.5878 48.4976 41.5878C47.6659 41.5878 46.9856 40.9231 46.9856 40.1006C46.9856 39.2781 47.6659 38.6133 48.4976 38.6133C49.3292 38.6215 50.0013 39.2862 50.0013 40.1006ZM47.6915 37.9405C47.616 37.9654 47.5401 38.007 47.4647 38.04L45.39 35.9881C45.3145 35.9135 45.2052 35.8633 45.096 35.8633H41.8956C41.9038 35.7385 41.9207 35.6223 41.9207 35.4979L41.9203 32.4159H47.6997V37.9405L47.6915 37.9405ZM52.6558 33.4876C51.8242 33.4876 51.1521 32.8314 51.1438 32.017V31.9922C51.1521 31.1778 51.8242 30.5217 52.6558 30.5217C53.4874 30.5217 54.1595 31.1863 54.1595 32.0089C54.1595 32.8309 53.4875 33.4876 52.6558 33.4876Z" fill="url(#paint4_linear_1409_1721)"/>
<path d="M33.9484 54.9624H30.0425C29.8075 54.9624 29.6223 55.1451 29.6223 55.3779C29.6223 55.6103 29.8071 55.7934 30.0425 55.7934H33.9484C34.1834 55.7934 34.3686 55.6108 34.3686 55.3779C34.3682 55.1451 34.1834 54.9624 33.9484 54.9624Z" stroke="url(#paint5_linear_1409_1721)" stroke-width="0.4"/>
<path d="M31.9071 9.03676H35.5442C35.7792 9.03676 35.9643 8.85407 35.9643 8.62121C35.9643 8.38878 35.7796 8.20567 35.5442 8.20567H31.9071C31.6721 8.20567 31.4869 8.38836 31.4869 8.62121C31.4869 8.85407 31.6716 9.03676 31.9071 9.03676Z" stroke="url(#paint6_linear_1409_1721)" stroke-width="0.4"/>
<path d="M28.455 9.03676H29.0429C29.2779 9.03676 29.4631 8.85407 29.4631 8.62121C29.4631 8.38878 29.2784 8.20567 29.0429 8.20567H28.455C28.2199 8.20567 28.0348 8.38836 28.0348 8.62121C28.0348 8.85407 28.2195 9.03676 28.455 9.03676Z" stroke="url(#paint7_linear_1409_1721)" stroke-width="0.4"/>
<path d="M38.0888 28.1275L32.1584 25.6518C32.0491 25.6102 31.9398 25.6102 31.8306 25.6518L25.9002 28.1275C25.892 28.1356 25.6652 28.2188 25.6396 28.5096V35.4879C25.6396 35.6539 25.7402 35.8035 25.9002 35.87L31.8306 38.3457C31.8809 38.3706 31.9399 38.3787 31.9902 38.3787C32.0404 38.3787 32.0994 38.3706 32.1497 38.3457L38.0801 35.87C38.2397 35.8036 38.3407 35.6539 38.3407 35.4879V28.5096C38.3494 28.435 38.3242 28.2356 38.0888 28.1275ZM31.9989 26.4825L36.8457 28.5096L31.9989 30.5367L27.1521 28.5096L31.9989 26.4825ZM26.4882 29.1328L31.5786 31.2593V37.3324L26.4882 35.2058V29.1328ZM32.419 37.3411V31.268L37.5094 29.1414V35.2145L32.419 37.3411Z" stroke="url(#paint8_linear_1409_1721)" stroke-width="0.4"/>
<path d="M52.6556 29.682C51.5048 29.682 50.547 30.5045 50.3454 31.5843H48.5225V26.2093C49.7995 26.1925 50.8327 25.1625 50.8327 23.8996C50.8327 22.6367 49.7994 21.5985 48.5225 21.5899L48.5229 8.23174C48.5229 6.4456 47.0531 5 45.2471 5H18.7443C16.9383 5 15.4766 6.45372 15.4766 8.23174V21.5822C14.1997 21.5904 13.1581 22.629 13.1581 23.8919C13.1581 25.1548 14.1996 26.193 15.4766 26.2016V31.5766H13.6537C13.4521 30.4968 12.4948 29.6743 11.3436 29.6743C10.0502 29.6743 9 30.7129 9 31.9921C9 33.2713 10.0502 34.3099 11.3436 34.3099C12.4943 34.3099 13.4522 33.4874 13.6537 32.4076H15.4766V37.7826C14.1997 37.7908 13.1581 38.8294 13.1581 40.0923C13.1581 41.3633 14.1996 42.3934 15.4766 42.402V55.7601C15.4766 57.5463 16.9465 59 18.7443 59H45.2471C47.0531 59 48.5229 57.5463 48.5229 55.7601L48.5234 42.4174C49.8003 42.4006 50.8336 41.3706 50.8336 40.1077C50.8336 38.8366 49.8003 37.8065 48.5234 37.798V32.4149H50.3463C50.5479 33.4947 51.5052 34.3172 52.6564 34.3172C53.9498 34.3172 55 33.2785 55 31.9993C54.9996 30.7202 53.9498 29.6815 52.656 29.6815L52.6556 29.682ZM11.344 33.487C10.5124 33.487 9.84029 32.8223 9.84029 31.9998C9.84029 31.1773 10.5124 30.5126 11.344 30.5126C12.1757 30.5126 12.856 31.1773 12.856 31.9998C12.856 32.8223 12.1757 33.487 11.344 33.487ZM47.6916 42.2682V51.7638H16.3169V42.2682C17.2075 41.9358 17.8541 41.0966 17.8541 40.1081C17.8541 39.5017 17.6104 38.9532 17.224 38.5462L19.0972 36.7018H22.2976C22.5916 37.5492 23.1713 38.2804 23.9778 38.7456L27.2537 40.6149V42.1187L25.3806 43.9713C24.9691 43.5892 24.4145 43.3564 23.8097 43.3564C22.5245 43.3564 21.4743 44.395 21.4743 45.6742C21.4743 46.9452 22.5245 47.9838 23.8097 47.9838C25.0949 47.9838 26.145 46.9452 26.145 45.6742C26.145 45.3002 26.0444 44.9516 25.8931 44.6441L27.9762 42.5922C28.0516 42.5176 28.1023 42.4095 28.1023 42.3014V41.105L30.1186 42.2599C30.5808 42.5177 31.0764 42.6755 31.5885 42.7334V45.45C30.4967 45.6494 29.6732 46.5881 29.6732 47.7262C29.6732 48.9973 30.7234 50.0359 32.0086 50.0359C33.2938 50.0359 34.344 48.9973 34.344 47.7262C34.344 46.5881 33.5206 45.6494 32.4287 45.45V42.7334C32.9413 42.6751 33.4369 42.5258 33.8986 42.2599L35.9231 41.105V42.3014C35.9231 42.4095 35.9651 42.5176 36.0493 42.5922L38.1323 44.6523C37.9728 44.968 37.8804 45.3085 37.8804 45.6824C37.8804 46.9534 38.9306 47.9921 40.2158 47.9921C41.501 47.9921 42.5511 46.9534 42.5511 45.6824C42.5511 44.4032 41.501 43.3646 40.2158 43.3646C39.6109 43.3646 39.0568 43.6056 38.6449 43.9795L36.7717 42.127V40.6231L40.0476 38.7538C40.8541 38.2967 41.442 37.5574 41.7278 36.7101H44.9365L46.8014 38.5545C46.415 38.97 46.1714 39.5099 46.1714 40.1163C46.154 41.0966 46.7927 41.9358 47.6915 42.2683L47.6916 42.2682ZM16.3169 21.7314V12.2358H47.6916V21.7314C46.7927 22.0556 46.1544 22.903 46.1544 23.8915C46.1544 24.4978 46.3981 25.0377 46.7844 25.4533L44.9195 27.3059H41.7109C41.4169 26.4585 40.8372 25.7192 40.0306 25.2621L36.7548 23.3928V21.8889L38.6197 20.0364C39.0399 20.4185 39.5858 20.6595 40.1989 20.6595C41.4841 20.6595 42.5343 19.6209 42.5343 18.3417C42.5343 17.0706 41.4841 16.032 40.1989 16.032C38.9137 16.032 37.8635 17.0706 37.8635 18.3417C37.8635 18.7156 37.9559 19.0561 38.1155 19.3717L36.0407 21.4319C35.9653 21.5065 35.9146 21.6146 35.9146 21.7226V22.919L33.8901 21.7641C33.4366 21.5064 32.9323 21.3486 32.4202 21.2907V18.574C33.5038 18.3746 34.3354 17.4359 34.3354 16.2978C34.3354 15.0268 33.2853 13.9882 32.0001 13.9882C30.7149 13.9882 29.6647 15.0268 29.6647 16.2978C29.6647 17.4359 30.4964 18.3832 31.5799 18.574V21.2826C31.0674 21.3409 30.5636 21.4901 30.1101 21.756L28.0938 22.9109V21.7145C28.0938 21.6064 28.0518 21.4984 27.9676 21.4238L25.8846 19.3636C26.0442 19.0561 26.1365 18.7075 26.1365 18.3336C26.1365 17.0625 25.0863 16.0239 23.8011 16.0239C22.516 16.0239 21.4658 17.0625 21.4658 18.3336C21.4658 19.6127 22.516 20.6514 23.8011 20.6514C24.406 20.6514 24.9601 20.4104 25.3804 20.0283L27.2535 21.8808V23.3847L23.9776 25.254C23.1711 25.7111 22.5832 26.4503 22.2974 27.2977H19.097L17.2321 25.4533C17.6184 25.0378 17.8621 24.4979 17.8621 23.8915C17.846 22.903 17.2073 22.0638 16.3172 21.7314H16.3169ZM33.47 41.5205C32.5629 42.0356 31.4373 42.0356 30.5298 41.5205L24.3978 38.0148C23.4907 37.4998 22.928 36.5276 22.928 35.4975V28.5024C22.928 28.2949 22.9531 28.0869 23.0034 27.8875C23.0203 27.8544 23.0203 27.8128 23.0286 27.7794C23.2219 27.0315 23.7089 26.3835 24.4061 25.9847L30.538 22.4789C30.9916 22.2212 31.4959 22.0883 32.0079 22.0883C32.5118 22.0883 33.0243 22.2212 33.4778 22.4789L39.6098 25.9847C40.5169 26.4997 41.0797 27.4633 41.0797 28.502V35.5052C41.0797 36.5439 40.5168 37.5074 39.6098 38.0225L33.47 41.5205ZM32.0001 46.2146C32.8235 46.2146 33.4952 46.8793 33.4952 47.7018C33.4952 48.5161 32.8231 49.1804 32.0001 49.1804C31.1767 49.1804 30.505 48.5157 30.505 47.7018C30.505 46.8793 31.1767 46.2146 32.0001 46.2146ZM32.0084 17.7857H31.9915C31.168 17.7857 30.5046 17.1128 30.5046 16.2985C30.5046 15.4841 31.1767 14.8198 31.9997 14.8198C32.8231 14.8198 33.4948 15.4845 33.4948 16.2985C33.4952 17.1128 32.8318 17.7771 32.0084 17.7857ZM38.6949 18.3337C38.6949 17.5193 39.367 16.8551 40.19 16.8551C41.0134 16.8551 41.6851 17.5198 41.6851 18.3337C41.6851 19.1562 41.013 19.8209 40.19 19.8209C39.367 19.8209 38.6949 19.1562 38.6949 18.3337ZM23.8096 19.8209C22.9861 19.8209 22.3145 19.1562 22.3145 18.3337C22.3145 17.5193 22.9866 16.8551 23.8096 16.8551C24.633 16.8551 25.3046 17.5198 25.3046 18.3337C25.3051 19.1562 24.633 19.8209 23.8096 19.8209ZM25.3051 45.6667C25.3051 46.481 24.633 47.1453 23.81 47.1453C22.9866 47.1453 22.3149 46.4806 22.3149 45.6667C22.3149 44.8442 22.987 44.1795 23.81 44.1795C24.633 44.1795 25.3051 44.8442 25.3051 45.6667ZM40.1904 44.1709C41.0138 44.1709 41.6855 44.8356 41.6855 45.6581C41.6855 46.4725 41.0134 47.1368 40.1904 47.1368C39.367 47.1368 38.6953 46.4721 38.6953 45.6581C38.6949 44.8442 39.367 44.1709 40.1904 44.1709ZM41.8871 28.1374H45.0875C45.1967 28.1374 45.306 28.0958 45.3815 28.0126L47.448 25.9607C47.5234 26.0023 47.5993 26.0353 47.683 26.0602V31.5848H41.9122V28.4942C41.9122 28.378 41.904 28.2536 41.8871 28.1374ZM50.0015 23.8919C50.0015 24.7144 49.3294 25.3791 48.4978 25.3791C47.6661 25.3791 46.9858 24.7144 46.9858 23.8919C46.9858 23.0694 47.6661 22.4047 48.4978 22.4047C49.3294 22.4133 50.0015 23.0776 50.0015 23.8919ZM18.7445 5.83074H45.2473C46.5914 5.83074 47.6833 6.91053 47.6833 8.23176V11.4051H16.3175V8.23176C16.3175 6.91098 17.4093 5.83074 18.7448 5.83074H18.7445ZM13.9988 23.8919C13.9988 23.0694 14.6709 22.4047 15.5025 22.4047C16.3342 22.4047 17.0145 23.0694 17.0145 23.8919C17.0145 24.7144 16.3342 25.3791 15.5025 25.3791C14.6709 25.3791 13.9988 24.7144 13.9988 23.8919ZM16.3173 26.0601C16.3927 26.0352 16.4686 25.9936 16.544 25.9606L18.6188 28.0125C18.6942 28.0871 18.8035 28.1373 18.9128 28.1373H22.1049C22.0967 28.2535 22.0798 28.3783 22.0798 28.5027V31.5932H16.309L16.3086 26.06L16.3173 26.0601ZM22.088 32.4159V35.4979C22.088 35.6227 22.0963 35.7389 22.1132 35.8632H18.921C18.8117 35.8632 18.7024 35.9048 18.627 35.988L16.544 38.0399C16.4685 38.0069 16.4013 37.9735 16.3172 37.9404V32.4158L22.088 32.4159ZM13.9988 40.1006C13.9988 39.2781 14.6709 38.6133 15.5025 38.6133C16.3342 38.6133 17.0145 39.278 17.0145 40.1006C17.0145 40.9231 16.3342 41.5878 15.5025 41.5878C14.6709 41.5873 13.9988 40.9231 13.9988 40.1006ZM45.2469 58.1694H18.7441C17.4 58.1694 16.3164 57.0896 16.3164 55.7603V52.5951H47.691V55.7603C47.6915 57.0892 46.5992 58.1694 45.2468 58.1694H45.2469ZM50.0013 40.1006C50.0013 40.9231 49.3292 41.5878 48.4976 41.5878C47.6659 41.5878 46.9856 40.9231 46.9856 40.1006C46.9856 39.2781 47.6659 38.6133 48.4976 38.6133C49.3292 38.6215 50.0013 39.2862 50.0013 40.1006ZM47.6915 37.9405C47.616 37.9654 47.5401 38.007 47.4647 38.04L45.39 35.9881C45.3145 35.9135 45.2052 35.8633 45.096 35.8633H41.8956C41.9038 35.7385 41.9207 35.6223 41.9207 35.4979L41.9203 32.4159H47.6997V37.9405L47.6915 37.9405ZM52.6558 33.4876C51.8242 33.4876 51.1521 32.8314 51.1438 32.017V31.9922C51.1521 31.1778 51.8242 30.5217 52.6558 30.5217C53.4874 30.5217 54.1595 31.1863 54.1595 32.0089C54.1595 32.8309 53.4875 33.4876 52.6558 33.4876Z" stroke="url(#paint9_linear_1409_1721)" stroke-width="0.4"/>
<defs>
<linearGradient id="paint0_linear_1409_1721" x1="8.99998" y1="59.0001" x2="55.0001" y2="13.0001" gradientUnits="userSpaceOnUse">
<stop stop-color="#19C8A2"/>
<stop offset="1" stop-color="#5694F2"/>
</linearGradient>
<linearGradient id="paint1_linear_1409_1721" x1="8.99998" y1="59.0001" x2="55.0001" y2="13.0001" gradientUnits="userSpaceOnUse">
<stop stop-color="#19C8A2"/>
<stop offset="1" stop-color="#5694F2"/>
</linearGradient>
<linearGradient id="paint2_linear_1409_1721" x1="8.99998" y1="59.0001" x2="55.0001" y2="13.0001" gradientUnits="userSpaceOnUse">
<stop stop-color="#19C8A2"/>
<stop offset="1" stop-color="#5694F2"/>
</linearGradient>
<linearGradient id="paint3_linear_1409_1721" x1="8.99998" y1="59.0001" x2="55.0001" y2="13.0001" gradientUnits="userSpaceOnUse">
<stop stop-color="#19C8A2"/>
<stop offset="1" stop-color="#5694F2"/>
</linearGradient>
<linearGradient id="paint4_linear_1409_1721" x1="8.99998" y1="59.0001" x2="55.0001" y2="13.0001" gradientUnits="userSpaceOnUse">
<stop stop-color="#19C8A2"/>
<stop offset="1" stop-color="#5694F2"/>
</linearGradient>
<linearGradient id="paint5_linear_1409_1721" x1="9" y1="59" x2="62.3132" y2="13.5851" gradientUnits="userSpaceOnUse">
<stop stop-color="#19C8A2"/>
<stop offset="1" stop-color="#5694F2"/>
</linearGradient>
<linearGradient id="paint6_linear_1409_1721" x1="9" y1="59" x2="62.3132" y2="13.5851" gradientUnits="userSpaceOnUse">
<stop stop-color="#19C8A2"/>
<stop offset="1" stop-color="#5694F2"/>
</linearGradient>
<linearGradient id="paint7_linear_1409_1721" x1="9" y1="59" x2="62.3132" y2="13.5851" gradientUnits="userSpaceOnUse">
<stop stop-color="#19C8A2"/>
<stop offset="1" stop-color="#5694F2"/>
</linearGradient>
<linearGradient id="paint8_linear_1409_1721" x1="9" y1="59" x2="62.3132" y2="13.5851" gradientUnits="userSpaceOnUse">
<stop stop-color="#19C8A2"/>
<stop offset="1" stop-color="#5694F2"/>
</linearGradient>
<linearGradient id="paint9_linear_1409_1721" x1="9" y1="59" x2="62.3132" y2="13.5851" gradientUnits="userSpaceOnUse">
<stop stop-color="#19C8A2"/>
<stop offset="1" stop-color="#5694F2"/>
</linearGradient>
</defs>
</svg>
