<svg width="64" height="64" viewBox="0 0 64 64" fill="none" xmlns="http://www.w3.org/2000/svg">
<path d="M17.6301 38.3296C18.0481 38.4956 18.3488 38.6701 18.5325 38.8447C18.6076 38.9193 18.7163 38.9609 18.825 38.9609H18.8418C18.9587 38.9609 19.0674 38.9026 19.1425 38.8198C19.2175 38.7366 19.435 38.5539 20.0285 38.3296C20.2459 38.2465 20.346 38.0054 20.2623 37.7897C20.1786 37.5736 19.9362 37.4741 19.7192 37.5573C19.3431 37.707 19.0506 37.8562 18.825 38.0059C18.5912 37.8399 18.2987 37.6984 17.939 37.5573C17.7215 37.4741 17.4791 37.574 17.3959 37.7897C17.3044 38.0059 17.4131 38.2465 17.6301 38.3296Z" fill="url(#paint0_linear_1409_1897)"/>
<path d="M27.8582 36.5194C27.7745 36.7355 27.875 36.9765 28.092 37.0593C28.51 37.2252 28.8106 37.3998 28.9944 37.5743C29.0695 37.6489 29.1782 37.6905 29.2869 37.6905H29.3037C29.4206 37.6905 29.5293 37.6322 29.6044 37.5494C29.6794 37.4662 29.8968 37.2917 30.4904 37.0593C30.7078 36.9761 30.8079 36.7351 30.7242 36.5194C30.6405 36.3032 30.3981 36.2037 30.1811 36.2869C29.8049 36.4366 29.5043 36.5858 29.2869 36.7355C29.0531 36.5777 28.7606 36.428 28.4008 36.2869C28.1843 36.2037 27.9419 36.3118 27.8582 36.5194Z" fill="url(#paint1_linear_1409_1897)"/>
<path d="M25.7357 31.1269C26.1537 31.2928 26.4544 31.4674 26.6382 31.6419C26.7132 31.7165 26.8219 31.7581 26.9306 31.7581H26.9474C27.0643 31.7581 27.173 31.6998 27.2481 31.617C27.3232 31.5338 27.5406 31.3593 28.1341 31.1269C28.3516 31.0437 28.4516 30.8027 28.3679 30.587C28.2843 30.3708 28.0418 30.2713 27.8248 30.3545C27.4487 30.5042 27.148 30.6534 26.9306 30.8031C26.6968 30.6371 26.4043 30.4956 26.0446 30.3545C25.8272 30.2713 25.5847 30.3713 25.5015 30.587C25.41 30.8027 25.5187 31.0437 25.7357 31.1269Z" fill="url(#paint2_linear_1409_1897)"/>
<path d="M21.5327 35.2558C23.0787 35.2558 24.3324 34.0014 24.3324 32.4645C24.3324 30.9275 23.0787 29.6732 21.5327 29.6732C19.9867 29.6732 18.7249 30.9275 18.7249 32.4645C18.7245 34.0014 19.9867 35.2558 21.5327 35.2558ZM21.5327 30.4953C22.6189 30.4953 23.4967 31.3761 23.4967 32.4559C23.4967 33.5357 22.6107 34.4165 21.5327 34.4165C20.4465 34.4165 19.5605 33.5357 19.5605 32.4559C19.5605 31.3761 20.4461 30.4953 21.5327 30.4953Z" fill="url(#paint3_linear_1409_1897)"/>
<path d="M33.3996 21.8888C33.4833 21.9719 33.592 22.0135 33.6921 22.0135C33.7921 22.0135 33.9095 21.9719 33.9845 21.8888C34.1515 21.7228 34.1515 21.4651 33.9845 21.2991L31.6193 18.9478L33.9845 16.6051C34.1515 16.4391 34.1515 16.1814 33.9845 16.0154C33.8176 15.8495 33.5583 15.8576 33.3914 16.0154L30.7338 18.6574C30.6587 18.732 30.6082 18.8401 30.6082 18.9482C30.6082 19.0562 30.6501 19.1643 30.7338 19.2389L33.3996 21.8888Z" fill="url(#paint4_linear_1409_1897)"/>
<path d="M41.7979 18.9477L39.4326 21.299C39.2657 21.465 39.2657 21.7227 39.4326 21.8887C39.5163 21.9718 39.625 22.0134 39.7251 22.0134C39.8252 22.0134 39.9425 21.9718 40.0176 21.8887L42.6752 19.2467C42.7503 19.172 42.8007 19.064 42.8007 18.9559C42.8007 18.8478 42.7589 18.7398 42.6752 18.6652L40.0176 16.0232C39.8506 15.8653 39.5914 15.8653 39.4244 16.0232C39.2657 16.1891 39.2657 16.4468 39.4244 16.6128L41.7979 18.9477Z" fill="url(#paint5_linear_1409_1897)"/>
<path d="M35.3796 21.9722C35.4383 21.9971 35.4883 22.0052 35.5466 22.0052C35.7053 22.0052 35.8641 21.9139 35.9309 21.7561L38.2625 16.4724C38.3543 16.2648 38.2625 16.0152 38.045 15.9239C37.8363 15.8326 37.5852 15.9239 37.4933 16.14L35.1618 21.4237C35.0703 21.6317 35.1704 21.8808 35.3796 21.9722Z" fill="url(#paint6_linear_1409_1897)"/>
<path d="M21.0733 5.12379L10.1255 16.0153C10.1255 16.0153 10.0168 16.1067 10 16.3061V52.9105C10 54.2729 11.1116 55.3781 12.4822 55.3781H36.2159L44.7653 58.967C44.8153 58.9919 44.874 59 44.924 59C44.9741 59 45.0327 58.9919 45.0828 58.967L53.7403 55.3283C53.8991 55.2618 53.9996 55.1121 53.9996 54.9462L54 44.7026C53.9832 44.4616 53.8076 44.3453 53.7407 44.3205L47.9828 41.9028V7.46756C47.9828 6.10517 46.8712 5 45.5006 5H21.3748C21.2575 5.00815 21.1574 5.04974 21.0737 5.12436L21.0733 5.12379ZM44.9319 47.8925L37.3436 44.7106L44.9319 41.5287L52.5201 44.7106L44.9319 47.8925ZM36.1069 44.3203C35.8645 44.4198 35.8476 44.6278 35.8476 44.7024V46.0481L26.2207 46.0485L33.2404 36.4449C33.3909 36.2373 33.6247 36.1125 33.8922 36.1125C34.1514 36.1125 34.3852 36.2287 34.5358 36.4367L39.3158 42.9665L36.1069 44.3203ZM16.4933 46.0485L22.6942 38.6459C23.0035 38.2806 23.6303 38.2806 23.9395 38.6459L27.4996 42.8914L25.193 46.0485H16.4933ZM41.973 41.8528L40.1095 42.6337L35.2207 35.946C34.9114 35.5223 34.4184 35.2731 33.9003 35.2731H33.8921C33.3572 35.2731 32.8723 35.5223 32.5635 35.9546L28.0091 42.1937L24.5828 38.1146C23.956 37.3753 22.6856 37.3667 22.0589 38.1146L16.0253 45.3173L16.0248 27.8796H41.9816V41.8537L41.973 41.8528ZM20.947 6.42075V14.2633C20.947 15.169 20.2115 15.8997 19.3009 15.8997H11.4202L20.947 6.42075ZM10.8348 52.9111V16.7303H19.3004C20.6709 16.7303 21.7826 15.6253 21.7826 14.2628V5.83056H45.4998C46.4109 5.83056 47.1459 6.56173 47.1459 7.46697V41.5541L45.0818 40.69C44.9818 40.6485 44.8644 40.6485 44.7557 40.69L42.8003 41.5126V27.4726C42.8003 27.2402 42.6166 27.057 42.3823 27.057L15.5984 27.0575C15.3646 27.0575 15.1804 27.2402 15.1804 27.473V46.4729C15.1636 46.8966 15.5984 46.8885 15.5984 46.8885L35.847 46.888V54.5561L12.481 54.5565C11.5781 54.5479 10.8345 53.8167 10.8345 52.9115L10.8348 52.9111ZM36.6834 54.6723V45.3258L44.5136 48.6159V57.9623L36.6834 54.6723ZM45.3496 57.9623V48.6159L53.1717 45.3344V54.6808L45.3496 57.9623Z" fill="url(#paint7_linear_1409_1897)"/>
<path d="M17.6301 38.3296C18.0481 38.4956 18.3488 38.6701 18.5325 38.8447C18.6076 38.9193 18.7163 38.9609 18.825 38.9609H18.8418C18.9587 38.9609 19.0674 38.9026 19.1425 38.8198C19.2175 38.7366 19.435 38.5539 20.0285 38.3296C20.2459 38.2465 20.346 38.0054 20.2623 37.7897C20.1786 37.5736 19.9362 37.4741 19.7192 37.5573C19.3431 37.707 19.0506 37.8562 18.825 38.0059C18.5912 37.8399 18.2987 37.6984 17.939 37.5573C17.7215 37.4741 17.4791 37.574 17.3959 37.7897C17.3044 38.0059 17.4131 38.2465 17.6301 38.3296Z" stroke="url(#paint8_linear_1409_1897)" stroke-width="0.4"/>
<path d="M27.8582 36.5194C27.7745 36.7355 27.875 36.9765 28.092 37.0593C28.51 37.2252 28.8106 37.3998 28.9944 37.5743C29.0695 37.6489 29.1782 37.6905 29.2869 37.6905H29.3037C29.4206 37.6905 29.5293 37.6322 29.6044 37.5494C29.6794 37.4662 29.8968 37.2917 30.4904 37.0593C30.7078 36.9761 30.8079 36.7351 30.7242 36.5194C30.6405 36.3032 30.3981 36.2037 30.1811 36.2869C29.8049 36.4366 29.5043 36.5858 29.2869 36.7355C29.0531 36.5777 28.7606 36.428 28.4008 36.2869C28.1843 36.2037 27.9419 36.3118 27.8582 36.5194Z" stroke="url(#paint9_linear_1409_1897)" stroke-width="0.4"/>
<path d="M25.7357 31.1269C26.1537 31.2928 26.4544 31.4674 26.6382 31.6419C26.7132 31.7165 26.8219 31.7581 26.9306 31.7581H26.9474C27.0643 31.7581 27.173 31.6998 27.2481 31.617C27.3232 31.5338 27.5406 31.3593 28.1341 31.1269C28.3516 31.0437 28.4516 30.8027 28.3679 30.587C28.2843 30.3708 28.0418 30.2713 27.8248 30.3545C27.4487 30.5042 27.148 30.6534 26.9306 30.8031C26.6968 30.6371 26.4043 30.4956 26.0446 30.3545C25.8272 30.2713 25.5847 30.3713 25.5015 30.587C25.41 30.8027 25.5187 31.0437 25.7357 31.1269Z" stroke="url(#paint10_linear_1409_1897)" stroke-width="0.4"/>
<path d="M21.5327 35.2558C23.0787 35.2558 24.3324 34.0014 24.3324 32.4645C24.3324 30.9275 23.0787 29.6732 21.5327 29.6732C19.9867 29.6732 18.7249 30.9275 18.7249 32.4645C18.7245 34.0014 19.9867 35.2558 21.5327 35.2558ZM21.5327 30.4953C22.6189 30.4953 23.4967 31.3761 23.4967 32.4559C23.4967 33.5357 22.6107 34.4165 21.5327 34.4165C20.4465 34.4165 19.5605 33.5357 19.5605 32.4559C19.5605 31.3761 20.4461 30.4953 21.5327 30.4953Z" stroke="url(#paint11_linear_1409_1897)" stroke-width="0.4"/>
<path d="M33.3996 21.8888C33.4833 21.9719 33.592 22.0135 33.6921 22.0135C33.7921 22.0135 33.9095 21.9719 33.9845 21.8888C34.1515 21.7228 34.1515 21.4651 33.9845 21.2991L31.6193 18.9478L33.9845 16.6051C34.1515 16.4391 34.1515 16.1814 33.9845 16.0154C33.8176 15.8495 33.5583 15.8576 33.3914 16.0154L30.7338 18.6574C30.6587 18.732 30.6082 18.8401 30.6082 18.9482C30.6082 19.0562 30.6501 19.1643 30.7338 19.2389L33.3996 21.8888Z" stroke="url(#paint12_linear_1409_1897)" stroke-width="0.4"/>
<path d="M41.7979 18.9477L39.4326 21.299C39.2657 21.465 39.2657 21.7227 39.4326 21.8887C39.5163 21.9718 39.625 22.0134 39.7251 22.0134C39.8252 22.0134 39.9425 21.9718 40.0176 21.8887L42.6752 19.2467C42.7503 19.172 42.8007 19.064 42.8007 18.9559C42.8007 18.8478 42.7589 18.7398 42.6752 18.6652L40.0176 16.0232C39.8506 15.8653 39.5914 15.8653 39.4244 16.0232C39.2657 16.1891 39.2657 16.4468 39.4244 16.6128L41.7979 18.9477Z" stroke="url(#paint13_linear_1409_1897)" stroke-width="0.4"/>
<path d="M35.3796 21.9722C35.4383 21.9971 35.4883 22.0052 35.5466 22.0052C35.7053 22.0052 35.8641 21.9139 35.9309 21.7561L38.2625 16.4724C38.3543 16.2648 38.2625 16.0152 38.045 15.9239C37.8363 15.8326 37.5852 15.9239 37.4933 16.14L35.1618 21.4237C35.0703 21.6317 35.1704 21.8808 35.3796 21.9722Z" stroke="url(#paint14_linear_1409_1897)" stroke-width="0.4"/>
<path d="M21.0733 5.12379L10.1255 16.0153C10.1255 16.0153 10.0168 16.1067 10 16.3061V52.9105C10 54.2729 11.1116 55.3781 12.4822 55.3781H36.2159L44.7653 58.967C44.8153 58.9919 44.874 59 44.924 59C44.9741 59 45.0327 58.9919 45.0828 58.967L53.7403 55.3283C53.8991 55.2618 53.9996 55.1121 53.9996 54.9462L54 44.7026C53.9832 44.4616 53.8076 44.3453 53.7407 44.3205L47.9828 41.9028V7.46756C47.9828 6.10517 46.8712 5 45.5006 5H21.3748C21.2575 5.00815 21.1574 5.04974 21.0737 5.12436L21.0733 5.12379ZM44.9319 47.8925L37.3436 44.7106L44.9319 41.5287L52.5201 44.7106L44.9319 47.8925ZM36.1069 44.3203C35.8645 44.4198 35.8476 44.6278 35.8476 44.7024V46.0481L26.2207 46.0485L33.2404 36.4449C33.3909 36.2373 33.6247 36.1125 33.8922 36.1125C34.1514 36.1125 34.3852 36.2287 34.5358 36.4367L39.3158 42.9665L36.1069 44.3203ZM16.4933 46.0485L22.6942 38.6459C23.0035 38.2806 23.6303 38.2806 23.9395 38.6459L27.4996 42.8914L25.193 46.0485H16.4933ZM41.973 41.8528L40.1095 42.6337L35.2207 35.946C34.9114 35.5223 34.4184 35.2731 33.9003 35.2731H33.8921C33.3572 35.2731 32.8723 35.5223 32.5635 35.9546L28.0091 42.1937L24.5828 38.1146C23.956 37.3753 22.6856 37.3667 22.0589 38.1146L16.0253 45.3173L16.0248 27.8796H41.9816V41.8537L41.973 41.8528ZM20.947 6.42075V14.2633C20.947 15.169 20.2115 15.8997 19.3009 15.8997H11.4202L20.947 6.42075ZM10.8348 52.9111V16.7303H19.3004C20.6709 16.7303 21.7826 15.6253 21.7826 14.2628V5.83056H45.4998C46.4109 5.83056 47.1459 6.56173 47.1459 7.46697V41.5541L45.0818 40.69C44.9818 40.6485 44.8644 40.6485 44.7557 40.69L42.8003 41.5126V27.4726C42.8003 27.2402 42.6166 27.057 42.3823 27.057L15.5984 27.0575C15.3646 27.0575 15.1804 27.2402 15.1804 27.473V46.4729C15.1636 46.8966 15.5984 46.8885 15.5984 46.8885L35.847 46.888V54.5561L12.481 54.5565C11.5781 54.5479 10.8345 53.8167 10.8345 52.9115L10.8348 52.9111ZM36.6834 54.6723V45.3258L44.5136 48.6159V57.9623L36.6834 54.6723ZM45.3496 57.9623V48.6159L53.1717 45.3344V54.6808L45.3496 57.9623Z" stroke="url(#paint15_linear_1409_1897)" stroke-width="0.4"/>
<defs>
<linearGradient id="paint0_linear_1409_1897" x1="9.99999" y1="59.0001" x2="55.9546" y2="15.0435" gradientUnits="userSpaceOnUse">
<stop stop-color="#19C8A2"/>
<stop offset="1" stop-color="#5694F2"/>
</linearGradient>
<linearGradient id="paint1_linear_1409_1897" x1="9.99999" y1="59.0001" x2="55.9546" y2="15.0435" gradientUnits="userSpaceOnUse">
<stop stop-color="#19C8A2"/>
<stop offset="1" stop-color="#5694F2"/>
</linearGradient>
<linearGradient id="paint2_linear_1409_1897" x1="9.99999" y1="59.0001" x2="55.9546" y2="15.0435" gradientUnits="userSpaceOnUse">
<stop stop-color="#19C8A2"/>
<stop offset="1" stop-color="#5694F2"/>
</linearGradient>
<linearGradient id="paint3_linear_1409_1897" x1="9.99999" y1="59.0001" x2="55.9546" y2="15.0435" gradientUnits="userSpaceOnUse">
<stop stop-color="#19C8A2"/>
<stop offset="1" stop-color="#5694F2"/>
</linearGradient>
<linearGradient id="paint4_linear_1409_1897" x1="9.99999" y1="59.0001" x2="55.9546" y2="15.0435" gradientUnits="userSpaceOnUse">
<stop stop-color="#19C8A2"/>
<stop offset="1" stop-color="#5694F2"/>
</linearGradient>
<linearGradient id="paint5_linear_1409_1897" x1="9.99999" y1="59.0001" x2="55.9546" y2="15.0435" gradientUnits="userSpaceOnUse">
<stop stop-color="#19C8A2"/>
<stop offset="1" stop-color="#5694F2"/>
</linearGradient>
<linearGradient id="paint6_linear_1409_1897" x1="9.99999" y1="59.0001" x2="55.9546" y2="15.0435" gradientUnits="userSpaceOnUse">
<stop stop-color="#19C8A2"/>
<stop offset="1" stop-color="#5694F2"/>
</linearGradient>
<linearGradient id="paint7_linear_1409_1897" x1="9.99999" y1="59.0001" x2="55.9546" y2="15.0435" gradientUnits="userSpaceOnUse">
<stop stop-color="#19C8A2"/>
<stop offset="1" stop-color="#5694F2"/>
</linearGradient>
<linearGradient id="paint8_linear_1409_1897" x1="10" y1="59" x2="62.8871" y2="15.9068" gradientUnits="userSpaceOnUse">
<stop stop-color="#19C8A2"/>
<stop offset="1" stop-color="#5694F2"/>
</linearGradient>
<linearGradient id="paint9_linear_1409_1897" x1="10" y1="59" x2="62.8871" y2="15.9068" gradientUnits="userSpaceOnUse">
<stop stop-color="#19C8A2"/>
<stop offset="1" stop-color="#5694F2"/>
</linearGradient>
<linearGradient id="paint10_linear_1409_1897" x1="10" y1="59" x2="62.8871" y2="15.9068" gradientUnits="userSpaceOnUse">
<stop stop-color="#19C8A2"/>
<stop offset="1" stop-color="#5694F2"/>
</linearGradient>
<linearGradient id="paint11_linear_1409_1897" x1="10" y1="59" x2="62.8871" y2="15.9068" gradientUnits="userSpaceOnUse">
<stop stop-color="#19C8A2"/>
<stop offset="1" stop-color="#5694F2"/>
</linearGradient>
<linearGradient id="paint12_linear_1409_1897" x1="10" y1="59" x2="62.8871" y2="15.9068" gradientUnits="userSpaceOnUse">
<stop stop-color="#19C8A2"/>
<stop offset="1" stop-color="#5694F2"/>
</linearGradient>
<linearGradient id="paint13_linear_1409_1897" x1="10" y1="59" x2="62.8871" y2="15.9068" gradientUnits="userSpaceOnUse">
<stop stop-color="#19C8A2"/>
<stop offset="1" stop-color="#5694F2"/>
</linearGradient>
<linearGradient id="paint14_linear_1409_1897" x1="10" y1="59" x2="62.8871" y2="15.9068" gradientUnits="userSpaceOnUse">
<stop stop-color="#19C8A2"/>
<stop offset="1" stop-color="#5694F2"/>
</linearGradient>
<linearGradient id="paint15_linear_1409_1897" x1="10" y1="59" x2="62.8871" y2="15.9068" gradientUnits="userSpaceOnUse">
<stop stop-color="#19C8A2"/>
<stop offset="1" stop-color="#5694F2"/>
</linearGradient>
</defs>
</svg>
