<svg width="64" height="64" viewBox="0 0 64 64" fill="none" xmlns="http://www.w3.org/2000/svg">
<path d="M9.36531 45.3725C9.04098 45.3725 8.77851 45.0726 8.77851 44.703V9.68346C8.77851 9.31338 9.04138 9.01388 9.36531 9.01388C9.68965 9.01388 9.95212 9.31383 9.95212 9.68346V44.703C9.95212 45.0726 9.68925 45.3725 9.36531 45.3725Z" fill="url(#paint0_linear_1408_4770)"/>
<path d="M46.9873 45.3725H43.5861C43.2618 45.3725 42.9993 45.0726 42.9993 44.7029C42.9993 44.3329 43.2622 44.0334 43.5861 44.0334H46.9873C47.3116 44.0334 47.5741 44.3333 47.5741 44.7029C47.5741 45.0726 47.3112 45.3725 46.9873 45.3725Z" fill="url(#paint1_linear_1408_4770)"/>
<path d="M39.1716 45.3725H5.5874C5.26307 45.3725 5.00059 45.0726 5.00059 44.7029C5.00059 44.3329 5.26347 44.0334 5.5874 44.0334H39.1706C39.4949 44.0334 39.7574 44.3333 39.7574 44.7029C39.7578 45.0726 39.4949 45.3725 39.171 45.3725H39.1716Z" fill="url(#paint2_linear_1408_4770)"/>
<path d="M19.3755 42.0948C19.0512 42.0948 18.7887 41.7949 18.7887 41.4252V32.3922C18.7887 32.0221 19.0516 31.7226 19.3755 31.7226H20.6439L17.1766 26.7736L13.714 31.7226H14.9832C15.3075 31.7226 15.57 32.0225 15.57 32.3922V41.4248C15.57 41.7948 15.3071 42.0943 14.9832 42.0943C14.6589 42.0943 14.3964 41.7944 14.3964 41.4248L14.396 33.0617H12.494C12.2684 33.0617 12.063 32.9142 11.9651 32.6826C11.8672 32.4509 11.8945 32.1754 12.0353 31.9741L16.7175 25.2823C16.8285 25.1235 16.9974 25.0303 17.1758 25.0303H17.1762C17.3547 25.0303 17.5232 25.1231 17.635 25.2819L22.3232 31.9736C22.4639 32.175 22.4913 32.45 22.3938 32.6821C22.2962 32.9138 22.0904 33.0613 21.8648 33.0613H19.9629V41.4243C19.9629 41.7948 19.7 42.0948 19.3757 42.0948H19.3755Z" fill="url(#paint3_linear_1408_4770)"/>
<path d="M29.1685 42.0948C28.8442 42.0948 28.5817 41.7949 28.5817 41.4252L28.5813 22.2732C28.5813 21.9031 28.8442 21.6036 29.1681 21.6036H30.4365L26.9691 16.6546L23.5066 21.6036H24.7758C25.1001 21.6036 25.3626 21.9035 25.3626 22.2732V41.4252C25.3626 41.7953 25.0997 42.0948 24.7758 42.0948C24.4514 42.0948 24.189 41.7949 24.189 41.4252V22.9438H22.287C22.0614 22.9438 21.856 22.7963 21.7581 22.5646C21.6602 22.333 21.6875 22.0575 21.8283 21.8561L26.5105 15.1644C26.6215 15.0056 26.7904 14.9124 26.9688 14.9124H26.9692C27.1476 14.9124 27.3162 15.0051 27.428 15.1639L32.1162 21.8557C32.2569 22.057 32.2843 22.3321 32.1868 22.5642C32.0892 22.7958 31.8834 22.9433 31.6578 22.9433H29.7559V41.4248C29.7555 41.7949 29.4926 42.0948 29.1687 42.0948L29.1685 42.0948Z" fill="url(#paint4_linear_1408_4770)"/>
<path d="M33.8468 34.2132C33.6755 34.2132 33.503 34.1703 33.34 34.0834C32.919 33.859 32.6577 33.3889 32.6577 32.8564V29.0054C32.6577 25.7249 34.8059 22.889 37.6546 22.409L38.5448 22.2552C38.8628 22.1982 39.1641 22.4516 39.2129 22.8176C39.2612 23.1831 39.0408 23.5247 38.72 23.5799L37.8279 23.7337C35.5484 24.1178 33.8312 26.384 33.8312 29.0054V32.8564C35.6924 31.1015 37.8184 30.3084 40.172 30.5007C40.4951 30.5278 40.7382 30.8486 40.7148 31.2173C40.691 31.586 40.4075 31.857 40.0868 31.8367C38.0214 31.6656 36.2292 32.3361 34.6152 33.8902C34.3915 34.1037 34.1211 34.2132 33.8468 34.2132Z" fill="url(#paint5_linear_1408_4770)"/>
<path d="M57.8105 34.2132C57.5369 34.2132 57.2669 34.1042 57.0449 33.8925C55.4287 32.3365 53.6362 31.6656 51.5712 31.8367L51.5225 31.1684V30.4988C53.8443 30.3061 55.966 31.1006 57.8002 32.8668L57.8264 29.6017C57.8264 26.6374 55.8872 24.0772 53.3155 23.6469L52.9345 23.5795C52.6141 23.5225 52.3948 23.18 52.4448 22.8144C52.4948 22.4489 52.7941 22.2009 53.1153 22.2557L53.4911 22.3222C56.6294 22.8479 59 25.9774 59 29.6018V32.8565C59 33.3891 58.7387 33.8591 58.3176 34.0835C58.1543 34.1709 57.9814 34.2134 57.8105 34.2134V34.2132Z" fill="url(#paint6_linear_1408_4770)"/>
<path d="M50.6637 33.626H40.9948C40.7807 33.626 40.5832 33.493 40.4805 33.2786L38.1622 28.4607C38.1218 28.3765 38.0976 28.2842 38.0912 28.1887C38.0774 27.9815 37.7645 23.0333 38.5076 15.6396C39.0631 10.1101 41.8802 7.10281 43.5101 5.80249C44.8507 4.7325 46.8077 4.7325 48.1483 5.80249C49.7779 7.10315 52.595 10.1109 53.1508 15.6396C53.8939 23.0331 53.5806 27.9814 53.5668 28.1887C53.5604 28.2842 53.5362 28.377 53.4958 28.4607L51.1779 33.2786C51.0752 33.493 50.8778 33.626 50.6637 33.626ZM41.3425 32.2864H50.3164L52.4047 27.9463C52.4495 27.0844 52.6462 22.3698 51.9848 15.7909C51.4817 10.7835 48.9437 8.0708 47.4759 6.89904C46.5322 6.14621 45.127 6.14621 44.1833 6.89904C42.7151 8.07034 40.1771 10.7835 39.6744 15.7909C39.013 22.3692 39.2097 27.0839 39.2541 27.9463L41.3425 32.2864Z" fill="url(#paint7_linear_1408_4770)"/>
<path d="M52.981 28.8079H38.6762C38.3519 28.8079 38.0894 28.5079 38.0894 28.1383C38.0894 27.7682 38.3523 27.4687 38.6762 27.4687H52.981C53.3053 27.4687 53.5678 27.7687 53.5678 28.1383C53.5678 28.5079 53.305 28.8079 52.981 28.8079Z" fill="url(#paint8_linear_1408_4770)"/>
<path d="M45.8291 21.9745C43.5881 21.9745 41.7651 19.8942 41.7651 17.3371C41.7651 14.7801 43.5886 12.6998 45.8291 12.6998C48.0701 12.6998 49.8932 14.7805 49.8932 17.3371C49.8932 19.8942 48.0701 21.9745 45.8291 21.9745ZM45.8291 14.0389C44.2352 14.0389 42.9386 15.5183 42.9386 17.3371C42.9386 19.1554 44.2351 20.6349 45.8291 20.6349C47.4231 20.6349 48.7196 19.1555 48.7196 17.3371C48.7196 15.5184 47.4231 14.0389 45.8291 14.0389Z" fill="url(#paint9_linear_1408_4770)"/>
<path d="M45.8291 11.7081C43.9303 11.7081 42.1299 10.8417 41.0125 9.38941C40.7988 9.11162 40.8226 8.68815 41.0664 8.44429C41.3103 8.20088 41.681 8.22848 41.8947 8.50582C42.7924 9.67213 44.263 10.3684 45.8292 10.3684C47.3954 10.3684 48.8659 9.67216 49.7636 8.50582C49.9781 8.22803 50.3484 8.20088 50.5919 8.44429C50.8354 8.68815 50.8595 9.11161 50.6458 9.38941C49.5285 10.8417 47.7283 11.7081 45.8291 11.7081Z" fill="url(#paint10_linear_1408_4770)"/>
<path d="M48.1058 36.6246C48.0503 36.6246 47.9936 36.6155 47.9381 36.5965C47.6273 36.4911 47.4504 36.1183 47.5428 35.7636L48.3255 32.7641C48.4179 32.4094 48.7466 32.2085 49.0554 32.3135C49.3663 32.4189 49.5431 32.7917 49.4507 33.1464L48.6681 36.1459C48.5923 36.4364 48.3584 36.6246 48.1058 36.6246Z" fill="url(#paint11_linear_1408_4770)"/>
<path d="M43.5514 37.5222C43.2842 37.5222 43.0423 37.3123 42.9801 37.0024L42.197 33.1056C42.1244 32.745 42.3219 32.3858 42.6379 32.303C42.9535 32.2211 43.2691 32.446 43.3413 32.8061L44.1244 36.7029C44.1969 37.0635 43.9995 37.4227 43.6834 37.5055C43.639 37.5172 43.5946 37.5222 43.5514 37.5222Z" fill="url(#paint12_linear_1408_4770)"/>
<path d="M41.8218 42.4122C41.6918 42.4122 41.5609 42.3633 41.4523 42.2624C40.5748 41.449 40.0713 40.2441 40.0713 38.957C40.0713 36.8777 41.3726 35.1132 43.1656 34.7621C43.4871 34.7006 43.7884 34.9449 43.8432 35.3091C43.8979 35.6737 43.6834 36.0199 43.3638 36.0823C42.1358 36.3225 41.2449 37.5314 41.2449 38.9565C41.2449 39.8383 41.5899 40.6644 42.1918 41.2222C42.4435 41.4556 42.4816 41.8773 42.2774 42.1641C42.1616 42.3279 41.9923 42.412 41.8218 42.412L41.8218 42.4122Z" fill="url(#paint13_linear_1408_4770)"/>
<path d="M50.0263 41.9396C49.8716 41.9396 49.7178 41.8704 49.6024 41.7333C49.3784 41.4659 49.3863 41.042 49.6203 40.7864C50.1313 40.2281 50.4128 39.4775 50.4128 38.6722C50.4128 37.2394 49.4767 36.0007 48.2353 35.7907C47.9145 35.7364 47.6933 35.3962 47.7405 35.0302C47.7881 34.6642 48.0874 34.4135 48.407 34.4656C50.2193 34.7719 51.5865 36.5802 51.5865 38.6722C51.5865 39.829 51.1658 40.9524 50.4323 41.7536C50.3185 41.8775 50.1722 41.9396 50.0263 41.9396Z" fill="url(#paint14_linear_1408_4770)"/>
<path d="M35.3003 45.3726C34.9977 45.3726 34.7408 45.1074 34.7158 44.7573C34.7059 44.6188 34.7012 44.4795 34.7012 44.341C34.7012 41.4614 36.7546 39.1182 39.2783 39.1182C39.9036 39.1182 40.5074 39.2603 41.0733 39.5403C41.3707 39.6878 41.5071 40.0823 41.3782 40.4212C41.2489 40.7605 40.902 40.9161 40.6062 40.7691C40.1887 40.5623 39.7423 40.4574 39.2784 40.4574C37.4018 40.4574 35.8749 42.1992 35.8749 44.341C35.8749 44.4437 35.8784 44.5459 35.8856 44.6486C35.9117 45.0173 35.6711 45.3404 35.3483 45.3702C35.3325 45.372 35.3158 45.3725 35.3004 45.3725L35.3003 45.3726Z" fill="url(#paint15_linear_1408_4770)"/>
<path d="M56.358 45.3725C56.3425 45.3725 56.3271 45.3721 56.3116 45.3707C55.9885 45.3418 55.747 45.0192 55.7724 44.6505C55.7795 44.5473 55.7831 44.4442 55.7831 44.3405C55.7831 42.1992 54.2566 40.457 52.3796 40.457C51.9161 40.457 51.4693 40.5619 51.0514 40.7687C50.7548 40.9162 50.4082 40.7601 50.2794 40.4208C50.1505 40.0815 50.2869 39.6869 50.5843 39.5399C51.1505 39.2598 51.7543 39.1178 52.3797 39.1178C54.9033 39.1178 56.9568 41.4608 56.9568 44.3406C56.9568 44.4786 56.9521 44.617 56.9425 44.755C56.9184 45.1061 56.6609 45.3725 56.358 45.3725Z" fill="url(#paint16_linear_1408_4770)"/>
<path d="M9.36533 39.2514H7.40542C7.08109 39.2514 6.81861 38.9515 6.81861 38.5819C6.81861 38.2118 7.08148 37.9123 7.40542 37.9123H9.36533C9.68966 37.9123 9.95214 38.2122 9.95214 38.5819C9.95214 38.9519 9.68927 39.2514 9.36533 39.2514Z" fill="url(#paint17_linear_1408_4770)"/>
<path d="M9.36533 33.077H7.40542C7.08109 33.077 6.81861 32.7771 6.81861 32.4075C6.81861 32.0374 7.08148 31.7379 7.40542 31.7379H9.36533C9.68966 31.7379 9.95214 32.0378 9.95214 32.4075C9.95214 32.7771 9.68927 33.077 9.36533 33.077Z" fill="url(#paint18_linear_1408_4770)"/>
<path d="M9.36533 26.9015H7.40542C7.08109 26.9015 6.81861 26.6015 6.81861 26.2319C6.81861 25.8618 7.08148 25.5623 7.40542 25.5623H9.36533C9.68966 25.5623 9.95214 25.8623 9.95214 26.2319C9.95214 26.6015 9.68927 26.9015 9.36533 26.9015Z" fill="url(#paint19_linear_1408_4770)"/>
<path d="M9.36533 20.7271H7.40542C7.08109 20.7271 6.81861 20.4271 6.81861 20.0575C6.81861 19.6874 7.08148 19.3879 7.40542 19.3879H9.36533C9.68966 19.3879 9.95214 19.6879 9.95214 20.0575C9.95214 20.4271 9.68927 20.7271 9.36533 20.7271Z" fill="url(#paint20_linear_1408_4770)"/>
<path d="M9.36533 14.5515H7.40542C7.08109 14.5515 6.81861 14.2516 6.81861 13.882C6.81861 13.5119 7.08148 13.2124 7.40542 13.2124H9.36533C9.68966 13.2124 9.95214 13.5123 9.95214 13.882C9.95214 14.2516 9.68927 14.5515 9.36533 14.5515Z" fill="url(#paint21_linear_1408_4770)"/>
<path d="M57.3477 59H6.65216C5.74101 59 5 58.1544 5 57.1148V51.858C5 50.8184 5.74105 49.9728 6.65216 49.9728H57.3477C58.2588 49.9728 58.9998 50.8184 58.9998 51.858V57.1148C58.9998 58.1545 58.2588 59 57.3477 59ZM6.65216 51.3124C6.38849 51.3124 6.17399 51.5572 6.17399 51.858V57.1148C6.17399 57.4156 6.3885 57.6604 6.65216 57.6604H57.3477C57.6113 57.6604 57.8258 57.4156 57.8258 57.1148V51.858C57.8258 51.5572 57.6113 51.3124 57.3477 51.3124H6.65216Z" fill="url(#paint22_linear_1408_4770)"/>
<path d="M11.8654 59C11.541 59 11.2785 58.7001 11.2785 58.3304V50.6428C11.2785 50.2728 11.5414 49.9732 11.8654 49.9732C12.1897 49.9732 12.4522 50.2732 12.4522 50.6428V58.3304C12.4522 58.7001 12.1893 59 11.8654 59Z" fill="url(#paint23_linear_1408_4770)"/>
<path d="M16.9181 59C16.5938 59 16.3313 58.7001 16.3313 58.3304V50.6428C16.3313 50.2728 16.5942 49.9732 16.9181 49.9732C17.2425 49.9732 17.5049 50.2732 17.5049 50.6428V58.3304C17.5053 58.7001 17.2425 59 16.9181 59Z" fill="url(#paint24_linear_1408_4770)"/>
<path d="M21.9709 59C21.6466 59 21.3841 58.7001 21.3841 58.3304V50.6428C21.3841 50.2728 21.647 49.9732 21.9709 49.9732C22.2953 49.9732 22.5578 50.2732 22.5578 50.6428V58.3304C22.5581 58.7001 22.2953 59 21.9709 59Z" fill="url(#paint25_linear_1408_4770)"/>
<path d="M27.0248 59C26.7004 59 26.438 58.7001 26.438 58.3304L26.4376 50.6428C26.4376 50.2728 26.7004 49.9732 27.0244 49.9732C27.3487 49.9732 27.6112 50.2732 27.6112 50.6428V58.3304C27.6116 58.7001 27.3487 59 27.0248 59Z" fill="url(#paint26_linear_1408_4770)"/>
<path d="M32.0765 59C31.7522 59 31.4897 58.7001 31.4897 58.3304V50.6428C31.4897 50.2728 31.7526 49.9732 32.0765 49.9732C32.4009 49.9732 32.6633 50.2732 32.6633 50.6428V58.3304C32.6633 58.7001 32.4009 59 32.0765 59Z" fill="url(#paint27_linear_1408_4770)"/>
<path d="M37.1304 59C36.806 59 36.5436 58.7001 36.5436 58.3304V50.6428C36.5436 50.2728 36.8064 49.9732 37.1304 49.9732C37.4547 49.9732 37.7172 50.2732 37.7172 50.6428V58.3304C37.7172 58.7001 37.4547 59 37.1304 59Z" fill="url(#paint28_linear_1408_4770)"/>
<path d="M45.8291 33.626C45.5048 33.626 45.2423 33.3261 45.2423 32.9564V30.7699C45.2423 30.3998 45.5052 30.1003 45.8291 30.1003C46.1535 30.1003 46.4159 30.4002 46.4159 30.7699V32.9564C46.4159 33.3261 46.1535 33.626 45.8291 33.626Z" fill="url(#paint29_linear_1408_4770)"/>
<defs>
<linearGradient id="paint0_linear_1408_4770" x1="5" y1="59" x2="59" y2="5" gradientUnits="userSpaceOnUse">
<stop stop-color="#19C8A2"/>
<stop offset="1" stop-color="#5694F2"/>
</linearGradient>
<linearGradient id="paint1_linear_1408_4770" x1="5" y1="59" x2="59" y2="5" gradientUnits="userSpaceOnUse">
<stop stop-color="#19C8A2"/>
<stop offset="1" stop-color="#5694F2"/>
</linearGradient>
<linearGradient id="paint2_linear_1408_4770" x1="5" y1="59" x2="59" y2="5" gradientUnits="userSpaceOnUse">
<stop stop-color="#19C8A2"/>
<stop offset="1" stop-color="#5694F2"/>
</linearGradient>
<linearGradient id="paint3_linear_1408_4770" x1="5" y1="59" x2="59" y2="5" gradientUnits="userSpaceOnUse">
<stop stop-color="#19C8A2"/>
<stop offset="1" stop-color="#5694F2"/>
</linearGradient>
<linearGradient id="paint4_linear_1408_4770" x1="5" y1="59" x2="59" y2="5" gradientUnits="userSpaceOnUse">
<stop stop-color="#19C8A2"/>
<stop offset="1" stop-color="#5694F2"/>
</linearGradient>
<linearGradient id="paint5_linear_1408_4770" x1="5" y1="59" x2="59" y2="5" gradientUnits="userSpaceOnUse">
<stop stop-color="#19C8A2"/>
<stop offset="1" stop-color="#5694F2"/>
</linearGradient>
<linearGradient id="paint6_linear_1408_4770" x1="5" y1="59" x2="59" y2="5" gradientUnits="userSpaceOnUse">
<stop stop-color="#19C8A2"/>
<stop offset="1" stop-color="#5694F2"/>
</linearGradient>
<linearGradient id="paint7_linear_1408_4770" x1="5" y1="59" x2="59" y2="5" gradientUnits="userSpaceOnUse">
<stop stop-color="#19C8A2"/>
<stop offset="1" stop-color="#5694F2"/>
</linearGradient>
<linearGradient id="paint8_linear_1408_4770" x1="5" y1="59" x2="59" y2="5" gradientUnits="userSpaceOnUse">
<stop stop-color="#19C8A2"/>
<stop offset="1" stop-color="#5694F2"/>
</linearGradient>
<linearGradient id="paint9_linear_1408_4770" x1="5" y1="59" x2="59" y2="5" gradientUnits="userSpaceOnUse">
<stop stop-color="#19C8A2"/>
<stop offset="1" stop-color="#5694F2"/>
</linearGradient>
<linearGradient id="paint10_linear_1408_4770" x1="5" y1="59" x2="59" y2="5" gradientUnits="userSpaceOnUse">
<stop stop-color="#19C8A2"/>
<stop offset="1" stop-color="#5694F2"/>
</linearGradient>
<linearGradient id="paint11_linear_1408_4770" x1="5" y1="59" x2="59" y2="5" gradientUnits="userSpaceOnUse">
<stop stop-color="#19C8A2"/>
<stop offset="1" stop-color="#5694F2"/>
</linearGradient>
<linearGradient id="paint12_linear_1408_4770" x1="5" y1="59" x2="59" y2="5" gradientUnits="userSpaceOnUse">
<stop stop-color="#19C8A2"/>
<stop offset="1" stop-color="#5694F2"/>
</linearGradient>
<linearGradient id="paint13_linear_1408_4770" x1="5" y1="59" x2="59" y2="5" gradientUnits="userSpaceOnUse">
<stop stop-color="#19C8A2"/>
<stop offset="1" stop-color="#5694F2"/>
</linearGradient>
<linearGradient id="paint14_linear_1408_4770" x1="5" y1="59" x2="59" y2="5" gradientUnits="userSpaceOnUse">
<stop stop-color="#19C8A2"/>
<stop offset="1" stop-color="#5694F2"/>
</linearGradient>
<linearGradient id="paint15_linear_1408_4770" x1="5" y1="59" x2="59" y2="5" gradientUnits="userSpaceOnUse">
<stop stop-color="#19C8A2"/>
<stop offset="1" stop-color="#5694F2"/>
</linearGradient>
<linearGradient id="paint16_linear_1408_4770" x1="5" y1="59" x2="59" y2="5" gradientUnits="userSpaceOnUse">
<stop stop-color="#19C8A2"/>
<stop offset="1" stop-color="#5694F2"/>
</linearGradient>
<linearGradient id="paint17_linear_1408_4770" x1="5" y1="59" x2="59" y2="5" gradientUnits="userSpaceOnUse">
<stop stop-color="#19C8A2"/>
<stop offset="1" stop-color="#5694F2"/>
</linearGradient>
<linearGradient id="paint18_linear_1408_4770" x1="5" y1="59" x2="59" y2="5" gradientUnits="userSpaceOnUse">
<stop stop-color="#19C8A2"/>
<stop offset="1" stop-color="#5694F2"/>
</linearGradient>
<linearGradient id="paint19_linear_1408_4770" x1="5" y1="59" x2="59" y2="5" gradientUnits="userSpaceOnUse">
<stop stop-color="#19C8A2"/>
<stop offset="1" stop-color="#5694F2"/>
</linearGradient>
<linearGradient id="paint20_linear_1408_4770" x1="5" y1="59" x2="59" y2="5" gradientUnits="userSpaceOnUse">
<stop stop-color="#19C8A2"/>
<stop offset="1" stop-color="#5694F2"/>
</linearGradient>
<linearGradient id="paint21_linear_1408_4770" x1="5" y1="59" x2="59" y2="5" gradientUnits="userSpaceOnUse">
<stop stop-color="#19C8A2"/>
<stop offset="1" stop-color="#5694F2"/>
</linearGradient>
<linearGradient id="paint22_linear_1408_4770" x1="5" y1="59" x2="59" y2="5" gradientUnits="userSpaceOnUse">
<stop stop-color="#19C8A2"/>
<stop offset="1" stop-color="#5694F2"/>
</linearGradient>
<linearGradient id="paint23_linear_1408_4770" x1="5" y1="59" x2="59" y2="5" gradientUnits="userSpaceOnUse">
<stop stop-color="#19C8A2"/>
<stop offset="1" stop-color="#5694F2"/>
</linearGradient>
<linearGradient id="paint24_linear_1408_4770" x1="5" y1="59" x2="59" y2="5" gradientUnits="userSpaceOnUse">
<stop stop-color="#19C8A2"/>
<stop offset="1" stop-color="#5694F2"/>
</linearGradient>
<linearGradient id="paint25_linear_1408_4770" x1="5" y1="59" x2="59" y2="5" gradientUnits="userSpaceOnUse">
<stop stop-color="#19C8A2"/>
<stop offset="1" stop-color="#5694F2"/>
</linearGradient>
<linearGradient id="paint26_linear_1408_4770" x1="5" y1="59" x2="59" y2="5" gradientUnits="userSpaceOnUse">
<stop stop-color="#19C8A2"/>
<stop offset="1" stop-color="#5694F2"/>
</linearGradient>
<linearGradient id="paint27_linear_1408_4770" x1="5" y1="59" x2="59" y2="5" gradientUnits="userSpaceOnUse">
<stop stop-color="#19C8A2"/>
<stop offset="1" stop-color="#5694F2"/>
</linearGradient>
<linearGradient id="paint28_linear_1408_4770" x1="5" y1="59" x2="59" y2="5" gradientUnits="userSpaceOnUse">
<stop stop-color="#19C8A2"/>
<stop offset="1" stop-color="#5694F2"/>
</linearGradient>
<linearGradient id="paint29_linear_1408_4770" x1="5" y1="59" x2="59" y2="5" gradientUnits="userSpaceOnUse">
<stop stop-color="#19C8A2"/>
<stop offset="1" stop-color="#5694F2"/>
</linearGradient>
</defs>
</svg>
