<svg width="64" height="64" viewBox="0 0 64 64" fill="none" xmlns="http://www.w3.org/2000/svg">
<path d="M56.967 55.2282H40.6533C39.5326 55.2282 38.6209 54.2959 38.6209 53.1498V42.4589C38.6209 41.3127 39.5326 40.3804 40.6533 40.3804H56.967C58.0877 40.3804 58.9993 41.3128 58.9993 42.4589V53.1498C58.9993 54.2959 58.0877 55.2282 56.967 55.2282ZM40.6533 41.6363C40.2093 41.6363 39.8482 42.0056 39.8482 42.4597V53.1506C39.8482 53.6046 40.2093 53.974 40.6533 53.974H56.967C57.411 53.974 57.7721 53.6046 57.7721 53.1506V42.4597C57.7721 42.006 57.411 41.6363 56.967 41.6363H40.6533Z" fill="url(#paint0_linear_1408_4774)"/>
<path d="M58.3864 52.3239H39.235C38.8962 52.3239 38.6214 52.0429 38.6214 51.6964C38.6214 51.3499 38.8962 51.0689 39.235 51.0689H58.3864C58.7252 51.0689 59 51.3499 59 51.6964C59 52.0433 58.7252 52.3239 58.3864 52.3239Z" fill="url(#paint1_linear_1408_4774)"/>
<path d="M47.0637 59C46.7248 59 46.45 58.719 46.45 58.3725V54.601C46.45 54.2545 46.7248 53.9735 47.0637 53.9735C47.4025 53.9735 47.6773 54.2545 47.6773 54.601V58.3725C47.6773 58.7194 47.4029 59 47.0637 59Z" fill="url(#paint2_linear_1408_4774)"/>
<path d="M50.5566 59C50.2178 59 49.943 58.719 49.943 58.3725V54.601C49.943 54.2545 50.2178 53.9735 50.5566 53.9735C50.8954 53.9735 51.1703 54.2545 51.1703 54.601V58.3725C51.1703 58.7194 50.8954 59 50.5566 59Z" fill="url(#paint3_linear_1408_4774)"/>
<path d="M52.4967 59H45.1253C44.7865 59 44.5117 58.719 44.5117 58.3725C44.5117 58.026 44.7865 57.7449 45.1253 57.7449H52.4967C52.8355 57.7449 53.1103 58.026 53.1103 58.3725C53.1103 58.7194 52.8355 59 52.4967 59Z" fill="url(#paint4_linear_1408_4774)"/>
<path d="M48.9353 41.6363C48.5964 41.6363 48.3216 41.3552 48.3216 41.0087V35.8993H34.3935C34.0547 35.8993 33.7799 35.6183 33.7799 35.2718V29.7509C33.7799 29.4044 34.0547 29.1233 34.3935 29.1233C34.7323 29.1233 35.0071 29.4044 35.0071 29.7509V34.6443H48.9353C49.2741 34.6443 49.5489 34.9254 49.5489 35.2719V41.0088C49.5489 41.3558 49.2745 41.6363 48.9353 41.6363Z" fill="url(#paint5_linear_1408_4774)"/>
<path d="M23.3467 55.2282H7.03302C5.91228 55.2282 5.00064 54.2959 5.00064 53.1498V42.4589C5.00064 41.3127 5.91231 40.3804 7.03302 40.3804H23.3467C24.4674 40.3804 25.379 41.3128 25.379 42.4589V53.1498C25.3786 54.2959 24.4674 55.2282 23.3467 55.2282ZM7.03302 41.6363C6.58903 41.6363 6.22786 42.0056 6.22786 42.4597V53.1506C6.22786 53.6046 6.58903 53.974 7.03302 53.974H23.3467C23.7907 53.974 24.1518 53.6046 24.1518 53.1506V42.4597C24.1518 42.006 23.7907 41.6363 23.3467 41.6363H7.03302Z" fill="url(#paint6_linear_1408_4774)"/>
<path d="M24.765 52.3239H5.61363C5.27483 52.3239 5 52.0429 5 51.6964C5 51.3499 5.27481 51.0689 5.61363 51.0689H24.765C25.1038 51.0689 25.3786 51.3499 25.3786 51.6964C25.3786 52.0433 25.1042 52.3239 24.765 52.3239Z" fill="url(#paint7_linear_1408_4774)"/>
<path d="M16.9363 58.9908C16.5975 58.9908 16.3227 58.7098 16.3227 58.3633V54.6008C16.3227 54.2543 16.5975 53.9733 16.9363 53.9733C17.2751 53.9733 17.55 54.2543 17.55 54.6008V58.3633C17.55 58.7098 17.2752 58.9908 16.9363 58.9908Z" fill="url(#paint8_linear_1408_4774)"/>
<path d="M13.4434 58.9908C13.1046 58.9908 12.8297 58.7098 12.8297 58.3633V54.6008C12.8297 54.2543 13.1046 53.9733 13.4434 53.9733C13.7822 53.9733 14.057 54.2543 14.057 54.6008V58.3633C14.057 58.7098 13.7822 58.9908 13.4434 58.9908Z" fill="url(#paint9_linear_1408_4774)"/>
<path d="M18.8752 58.9908H11.5039C11.1651 58.9908 10.8902 58.7098 10.8902 58.3633C10.8902 58.0168 11.1651 57.7358 11.5039 57.7358H18.8752C19.2141 57.7358 19.4889 58.0168 19.4889 58.3633C19.4889 58.7102 19.2141 58.9908 18.8752 58.9908Z" fill="url(#paint10_linear_1408_4774)"/>
<path d="M15.0647 41.6363C14.7259 41.6363 14.4511 41.3552 14.4511 41.0087V35.2718C14.4511 34.9253 14.7259 34.6442 15.0647 34.6442H28.9929V29.797C28.9929 29.4505 29.2677 29.1695 29.6065 29.1695C29.9453 29.1695 30.2201 29.4505 30.2201 29.797V35.2718C30.2201 35.6183 29.9453 35.8993 29.6065 35.8993H15.6784V41.0087C15.6784 41.3557 15.4036 41.6363 15.0647 41.6363Z" fill="url(#paint11_linear_1408_4774)"/>
<path d="M41.9336 25.288H37.4966C37.1578 25.288 36.883 25.007 36.883 24.6605C36.883 24.314 37.1578 24.0329 37.4966 24.0329H41.9336C42.9995 24.0329 44.0011 23.6089 44.7537 22.8384C45.5071 22.0679 45.9222 21.0436 45.9222 19.9544C45.9222 17.897 44.4192 16.1574 42.4263 15.9073C42.1028 15.8669 41.867 15.5751 41.8885 15.2425C41.9012 15.0529 41.9073 14.862 41.9073 14.6742C41.9073 10.0318 38.2142 6.25449 33.6751 6.25449C29.9863 6.25449 26.7232 8.79066 25.7405 12.4213C25.6519 12.7476 25.3263 12.9435 25.0045 12.8637C24.6714 12.7812 24.3282 12.7396 23.9851 12.7396C21.6147 12.7396 19.6866 14.7114 19.6866 17.135C19.6866 17.577 19.7501 18.0122 19.8755 18.4286C19.9329 18.6191 19.8983 18.8257 19.7825 18.9862C19.6668 19.1466 19.4836 19.2408 19.289 19.2408H18.1152C16.8231 19.2408 15.7725 20.3156 15.7725 21.6371C15.7725 22.2771 16.0162 22.8786 16.4584 23.331C16.9007 23.7837 17.4889 24.0325 18.1153 24.0325H26.4111C26.7499 24.0325 27.0247 24.3135 27.0247 24.66C27.0247 25.0065 26.7499 25.2876 26.4111 25.2876L18.1153 25.288C17.1611 25.288 16.2648 24.9083 15.5906 24.2185C14.9165 23.5291 14.5453 22.6125 14.5453 21.6371C14.5453 19.6236 16.1468 17.9858 18.1152 17.9858H18.5215C18.4799 17.7052 18.4593 17.421 18.4593 17.1351C18.4593 14.0194 20.9384 11.4846 23.985 11.4846C24.2322 11.4846 24.4798 11.5017 24.7244 11.5353C26.0231 7.65941 29.626 5 33.6751 5C38.8913 5 43.1346 9.33979 43.1346 14.6747C43.1346 14.7043 43.1346 14.7338 43.1342 14.7639C45.4585 15.3224 47.149 17.4605 47.149 19.9549C47.149 21.3798 46.6064 22.7192 45.6215 23.7263C44.6371 24.733 43.3275 25.2879 41.9337 25.2879L41.9336 25.288Z" fill="url(#paint12_linear_1408_4774)"/>
<path d="M31.954 30.9566C28.5593 30.9566 25.7976 28.1323 25.7976 24.6607C25.7976 21.1891 28.5593 18.3648 31.954 18.3648C35.3487 18.3648 38.1104 21.1891 38.1104 24.6607C38.1104 28.1323 35.3487 30.9566 31.954 30.9566ZM31.954 19.6198C29.236 19.6198 27.0248 21.8811 27.0248 24.6607C27.0248 27.4402 29.236 29.7016 31.954 29.7016C34.672 29.7016 36.8832 27.4402 36.8832 24.6607C36.8832 21.8811 34.672 19.6198 31.954 19.6198Z" fill="url(#paint13_linear_1408_4774)"/>
<path d="M29.7043 25.2777C29.3672 25.2777 29.0928 24.9993 29.0906 24.6542C29.0871 24.0607 29.2585 23.4874 29.5868 22.9962C30.0159 22.3539 30.6637 21.9204 31.411 21.7765C32.1584 21.6326 32.9162 21.7949 33.5443 22.2333C33.593 22.2669 33.6399 22.3023 33.6859 22.3386C33.9537 22.5511 34.0019 22.9455 33.7941 23.219C33.5859 23.4928 33.2007 23.5421 32.9329 23.3297C32.907 23.3091 32.8798 23.2889 32.8522 23.2696C32.4946 23.0199 32.0633 22.9276 31.6382 23.0096C31.213 23.0917 30.8439 23.3382 30.5998 23.7035C30.4131 23.9832 30.3153 24.3091 30.3175 24.6461C30.3197 24.9926 30.0467 25.2755 29.7079 25.2777L29.7043 25.2777Z" fill="url(#paint14_linear_1408_4774)"/>
<path d="M32.4971 24.0189C32.2078 24.0189 31.9505 23.8087 31.8948 23.5075C31.8322 23.1668 32.0513 22.8387 32.3844 22.7746L33.0055 22.6549L32.8885 22.0202C32.8258 21.6796 33.0445 21.3515 33.3776 21.2874C33.7112 21.2233 34.0316 21.4469 34.0943 21.7876L34.3248 23.039C34.355 23.2027 34.3204 23.3716 34.2284 23.5093C34.1368 23.6469 33.9952 23.7414 33.8352 23.7719L32.6115 24.0077C32.5729 24.0158 32.5348 24.0189 32.4971 24.0189Z" fill="url(#paint15_linear_1408_4774)"/>
<path d="M31.9641 27.5945C31.411 27.5945 30.8526 27.4304 30.3621 27.088C30.3135 27.0543 30.2666 27.0189 30.2206 26.9826C29.9528 26.7702 29.9045 26.3757 30.1123 26.1023C30.3201 25.8284 30.7058 25.7787 30.9731 25.9916C30.999 26.0122 31.0262 26.0324 31.0538 26.0516C31.4114 26.3013 31.8427 26.3936 32.2679 26.3116C32.6934 26.2296 33.0621 25.9831 33.3062 25.6177C33.4929 25.338 33.5907 25.0122 33.5889 24.6751C33.5867 24.3286 33.8602 24.0458 34.199 24.044H34.203C34.54 24.044 34.8144 24.3223 34.8166 24.6679C34.8201 25.2614 34.6483 25.8347 34.3204 26.3259C33.7695 27.1502 32.8744 27.5945 31.9641 27.5945Z" fill="url(#paint16_linear_1408_4774)"/>
<path d="M30.4156 28.0443C30.1264 28.0443 29.8686 27.8341 29.8134 27.5329L29.5829 26.2814C29.5526 26.1178 29.5872 25.9488 29.6793 25.8112C29.7709 25.6736 29.9125 25.5795 30.0725 25.5485L31.2962 25.3128C31.6288 25.2482 31.9501 25.4728 32.0128 25.8135C32.0755 26.1541 31.8563 26.4822 31.5232 26.5463L30.9026 26.666L31.0196 27.3012C31.0823 27.6418 30.8631 27.9699 30.53 28.034C30.4914 28.0407 30.4529 28.0443 30.4156 28.0443Z" fill="url(#paint17_linear_1408_4774)"/>
<defs>
<linearGradient id="paint0_linear_1408_4774" x1="5" y1="59" x2="59" y2="5" gradientUnits="userSpaceOnUse">
<stop stop-color="#19C8A2"/>
<stop offset="1" stop-color="#5694F2"/>
</linearGradient>
<linearGradient id="paint1_linear_1408_4774" x1="5" y1="59" x2="59" y2="5" gradientUnits="userSpaceOnUse">
<stop stop-color="#19C8A2"/>
<stop offset="1" stop-color="#5694F2"/>
</linearGradient>
<linearGradient id="paint2_linear_1408_4774" x1="5" y1="59" x2="59" y2="5" gradientUnits="userSpaceOnUse">
<stop stop-color="#19C8A2"/>
<stop offset="1" stop-color="#5694F2"/>
</linearGradient>
<linearGradient id="paint3_linear_1408_4774" x1="5" y1="59" x2="59" y2="5" gradientUnits="userSpaceOnUse">
<stop stop-color="#19C8A2"/>
<stop offset="1" stop-color="#5694F2"/>
</linearGradient>
<linearGradient id="paint4_linear_1408_4774" x1="5" y1="59" x2="59" y2="5" gradientUnits="userSpaceOnUse">
<stop stop-color="#19C8A2"/>
<stop offset="1" stop-color="#5694F2"/>
</linearGradient>
<linearGradient id="paint5_linear_1408_4774" x1="5" y1="59" x2="59" y2="5" gradientUnits="userSpaceOnUse">
<stop stop-color="#19C8A2"/>
<stop offset="1" stop-color="#5694F2"/>
</linearGradient>
<linearGradient id="paint6_linear_1408_4774" x1="5" y1="59" x2="59" y2="5" gradientUnits="userSpaceOnUse">
<stop stop-color="#19C8A2"/>
<stop offset="1" stop-color="#5694F2"/>
</linearGradient>
<linearGradient id="paint7_linear_1408_4774" x1="5" y1="59" x2="59" y2="5" gradientUnits="userSpaceOnUse">
<stop stop-color="#19C8A2"/>
<stop offset="1" stop-color="#5694F2"/>
</linearGradient>
<linearGradient id="paint8_linear_1408_4774" x1="5" y1="59" x2="59" y2="5" gradientUnits="userSpaceOnUse">
<stop stop-color="#19C8A2"/>
<stop offset="1" stop-color="#5694F2"/>
</linearGradient>
<linearGradient id="paint9_linear_1408_4774" x1="5" y1="59" x2="59" y2="5" gradientUnits="userSpaceOnUse">
<stop stop-color="#19C8A2"/>
<stop offset="1" stop-color="#5694F2"/>
</linearGradient>
<linearGradient id="paint10_linear_1408_4774" x1="5" y1="59" x2="59" y2="5" gradientUnits="userSpaceOnUse">
<stop stop-color="#19C8A2"/>
<stop offset="1" stop-color="#5694F2"/>
</linearGradient>
<linearGradient id="paint11_linear_1408_4774" x1="5" y1="59" x2="59" y2="5" gradientUnits="userSpaceOnUse">
<stop stop-color="#19C8A2"/>
<stop offset="1" stop-color="#5694F2"/>
</linearGradient>
<linearGradient id="paint12_linear_1408_4774" x1="5" y1="59" x2="59" y2="5" gradientUnits="userSpaceOnUse">
<stop stop-color="#19C8A2"/>
<stop offset="1" stop-color="#5694F2"/>
</linearGradient>
<linearGradient id="paint13_linear_1408_4774" x1="5" y1="59" x2="59" y2="5" gradientUnits="userSpaceOnUse">
<stop stop-color="#19C8A2"/>
<stop offset="1" stop-color="#5694F2"/>
</linearGradient>
<linearGradient id="paint14_linear_1408_4774" x1="5" y1="59" x2="59" y2="5" gradientUnits="userSpaceOnUse">
<stop stop-color="#19C8A2"/>
<stop offset="1" stop-color="#5694F2"/>
</linearGradient>
<linearGradient id="paint15_linear_1408_4774" x1="5" y1="59" x2="59" y2="5" gradientUnits="userSpaceOnUse">
<stop stop-color="#19C8A2"/>
<stop offset="1" stop-color="#5694F2"/>
</linearGradient>
<linearGradient id="paint16_linear_1408_4774" x1="5" y1="59" x2="59" y2="5" gradientUnits="userSpaceOnUse">
<stop stop-color="#19C8A2"/>
<stop offset="1" stop-color="#5694F2"/>
</linearGradient>
<linearGradient id="paint17_linear_1408_4774" x1="5" y1="59" x2="59" y2="5" gradientUnits="userSpaceOnUse">
<stop stop-color="#19C8A2"/>
<stop offset="1" stop-color="#5694F2"/>
</linearGradient>
</defs>
</svg>
