<svg width="64" height="64" viewBox="0 0 64 64" fill="none" xmlns="http://www.w3.org/2000/svg">
<path d="M46.3617 30.6165C50.3502 30.6165 53.5836 27.2133 53.5836 23.0152C53.5836 18.8171 50.3502 15.4139 46.3617 15.4139M54.2712 47.9583L54.9788 48.0647C57.1012 48.3838 59 46.6505 59 44.3939V41.8941C59 40.2591 58.0235 38.8007 56.5606 38.2508C55.1014 37.7022 53.6123 37.2751 52.1064 36.9693M17.6383 30.6165C13.6498 30.6165 10.4164 27.2133 10.4164 23.0152C10.4164 18.8171 13.6498 15.4139 17.6383 15.4139M9.72876 47.9583L9.02116 48.0647C6.89883 48.3838 5 46.6505 5 44.3939V41.8941C5 40.2591 5.9765 38.8007 7.43936 38.2508C8.89857 37.7022 10.3877 37.2751 11.8936 36.9693M23.383 20.6744C23.383 26.0174 27.4981 30.3487 32.5745 30.3487C37.6508 30.3487 41.7659 26.0174 41.7659 20.6744C41.7659 15.3314 37.6508 11 32.5745 11C27.4981 11 23.383 15.3314 23.383 20.6744ZM36.4406 51.4884L46.3482 52.9782C47.5681 53.1616 48.6596 52.1653 48.6596 50.8682V44.2368C48.6596 42.4353 47.5836 40.8283 45.9717 40.2224L43.8123 39.4107C36.5452 36.6789 28.6037 36.6789 21.3366 39.4107L19.1772 40.2224C17.5653 40.8283 16.4894 42.4353 16.4894 44.2368V50.8682C16.4894 52.1653 17.5808 53.1616 18.8007 52.9782L28.7084 51.4884C31.2727 51.1029 33.8762 51.1029 36.4406 51.4884Z" stroke="url(#paint0_linear_554_1048)" stroke-width="2"/>
<defs>
<linearGradient id="paint0_linear_554_1048" x1="4.66249" y1="49.9603" x2="49.7733" y2="2.00324" gradientUnits="userSpaceOnUse">
<stop stop-color="#00A983"/>
<stop offset="1" stop-color="#3162AC"/>
</linearGradient>
</defs>
</svg>
