<svg width="44" height="50" viewBox="0 0 44 50" fill="none" xmlns="http://www.w3.org/2000/svg">
<g clip-path="url(#clip0_266_1637)">
<path d="M15.0609 30.3703C16.7598 30.3703 18.1371 31.7675 18.1371 33.4912V46.879C18.1371 48.6026 16.7598 49.9997 15.0609 49.9997C13.3622 49.9997 11.985 48.6026 11.985 46.879V33.4912C11.985 31.7678 13.3622 30.3705 15.0609 30.3705V30.3703Z" fill="#A4C639"/>
<path d="M8.0383 14.2744C8.02814 14.3928 8.01929 14.5124 8.01929 14.6334V34.9172C8.01929 37.0986 9.72121 38.8559 11.834 38.8559H32.1655C34.2784 38.8559 35.9804 37.0984 35.9804 34.9172V14.6334C35.9804 14.5124 35.976 14.3923 35.9661 14.2744H8.0383Z" fill="#A4C639"/>
<path d="M28.939 30.371C30.6379 30.371 32.0152 31.7683 32.0152 33.4919V46.8797C32.0152 48.6033 30.6379 50.0004 28.939 50.0004C27.2403 50.0004 25.8631 48.6033 25.8631 46.8797V33.4919C25.8631 31.7685 27.2403 30.3712 28.939 30.3712V30.371ZM3.07689 16.0802C4.77557 16.0802 6.15284 17.4775 6.15284 19.2011V32.589C6.15284 34.3126 4.77557 35.7099 3.07689 35.7099C1.37799 35.7099 0.000732447 34.3126 0.000732447 32.5892V19.2014C0.00051644 17.4777 1.37778 16.0802 3.07689 16.0802ZM40.9233 16.0802C42.622 16.0802 43.9993 17.4775 43.9993 19.2011V32.589C43.9993 34.3126 42.622 35.7099 40.9233 35.7099C39.2244 35.7099 37.8472 34.3126 37.8472 32.5892V19.2014C37.8472 17.4777 39.2244 16.0802 40.9233 16.0802ZM8.12822 12.9427C8.21376 6.71226 13.5738 1.60389 20.454 0.930664H23.5455C30.4262 1.60411 35.7858 6.7127 35.8713 12.9427H8.12822Z" fill="#A4C639"/>
<path d="M9.198 0.329102L12.4429 6.03137M34.802 0.329102L31.5569 6.03137" stroke="#A4C639" stroke-linecap="round" stroke-linejoin="round"/>
<path d="M17.8674 7.35873C17.87 8.22963 17.1596 8.9377 16.2804 8.94011C15.4017 8.9423 14.6872 8.2384 14.6846 7.3675V7.35873C14.6822 6.48761 15.3926 5.77976 16.2716 5.77735C17.1503 5.77494 17.8649 6.47863 17.8674 7.34996V7.35873ZM29.747 7.35873C29.7496 8.22963 29.0391 8.9377 28.16 8.94011C27.2813 8.9423 26.5667 8.2384 26.5641 7.3675V7.35873C26.5617 6.48761 27.2722 5.77976 28.1511 5.77735C29.0298 5.77494 29.7444 6.47863 29.747 7.34996V7.35873Z" fill="white"/>
</g>
<defs>
<clipPath id="clip0_266_1637">
<rect width="44" height="50" fill="white"/>
</clipPath>
</defs>
</svg>
