<svg width="50" height="26" viewBox="0 0 50 26" fill="none" xmlns="http://www.w3.org/2000/svg">
<g clip-path="url(#clip0_266_1476)">
<path fill-rule="evenodd" clip-rule="evenodd" d="M45.5933 13.1976C45.549 13.1072 45.5307 13.0608 45.5073 13.0169C44.8819 11.8394 44.259 10.6646 43.6284 9.48972C43.5659 9.37095 43.5737 9.30123 43.6597 9.20053C44.6525 8.05149 45.6402 6.8973 46.6304 5.7431C46.6643 5.70179 46.6956 5.66047 46.7086 5.58817L45.8408 5.81282C44.6395 6.12783 43.4408 6.44285 42.2421 6.76045C42.13 6.78885 42.0805 6.75786 42.0232 6.66491C41.3404 5.53653 40.6576 4.41074 39.9723 3.28494C39.9358 3.22556 39.8993 3.16875 39.8237 3.11969C39.769 3.41921 39.7117 3.72132 39.6596 4.02084L39.0889 7.20457C39.068 7.31818 39.0394 7.43437 39.0289 7.54799C39.0185 7.65643 38.9638 7.69775 38.8622 7.72873C37.4471 8.16769 36.0347 8.61181 34.6223 9.05593C34.5598 9.07659 34.4998 9.09983 34.4321 9.15921C35.5891 9.61366 36.7435 10.0707 37.9188 10.5329C37.8771 10.5665 37.8484 10.5923 37.8172 10.6129C37.0953 11.0751 36.3709 11.5373 35.649 12.0047C35.563 12.0615 35.4953 12.0692 35.3963 12.0253C34.5337 11.6406 33.6659 11.2636 32.8008 10.8789C32.4125 10.7085 32.0633 10.4787 31.7923 10.1507C31.1773 9.40451 31.2997 8.55759 32.118 8.04117C32.3864 7.87075 32.6913 7.74423 32.9936 7.64611C34.38 7.1994 35.7689 6.76819 37.1579 6.3344C37.2751 6.29825 37.3273 6.24661 37.3507 6.12267C37.5357 5.06143 37.7286 4.00019 37.9214 2.93894C38.0257 2.37088 38.0804 1.78991 38.3592 1.27091C38.4661 1.07209 38.5937 0.875849 38.7475 0.708012C39.3 0.10122 40.0687 0.0779809 40.6524 0.656371C40.8505 0.85261 41.0199 1.08242 41.1658 1.31739C41.8095 2.35539 42.4401 3.40114 43.0707 4.44689C43.1437 4.57083 43.2115 4.59665 43.3496 4.55792C44.9001 4.14736 46.4506 3.74198 48.0012 3.334C48.3217 3.25138 48.6448 3.22039 48.9732 3.27978C49.6872 3.41147 49.9999 3.95113 49.7602 4.63538C49.6507 4.94781 49.4605 5.21119 49.2468 5.45907C48.1653 6.72171 47.0839 7.98436 45.9972 9.24184C45.9086 9.34513 45.906 9.42001 45.9685 9.53362C46.6174 10.7446 47.2585 11.9556 47.9021 13.1692C48.0559 13.4584 48.1732 13.7605 48.1784 14.0936C48.1862 14.8502 47.6259 15.4699 46.8676 15.5809C46.4428 15.6429 46.0467 15.5525 45.648 15.4311C44.676 15.1342 43.704 14.8398 42.7294 14.5506C42.6382 14.5248 42.6043 14.4887 42.5886 14.3931C42.4766 13.714 42.3541 13.0375 42.2368 12.3584C42.2342 12.3404 42.2394 12.3197 42.2421 12.2784C43.3496 12.5831 44.4493 12.8826 45.5933 13.1976Z" fill="#E25C26"/>
<path fill-rule="evenodd" clip-rule="evenodd" d="M43.6989 23.0872C42.8233 23.0847 41.9451 23.0821 41.0695 23.0847C40.9548 23.0847 40.8897 23.0511 40.8245 22.953C39.7874 21.3882 38.745 19.8235 37.7026 18.2613C37.6687 18.2122 37.6349 18.1632 37.5749 18.0805C37.3508 19.7692 37.1319 21.4192 36.913 23.0743H34.6172C34.6432 22.8523 34.6667 22.6379 34.6954 22.4262C34.9195 20.7298 35.1436 19.0359 35.3703 17.3395C35.584 15.7205 35.8003 14.099 36.0166 12.48C36.0218 12.4309 36.0557 12.3715 36.0947 12.3457C36.8843 11.8345 37.6766 11.3309 38.4688 10.8223C38.4792 10.8145 38.4974 10.8145 38.5365 10.8016C38.2968 12.6117 38.0596 14.4088 37.8199 16.2059C37.8303 16.2111 37.8381 16.2189 37.8485 16.2266C39.0916 14.8607 40.3346 13.4947 41.6063 12.1004L41.7053 12.6685C41.7939 13.1823 41.8799 13.6987 41.9763 14.2126C41.9946 14.3159 41.9685 14.3804 41.8982 14.4527C41.0955 15.2867 40.2929 16.1233 39.4929 16.9573C39.459 16.9935 39.4251 17.0322 39.3834 17.0735C39.4095 17.1148 39.4303 17.1536 39.4564 17.1897L43.605 22.9581C43.6311 22.9917 43.665 23.0201 43.6963 23.0511C43.6989 23.0666 43.6989 23.0769 43.6989 23.0872ZM16.4955 18.0883C16.4617 17.9101 16.4356 17.6519 16.3574 17.4092C15.9718 16.2343 14.7574 15.5888 13.4961 15.8806C12.115 16.1982 11.1273 17.2749 10.984 18.6718C10.8772 19.7047 11.44 20.7014 12.485 21.0732C13.3267 21.3753 14.1346 21.2488 14.8877 20.8021C15.8832 20.2108 16.4252 19.3303 16.4955 18.0883ZM10.4289 22.4572C10.3612 22.9633 10.296 23.4384 10.2335 23.9161C10.1501 24.5487 10.0667 25.1839 9.98593 25.8165C9.9755 25.8914 9.95466 25.9224 9.87387 25.9224C9.24324 25.9198 8.6126 25.9198 7.98197 25.9198C7.96894 25.9198 7.9533 25.912 7.91942 25.9017C7.95851 25.6022 7.995 25.3027 8.03409 25.0031C8.1722 23.9522 8.31292 22.9013 8.45364 21.8504C8.61521 20.6497 8.7429 19.4413 8.94877 18.2484C9.3136 16.1336 11.1247 14.3133 13.2486 13.8588C14.4786 13.5954 15.659 13.7168 16.7327 14.4036C17.8037 15.0879 18.4187 16.082 18.5594 17.3317C18.7575 19.0979 18.1008 20.5645 16.8343 21.7781C16.003 22.576 15.0076 23.0821 13.8583 23.2525C12.6752 23.4281 11.5625 23.2344 10.5671 22.5424C10.5306 22.5166 10.4915 22.4959 10.4289 22.4572ZM9.4022 12.4103C8.69599 12.9318 8.01324 13.4354 7.33048 13.9389C7.22104 13.7659 7.12201 13.5954 7.00474 13.4354C6.70767 13.0248 6.33762 12.7175 5.80341 12.6788C5.35779 12.6478 4.97472 12.7924 4.67243 13.1203C4.40142 13.4121 4.36493 13.8253 4.61771 14.1558C4.89654 14.5173 5.20404 14.8607 5.51415 15.1963C6.03273 15.7515 6.57216 16.286 7.08813 16.8463C7.5572 17.355 7.92985 17.9256 8.04451 18.6202C8.18262 19.4465 8.01584 20.234 7.61974 20.9622C6.89008 22.3074 5.73826 23.0872 4.22161 23.33C3.55188 23.4384 2.88216 23.4152 2.22807 23.2267C1.3603 22.9736 0.75572 22.4081 0.367436 21.6129C0.229322 21.3314 0.125085 21.0345 0 20.7324C0.760932 20.3296 1.49841 19.9371 2.24892 19.5394C2.27498 19.6014 2.29322 19.653 2.31667 19.7021C2.44436 19.9552 2.5486 20.2237 2.70756 20.4587C3.17663 21.1507 3.93496 21.3598 4.70371 21.019C4.90176 20.9312 5.09199 20.8072 5.25356 20.6652C5.74868 20.2289 5.8425 19.6221 5.47506 19.0747C5.26398 18.7596 5.00078 18.4782 4.74279 18.1942C4.1304 17.5202 3.49195 16.867 2.89258 16.1801C2.48085 15.705 2.19941 15.1525 2.1108 14.5173C2.01438 13.8253 2.1525 13.172 2.51733 12.5884C3.42159 11.1399 4.73498 10.3859 6.47313 10.4479C7.46339 10.484 8.25298 10.9436 8.86538 11.7054C9.04779 11.93 9.21718 12.165 9.4022 12.4103ZM26.1896 20.1901C26.0749 21.0629 25.9655 21.8917 25.8534 22.7206C25.8482 22.7619 25.8144 22.8187 25.7779 22.8368C24.0684 23.6217 21.8142 23.5133 20.4097 21.9305C19.6539 21.0809 19.3386 20.0739 19.3855 18.9533C19.495 16.3583 21.6657 14.0912 24.2638 13.7762C25.7805 13.5903 27.1121 13.9983 28.1415 15.1654C28.8424 15.9606 29.1656 16.9109 29.1187 17.9592C29.0874 18.6512 28.978 19.3406 28.8894 20.03C28.7669 21.0061 28.6314 21.9821 28.5011 22.9581C28.4959 22.9917 28.4906 23.0278 28.4802 23.0717H26.4346C26.4606 22.8471 26.4867 22.6276 26.5154 22.4081C26.6639 21.2798 26.8255 20.1566 26.9558 19.0256C27.0365 18.3233 26.987 17.6235 26.6613 16.9728C26.3173 16.2808 25.7362 15.9142 24.9752 15.8341C23.3987 15.6689 21.9002 16.7534 21.5641 18.2897C21.3426 19.3045 21.6918 20.2753 22.5074 20.815C23.3022 21.3392 24.1544 21.3392 25.0195 21.0009C25.4599 20.8305 25.8326 20.5568 26.1896 20.1901ZM34.8048 13.9724C34.711 14.6748 34.6198 15.3668 34.526 16.0743C34.0934 16.0743 33.6686 16.0717 33.2439 16.0743C32.8999 16.0768 32.5872 16.2963 32.4829 16.6139C32.4412 16.7379 32.4282 16.8721 32.41 17.0012C32.1937 18.615 31.98 20.2289 31.7663 21.8452C31.7116 22.2532 31.6595 22.6586 31.6047 23.0717H29.4757C29.5148 22.7619 29.5539 22.4598 29.593 22.1603C29.7311 21.1145 29.8692 20.0688 30.0099 19.023C30.1324 18.1193 30.2392 17.2104 30.3826 16.3092C30.5728 15.1008 31.7871 14.0267 33.0198 13.975C33.6087 13.9518 34.1976 13.9724 34.8048 13.9724Z" fill="#3D3B3E"/>
<path d="M46.211 23.0741V22.1832H46.2058L45.854 23.0741H45.742L45.3902 22.1832H45.385V23.0741H45.2078V22.0077H45.4814L45.8019 22.8184L46.1172 22.0077H46.3882V23.0741H46.211ZM44.6475 22.1497V23.0741H44.4703V22.1497H44.1341V22.0077H44.9862V22.1497H44.6475ZM12.2558 10.9124H12.7848L12.6597 10.1197L12.2558 10.9124ZM12.8655 11.4236H11.9873L11.7085 11.9659H11.0857L12.459 9.4251H13.0584L13.5248 11.9659H12.9489L12.8655 11.4236ZM16.0109 9.93636H15.6982L15.594 10.5225H15.9067C16.0943 10.5225 16.2454 10.3986 16.2454 10.1687C16.2454 10.0138 16.149 9.93636 16.0109 9.93636ZM15.2526 9.4251H16.0734C16.5034 9.4251 16.8057 9.67815 16.8057 10.1171C16.8057 10.6671 16.4148 11.0363 15.8545 11.0363H15.5001L15.3334 11.9659H14.7991L15.2526 9.4251ZM18.6247 10.9124H19.1537L19.0286 10.1197L18.6247 10.9124ZM19.237 11.4236H18.3588L18.08 11.9659H17.4572L18.8305 9.4251H19.4299L19.8963 11.9659H19.3204L19.237 11.4236ZM22.7081 11.8755C22.5283 11.9581 22.3277 12.0072 22.127 12.0072C21.4495 12.0072 21.0221 11.5037 21.0221 10.8711C21.0221 10.0629 21.7075 9.38379 22.5231 9.38379C22.7264 9.38379 22.9114 9.43285 23.0626 9.51548L22.987 10.1249C22.8749 10.0009 22.6925 9.9157 22.4658 9.9157C21.9993 9.9157 21.5824 10.334 21.5824 10.8194C21.5824 11.1887 21.8169 11.4779 22.187 11.4779C22.4137 11.4779 22.6326 11.3927 22.7785 11.2713L22.7081 11.8755ZM25.9812 10.9408H24.8659L24.6834 11.9633H24.1492L24.6027 9.42252H25.1369L24.9571 10.427H26.0724L26.2522 9.42252H26.789L26.3356 11.9633H25.8014L25.9812 10.9408ZM27.9461 11.9659L28.3969 9.4251H29.8197L29.7285 9.93636H28.8425L28.7513 10.4295H29.5643L29.4731 10.9408H28.6575L28.5663 11.452H29.4523L29.3611 11.9633L27.9461 11.9659Z" fill="#3D3B3E"/>
</g>
<defs>
<clipPath id="clip0_266_1476">
<rect width="50" height="26" fill="white"/>
</clipPath>
</defs>
</svg>
