<svg width="40" height="50" viewBox="0 0 40 50" fill="none" xmlns="http://www.w3.org/2000/svg">
<g clip-path="url(#clip0_266_1514)">
<path d="M0.00488281 39.558L2.5546 40.8742L2.97294 40.1073V9.56941L2.5546 9.00586L0.00488281 10.3221V39.558Z" fill="#9D5025"/>
<path d="M7.45267 10.2528L2.55444 9.00586V40.8742L7.45267 39.6965V10.2528Z" fill="#F68536"/>
<path d="M22.4827 12.6781L25.9717 10.8076L37.5798 15.4492L34.4933 15.8649L22.4827 12.6781Z" fill="#6B3A19"/>
<path d="M22.6169 37.2026L26.039 39.073L37.6469 34.4314L34.5604 34.0156L22.6169 37.2026Z" fill="#FBBF93"/>
<path d="M23.4891 32.0757L29.595 32.9072L29.9455 32.2577V17.7415L29.595 16.973L23.4891 17.8043V32.0757ZM5.57373 7.4125L9.33129 5.47266L9.74182 6.28991V43.548L9.33129 44.4075L5.57373 42.4677V7.4125Z" fill="#9D5025"/>
<path d="M16.9804 41.7749L9.3313 44.3381V5.47266L16.9804 8.03604V41.7749Z" fill="#F68536"/>
<path d="M14.0283 46.7634L20 49.881L20.6249 49.1398V0.914032L20 0L14.0283 3.11758V46.7634ZM34.359 15.8648L37.4456 15.4492L37.7107 15.8468V34.0323L37.4456 34.501L34.359 34.0853V15.8648Z" fill="#9D5025"/>
<path d="M29.5952 16.9736V32.977L35.9695 24.9407L29.5952 16.9736Z" fill="#F68536"/>
<path d="M37.4456 9.00629L20 0V49.881L39.9953 39.5584V10.3226L37.4456 9.00629ZM37.4456 34.5252L25.9717 38.0632V11.8177L37.4456 15.3558V34.5252Z" fill="#F68536"/>
</g>
<defs>
<clipPath id="clip0_266_1514">
<rect width="40" height="50" fill="white"/>
</clipPath>
</defs>
</svg>
