<svg width="50" height="28" viewBox="0 0 50 28" fill="none" xmlns="http://www.w3.org/2000/svg">
<g clip-path="url(#clip0_266_1141)">
<path d="M14.2529 10.1691C14.2529 10.7453 14.3181 11.2125 14.4321 11.5551C14.5625 11.8977 14.7255 12.2714 14.9536 12.6763C15.0351 12.8009 15.0677 12.9255 15.0677 13.0345C15.0677 13.1902 14.9699 13.3459 14.758 13.5017L13.7314 14.1557C13.5847 14.2492 13.4381 14.2959 13.3077 14.2959C13.1448 14.2959 12.9818 14.218 12.8188 14.0779C12.5907 13.8443 12.3951 13.5951 12.2322 13.3459C12.0692 13.0812 11.9063 12.7853 11.727 12.4271C10.4559 13.8598 8.85893 14.5762 6.93602 14.5762C5.56717 14.5762 4.47534 14.2024 3.67684 13.455C2.87834 12.7075 2.47095 11.7108 2.47095 10.465C2.47095 9.14127 2.95982 8.06674 3.95387 7.25695C4.94792 6.44716 6.26789 6.04227 7.94636 6.04227C8.50042 6.04227 9.07078 6.08899 9.67373 6.16685C10.2767 6.24472 10.8959 6.3693 11.5478 6.50946V5.37264C11.5478 4.1891 11.287 3.36374 10.7818 2.88098C10.2604 2.39822 9.3804 2.16463 8.12562 2.16463C7.55526 2.16463 6.96861 2.22692 6.36566 2.36707C5.76272 2.50723 5.17606 2.67853 4.60571 2.89655C4.34497 3.00556 4.14942 3.06785 4.03535 3.099C3.92128 3.13015 3.8398 3.14572 3.77462 3.14572C3.54648 3.14572 3.4324 2.98999 3.4324 2.66296V1.89989C3.4324 1.65072 3.465 1.46385 3.54648 1.35484C3.62796 1.24583 3.77462 1.13682 4.00276 1.02781C4.57312 0.747497 5.25754 0.513904 6.05604 0.32703C6.85454 0.124583 7.70193 0.0311457 8.5982 0.0311457C10.5374 0.0311457 11.9552 0.451613 12.8677 1.29255C13.764 2.13348 14.2203 3.41046 14.2203 5.12347V10.1691H14.2529ZM7.63674 12.5362C8.17451 12.5362 8.72857 12.4427 9.31522 12.2558C9.90187 12.069 10.4233 11.7264 10.8633 11.2592C11.1241 10.9633 11.3196 10.6363 11.4174 10.2625C11.5152 9.88877 11.5803 9.43715 11.5803 8.90768V8.25362C11.1078 8.14461 10.6026 8.05117 10.0811 7.98888C9.55966 7.92659 9.05449 7.89544 8.54931 7.89544C7.45749 7.89544 6.65899 8.09789 6.12123 8.51836C5.58346 8.93882 5.32273 9.53059 5.32273 10.3092C5.32273 11.0412 5.51828 11.5862 5.92567 11.96C6.31678 12.3493 6.88713 12.5362 7.63674 12.5362ZM20.7223 14.218C20.429 14.218 20.2335 14.1713 20.1031 14.0623C19.9727 13.9689 19.8587 13.7508 19.7609 13.455L15.9313 1.41713C15.8336 1.10567 15.7847 0.903226 15.7847 0.794216C15.7847 0.54505 15.9151 0.404894 16.1758 0.404894H17.7728C18.0824 0.404894 18.2943 0.451613 18.4083 0.560623C18.5387 0.65406 18.6365 0.87208 18.7342 1.16796L21.472 11.4772L24.0141 1.16796C24.0956 0.856507 24.1934 0.65406 24.3237 0.560623C24.4541 0.467186 24.6822 0.404894 24.9756 0.404894H26.2792C26.5889 0.404894 26.8007 0.451613 26.9311 0.560623C27.0614 0.65406 27.1755 0.87208 27.2407 1.16796L29.8154 11.6018L32.6346 1.16796C32.7324 0.856507 32.8465 0.65406 32.9605 0.560623C33.0909 0.467186 33.3028 0.404894 33.5961 0.404894H35.1116C35.3723 0.404894 35.519 0.529477 35.519 0.794216C35.519 0.87208 35.5027 0.949945 35.4864 1.04338C35.4701 1.13682 35.4375 1.2614 35.3723 1.4327L31.445 13.4705C31.3473 13.782 31.2332 13.9844 31.1028 14.0779C30.9725 14.1713 30.7606 14.2336 30.4836 14.2336H29.0821C28.7725 14.2336 28.5607 14.1869 28.4303 14.0779C28.2999 13.9689 28.1859 13.7664 28.1207 13.455L25.5948 3.41046L23.0852 13.4394C23.0038 13.7508 22.906 13.9533 22.7756 14.0623C22.6453 14.1713 22.4171 14.218 22.1238 14.218H20.7223ZM41.6626 14.6385C40.8152 14.6385 39.9678 14.5451 39.153 14.3582C38.3382 14.1713 37.7027 13.9689 37.279 13.7353C37.0182 13.5951 36.839 13.4394 36.7738 13.2992C36.7086 13.1591 36.676 13.0033 36.676 12.8632V12.069C36.676 11.7419 36.8064 11.5862 37.0508 11.5862C37.1486 11.5862 37.2464 11.6018 37.3441 11.6329C37.4419 11.6641 37.5886 11.7264 37.7515 11.7887C38.3056 12.0222 38.9086 12.2091 39.5441 12.3337C40.1959 12.4583 40.8315 12.5206 41.4833 12.5206C42.5099 12.5206 43.3084 12.3493 43.8625 12.0067C44.4166 11.6641 44.7099 11.1657 44.7099 10.5273C44.7099 10.0912 44.5632 9.73304 44.2699 9.43715C43.9766 9.14127 43.4225 8.87653 42.624 8.62737L40.2611 7.92659C39.0715 7.56841 38.1915 7.03893 37.6538 6.33815C37.116 5.65295 36.839 4.88988 36.839 4.08009C36.839 3.42603 36.9856 2.84983 37.279 2.3515C37.5723 1.85317 37.9634 1.41713 38.4523 1.07453C38.9411 0.716352 39.4952 0.451613 40.147 0.264739C40.7989 0.0778643 41.4833 0 42.2003 0C42.5588 0 42.9336 0.0155729 43.2921 0.0622914C43.6669 0.10901 44.0092 0.171301 44.3514 0.233593C44.6773 0.311457 44.9869 0.389322 45.2802 0.482759C45.5736 0.576196 45.8017 0.669633 45.9647 0.76307C46.1928 0.887653 46.3558 1.01224 46.4535 1.15239C46.5513 1.27697 46.6002 1.44828 46.6002 1.6663V2.39822C46.6002 2.72525 46.4698 2.89655 46.2254 2.89655C46.095 2.89655 45.8832 2.83426 45.6062 2.70968C44.6773 2.30478 43.6344 2.10234 42.4773 2.10234C41.5485 2.10234 40.8152 2.24249 40.31 2.53838C39.8048 2.83426 39.5441 3.28587 39.5441 3.92436C39.5441 4.3604 39.707 4.73415 40.033 5.03003C40.3589 5.32592 40.9618 5.6218 41.8255 5.88654L44.1395 6.58732C45.3128 6.9455 46.1602 7.44383 46.6654 8.08232C47.1706 8.7208 47.415 9.45273 47.415 10.2625C47.415 10.9321 47.2683 11.5395 46.9913 12.069C46.698 12.5984 46.3069 13.0656 45.8017 13.4394C45.2965 13.8287 44.6936 14.109 43.9929 14.3115C43.2595 14.5295 42.4936 14.6385 41.6626 14.6385Z" fill="#252F3E"/>
<path fill-rule="evenodd" clip-rule="evenodd" d="M44.7425 22.207C39.3812 25.9913 31.5917 28.0001 24.8941 28.0001C15.5077 28.0001 7.05012 24.6831 0.662132 19.1703C0.15696 18.7343 0.613245 18.1425 1.21619 18.4851C8.12565 22.3161 16.6484 24.6364 25.4645 24.6364C31.4125 24.6364 37.9471 23.4529 43.9603 21.0235C44.8566 20.6342 45.6225 21.5841 44.7425 22.207Z" fill="#FF9900"/>
<path fill-rule="evenodd" clip-rule="evenodd" d="M46.9751 19.7776C46.2907 18.9367 42.4449 19.3727 40.7012 19.5752C40.1797 19.6375 40.0983 19.2014 40.5708 18.8744C43.6345 16.8188 48.6699 17.4105 49.2565 18.0957C49.8432 18.7965 49.0936 23.6085 46.2255 25.9133C45.7855 26.2715 45.3618 26.0846 45.5574 25.6174C46.2092 24.0757 47.6595 20.603 46.9751 19.7776Z" fill="#FF9900"/>
</g>
<defs>
<clipPath id="clip0_266_1141">
<rect width="50" height="28" fill="white"/>
</clipPath>
</defs>
</svg>
