<svg width="50" height="50" viewBox="0 0 50 50" fill="none" xmlns="http://www.w3.org/2000/svg">
<g clip-path="url(#clip0_266_1408)">
<path d="M15.295 21.0094L25.0059 11.3024L34.7208 21.0173L40.3681 15.3661L25.0059 0L9.6438 15.3621L15.295 21.0094Z" fill="#F3BA2F"/>
<path d="M0 25.0018L5.64726 19.3506L11.2985 25.0018L5.64726 30.6491L0 25.0018Z" fill="#F3BA2F"/>
<path d="M15.295 28.9903L25.0059 38.7012L34.7208 28.9863L40.372 34.6296L25.0099 49.9957L9.6438 34.6415L15.295 28.9903Z" fill="#F3BA2F"/>
<path d="M38.7014 25.0018L44.3487 19.3506L49.9999 24.9978L44.3487 30.653L38.7014 25.0018Z" fill="#F3BA2F"/>
<path d="M30.736 24.9978L25.0058 19.2637L20.7684 23.5011L20.2787 23.9868L19.2756 24.9899L25.0058 30.7162L30.736 25.0018V24.9978Z" fill="#F3BA2F"/>
</g>
<defs>
<clipPath id="clip0_266_1408">
<rect width="50" height="50" fill="white"/>
</clipPath>
</defs>
</svg>
