<svg width="46" height="50" viewBox="0 0 46 50" fill="none" xmlns="http://www.w3.org/2000/svg">
<g clip-path="url(#clip0_266_1400)">
<path d="M45.9977 14.8743C45.9973 14.0336 45.8113 13.2908 45.4354 12.6534C45.0662 12.0263 44.5129 11.501 43.7712 11.0855C37.6472 7.67087 31.5174 4.26669 25.3956 0.848632C23.7452 -0.0726308 22.1449 -0.0391272 20.5067 0.895502C18.0692 2.28564 5.86554 9.04677 2.22902 11.0836C0.731508 11.922 0.00269531 13.205 0.00233594 14.8728C0 21.7398 0.00233594 28.6065 0 35.4737C0.000359375 36.2958 0.17843 37.0242 0.537805 37.6523C0.907242 38.298 1.46805 38.8379 2.22705 39.2629C5.86374 41.2996 18.069 48.0603 20.5059 49.4507C22.1449 50.3859 23.7452 50.4192 25.3961 49.4976C31.5181 46.0794 37.6483 42.6754 43.7731 39.2608C44.5321 38.836 45.0929 38.2958 45.4624 37.6505C45.8212 37.0225 45.9996 36.2941 46 35.4717C46 35.4717 46 21.7415 45.9977 14.8743Z" fill="#A9B9CB"/>
<path d="M25.3541 0.893835C23.7064 -0.0251704 22.1088 0.00833328 20.4732 0.940532C18.0397 2.32702 5.85602 9.07062 2.22543 11.1022C0.73025 11.9384 0.00269531 13.2181 0.00233594 14.8815C0 21.7306 0.00233594 28.5796 0 35.4289C0.000359375 36.249 0.17807 36.9755 0.536906 37.6018C0.905805 38.246 1.46571 38.7845 2.22345 39.2082C3.42999 39.8821 4.63743 40.5545 5.84577 41.2254L39.4639 8.74739C34.76 6.13064 30.0549 3.51597 25.3541 0.893835Z" fill="#7F8B99"/>
<path d="M27.7538 22.0436L34.9124 22.0924C34.9124 19.2109 31.8933 12.1543 23.2375 12.1543C17.7227 12.1543 10.3088 15.5415 10.3088 25.2797C10.3088 35.0178 17.5767 38.1934 23.2375 38.1934C32.4046 38.1934 34.5956 32.0652 34.5956 28.602L27.7662 28.2247C27.7662 28.2247 27.9489 32.2304 23.2011 32.2304C18.8185 32.2304 18.0871 27.0438 18.0871 25.2797C18.0871 22.5982 19.0742 18.2936 23.2011 18.2936C27.3281 18.2936 27.7538 22.0436 27.7538 22.0436Z" fill="white"/>
</g>
<defs>
<clipPath id="clip0_266_1400">
<rect width="46" height="50" fill="white"/>
</clipPath>
</defs>
</svg>
