<svg width="46" height="50" viewBox="0 0 46 50" fill="none" xmlns="http://www.w3.org/2000/svg">
<g clip-path="url(#clip0_266_1427)">
<path d="M45.9225 14.7073C45.9222 13.8688 45.7366 13.1279 45.3612 12.492C44.9925 11.8668 44.4403 11.3427 43.6996 10.9283C37.5858 7.52258 31.466 4.12726 25.3541 0.718054C23.7063 -0.200952 22.1087 -0.167448 20.4732 0.76475C18.0397 2.15124 5.85601 8.89484 2.22543 10.9264C0.73025 11.7626 0.00269531 13.0423 0.00233594 14.7057C0 21.5549 0.00233594 28.4038 0 35.2531C0.000359375 36.0732 0.17807 36.7997 0.536906 37.426C0.905805 38.0702 1.46571 38.6087 2.22345 39.0325C5.85422 41.064 18.0395 47.8071 20.4725 49.1939C22.1087 50.1267 23.7063 50.16 25.3546 49.2406C31.4667 45.8313 37.5868 42.4361 43.7016 39.0304C44.4594 38.6068 45.0193 38.068 45.3882 37.4243C45.7465 36.798 45.9245 36.0715 45.9249 35.2512C45.9249 35.2512 45.9249 21.5566 45.9225 14.7073Z" fill="#5C8DBC"/>
<path d="M23.0327 24.9121L0.536865 37.4254C0.905764 38.0697 1.46567 38.6081 2.22341 39.0319C5.85418 41.0634 18.0395 47.8065 20.4725 49.1934C22.1087 50.1261 23.7063 50.1594 25.3546 49.2401C31.4667 45.8307 37.5868 42.4355 43.7016 39.0298C44.4593 38.6062 45.0192 38.0674 45.3881 37.4237L23.0327 24.9121Z" fill="#1A4674"/>
<path d="M16.3696 28.6187C17.6787 30.8264 20.1395 32.3155 22.9624 32.3155C25.8027 32.3155 28.2775 30.8075 29.5799 28.5761L23.0326 24.9121L16.3696 28.6187Z" fill="#1A4674"/>
<path d="M45.9226 14.7064C45.9222 13.868 45.7366 13.1271 45.3612 12.4912L23.0327 24.9118L45.3882 37.4234C45.7465 36.7971 45.9245 36.0706 45.9249 35.2504C45.9249 35.2504 45.9249 21.5558 45.9226 14.7064Z" fill="#1B598E"/>
<path d="M44.6934 25.8068H42.9464V27.4949H41.1992V25.8068H39.4524V24.1193H41.1992V22.4316H42.9464V24.1193H44.6934V25.8068ZM38.319 25.8068H36.5722V27.4949H34.8253V25.8068H33.0784V24.1193H34.8253V22.4316H36.5722V24.1193H38.319V25.8068Z" fill="white"/>
<path d="M29.5799 28.5761C28.2776 30.8075 25.8027 32.3155 22.9624 32.3155C20.1395 32.3155 17.6787 30.8264 16.3697 28.6186C15.7121 27.5108 15.3667 26.2558 15.3681 24.9787C15.3681 20.9269 18.7683 17.6421 22.9624 17.6421C25.7671 17.6421 28.215 19.1126 29.5305 21.2978L36.1684 17.6051C33.53 13.2052 28.6042 10.2451 22.9624 10.2451C14.5394 10.2451 7.71143 16.8417 7.71143 24.9787C7.71143 27.6482 8.44653 30.1516 9.73129 32.311C12.363 36.7341 17.3028 39.7125 22.9624 39.7125C28.6324 39.7125 33.58 36.7222 36.2079 32.286L29.5799 28.5761Z" fill="white"/>
</g>
<defs>
<clipPath id="clip0_266_1427">
<rect width="46" height="50" fill="white"/>
</clipPath>
</defs>
</svg>
