<svg width="50" height="50" viewBox="0 0 50 50" fill="none" xmlns="http://www.w3.org/2000/svg">
<path d="M4.16667 2.77734H1.38889C0.621827 2.77734 0 3.39917 0 4.16623V45.8329C0 46.6 0.621827 47.2218 1.38889 47.2218H4.16667C4.93373 47.2218 5.55556 46.6 5.55556 45.8329V4.16623C5.55556 3.39917 4.93373 2.77734 4.16667 2.77734Z" fill="#FFB200"/>
<path d="M0 41.667H5.55556V45.8337C5.55556 46.6007 4.93372 47.2225 4.16667 47.2225H1.38889C0.621826 47.2225 0 46.6007 0 45.8337V41.667Z" fill="#FF0000"/>
<path d="M15.2778 2.77734H12.5C11.7329 2.77734 11.1111 3.39917 11.1111 4.16623V45.8329C11.1111 46.6 11.7329 47.2218 12.5 47.2218H15.2778C16.0448 47.2218 16.6666 46.6 16.6666 45.8329V4.16623C16.6666 3.39917 16.0448 2.77734 15.2778 2.77734Z" fill="#FFB200"/>
<path d="M26.3888 2.77734H23.6111C22.844 2.77734 22.2222 3.39917 22.2222 4.16623V45.8329C22.2222 46.6 22.844 47.2218 23.6111 47.2218H26.3888C27.1559 47.2218 27.7777 46.6 27.7777 45.8329V4.16623C27.7777 3.39917 27.1559 2.77734 26.3888 2.77734Z" fill="#FFB200"/>
<path d="M37.4999 2.77734H34.7221C33.9551 2.77734 33.3333 3.39917 33.3333 4.16623V45.8329C33.3333 46.6 33.9551 47.2218 34.7221 47.2218H37.4999C38.267 47.2218 38.8888 46.6 38.8888 45.8329V4.16623C38.8888 3.39917 38.267 2.77734 37.4999 2.77734Z" fill="#FFB200"/>
<path d="M48.611 20.833H45.8332C45.0662 20.833 44.4443 21.4548 44.4443 22.2219V30.5552C44.4443 31.3223 45.0662 31.9441 45.8332 31.9441H48.611C49.3781 31.9441 49.9999 31.3223 49.9999 30.5552V22.2219C49.9999 21.4548 49.3781 20.833 48.611 20.833Z" fill="#FFB200"/>
</svg>
