<svg width="50" height="50" viewBox="0 0 50 50" fill="none" xmlns="http://www.w3.org/2000/svg">
<g clip-path="url(#clip0_266_1615)">
<path d="M13.7761 13.6125L10.5444 10.3809L10.5581 33.7402L10.5968 34.832C10.6128 35.3457 10.7081 35.9254 10.8671 36.5262L36.4733 45.5555L42.8741 42.7195L42.8765 42.7117L13.7761 13.6125Z" fill="#00D2B8"/>
<path d="M10.8673 36.5258L10.8688 36.5273C10.8673 36.5168 10.8618 36.5051 10.8618 36.4941C10.8618 36.5051 10.8634 36.5152 10.8673 36.5258ZM42.8743 42.7191L36.4735 45.5551L10.8688 36.5273C11.3579 38.4039 12.4407 40.5133 13.606 41.6668L21.9622 49.9754L40.5423 49.9996L42.8767 42.7113L42.8743 42.7191Z" fill="#55DDCA"/>
<path d="M0.592525 25.4133C-0.234818 26.2965 0.176119 28.1184 1.50815 29.4605L7.25385 35.2539L10.8671 36.5262C10.7082 35.9254 10.6128 35.3457 10.5968 34.832L10.5582 33.7402L10.5445 10.3809L0.592525 25.4133Z" fill="#0081C6"/>
<path d="M36.6835 10.6807C36.0827 10.5271 35.5065 10.4322 34.9843 10.4158L33.8304 10.376L10.5444 10.3791L42.8796 42.7115H42.8823L45.7222 36.3045L36.6835 10.6807Z" fill="#0079B3"/>
<path d="M36.6543 10.6748C36.6668 10.6775 36.6766 10.6811 36.6848 10.6822L36.6836 10.6811C36.6766 10.6775 36.6668 10.6775 36.6543 10.6748ZM41.8199 13.4244C40.6465 12.2412 38.5648 11.1658 36.6848 10.6822L45.7223 36.3049L42.8824 42.7119H42.8797L49.8195 40.4955L49.8344 21.4689L41.8199 13.4244Z" fill="#00A4E4"/>
<path d="M35.4175 7.08927L29.6257 1.34006C28.2862 0.0131022 26.4636 -0.399788 25.5827 0.425212L10.5444 10.3791L33.8304 10.376L34.9843 10.4158C35.5065 10.4322 36.0827 10.5272 36.6835 10.6807L35.4175 7.08927Z" fill="#00D2B8"/>
</g>
<defs>
<clipPath id="clip0_266_1615">
<rect width="50" height="50" fill="white"/>
</clipPath>
</defs>
</svg>
