<svg width="50" height="36" viewBox="0 0 50 36" fill="none" xmlns="http://www.w3.org/2000/svg">
<path d="M24.9999 24.7116V20.2844C29.5819 20.2844 33.1386 15.6372 31.3792 10.7051C30.7337 8.89282 29.3034 7.43004 27.5187 6.76984C22.6963 4.98344 18.1523 8.60803 18.1523 13.2941H13.8362C13.8362 5.82486 20.899 -0.000382066 28.5566 2.44622C31.8982 3.52065 34.5689 6.2391 35.6068 9.65658C37.999 17.4883 32.3032 24.7116 24.9999 24.7116Z" fill="#0080FF"/>
<path fill-rule="evenodd" clip-rule="evenodd" d="M25.0125 20.3107H20.6964V15.8965H25.0125V20.3107ZM20.6964 23.6894H17.3928V20.3107H20.6964V23.6894ZM17.3928 20.3107H14.6208V17.4758H17.3928V20.3107Z" fill="#0080FF"/>
<path d="M6.54558 29.1902C5.98866 28.7889 5.27985 28.5948 4.46978 28.5948H2.69775V34.3553H4.48244C5.2925 34.3553 6.00131 34.1482 6.55824 33.721C6.86201 33.5009 7.1025 33.1902 7.2797 32.8019C7.44425 32.4135 7.53285 31.9475 7.53285 31.4427C7.53285 30.9378 7.44425 30.4847 7.2797 30.0964C7.1025 29.708 6.86201 29.3974 6.54558 29.1902ZM3.73565 29.5656H4.29258C4.91278 29.5656 5.41908 29.6951 5.81145 29.941C6.2418 30.2129 6.45698 30.7177 6.45698 31.4427C6.45698 32.1935 6.2418 32.7242 5.81145 33.009C5.44439 33.255 4.9381 33.3844 4.30523 33.3844H3.73565V29.5656ZM8.76061 28.5171C8.58341 28.5171 8.44418 28.5818 8.3176 28.6983C8.20369 28.8148 8.1404 28.9572 8.1404 29.1385C8.1404 29.3197 8.20369 29.4621 8.3176 29.5915C8.43152 29.708 8.58341 29.7728 8.76061 29.7728C8.92515 29.7728 9.07704 29.708 9.20362 29.5915C9.31753 29.475 9.38082 29.3197 9.38082 29.1385C9.38082 28.9572 9.31753 28.8148 9.20362 28.6983C9.07704 28.5818 8.92515 28.5171 8.76061 28.5171ZM8.25432 30.2906H9.25424V34.3553H8.25432V30.2906ZM12.8869 30.6271C12.5831 30.3553 12.254 30.187 11.887 30.187C11.33 30.187 10.8744 30.3812 10.52 30.7695C10.1656 31.1449 9.97571 31.6368 9.97571 32.2323C9.97571 32.8019 10.1529 33.2938 10.5073 33.6821C10.8617 34.0576 11.33 34.2517 11.8743 34.2517C12.254 34.2517 12.5958 34.1482 12.8616 33.9281V34.0187C12.8616 34.3553 12.773 34.6142 12.5958 34.7954C12.4186 34.9766 12.1781 35.0673 11.8743 35.0673C11.4186 35.0673 11.1275 34.886 10.7731 34.3941L10.0896 35.0673L10.1023 35.0932C10.2542 35.3003 10.4693 35.5074 10.7731 35.7016C11.0642 35.8957 11.444 35.9993 11.887 35.9993C12.4819 35.9993 12.9628 35.8181 13.3172 35.4427C13.6716 35.0673 13.8489 34.5754 13.8489 33.9669V30.2776H12.8616V30.6271H12.8869ZM12.6211 33.0349C12.4439 33.242 12.2161 33.3326 11.9376 33.3326C11.6465 33.3326 11.4313 33.2291 11.2541 33.0349C11.0769 32.8278 11.001 32.5689 11.001 32.2453C11.001 31.9087 11.0896 31.6498 11.2541 31.4427C11.4186 31.2355 11.6591 31.1449 11.9376 31.1449C12.2287 31.1449 12.4439 31.2485 12.6211 31.4427C12.7983 31.6498 12.8869 31.9216 12.8869 32.2453C12.8869 32.5689 12.7983 32.8278 12.6211 33.0349ZM14.7222 30.2906H15.7221V34.3553H14.7222V30.2906ZM15.2285 28.5171C15.0513 28.5171 14.9121 28.5818 14.7855 28.6983C14.6716 28.8148 14.6083 28.9572 14.6083 29.1385C14.6083 29.3197 14.6716 29.4621 14.7855 29.5915C14.8994 29.708 15.0513 29.7728 15.2285 29.7728C15.393 29.7728 15.5449 29.708 15.6715 29.5915C15.7854 29.475 15.8487 29.3197 15.8487 29.1385C15.8487 28.9572 15.7854 28.8148 15.6715 28.6983C15.5449 28.5818 15.4057 28.5171 15.2285 28.5171ZM17.9118 29.1902H16.9246V30.2906H16.355V31.2226H16.9246V32.9054C16.9246 33.4362 17.0258 33.8116 17.2284 34.0317C17.4309 34.2517 17.7979 34.3553 18.3042 34.3553C18.4688 34.3553 18.6333 34.3553 18.7852 34.3423H18.8358V33.4103L18.4941 33.4232C18.2536 33.4232 18.1017 33.3844 18.0258 33.2938C17.9498 33.2032 17.9118 33.022 17.9118 32.7501V31.2097H18.8485V30.2776H17.9118V29.1902ZM23.5317 28.5818H24.5316V34.3553H23.5317V28.5818ZM34.6322 32.9054C34.455 33.1126 34.2651 33.2938 34.1259 33.3844C33.9866 33.475 33.8094 33.5268 33.6069 33.5268C33.3158 33.5268 33.0753 33.4232 32.8855 33.1902C32.6956 32.9702 32.5943 32.6724 32.5943 32.3359C32.5943 31.9864 32.6956 31.7016 32.8855 31.4815C33.0753 31.2614 33.3158 31.1449 33.6069 31.1449C33.9234 31.1449 34.2651 31.3521 34.5562 31.7016L35.2144 31.0543C34.7841 30.4847 34.2398 30.2129 33.5816 30.2129C33.0373 30.2129 32.5564 30.42 32.164 30.8213C31.7716 31.2226 31.5818 31.7275 31.5818 32.3359C31.5818 32.9443 31.7843 33.4491 32.164 33.8504C32.5564 34.2517 33.0247 34.4588 33.5816 34.4588C34.3031 34.4588 34.8853 34.1352 35.2903 33.5527L34.6322 32.9054ZM38.7458 30.8601C38.6066 30.653 38.4167 30.4977 38.1762 30.3812C37.9357 30.2647 37.6573 30.1999 37.3535 30.1999C36.7966 30.1999 36.3409 30.4071 35.9992 30.8213C35.6701 31.2355 35.4929 31.7404 35.4929 32.3488C35.4929 32.9702 35.6827 33.475 36.0371 33.8634C36.4042 34.2517 36.8852 34.4459 37.4801 34.4459C38.1509 34.4459 38.7078 34.1611 39.1255 33.6174L39.1508 33.5915L38.4926 32.9443C38.4294 33.022 38.3408 33.0996 38.2648 33.1773C38.1636 33.2679 38.075 33.3456 37.9737 33.3974C37.8218 33.475 37.6573 33.5139 37.4674 33.5139C37.1889 33.5139 36.9611 33.4362 36.7839 33.2679C36.6194 33.1126 36.5181 32.9054 36.4928 32.6465H39.1382L39.1508 32.2711C39.1508 32.0122 39.1129 31.7533 39.0496 31.5203C38.9863 31.2873 38.885 31.0673 38.7458 30.8601ZM36.5561 31.8181C36.6067 31.6239 36.6953 31.4556 36.8219 31.3391C36.9611 31.1967 37.1383 31.132 37.3408 31.132C37.5813 31.132 37.7712 31.1967 37.8978 31.3391C38.0117 31.4686 38.0876 31.6239 38.1003 31.8181H36.5561ZM42.581 30.6012C42.2772 30.3423 41.8595 30.1999 41.3405 30.1999C41.0115 30.1999 40.695 30.2776 40.4166 30.42C40.1508 30.5495 39.8976 30.7825 39.7331 31.0673L39.7457 31.0802L40.3912 31.7016C40.6571 31.2744 40.9482 31.119 41.3405 31.119C41.5557 31.119 41.7203 31.1708 41.8595 31.2873C41.9861 31.4038 42.062 31.5462 42.062 31.7275V31.9216C41.8089 31.844 41.5684 31.8051 41.3279 31.8051C40.8343 31.8051 40.4292 31.9216 40.1254 32.1546C39.8217 32.3877 39.6698 32.7372 39.6698 33.1773C39.6698 33.5656 39.7964 33.8634 40.0622 34.0964C40.328 34.3165 40.6444 34.433 41.0241 34.433C41.4038 34.433 41.7582 34.2776 42.0873 34.0058V34.3423H43.0746V31.7275C43.0366 31.2485 42.8847 30.8601 42.581 30.6012ZM40.8089 32.8019C40.9229 32.7242 41.0874 32.6854 41.2899 32.6854C41.5304 32.6854 41.7836 32.7372 42.0494 32.8278V33.2291C41.8342 33.4362 41.5431 33.5398 41.1887 33.5398C41.0115 33.5398 40.8849 33.5009 40.7836 33.4232C40.695 33.3456 40.6444 33.255 40.6444 33.1255C40.6444 32.9831 40.695 32.8796 40.8089 32.8019ZM46.8844 30.6789C46.606 30.3553 46.2136 30.1999 45.72 30.1999C45.3276 30.1999 44.9985 30.3165 44.758 30.5495V30.3035H43.7834V34.3553H44.7833V32.1158C44.7833 31.8051 44.8593 31.5592 44.9985 31.3909C45.1377 31.2226 45.3276 31.132 45.5934 31.132C45.8212 31.132 45.9858 31.2097 46.1124 31.365C46.2389 31.5203 46.3022 31.7404 46.3022 31.9993V34.3553H47.3021V31.9993C47.3021 31.4427 47.1629 30.9896 46.8844 30.6789ZM22.2786 30.6012C21.9748 30.3423 21.5572 30.1999 21.0382 30.1999C20.7091 30.1999 20.3927 30.2776 20.1142 30.42C19.8484 30.5495 19.5953 30.7825 19.4307 31.0673L19.4434 31.0802L20.0889 31.7016C20.3547 31.2744 20.6458 31.119 21.0382 31.119C21.2534 31.119 21.4179 31.1708 21.5572 31.2873C21.6837 31.4038 21.7597 31.5462 21.7597 31.7275V31.9216C21.5065 31.844 21.266 31.8051 21.0256 31.8051C20.5319 31.8051 20.1269 31.9216 19.8231 32.1546C19.5193 32.3877 19.3674 32.7372 19.3674 33.1773C19.3674 33.5656 19.494 33.8634 19.7598 34.0964C20.0256 34.3165 20.3421 34.433 20.7218 34.433C21.1015 34.433 21.4559 34.2776 21.785 34.0058V34.3423H22.7723V31.7275C22.7343 31.2485 22.5824 30.8601 22.2786 30.6012ZM20.5066 32.8019C20.6205 32.7242 20.7851 32.6854 20.9876 32.6854C21.2281 32.6854 21.4812 32.7372 21.747 32.8278V33.2291C21.5318 33.4362 21.2407 33.5398 20.8863 33.5398C20.7091 33.5398 20.5825 33.5009 20.4813 33.4232C20.3927 33.3456 20.3421 33.255 20.3421 33.1255C20.3421 32.9831 20.3927 32.8796 20.5066 32.8019ZM28.1643 34.4459C26.5568 34.4459 25.2531 33.1126 25.2531 31.4686C25.2531 29.8245 26.5568 28.4912 28.1643 28.4912C29.7718 28.4912 31.0755 29.8245 31.0755 31.4686C31.0755 33.1126 29.7718 34.4459 28.1643 34.4459ZM28.1643 29.5398C27.1264 29.5398 26.2783 30.4071 26.2783 31.4686C26.2783 32.53 27.1264 33.3974 28.1643 33.3974C29.2022 33.3974 30.0502 32.53 30.0502 31.4686C30.0502 30.4071 29.2022 29.5398 28.1643 29.5398Z" fill="#0080FF"/>
</svg>
