<svg width="50" height="32" viewBox="0 0 50 32" fill="none" xmlns="http://www.w3.org/2000/svg">
<path d="M28.9169 12.5619H33.3996V17.093H35.6665C36.7262 17.0879 37.7782 16.9135 38.7816 16.5764C39.27 16.4127 39.8158 16.1859 40.2957 15.9003C39.6629 15.0836 39.3401 14.0526 39.2339 13.0343C39.1044 11.6517 39.3868 9.85118 40.3339 8.7688L40.8053 8.23024L41.3681 8.67642C42.7823 9.79974 43.9715 11.3692 44.1817 13.1592C45.8837 12.6637 47.883 12.7813 49.3843 13.6379L50.0001 13.9896L49.6763 14.6153C48.416 17.0615 45.7616 17.8205 43.1677 17.6861C39.286 27.2449 30.8355 31.7707 20.5896 31.7707C15.2957 31.7707 10.4393 29.8138 7.67445 25.1704C7.51201 24.8817 7.37398 24.5804 7.2264 24.2843C6.29205 22.2403 5.98096 20.001 6.19119 17.7753L6.25489 17.1055H10.0772V12.565H14.5599V8.1326H23.5264V3.7002H28.9063V12.5661" fill="#394D54"/>
<path d="M24.2847 0H28.1702V3.84176H24.2847V0Z" fill="#00ACD3"/>
<path d="M24.2847 4.43457H28.1702V8.27652H24.2847V4.43457Z" fill="#20C2EF"/>
<path d="M24.7615 3.52428V0.322266V3.52428ZM25.3442 3.52408V0.322266V3.52408ZM25.9327 3.52408V0.322266V3.52408ZM26.5215 3.52408V0.322266V3.52408ZM27.1103 3.52408V0.322266V3.52408ZM27.6926 3.52408V0.322266Z" fill="black"/>
<path d="M27.6926 3.52408V0.322266M24.7615 3.52428V0.322266V3.52428ZM25.3442 3.52408V0.322266V3.52408ZM25.9327 3.52408V0.322266V3.52408ZM26.5215 3.52408V0.322266V3.52408ZM27.1103 3.52408V0.322266V3.52408Z" stroke="#394D54" stroke-width="0.39144"/>
<path d="M43.442 14.2387C43.7425 11.9288 41.9943 10.1143 40.91 9.25293C39.6605 10.6813 39.4664 14.4248 41.4267 16.0007C40.3326 16.9614 38.0275 17.8323 35.6671 17.8323H6.66665C6.43726 20.2685 6.66665 32.0003 6.66665 32.0003H49.2121L49.0186 14.2767C47.1756 13.2252 44.8064 13.5605 43.442 14.2385" fill="#17B5EB"/>
<path d="M6.66675 20.9492V31.9993H49.2122V20.9492" fill="black" fill-opacity="0.17"/>
<path d="M21.8098 31.0109C19.1551 29.7653 17.698 28.0719 16.8873 26.2236L8.82324 26.5714L12.9405 31.9995L21.8098 31.0109Z" fill="#D4EDF1"/>
<path d="M43.6244 14.1521V14.1579C39.5346 19.3728 33.6678 23.9247 27.3697 26.3169C21.7515 28.4509 16.8533 28.461 13.4738 26.7473C13.1099 26.5441 12.7531 26.3185 12.3955 26.1052C9.91785 24.393 8.52247 21.5611 8.63972 17.8298H6.66675V31.9994H49.2122V13.3887H44.3106L43.6244 14.1521Z" fill="black" fill-opacity="0.085"/>
<path d="M8.94629 26.3843C11.7238 26.5345 14.6872 26.5628 17.2725 25.7607" stroke="#394D54" stroke-width="0.853355" stroke-linecap="round"/>
<path d="M20.0321 24.4314C20.0318 24.7123 19.9189 24.9816 19.718 25.1801C19.5172 25.3787 19.2448 25.4904 18.9608 25.4907C18.6766 25.4907 18.404 25.3791 18.2029 25.1805C18.0018 24.9819 17.8887 24.7125 17.8884 24.4314C17.8884 24.1502 18.0014 23.8805 18.2025 23.6817C18.4036 23.4828 18.6764 23.3711 18.9608 23.3711C19.245 23.3714 19.5175 23.4832 19.7184 23.682C19.9193 23.8808 20.0321 24.1504 20.0321 24.4314V24.4314Z" fill="#D4EDF1"/>
<path d="M19.2495 23.7252C19.1561 23.7777 19.0924 23.8785 19.0924 23.994C19.0924 24.1651 19.2326 24.3037 19.4056 24.3037C19.5245 24.3037 19.618 24.2386 19.6817 24.142C19.7201 24.2343 19.7399 24.3331 19.7401 24.4328C19.7401 24.8528 19.3961 25.1919 18.9724 25.1919C18.5488 25.1919 18.2048 24.8517 18.2048 24.4328C18.2048 24.0139 18.5488 23.6738 18.9724 23.6738C19.0676 23.6737 19.1619 23.6911 19.2506 23.7252H19.2495ZM0 21.1741H49.8641C48.7779 20.9012 46.4293 20.5442 46.8169 19.127C44.842 21.3862 40.0811 20.7017 38.8803 19.5973C37.5425 21.5164 29.7524 20.7867 29.2098 19.2823C27.5323 21.2287 22.335 21.2287 20.6574 19.2823C20.1138 20.7773 12.3248 21.508 10.9955 19.5973C9.78297 20.7017 5.02208 21.3872 3.04723 19.127C3.43476 20.5337 1.08511 20.9117 0 21.1741" fill="#394D54"/>
</svg>
