<svg width="36" height="50" viewBox="0 0 36 50" fill="none" xmlns="http://www.w3.org/2000/svg">
<g clip-path="url(#clip0_266_1356)">
<path d="M0 40.31L0.298547 39.8867L14.4179 12.7533L14.4477 12.4661L8.22375 0.625536C7.70203 -0.36629 6.23391 -0.115485 6.06291 0.994836L0 40.31Z" fill="#FFC24A"/>
<path d="M0.17627 39.9874L0.401973 39.5415L14.3735 12.6924L8.1649 0.803774C7.64894 -0.177655 6.3386 0.0725806 6.16929 1.17122L0.17627 39.9874Z" fill="#FFA712"/>
<g filter="url(#filter0_i_266_1356)">
<path d="M0.17627 39.9874L0.401973 39.5415L14.3735 12.6924L8.1649 0.803774C7.64894 -0.177655 6.3386 0.0725806 6.16929 1.17122L0.17627 39.9874Z" fill="black"/>
</g>
<path d="M18.9851 21.4222L23.6194 16.6155L18.9837 7.65289C18.5437 6.80448 17.315 6.80192 16.8797 7.65289L14.4028 12.4364V12.8437L18.985 21.4222H18.9851Z" fill="#F4BD62"/>
<path d="M18.9025 21.2223L23.408 16.5491L18.9025 7.86041C18.4747 7.03564 17.4353 6.94919 17.0121 7.77638L14.5223 12.6342L14.4478 12.8826L18.9025 21.2223Z" fill="#FFA50E"/>
<g filter="url(#filter1_i_266_1356)">
<path d="M18.9025 21.2223L23.408 16.5491L18.9025 7.86041C18.4747 7.03564 17.4353 6.94919 17.0121 7.77638L14.5223 12.6342L14.4478 12.8826L18.9025 21.2223Z" fill="black"/>
</g>
<path d="M0 40.3096L0.135281 40.1717L0.626906 39.9695L18.694 21.7395L18.9229 21.1084L14.4159 12.4102L0 40.3096Z" fill="#F6820C"/>
<path d="M19.5639 49.504L35.9151 40.2684L31.2458 11.1438C31.0996 10.2326 29.9959 9.87242 29.3518 10.5257L0 40.3103L16.2574 49.5033C16.7627 49.789 17.3318 49.9391 17.9105 49.9392C18.4893 49.9394 19.0584 49.7895 19.5639 49.504Z" fill="#FDE068"/>
<path d="M35.7685 40.1907L31.1346 11.2874C30.9898 10.383 30.0718 10.0088 29.4327 10.6573L0.181396 40.2534L16.2603 49.3553C16.7618 49.6389 17.3265 49.7878 17.9009 49.788C18.4752 49.7881 19.0401 49.6395 19.5417 49.3561L35.7687 40.1906L35.7685 40.1907Z" fill="#FCCA3F"/>
<path d="M19.5639 49.2315C19.0584 49.517 18.4893 49.6668 17.9106 49.6667C17.3319 49.6666 16.7628 49.5165 16.2575 49.2308L0.131025 40.17L0.000244141 40.3099L16.2575 49.503C16.7628 49.7887 17.3319 49.9388 17.9106 49.9389C18.4894 49.939 19.0585 49.7892 19.564 49.5037L35.9152 40.2681L35.8751 40.0186L19.564 49.2317L19.5639 49.2315Z" fill="#EEAB37"/>
</g>
<defs>
<filter id="filter0_i_266_1356" x="0.17627" y="0.19043" width="14.1973" height="39.7969" filterUnits="userSpaceOnUse" color-interpolation-filters="sRGB">
<feFlood flood-opacity="0" result="BackgroundImageFix"/>
<feBlend mode="normal" in="SourceGraphic" in2="BackgroundImageFix" result="shape"/>
<feColorMatrix in="SourceAlpha" type="matrix" values="0 0 0 0 0 0 0 0 0 0 0 0 0 0 0 0 0 0 127 0" result="hardAlpha"/>
<feOffset/>
<feGaussianBlur stdDeviation="124.619"/>
<feComposite in2="hardAlpha" operator="arithmetic" k2="-1" k3="1"/>
<feColorMatrix type="matrix" values="0 0 0 0 0 0 0 0 0 0 0 0 0 0 0 0 0 0 0.06 0"/>
<feBlend mode="normal" in2="shape" result="effect1_innerShadow_266_1356"/>
</filter>
<filter id="filter1_i_266_1356" x="14.4478" y="7.19727" width="8.96021" height="14.0254" filterUnits="userSpaceOnUse" color-interpolation-filters="sRGB">
<feFlood flood-opacity="0" result="BackgroundImageFix"/>
<feBlend mode="normal" in="SourceGraphic" in2="BackgroundImageFix" result="shape"/>
<feColorMatrix in="SourceAlpha" type="matrix" values="0 0 0 0 0 0 0 0 0 0 0 0 0 0 0 0 0 0 127 0" result="hardAlpha"/>
<feOffset dx="7.12109" dy="-64.0898"/>
<feGaussianBlur stdDeviation="24.9238"/>
<feComposite in2="hardAlpha" operator="arithmetic" k2="-1" k3="1"/>
<feColorMatrix type="matrix" values="0 0 0 0 0 0 0 0 0 0 0 0 0 0 0 0 0 0 0.09 0"/>
<feBlend mode="normal" in2="shape" result="effect1_innerShadow_266_1356"/>
</filter>
<clipPath id="clip0_266_1356">
<rect width="36" height="50" fill="white"/>
</clipPath>
</defs>
</svg>
