<svg width="50" height="18" viewBox="0 0 50 18" fill="none" xmlns="http://www.w3.org/2000/svg">
<path d="M3.7734 5.44996C3.67603 5.44996 3.65168 5.40305 3.70037 5.33267L4.2116 4.69932C4.26029 4.62895 4.38201 4.58203 4.47938 4.58203H13.1703C13.2676 4.58203 13.292 4.6524 13.2433 4.72278L12.8294 5.33267C12.7808 5.40305 12.659 5.47342 12.586 5.47342L3.7734 5.44996Z" fill="#00ACD7"/>
<path d="M0.097377 7.60817C2.03144e-07 7.60817 -0.0243443 7.56125 0.0243441 7.49088L0.535572 6.85752C0.584261 6.78715 0.705982 6.74023 0.803358 6.74023H11.9043C12.0017 6.74023 12.0504 6.81061 12.026 6.88098L11.8313 7.44396C11.8069 7.53779 11.7096 7.58471 11.6122 7.58471L0.097377 7.60817Z" fill="#00ACD7"/>
<path d="M5.98873 9.76637C5.89136 9.76637 5.86701 9.69599 5.9157 9.62562L6.25652 9.03918C6.30521 8.96881 6.40259 8.89844 6.49996 8.89844H11.3688C11.4662 8.89844 11.5149 8.96881 11.5149 9.06264L11.4662 9.62562C11.4662 9.71945 11.3688 9.78982 11.2958 9.78982L5.98873 9.76637Z" fill="#00ACD7"/>
<path d="M31.258 5.02797C29.7243 5.40329 28.6775 5.68478 27.1681 6.0601C26.803 6.15393 26.7786 6.17739 26.4622 5.82553C26.097 5.42675 25.8292 5.16872 25.318 4.93414C23.7843 4.20696 22.2993 4.41808 20.9117 5.28601C19.2563 6.31814 18.4042 7.84288 18.4286 9.74294C18.4529 11.6195 19.7918 13.1677 21.715 13.4258C23.3704 13.6369 24.7581 13.0739 25.8536 11.8776C26.0726 11.6195 26.2674 11.3381 26.5108 11.0097C25.6345 11.0097 24.539 11.0097 21.8124 11.0097C21.3012 11.0097 21.1795 10.7047 21.3499 10.3059C21.6664 9.57874 22.2506 8.35895 22.5914 7.74905C22.6645 7.6083 22.8349 7.37373 23.2 7.37373C24.4416 7.37373 29.0183 7.37373 32.0613 7.37373C32.0126 8.00708 32.0126 8.64044 31.9153 9.27379C31.6475 10.9627 30.9902 12.5109 29.919 13.8715C28.1663 16.0999 25.8779 17.4839 22.9809 17.8593C20.5952 18.1642 18.3799 17.7185 16.4324 16.3111C14.6309 14.9974 13.6084 13.2616 13.3406 11.1035C13.0242 8.54661 13.8032 6.24777 15.4099 4.23042C17.1383 2.04886 19.4267 0.664864 22.2263 0.172255C24.5146 -0.226524 26.7056 0.0315101 28.6775 1.32168C29.9677 2.14269 30.8928 3.26865 31.5014 4.62919C31.6475 4.84031 31.5501 4.9576 31.258 5.02797Z" fill="#00ACD7"/>
<path d="M39.3158 18.0006C37.1005 17.9537 35.0799 17.3438 33.3758 15.9363C31.9395 14.74 31.0388 13.2152 30.7466 11.409C30.3084 8.75829 31.0631 6.41253 32.7185 4.32481C34.4956 2.07288 36.6379 0.9 39.5349 0.407391C42.018 -0.0148451 44.355 0.21973 46.473 1.60373C48.3962 2.87044 49.589 4.58284 49.9055 6.83477C50.3194 10.0015 49.3699 12.5819 47.1059 14.7869C45.4992 16.3585 43.5273 17.3438 41.2633 17.7894C40.606 17.9067 39.9487 17.9302 39.3158 18.0006ZM45.1097 8.52371C45.0854 8.21876 45.0854 7.98419 45.0367 7.74961C44.5985 5.42731 42.3831 4.11369 40.0704 4.62975C37.8064 5.12236 36.3458 6.50636 35.8102 8.71137C35.372 10.5411 36.2971 12.3942 38.0499 13.1449C39.3888 13.7078 40.7277 13.6375 42.018 13.0041C43.9412 12.0423 44.988 10.5411 45.1097 8.52371Z" fill="#00ACD7"/>
</svg>
