<svg width="50" height="40" viewBox="0 0 50 40" fill="none" xmlns="http://www.w3.org/2000/svg">
<g clip-path="url(#clip0_266_1192)">
<path d="M31.7265 11.0152H33.2523L37.599 6.69411L37.8128 4.86068C29.725 -2.23552 17.3785 -1.4709 10.2401 6.56911C8.2554 8.80255 6.81558 11.4589 6.03174 14.3341C6.51587 14.1362 7.0524 14.1049 7.5575 14.2424L16.2489 12.8173C16.2489 12.8173 16.6911 12.0902 16.9195 12.1361C20.7863 7.91501 27.2938 7.42332 31.7579 11.0152H31.7265Z" fill="#EA4335"/>
<path d="M43.7901 14.3338C42.7904 10.6774 40.7407 7.38971 37.8883 4.875L31.7894 10.9378C34.3652 13.0296 35.8323 16.1818 35.7694 19.4883V20.5654C38.7685 20.5654 41.1976 22.9822 41.1976 25.9615C41.1976 28.9429 38.7664 31.3576 35.7694 31.3576H24.9109L23.8274 32.4494V38.9226L24.9109 39.9997H35.7694C41.994 40.0477 47.5165 36.037 49.365 30.1284C51.2093 24.2177 48.9458 17.8007 43.7901 14.3338Z" fill="#4285F4"/>
<path d="M14.0378 39.9399H24.8962V31.2999H14.0378C13.2644 31.2999 12.4994 31.1353 11.7952 30.8145L10.2695 31.2832L5.8934 35.6043L5.51196 37.121C7.96617 38.9628 10.9611 39.9524 14.0378 39.9399Z" fill="#34A853"/>
<path d="M14.0378 11.9093C8.00601 11.9447 2.66376 15.7845 0.739798 21.466C-1.18417 27.1476 0.73351 33.4187 5.51408 37.0731L11.812 30.8123C9.07907 29.5852 7.86559 26.3892 9.10003 23.6724C10.3345 20.9556 13.5495 19.7492 16.2824 20.9764C17.4854 21.5181 18.4495 22.4765 18.9944 23.6724L25.2923 17.4116C22.6118 13.9302 18.4474 11.8947 14.0378 11.9093Z" fill="#FBBC05"/>
</g>
<defs>
<clipPath id="clip0_266_1192">
<rect width="50" height="40" fill="white"/>
</clipPath>
</defs>
</svg>
