<svg width="44" height="50" viewBox="0 0 44 50" fill="none" xmlns="http://www.w3.org/2000/svg">
<path d="M4.50173 37.4827L2.73682 36.4734L22.3981 2.74512L24.163 3.75436L4.50173 37.4827Z" fill="#E535AB"/>
<path d="M2.33252 33.7793H41.6551V35.7978H2.33252V33.7793Z" fill="#E535AB"/>
<path d="M22.7792 46.1605L3.1106 34.9129L4.12957 33.1648L23.7982 44.4125L22.7792 46.1605ZM39.8653 16.8463L20.1967 5.59865L21.2157 3.85059L40.8843 15.0982L39.8653 16.8463Z" fill="#E535AB"/>
<path d="M4.13494 16.8383L3.11597 15.0904L22.7846 3.84277L23.8036 5.59072L4.13494 16.8383Z" fill="#E535AB"/>
<path d="M39.5026 37.4836L19.8414 3.75534L21.6063 2.74609L41.2675 36.4744L39.5026 37.4836ZM3.8916 13.7526H5.92955V36.2479H3.8916V13.7526Z" fill="#E535AB"/>
<path d="M38.0703 13.752H40.1083V36.2472H38.0703V13.752Z" fill="#E535AB"/>
<path d="M22.4323 45.3065L21.5422 43.7795L38.6487 33.9971L39.5388 35.524L22.4323 45.3065Z" fill="#E535AB"/>
<path d="M42.8091 36.9041C41.6306 38.9348 39.0033 39.6279 36.9531 38.4606C34.9029 37.2933 34.2031 34.6911 35.3817 32.6604C36.5602 30.6298 39.1875 29.9367 41.2377 31.104C43.3002 32.2835 44 34.8735 42.8091 36.9041ZM8.60601 17.3394C7.42744 19.37 4.8002 20.0631 2.74998 18.8958C0.699757 17.7285 -1.97291e-05 15.1263 1.17855 13.0957C2.35712 11.065 4.98435 10.3719 7.03458 11.5392C9.0848 12.7187 9.78458 15.3087 8.60601 17.3394ZM1.19083 36.9041C0.0122571 34.8735 0.712034 32.2835 2.76226 31.104C4.81248 29.9367 7.42744 30.6298 8.61828 32.6604C9.79686 34.6911 9.09708 37.2811 7.04685 38.4606C4.98435 39.6279 2.3694 38.9348 1.19083 36.9041ZM35.394 17.3394C34.2154 15.3087 34.9152 12.7187 36.9654 11.5392C39.0156 10.3719 41.6306 11.065 42.8214 13.0957C44 15.1263 43.3002 17.7163 41.25 18.8958C39.1998 20.0631 36.5725 19.37 35.394 17.3394ZM22 48.8084C19.6306 48.8084 17.7154 46.9115 17.7154 44.5647C17.7154 42.2179 19.6306 40.321 22 40.321C24.3694 40.321 26.2846 42.2179 26.2846 44.5647C26.2846 46.8993 24.3694 48.8084 22 48.8084ZM22 9.67881C19.6306 9.67881 17.7154 7.78191 17.7154 5.43511C17.7154 3.0883 19.6306 1.19141 22 1.19141C24.3694 1.19141 26.2846 3.0883 26.2846 5.43511C26.2846 7.78191 24.3694 9.67881 22 9.67881Z" fill="#E535AB"/>
</svg>
