<svg width="42" height="42" viewBox="0 0 42 42" fill="none" xmlns="http://www.w3.org/2000/svg">
<g clip-path="url(#clip0_266_1100)">
<rect width="42" height="42" fill="#F0DB4F"/>
<path d="M38.8396 29.4366C38.4058 26.7041 36.6424 24.4099 31.4198 22.2695C29.6057 21.427 27.5832 20.8236 26.9804 19.4345C26.7663 18.6261 26.7381 18.1707 26.8733 17.6811C27.2621 16.0929 29.1381 15.5976 30.6254 16.053C31.5832 16.3775 32.4902 17.1233 33.0367 18.313C35.5945 16.6394 35.5888 16.6508 37.3748 15.5009C36.7212 14.4762 36.3719 14.0037 35.9438 13.5654C34.4057 11.8291 32.31 10.9353 28.9578 11.0036C28.3776 11.0776 27.7917 11.1573 27.2114 11.2314C25.5382 11.6583 23.9437 12.5464 23.0085 13.7362C20.2029 16.9525 21.0029 22.5826 24.417 24.8996C27.7804 27.4499 32.7212 28.0306 33.3522 30.4158C33.9663 33.3362 31.2283 34.2811 28.5071 33.9453C26.5015 33.5241 25.3861 32.4937 24.1804 30.6208C21.9607 31.9187 21.9607 31.9187 19.679 33.2451C20.2198 34.4406 20.7888 34.9814 21.6959 36.0175C25.9889 40.4179 36.7325 40.2016 38.6593 33.5411C38.7382 33.3134 39.2565 31.7877 38.8396 29.4366ZM16.6423 11.3565H11.0986C11.0986 16.1953 11.0761 21 11.0761 25.8388C11.0761 28.9186 11.2339 31.7422 10.7381 32.6075C9.92685 34.3095 7.82543 34.099 6.86768 33.7687C5.89303 33.2848 5.39726 32.596 4.82261 31.6226C4.66486 31.3437 4.54655 31.1274 4.50706 31.1103C3.00288 32.0382 1.50423 32.9717 0 33.8997C0.749354 35.4538 1.85353 36.803 3.26762 37.6796C5.3803 38.9605 8.21974 39.3533 11.1888 38.6645C13.1212 38.0952 14.7888 36.9169 15.662 35.1237C16.924 32.7726 16.6536 29.9262 16.6423 26.7781C16.6705 21.6433 16.6423 16.5084 16.6423 11.3565Z" fill="#323330"/>
</g>
<defs>
<clipPath id="clip0_266_1100">
<rect width="42" height="42" fill="white"/>
</clipPath>
</defs>
</svg>
