<svg width="50" height="50" viewBox="0 0 50 50" fill="none" xmlns="http://www.w3.org/2000/svg">
<g clip-path="url(#clip0_266_1377)">
<path d="M24.8437 0.743937C24.3965 0.770206 23.9592 0.886039 23.5577 1.08456L6.14367 9.39081C5.23429 9.82363 4.57335 10.6471 4.34679 11.6283L0.0842896 30.2705C-0.118835 31.1455 0.0452271 32.0627 0.55304 32.8127C0.612415 32.9033 0.674915 32.9908 0.74054 33.0752L12.7718 48.0346C13.4077 48.8158 14.3624 49.2642 15.3687 49.2596H34.6655C35.6749 49.2611 36.6312 48.7908 37.2655 48.0205L49.2905 33.058C49.9218 32.2768 50.1577 31.2455 49.9155 30.2674L45.6249 11.6096C45.3984 10.6283 44.7343 9.80488 43.828 9.37206L26.4421 1.08612C25.9411 0.839029 25.3862 0.721385 24.828 0.743937H24.8437Z" fill="#326CE5"/>
<path d="M25.0031 7.09668C24.4031 7.13887 23.9484 7.65293 23.9796 8.25293V8.54668C24.0078 8.87949 24.0578 9.20918 24.1234 9.53574C24.2192 10.1611 24.2537 10.7943 24.2265 11.4264C24.1671 11.6342 24.0484 11.8217 23.8859 11.9654L23.8624 12.4061C23.2296 12.4592 22.6015 12.5561 21.9828 12.6967C19.3796 13.2842 17.0093 14.6342 15.1796 16.5795L14.8046 16.3139C14.5984 16.3764 14.3765 16.3529 14.1874 16.2514C13.6803 15.876 13.2109 15.4521 12.7859 14.9857C12.5724 14.7307 12.3444 14.4881 12.1031 14.2592L11.8718 14.0748C11.6656 13.9092 11.4124 13.8139 11.1484 13.8014C10.9908 13.793 10.8335 13.8221 10.6893 13.8862C10.5451 13.9502 10.4181 14.0475 10.3187 14.1701C9.96556 14.6654 10.0812 15.3514 10.5749 15.7061L10.7906 15.8779C11.0681 16.0626 11.3561 16.2311 11.6531 16.3826C12.2062 16.6904 12.7281 17.0514 13.2124 17.4764C13.3363 17.6531 13.4083 17.8609 13.4203 18.0764L13.7609 18.3889C11.9218 21.1482 11.1671 24.4904 11.639 27.7732L11.2015 27.8982C11.0874 28.0795 10.9359 28.2342 10.7546 28.3482C10.1442 28.5112 9.5194 28.6143 8.889 28.6561C8.55444 28.6628 8.22056 28.6889 7.889 28.7342L7.61244 28.7967H7.58119C7.38926 28.8233 7.2085 28.9027 7.05901 29.026C6.90953 29.1493 6.79719 29.3116 6.73451 29.495C6.67183 29.6783 6.66126 29.8755 6.70399 30.0644C6.74671 30.2534 6.84105 30.4269 6.9765 30.5654C7.11322 30.7033 7.28557 30.8004 7.47431 30.8459C7.66304 30.8915 7.86072 30.8836 8.04525 30.8232H8.06556L8.34681 30.792C8.664 30.6982 8.9765 30.5826 9.28119 30.4514C9.86713 30.217 10.4749 30.0373 11.0968 29.9201C11.3124 29.9326 11.5187 30.0061 11.6937 30.1311L12.1624 30.0529C13.1781 33.2045 15.3124 35.8748 18.1624 37.5576L17.9718 37.9561C18.0593 38.1389 18.0921 38.342 18.0656 38.5436C17.8078 39.1404 17.4921 39.7123 17.1234 40.2498C16.9211 40.5164 16.7343 40.7945 16.564 41.0826L16.4312 41.3639C16.3348 41.531 16.2865 41.7216 16.2916 41.9144C16.2968 42.1073 16.3551 42.295 16.4601 42.4568C16.5652 42.6187 16.713 42.7483 16.8871 42.8314C17.0612 42.9146 17.2549 42.948 17.4468 42.9279C17.6392 42.9063 17.8217 42.8318 17.9743 42.7126C18.1268 42.5934 18.2433 42.4343 18.3109 42.2529L18.4406 41.9873C18.5593 41.6748 18.6593 41.3561 18.7406 41.0342C19.0171 40.3514 19.1671 39.6186 19.5453 39.1654C19.6688 39.0493 19.8246 38.973 19.9921 38.9467L20.2265 38.5201C23.3159 39.7076 26.7344 39.7159 29.8296 38.5436L30.0374 38.942C30.2499 38.9732 30.4406 39.0904 30.5687 39.2623C30.8624 39.8217 31.0999 40.4076 31.2812 41.0123C31.3638 41.3361 31.465 41.6548 31.5843 41.967L31.714 42.2326C31.7822 42.4133 31.8991 42.5716 32.0517 42.69C32.2043 42.8084 32.3866 42.8823 32.5786 42.9035C32.7706 42.9247 32.9647 42.8924 33.1394 42.8101C33.3142 42.7278 33.4627 42.5988 33.5687 42.4373C33.6736 42.2749 33.7315 42.0865 33.7359 41.8932C33.7403 41.6998 33.6911 41.5091 33.5937 41.342L33.4578 41.0607C33.2874 40.7736 33.1006 40.4966 32.8984 40.2311C32.539 39.7123 32.2296 39.1592 31.9609 38.5795C31.9358 38.4735 31.9323 38.3636 31.9505 38.2562C31.9688 38.1488 32.0084 38.0462 32.0671 37.9545C32.0005 37.8182 31.9425 37.6778 31.8937 37.5342C34.7374 35.8389 36.8624 33.1592 37.8671 30.0029L38.3109 30.0811C38.4703 29.9357 38.6796 29.8592 38.8937 29.8654C39.514 29.9842 40.1218 30.1779 40.7093 30.3967C41.014 30.5373 41.3265 30.6561 41.6437 30.7561C41.7187 30.7764 41.8281 30.7936 41.9124 30.8139H41.9328C42.1172 30.8734 42.3145 30.8806 42.5028 30.8347C42.691 30.7887 42.8629 30.6914 42.9991 30.5535C43.1353 30.4157 43.2306 30.2427 43.2743 30.0539C43.3181 29.8651 43.3085 29.6679 43.2468 29.4842C43.1837 29.3006 43.0707 29.1383 42.9206 29.0152C42.7705 28.8922 42.5892 28.8132 42.3968 28.7873L42.0937 28.7154C41.7621 28.6702 41.4282 28.6441 41.0937 28.6373C40.4624 28.5967 39.8374 28.4936 39.2281 28.3295C39.0406 28.2248 38.8843 28.0686 38.7781 27.8795L38.3562 27.7545C38.806 24.4732 38.0354 21.141 36.1906 18.3904L36.5593 18.0498C36.5437 17.8357 36.614 17.6232 36.7531 17.4592C37.2328 17.0467 37.7531 16.6826 38.2999 16.3717C38.5969 16.2201 38.8848 16.0516 39.1624 15.867L39.3906 15.6826C39.5585 15.5784 39.6935 15.4287 39.78 15.2509C39.8664 15.0731 39.9008 14.8745 39.879 14.678C39.8573 14.4815 39.7803 14.2952 39.6571 14.1406C39.5339 13.986 39.3694 13.8695 39.1828 13.8045C38.9962 13.7396 38.7951 13.7287 38.6027 13.7732C38.4102 13.8178 38.2343 13.9158 38.0953 14.0561L37.864 14.2404C37.6227 14.4694 37.3947 14.712 37.1812 14.967C36.7687 15.4389 36.3124 15.8686 35.8171 16.2529C35.6173 16.3343 35.3986 16.3581 35.1859 16.3217L34.7906 16.6029C32.5093 14.2123 29.4359 12.7279 26.1421 12.4311C26.1421 12.2748 26.1218 12.0404 26.1187 11.967C25.9421 11.8451 25.8187 11.6592 25.7781 11.4482C25.7564 10.8172 25.7962 10.1856 25.8968 9.5623C25.964 9.23418 26.0109 8.90605 26.0406 8.57324V8.26074C26.0718 7.66074 25.6187 7.14668 25.0171 7.10449L25.0031 7.09668ZM23.6999 15.1686L23.3874 20.6264H23.364C23.3484 20.9639 23.1499 21.2514 22.8453 21.4139C22.5406 21.5764 22.1796 21.5279 21.9078 21.3295L17.4312 18.1576C18.856 16.7581 20.6435 15.7846 22.5921 15.3467C22.9578 15.2686 23.3265 15.2092 23.6968 15.1686H23.6999ZM26.3062 15.1686C28.6578 15.4607 30.8468 16.517 32.5406 18.1748L28.1062 21.3264C27.8328 21.5451 27.4578 21.5889 27.1406 21.4389C26.8234 21.2889 26.6203 20.9701 26.6156 20.6201L26.3062 15.1686ZM15.8062 20.2107L19.8999 23.8639V23.8873C20.1546 24.1092 20.2656 24.4545 20.1906 24.7842C20.1156 25.1139 19.8624 25.3748 19.539 25.4639V25.4795L14.2859 26.9904C14.0259 24.6237 14.5614 22.2378 15.8078 20.2092L15.8062 20.2107ZM34.1703 20.2107C35.414 22.2342 35.964 24.6076 35.7359 26.9717L30.4749 25.4561V25.4357C30.1468 25.3467 29.8968 25.0857 29.8234 24.7561C29.7499 24.4264 29.8593 24.0842 30.114 23.8592L34.1765 20.2232L34.1703 20.2107ZM24.164 24.1482H25.839L26.8624 25.4482L26.4906 27.0732L24.9859 27.7967L23.4781 27.0732L23.1234 25.4482L24.164 24.1482ZM29.5296 28.5826C29.5999 28.5748 29.6859 28.5748 29.7406 28.5826L35.1578 29.4967C34.3765 31.7467 32.8343 33.6686 30.8218 34.9545L28.7281 29.8857C28.6705 29.7498 28.6464 29.6019 28.6579 29.4547C28.6694 29.3075 28.7161 29.1652 28.794 29.0398C28.872 28.9143 28.9789 28.8095 29.1058 28.734C29.2328 28.6585 29.376 28.6146 29.5234 28.6061L29.5296 28.5826ZM20.4312 28.6061C20.7374 28.6107 21.0203 28.7686 21.1874 29.0248C21.3546 29.2811 21.3812 29.6029 21.2609 29.8842V29.9045L19.1796 34.9326C17.1874 33.6561 15.6749 31.7576 14.8703 29.5311L20.2406 28.6201C20.2999 28.6139 20.3609 28.6139 20.4218 28.6201L20.4312 28.6061ZM24.9687 30.7936C25.1394 30.7882 25.3083 30.8303 25.4564 30.9153C25.6046 31.0003 25.7262 31.1247 25.8078 31.2748H25.8281L28.4749 36.0514L27.4171 36.3639C25.4703 36.8092 23.4374 36.7045 21.5453 36.0607L24.2015 31.2842C24.3624 31.0029 24.6593 30.8311 24.9828 30.8232L24.9687 30.7936Z" fill="white" stroke="white" stroke-width="0.11"/>
</g>
<defs>
<clipPath id="clip0_266_1377">
<rect width="50" height="50" fill="white"/>
</clipPath>
</defs>
</svg>
