<svg width="50" height="50" viewBox="0 0 50 50" fill="none" xmlns="http://www.w3.org/2000/svg">
<path fill-rule="evenodd" clip-rule="evenodd" d="M34.0854 39.1172C34.1515 38.9902 34.2147 38.8781 34.2687 38.7621C34.3026 38.6879 34.355 38.673 34.4288 38.675C34.8714 38.6875 35.314 38.7011 35.7569 38.7054C36.1331 38.7093 36.5101 38.7023 36.8866 38.698C37.3108 38.6929 37.7351 38.6707 38.1589 38.6828C38.7233 38.6992 39.2733 38.8097 39.7839 39.0609C40.3937 39.3613 40.855 39.8187 41.1694 40.4214C41.3702 40.8062 41.4866 41.2144 41.5331 41.648C41.6003 42.2761 41.5562 42.8898 41.3569 43.4906C41.1101 44.2351 40.6413 44.805 39.9901 45.232C39.489 45.5605 38.9394 45.7547 38.3503 45.8656C37.7269 45.9832 37.1015 45.9453 36.4761 45.9472C35.7901 45.95 35.1046 45.9351 34.4187 45.9273C34.2987 45.9261 34.2815 45.9035 34.3132 45.789L34.3425 45.6836C34.4093 45.4734 34.4452 45.464 34.6585 45.4289C34.8062 45.405 34.9593 45.3496 35.0831 45.2675C35.155 45.2199 35.1847 45.0957 35.2128 45C35.237 44.9164 35.2382 44.8246 35.239 44.7363C35.2487 43.3984 35.2589 42.0609 35.2644 40.7238C35.2655 40.3859 35.2577 40.0472 35.239 39.7097C35.2257 39.4734 35.0995 39.3117 34.8183 39.2558C34.5995 39.2125 34.3792 39.1789 34.1593 39.1402L34.0854 39.1172ZM40.3651 42.3566C40.3354 42.0902 40.321 41.8215 40.2733 41.559C40.1593 40.9289 39.8835 40.38 39.3991 39.95C38.6159 39.255 37.6729 39.148 36.6847 39.2308C36.4597 39.2496 36.4112 39.3265 36.4077 39.5578C36.4022 39.8859 36.3968 40.214 36.3964 40.5422C36.3948 41.5828 36.3948 42.6234 36.3964 43.664C36.3968 43.9601 36.3999 44.2562 36.4085 44.5515C36.4179 44.8539 36.5276 45.1097 36.8237 45.2269C37.2905 45.4117 37.7815 45.4336 38.2714 45.3582C39.0538 45.2382 39.6011 44.7824 39.9683 44.0992C40.2589 43.557 40.3409 42.9652 40.3651 42.3566ZM42.2671 45.9C42.2577 45.7379 42.3241 45.6039 42.4062 45.4808C42.4284 45.4476 42.505 45.4492 42.5577 45.4386L43.0054 45.35C43.1636 45.3164 43.2468 45.2101 43.269 45.055C43.2839 44.9527 43.2979 44.8492 43.2991 44.7457C43.3089 43.9265 43.3183 43.1074 43.3222 42.2882C43.3261 41.4679 43.3229 40.6476 43.3229 39.8273L43.3194 39.6707C43.3034 39.407 43.1761 39.2703 42.9144 39.2316L42.3468 39.1453C42.2769 39.1359 42.2515 39.1023 42.2769 39.0402C42.3206 38.9343 42.3624 38.8246 42.4241 38.7293C42.4472 38.6941 42.5249 38.6804 42.5772 38.6816C42.8483 38.6855 43.1194 38.7058 43.3905 38.7054L45.7503 38.6914C46.205 38.691 46.644 38.7703 47.0519 38.9879C47.5007 39.2269 47.7519 39.5968 47.8237 40.1007C47.8987 40.63 47.7382 41.0761 47.3515 41.4304C47.1925 41.5765 46.9866 41.6718 46.8022 41.7906L46.7421 41.8281C46.9132 41.891 47.0761 41.9453 47.2347 42.0101C47.6987 42.2004 48.0679 42.4976 48.2632 42.9722C48.4175 43.3468 48.4175 43.7375 48.3261 44.1257C48.1839 44.7336 47.7835 45.1379 47.2628 45.4437C46.7741 45.7308 46.2452 45.898 45.6819 45.9261C45.1624 45.9523 44.6405 45.9425 44.1198 45.9484L43.8183 45.95C43.3167 45.9386 42.8147 45.9257 42.3128 45.9125L42.2671 45.9ZM44.43 43.5215H44.4351C44.4351 43.7785 44.4315 44.0355 44.4362 44.2925C44.4394 44.459 44.4335 44.63 44.4694 44.7902C44.5233 45.0297 44.6327 45.2457 44.9015 45.3144C45.2644 45.4078 45.6351 45.4265 46.0022 45.3629C46.462 45.2828 46.8288 45.0523 47.03 44.6144C47.1792 44.289 47.2015 43.9441 47.1503 43.5918C47.0823 43.1277 46.8358 42.791 46.4261 42.5703C46.1573 42.4254 45.8706 42.3367 45.5651 42.325C45.2229 42.3121 44.8804 42.3113 44.5382 42.3007C44.4421 42.298 44.4288 42.3468 44.4292 42.4257C44.4312 42.7906 44.43 43.1558 44.43 43.5215ZM45.1585 41.7734C45.3456 41.764 45.5573 41.7613 45.7679 41.7402C46.171 41.7 46.455 41.4972 46.603 41.1117C46.6784 40.916 46.6753 40.7144 46.6772 40.5109C46.6831 39.9808 46.3737 39.5465 45.8702 39.3668C45.4815 39.2281 45.0808 39.2257 44.6776 39.2367C44.5144 39.241 44.4413 39.3125 44.439 39.4769L44.4147 41.6211C44.4136 41.7062 44.4503 41.7429 44.5331 41.7457L45.1585 41.7734Z" fill="#94795D"/>
<path fill-rule="evenodd" clip-rule="evenodd" d="M4.11827 45.4875L4.08975 45.8562C3.82413 45.8562 3.57921 45.8543 3.33429 45.857C2.87296 45.8617 2.41163 45.8691 1.94991 45.8758L1.90538 45.8785C1.83936 45.8707 1.71944 45.8707 1.71632 45.8512C1.69679 45.7414 1.70304 45.6262 1.70811 45.5125C1.7085 45.4996 1.75343 45.4832 1.7796 45.477L2.13858 45.3969C2.36241 45.3387 2.44132 45.2422 2.45186 45.0109C2.46397 44.7504 2.47608 44.4895 2.47725 44.2289C2.48077 43.5875 2.47686 42.9469 2.4796 42.3055C2.47999 42.1555 2.42804 42.0437 2.28819 41.9828C2.12179 41.9094 1.9546 41.8375 1.78624 41.7695C1.70655 41.7375 1.60304 41.7199 1.61241 41.6129C1.62179 41.5039 1.72218 41.4754 1.81671 41.4539C2.20811 41.3645 2.59991 41.2773 2.99014 41.182C3.11593 41.1512 3.23624 41.0992 3.38663 41.0469C3.39444 41.1281 3.40889 41.2055 3.40733 41.2828L3.38429 41.6504C3.38389 41.6918 3.40538 41.7473 3.43624 41.7703C3.45499 41.7848 3.51788 41.7586 3.54913 41.7344C3.88272 41.4805 4.23585 41.2613 4.63858 41.1336C5.26241 40.9355 5.79796 41.1191 6.17296 41.657C6.30499 41.8465 6.30538 41.8465 6.48858 41.7141C6.80304 41.4855 7.13194 41.284 7.49991 41.1512C8.30772 40.8594 9.0839 41.2297 9.36475 42.0434C9.4671 42.3387 9.50616 42.6438 9.50538 42.9555L9.49796 45.025C9.49757 45.1957 9.55421 45.293 9.71671 45.3461C9.89913 45.4059 10.0882 45.4469 10.2937 45.5008L10.246 45.8566C10.0124 45.8566 9.79757 45.8551 9.58272 45.857C9.05772 45.8617 8.53272 45.8645 8.00811 45.8766C7.91671 45.8789 7.89288 45.8562 7.88819 45.7707C7.87296 45.4969 7.87061 45.4973 8.12843 45.4355L8.21514 45.4133C8.4671 45.3445 8.55108 45.2672 8.55304 45.0117C8.55889 44.2781 8.57413 43.5426 8.53702 42.8105C8.49835 42.0512 7.89561 41.6469 7.15968 41.8414C6.91944 41.9047 6.70186 42.0156 6.49952 42.1594C6.43116 42.2082 6.41827 42.2645 6.42374 42.35C6.44444 42.6734 6.45733 42.9973 6.46007 43.3211C6.46475 43.8879 6.45772 44.4547 6.46007 45.0219C6.46085 45.2516 6.53936 45.3395 6.76632 45.3926L7.10343 45.4703L7.16593 45.4844C7.17061 45.5922 7.17491 45.7 7.16983 45.8078C7.16671 45.8754 7.11436 45.8813 7.05577 45.8801C6.72803 45.8719 6.39991 45.8609 6.07218 45.8617C5.67335 45.8625 5.27491 45.8738 4.87647 45.8809H4.78272C4.78272 45.7664 4.77725 45.657 4.78663 45.548C4.78858 45.5219 4.83468 45.4852 4.86632 45.477L5.25929 45.3937C5.42608 45.3527 5.50577 45.2672 5.51514 45.0977C5.55968 44.3125 5.59171 43.527 5.51788 42.7422C5.50343 42.5898 5.45382 42.4352 5.39054 42.2949C5.18936 41.8504 4.73663 41.6648 4.21436 41.7984C3.96632 41.8617 3.74249 41.9754 3.53077 42.1187C3.43077 42.1867 3.38311 42.2766 3.38311 42.3902C3.38311 43.1734 3.38585 43.9566 3.38819 44.7395L3.39249 45.0414C3.39718 45.252 3.48663 45.3629 3.69561 45.4082C3.82999 45.4387 3.96593 45.4594 4.11827 45.4875Z" fill="#50382B"/>
<path fill-rule="evenodd" clip-rule="evenodd" d="M27.7347 41.1266C27.7953 41.4211 27.7941 41.686 27.5777 41.8868C27.3628 42.0864 27.091 42.0192 26.8257 41.9747C26.8503 42.1145 26.8777 42.2333 26.891 42.3536C26.9875 43.2477 26.6027 43.9114 25.7734 44.2907C25.4601 44.4336 25.1277 44.4868 24.7882 44.5141C24.6195 44.5274 24.4718 44.6563 24.4558 44.795C24.4394 44.9356 24.5277 45.0801 24.7042 45.1223C24.9125 45.1719 25.1296 45.186 25.3433 45.2106C25.8019 45.2629 26.2656 45.2868 26.7187 45.3688C27.4039 45.4922 27.7863 46.0903 27.6656 46.7786C27.5582 47.3911 27.2035 47.8368 26.7089 48.1786C25.8757 48.7559 24.9617 48.9247 23.9882 48.6301C23.4316 48.4614 23.039 48.0954 22.9035 47.5032C22.8355 47.2067 22.9078 46.9383 23.1308 46.7372C23.396 46.4989 23.6847 46.2864 23.9625 46.0614L24.0523 45.9711L23.9492 45.8989C23.666 45.7645 23.4394 45.5805 23.3515 45.261C23.3214 45.1528 23.3527 45.0817 23.4445 45.0262C23.6007 44.9321 23.7562 44.8364 23.9105 44.7391C23.9832 44.6938 24.055 44.6469 24.1226 44.5946C24.2148 44.5243 24.2066 44.4719 24.0964 44.4313C23.8402 44.3368 23.6124 44.1997 23.4359 43.9887C23.141 43.6368 23.0574 43.2176 23.0816 42.7751C23.1195 42.0836 23.4949 41.6282 24.105 41.3352C24.8304 40.9872 25.5582 40.9653 26.2976 41.2825C26.571 41.3997 26.8593 41.4247 27.1527 41.4043C27.3718 41.3887 27.5632 41.3059 27.7347 41.1266ZM25.0617 46.0801C24.5171 46.0754 24.3464 46.1426 24.0269 46.468C23.6691 46.8329 23.671 47.3387 24.0281 47.7051C24.2992 47.9829 24.6375 48.1129 25.0136 48.152C25.4531 48.1973 25.8859 48.179 26.2851 47.959C26.7109 47.7235 26.9226 47.286 26.8269 46.8454C26.7476 46.4817 26.4796 46.3153 26.1535 46.2196C25.7824 46.111 25.3988 46.0903 25.0617 46.0801ZM23.9921 42.6004C24.0121 42.7516 24.0203 42.9047 24.0539 43.0528C24.141 43.4364 24.3078 43.7735 24.6894 43.9442C25.1375 44.1454 25.7097 44.059 25.9058 43.4301C26.0402 42.9993 26.0238 42.5715 25.8617 42.1512C25.7894 41.9637 25.673 41.8051 25.5062 41.6887C25.1171 41.4172 24.4152 41.3813 24.1292 41.9813C24.0363 42.1762 23.9999 42.3836 23.9921 42.6004Z" fill="#4F382B"/>
<path fill-rule="evenodd" clip-rule="evenodd" d="M18.496 41.0307C18.5104 41.0975 18.5393 41.1733 18.5401 41.2495C18.5413 41.3944 18.5257 41.5393 18.5175 41.6842V41.81L18.6401 41.7163C18.9761 41.4397 19.337 41.2041 19.7573 41.0772C20.5159 40.8487 21.2737 41.2639 21.521 42.0366C21.6147 42.3303 21.6518 42.6323 21.6554 42.9393C21.6632 43.6213 21.6679 44.3034 21.6749 44.9854C21.6772 45.2303 21.7054 45.2741 21.937 45.3448C22.0683 45.385 22.2038 45.4131 22.3393 45.4342C22.414 45.4459 22.446 45.4752 22.4421 45.5483L22.4429 45.6155C22.4401 45.8979 22.4206 45.9108 22.1468 45.91C21.4913 45.9088 20.8362 45.9127 20.1808 45.9182C19.9854 45.9198 19.9851 45.9256 19.9655 45.7327L19.9616 45.6217C19.9737 45.4553 19.9776 45.4569 20.1413 45.4327C20.2515 45.4163 20.3608 45.3909 20.4683 45.3627C20.5788 45.3342 20.6319 45.2526 20.6468 45.1432C20.6542 45.0877 20.664 45.0323 20.6636 44.9768C20.6542 44.2315 20.6663 43.4854 20.6257 42.7413C20.5929 42.1393 20.1335 41.7807 19.5292 41.8217C19.2327 41.8424 18.9647 41.9413 18.7202 42.112C18.5589 42.2248 18.5265 42.3877 18.5272 42.5631C18.5304 43.26 18.537 43.9569 18.5444 44.6541C18.546 44.8069 18.5503 44.9596 18.5647 45.1112C18.58 45.2768 18.6382 45.3436 18.8007 45.3795C18.9561 45.4139 19.1147 45.4338 19.2808 45.4616L19.2948 45.5897C19.3003 45.8885 19.269 45.9108 18.9788 45.9096C18.3011 45.9069 17.6233 45.9112 16.946 45.9186C16.8393 45.9202 16.794 45.8866 16.7968 45.7827L16.7952 45.7381C16.7776 45.469 16.7854 45.4588 17.0401 45.4151L17.1604 45.3909C17.4362 45.3288 17.5069 45.2553 17.5108 44.9752C17.5237 44.0881 17.5284 43.2014 17.5374 42.3143C17.5386 42.187 17.4905 42.0881 17.3718 42.0354C17.2054 41.962 17.0374 41.892 16.869 41.8229C16.7761 41.7846 16.6698 41.7604 16.6663 41.6319C16.664 41.5413 16.7608 41.4612 16.8933 41.4342C17.1593 41.3803 17.4276 41.3354 17.6905 41.2694C17.9522 41.2041 18.2093 41.1166 18.496 41.0307Z" fill="#4F372B"/>
<path fill-rule="evenodd" clip-rule="evenodd" d="M33.1505 43.3474C33.138 44.1759 32.9227 44.8458 32.3368 45.3485C31.5946 45.9864 30.4368 46.2032 29.4903 45.7263C29.0864 45.5228 28.7895 45.2107 28.5962 44.8056C28.2997 44.1825 28.2255 43.5275 28.3802 42.8564C28.5333 42.1927 28.9352 41.7118 29.5368 41.4005C30.1556 41.0806 30.8071 40.9556 31.4942 41.1235C32.3634 41.3357 32.988 42.0443 33.1122 42.9466C33.1345 43.1048 33.1431 43.265 33.1505 43.3474ZM32.1438 43.7962L32.1103 43.7923C32.1103 43.7142 32.1145 43.636 32.1095 43.5579C32.081 43.0712 31.9716 42.6075 31.6895 42.2001C31.422 41.8142 31.0575 41.5864 30.5833 41.5532C30.0524 41.5157 29.6063 41.8126 29.4497 42.3548C29.2145 43.1689 29.2942 43.9622 29.7075 44.7079C29.8876 45.0329 30.1544 45.2728 30.5118 45.3989C31.2122 45.6454 31.8333 45.3263 32.0157 44.6091C32.0829 44.3442 32.1024 44.0673 32.1438 43.7962Z" fill="#4F382B"/>
<path fill-rule="evenodd" clip-rule="evenodd" d="M15.9448 43.4114C15.9304 44.006 15.7901 44.5556 15.423 45.0333C15.0296 45.545 14.489 45.8185 13.8741 45.9337C13.1472 46.0696 12.4644 45.9462 11.8804 45.4583C11.603 45.2263 11.4136 44.929 11.2886 44.5907C11.0835 44.036 11.0323 43.4677 11.1585 42.8884C11.2933 42.2685 11.6433 41.7946 12.1858 41.4767C12.8132 41.1099 13.4901 40.9462 14.2132 41.111C15.1429 41.3235 15.6796 41.9294 15.878 42.8466C15.9179 43.0318 15.9233 43.2232 15.9448 43.4114ZM14.9269 43.8036L14.8999 43.7997V43.688C14.8847 43.1427 14.778 42.6232 14.4526 42.17C14.2116 41.8337 13.889 41.6228 13.4753 41.5638C12.8011 41.4677 12.3605 41.8677 12.2144 42.411C12.0237 43.1208 12.0835 43.822 12.3784 44.495C12.5624 44.9146 12.853 45.2415 13.2995 45.4001C13.9956 45.6474 14.6261 45.32 14.8023 44.6056C14.8671 44.3443 14.8866 44.0716 14.9269 43.8036Z" fill="#4F372B"/>
<path fill-rule="evenodd" clip-rule="evenodd" d="M32.1726 13.1035C32.6519 14.4891 32.9964 15.9035 33.1101 17.3691C33.2507 19.1879 33.1866 20.9941 32.803 22.7828L32.7538 22.9258C32.6335 22.9262 32.5108 22.9109 32.3933 22.9293C31.3999 23.0855 30.4077 23.2473 29.4151 23.4082C28.389 23.5746 27.362 23.7344 26.3378 23.9117C25.9749 23.9742 25.5257 23.8996 25.3792 24.4012L25.3089 24.425L25.3585 21.4258L25.3081 14.1891L25.7862 14.107C26.5679 13.9793 27.3495 13.8492 28.1323 13.7246C29.0659 13.5766 30.0003 13.432 30.9347 13.2875C31.3472 13.2242 31.7601 13.1652 32.1726 13.1035Z" fill="#439934"/>
<path fill-rule="evenodd" clip-rule="evenodd" d="M24.3223 33.1686C23.818 32.735 23.2962 32.3205 22.813 31.8643C20.2122 29.4111 18.3094 26.5232 17.3723 23.0416C17.1141 22.0838 16.9423 21.11 16.8868 20.1201C16.8477 19.4271 16.7919 18.7283 16.8411 18.0389C16.9712 16.2057 17.2364 14.39 17.7739 12.624L17.8036 12.583C17.8559 12.6525 17.9309 12.7143 17.9575 12.7928C18.4825 14.3381 19.0032 15.885 19.5216 17.433C21.1501 22.2967 22.7766 27.1615 24.4079 32.0244C24.4399 32.1193 24.5223 32.1971 24.5817 32.2826L24.3223 33.1686Z" fill="#45A538"/>
<path fill-rule="evenodd" clip-rule="evenodd" d="M32.1728 13.1031C31.7599 13.1645 31.347 13.2238 30.9349 13.2871C30.0005 13.4316 29.0661 13.5762 28.1325 13.7242C27.3501 13.8484 26.5685 13.9785 25.7864 14.1066L25.3083 14.1887L25.3044 13.877C25.2884 13.6207 25.2618 13.3645 25.2583 13.1082L25.2048 8.2043C25.1923 7.18125 25.1736 6.1582 25.1529 5.13555C25.14 4.5 25.1263 3.86406 25.0978 3.2293C25.0822 2.88828 25.0271 2.54883 25.0052 2.20781C24.9923 2.01172 25.0095 1.81406 25.0138 1.61719C25.2575 2.08945 25.4962 2.56523 25.7466 3.03398C26.1423 3.775 26.7732 4.32109 27.3415 4.9168C29.5861 7.27266 31.1794 10.0102 32.1728 13.1031Z" fill="#46A037"/>
<path fill-rule="evenodd" clip-rule="evenodd" d="M25.3093 24.4247L25.3796 24.4009C25.5261 23.8993 25.9753 23.9739 26.3382 23.9114C27.3625 23.7341 28.3894 23.5743 29.4156 23.4079C30.4082 23.2474 31.4003 23.0856 32.3937 22.929C32.5113 22.9106 32.6339 22.9259 32.7542 22.9255C32.5687 23.588 32.4226 24.2649 32.1871 24.9091C31.9195 25.6395 31.596 26.3528 31.2527 27.052C30.7394 28.097 30.1 29.072 29.357 29.9653C28.7843 30.6536 28.146 31.2907 27.5066 31.9192C27.1527 32.2665 26.7363 32.5497 26.348 32.8622L26.2472 32.7935L25.8851 32.4841L25.5105 31.6622C25.2523 30.7005 25.1171 29.7216 25.0945 28.7263L25.1015 28.5591L25.1527 27.8349C25.1695 27.5876 25.1921 27.3407 25.2027 27.0935C25.2402 26.2044 25.2738 25.3145 25.3093 24.4247Z" fill="#409433"/>
<path fill-rule="evenodd" clip-rule="evenodd" d="M25.3093 24.4242C25.2742 25.3141 25.2406 26.2043 25.2027 27.0941C25.1921 27.3418 25.1699 27.5887 25.1527 27.8355L24.9246 27.9219C24.4175 26.4293 23.9101 24.9523 23.414 23.4719C22.5933 21.0223 21.7828 18.5691 20.9632 16.1187C20.3019 14.1414 19.6347 12.1652 18.964 10.1906C18.9324 10.0984 18.8425 10.0258 18.78 9.94414L20.241 7.25781C20.2914 7.34492 20.3574 7.42656 20.389 7.52031C21.0648 9.52031 21.7394 11.5207 22.4082 13.523C23.2785 16.1285 24.1429 18.7352 25.0125 21.341C25.0472 21.4449 25.1042 21.541 25.1589 21.6578L25.3589 21.425C25.3421 22.425 25.3257 23.4242 25.3093 24.4242Z" fill="#4FAA41"/>
<path fill-rule="evenodd" clip-rule="evenodd" d="M18.7798 9.94434C18.8427 10.026 18.9325 10.0986 18.9638 10.1908C19.6345 12.1654 20.3017 14.1412 20.963 16.1189C21.7825 18.5693 22.5931 21.0225 23.4138 23.4721C23.9099 24.9525 24.4173 26.4291 24.9243 27.9221L25.1524 27.8357L25.1013 28.56L25.0548 28.7268C24.9755 29.5193 24.9087 30.3135 24.8118 31.1045C24.7634 31.501 24.6599 31.89 24.5813 32.2822C24.5224 32.1967 24.4396 32.1189 24.4075 32.024C22.7759 27.1611 21.1497 22.2963 19.5212 17.4326C19.0028 15.8846 18.4817 14.3377 17.9571 12.7924C17.9306 12.7139 17.8556 12.6521 17.8032 12.5826L18.7798 9.94434Z" fill="#4AA73C"/>
<path fill-rule="evenodd" clip-rule="evenodd" d="M25.3587 21.4256L25.1587 21.6584C25.104 21.5416 25.047 21.4455 25.0122 21.3416C24.1427 18.7357 23.2782 16.1291 22.4079 13.5236C21.7392 11.5213 21.0645 9.5209 20.3888 7.5209C20.3571 7.42715 20.2911 7.34551 20.2407 7.2584L22.0474 4.88184C22.1044 4.95762 22.1856 5.0252 22.2149 5.11074C22.7165 6.57949 23.2134 8.04941 23.7079 9.52051C24.1696 10.8947 24.6243 12.2705 25.0915 13.6424C25.1228 13.7342 25.2317 13.799 25.3044 13.8771L25.3083 14.1889L25.3587 21.4256Z" fill="#57AE47"/>
<path fill-rule="evenodd" clip-rule="evenodd" d="M25.3044 13.8766C25.2313 13.7988 25.1228 13.734 25.0915 13.6418C24.6247 12.2699 24.1696 10.8941 23.7079 9.51992C23.2134 8.04883 22.7165 6.57891 22.2149 5.11016C22.1856 5.02461 22.1044 4.95703 22.0474 4.88125C22.6349 4.30586 23.204 3.70977 23.8153 3.16094C24.3587 2.67344 24.7954 2.15078 24.8157 1.38008L24.8587 1.22656L25.0134 1.61641C25.0095 1.81328 24.9919 2.01094 25.0048 2.20703C25.0271 2.54805 25.0821 2.8875 25.0974 3.22852C25.1259 3.86328 25.1395 4.49922 25.1524 5.13477C25.1731 6.15742 25.1919 7.18047 25.2044 8.20352L25.2579 13.1074C25.2618 13.3641 25.2888 13.6203 25.3044 13.8766Z" fill="#60B24F"/>
<path fill-rule="evenodd" clip-rule="evenodd" d="M24.5815 32.2822C24.6601 31.89 24.7636 31.501 24.812 31.1045C24.9089 30.3139 24.9757 29.5193 25.055 28.7268L25.0749 28.7236L25.0944 28.7271C25.1171 29.7225 25.2522 30.7014 25.5104 31.6631C25.4577 31.7326 25.3839 31.7939 25.3558 31.8721C25.139 32.4838 24.9343 33.1006 24.7163 33.7119C24.6866 33.7955 24.603 33.8607 24.5448 33.9338L24.3218 33.1682L24.5815 32.2822Z" fill="#A9AA88"/>
<path fill-rule="evenodd" clip-rule="evenodd" d="M24.5449 33.9338C24.6031 33.8604 24.6867 33.7955 24.7164 33.7119C24.9344 33.1006 25.1391 32.4838 25.3559 31.8721C25.3836 31.7939 25.4578 31.7326 25.5105 31.6631L25.8852 32.485C25.8113 32.5896 25.709 32.6846 25.668 32.8014L24.9508 34.9076C24.9211 34.9924 24.8207 35.0518 24.7527 35.1232L24.5449 33.9338Z" fill="#B6B598"/>
<path fill-rule="evenodd" clip-rule="evenodd" d="M24.7527 35.1227C24.8203 35.0512 24.921 34.9918 24.9507 34.907L25.6679 32.8008C25.7085 32.684 25.8113 32.5891 25.8851 32.4844L26.2476 32.7934C26.0726 32.9664 25.9753 33.1664 26.0339 33.4191L25.9238 33.7797C25.8738 33.8414 25.8011 33.8953 25.7765 33.966C25.5261 34.6832 25.2874 35.4043 25.0351 36.1211C25.0031 36.2117 24.9144 36.2832 24.8523 36.3637L24.7527 35.1227Z" fill="#C2C1A7"/>
<path fill-rule="evenodd" clip-rule="evenodd" d="M24.8519 36.3633C24.9144 36.2828 25.0031 36.2113 25.0347 36.1207C25.287 35.4039 25.5261 34.6828 25.7761 33.9656C25.8007 33.8949 25.8734 33.8414 25.9234 33.7793L25.7714 35.434C25.7308 35.4809 25.6722 35.5219 25.6527 35.5762L25.1472 37.0246C25.1117 37.1234 25.0437 37.2117 24.9906 37.3043C24.9433 37.2426 24.8589 37.1828 24.855 37.1188C24.8402 36.868 24.8507 36.6152 24.8519 36.3633Z" fill="#CECDB7"/>
<path fill-rule="evenodd" clip-rule="evenodd" d="M24.991 37.3049C25.0441 37.2123 25.1121 37.124 25.1476 37.0252L25.6531 35.5768C25.6726 35.5221 25.7316 35.4814 25.7718 35.4346L25.7757 36.5205L25.4121 37.4529L24.991 37.3049Z" fill="#DBDAC7"/>
<path fill-rule="evenodd" clip-rule="evenodd" d="M25.4121 37.4529L25.7758 36.5205L25.8508 37.6236L25.4121 37.4529Z" fill="#EBE9DC"/>
<path fill-rule="evenodd" clip-rule="evenodd" d="M26.0335 33.4197C25.9753 33.1674 26.0722 32.9674 26.2472 32.7939L26.348 32.8627L26.0335 33.4197Z" fill="#CECDB7"/>
<path fill-rule="evenodd" clip-rule="evenodd" d="M25.0946 28.7277L25.0751 28.7242L25.0552 28.7273L25.1017 28.5605L25.0946 28.7277Z" fill="#4FAA41"/>
</svg>
