<svg width="50" height="50" viewBox="0 0 50 50" fill="none" xmlns="http://www.w3.org/2000/svg">
<g clip-path="url(#clip0_266_1485)">
<path d="M46.0251 38.5331C43.3068 38.4643 41.1999 38.7405 39.4329 39.4998C38.9232 39.7067 38.1075 39.7069 38.0396 40.3628C38.3114 40.639 38.3454 41.0878 38.5833 41.4674C38.9915 42.1576 39.7046 43.0898 40.3503 43.5733C41.0638 44.1255 41.7777 44.6776 42.5249 45.1609C43.8503 45.9895 45.3456 46.4726 46.6368 47.3012C47.3847 47.7841 48.1318 48.4059 48.8794 48.9235C49.2532 49.1993 49.4909 49.6485 49.9669 49.8209V49.7176C49.7288 49.4067 49.6609 48.9581 49.4232 48.6128C49.0837 48.2676 48.7435 47.9569 48.4036 47.6117C47.4183 46.2657 46.195 45.0919 44.8698 44.1255C43.7825 43.3659 41.4036 42.3305 40.962 41.0531C40.962 41.0531 40.9279 41.0188 40.8941 40.9843C41.6415 40.9152 42.5249 40.639 43.2388 40.4319C44.3941 40.121 45.4474 40.1902 46.6368 39.8795C47.1804 39.7414 47.7241 39.5688 48.2677 39.3962V39.0857C47.6564 38.4643 47.2146 37.6359 46.5689 37.049C44.8359 35.5298 42.9327 34.0457 40.962 32.8031C39.9085 32.1127 38.5491 31.6639 37.4279 31.0772C37.0204 30.8698 36.3405 30.7665 36.1029 30.4212C35.4909 29.6619 35.1511 28.661 34.7095 27.7634C33.7243 25.8646 32.7726 23.7591 31.923 21.7572C31.3116 20.4108 30.9378 19.0644 30.1902 17.822C26.6902 11.9536 22.8843 8.39818 17.0398 4.91157C15.7823 4.18678 14.2872 3.87608 12.6902 3.49652C11.8409 3.4618 10.9911 3.39295 10.1417 3.35823C9.59797 3.11657 9.05422 2.46083 8.57844 2.15013C6.64192 0.907302 1.64641 -1.78489 0.219264 1.77057C-0.698314 4.01417 1.57864 6.22324 2.35989 7.36269C2.93801 8.15652 3.68528 9.05392 4.09309 9.95152C4.33098 10.538 4.39876 11.1598 4.63665 11.781C5.18059 13.2994 5.68997 14.9913 6.40383 16.4067C6.77766 17.1315 7.18528 17.8908 7.66106 18.5467C7.93294 18.9263 8.40852 19.0991 8.51067 19.7203C8.03508 20.4108 8.0009 21.4465 7.72883 22.3093C6.50559 26.21 6.98157 31.0426 8.71438 33.9077C9.25794 34.7703 10.5493 36.6695 12.2823 35.9443C13.8116 35.3231 13.4718 33.3555 13.9132 31.6295C14.0156 31.2149 13.9476 30.9391 14.1513 30.6629V30.7321C14.6271 31.6984 15.1027 32.6307 15.5445 33.5971C16.598 35.2884 18.4327 37.049 19.9618 38.2228C20.7777 38.8438 21.4232 39.914 22.4427 40.2938V40.19H22.3745C22.1706 39.8793 21.8648 39.7414 21.5931 39.4996C20.9816 38.8786 20.3017 38.1191 19.8261 37.4286C18.3991 35.4953 17.1415 33.3553 16.0202 31.146C15.4767 30.0762 15.0007 28.9024 14.5591 27.8324C14.355 27.4177 14.355 26.7967 14.0154 26.5898C13.5056 27.3491 12.7581 28.005 12.3843 28.9369C11.739 30.4212 11.6708 32.2508 11.4329 34.1491C11.297 34.184 11.3648 34.1491 11.2968 34.2186C10.2097 33.942 9.83587 32.8031 9.42786 31.8365C8.40833 29.3857 8.2384 25.4505 9.12219 22.62C9.36008 21.8951 10.3796 19.6169 9.9718 18.9265C9.7679 18.2706 9.08801 17.8908 8.71438 17.3732C8.27278 16.7172 7.7968 15.8891 7.49114 15.1639C6.67551 13.2308 6.2677 11.0906 5.3843 9.15749C4.97649 8.25989 4.26321 7.32817 3.68528 6.49962C3.03977 5.5677 2.3261 4.91157 1.81633 3.80703C1.64661 3.42748 1.40852 2.80606 1.6804 2.39179C1.74837 2.11561 1.88411 2.01223 2.15618 1.94319C2.59797 1.56324 3.8554 2.04656 4.2968 2.2537C5.55422 2.77114 6.60754 3.25486 7.66106 3.97964C8.13665 4.32487 8.64641 4.98081 9.25794 5.15342H9.97161C11.0591 5.39489 12.2822 5.22247 13.3017 5.53298C15.1029 6.11967 16.7337 6.98274 18.195 7.91486C22.6466 10.7799 26.3161 14.8532 28.797 19.7203C29.2048 20.5139 29.3745 21.2393 29.7484 22.0675C30.4622 23.7591 31.3456 25.4851 32.0589 27.142C32.7726 28.7641 33.4521 30.4212 34.4716 31.7676C34.9814 32.4922 37.02 32.8722 37.9376 33.2519C38.6173 33.5624 39.6708 33.8388 40.2823 34.2184C41.4376 34.9429 42.5929 35.7719 43.6804 36.5655C44.2241 36.9798 45.923 37.8429 46.0251 38.5331Z" fill="#00546B"/>
<path d="M11.3644 8.53613C10.7869 8.53613 10.3792 8.60558 9.97144 8.70895V8.77799H10.0394C10.3115 9.33036 10.7869 9.71011 11.1265 10.1932C11.3986 10.7454 11.6363 11.298 11.9084 11.8503C11.9421 11.8156 11.9761 11.7813 11.9761 11.7813C12.4521 11.4359 12.6898 10.8837 12.6898 10.0551C12.4859 9.81368 12.4519 9.57202 12.282 9.33036C12.0783 8.98493 11.6363 8.81251 11.3644 8.53613Z" fill="#00546B"/>
</g>
<defs>
<clipPath id="clip0_266_1485">
<rect width="50" height="50" fill="white"/>
</clipPath>
</defs>
</svg>
