<svg width="50" height="48" viewBox="0 0 50 48" fill="none" xmlns="http://www.w3.org/2000/svg">
<path fill-rule="evenodd" clip-rule="evenodd" d="M26.7103 1.54785C26.3824 1.54785 26.0778 1.61776 25.7966 1.7109C26.3941 2.10673 26.7221 2.63066 26.8862 3.22431C26.898 3.30592 26.9213 3.36412 26.9329 3.44555C26.9447 3.51546 26.9565 3.58518 26.9565 3.65509C27.0033 4.6797 26.6869 4.80762 26.4643 5.41316C26.1246 6.19329 26.2183 7.03142 26.6284 7.70669C26.6635 7.78813 26.7103 7.88128 26.7691 7.96271C26.3238 5.01734 28.7957 4.57484 29.2526 3.65509C29.2878 2.85172 28.6199 2.31627 28.0929 1.94368C27.5889 1.641 27.132 1.54785 26.7103 1.54785ZM30.4359 2.21141C30.3888 2.47932 30.4241 2.40941 30.4123 2.54904C30.4007 2.64219 30.4007 2.75858 30.3889 2.85172C30.3656 2.94487 30.3422 3.03802 30.307 3.13116C30.2834 3.22431 30.2484 3.31746 30.2133 3.4106C30.1663 3.50375 30.1313 3.58536 30.0846 3.67833C30.0492 3.72499 30.0258 3.77148 29.9906 3.81814L29.9203 3.92282C29.8617 4.00443 29.8032 4.08587 29.7446 4.15577C29.6743 4.22568 29.6159 4.30711 29.5338 4.36531V4.37702C29.4634 4.43521 29.3933 4.50494 29.3112 4.56331C29.0651 4.74943 28.784 4.88924 28.5262 5.06382C28.4442 5.12201 28.3623 5.16868 28.2919 5.23858C28.21 5.29677 28.1396 5.35497 28.0695 5.42469C27.9874 5.4946 27.9288 5.5645 27.8585 5.64594C27.7999 5.71584 27.7297 5.79728 27.6828 5.87889C27.6242 5.96033 27.5657 6.04177 27.5187 6.12338C27.4719 6.21653 27.4368 6.29796 27.39 6.39111C27.3548 6.48426 27.3197 6.56587 27.2963 6.65884C27.265 6.75476 27.2376 6.85189 27.2141 6.94999C27.2025 6.99647 27.2025 7.05467 27.1908 7.10133C27.179 7.14781 27.179 7.19448 27.1674 7.24096C27.1674 7.33411 27.1556 7.43896 27.1556 7.53211C27.1556 7.60184 27.1556 7.67174 27.1674 7.74164C27.1674 7.83479 27.1791 7.92794 27.2025 8.03262C27.2143 8.12576 27.2377 8.21891 27.2611 8.31205C27.2963 8.4052 27.3197 8.49835 27.3548 8.59131C27.3784 8.64969 27.4134 8.70788 27.4368 8.75455L24.7424 7.71822C24.2855 7.5903 23.8403 7.47374 23.3834 7.36906L22.6454 7.1943C21.9404 7.05461 21.2288 6.94974 20.5133 6.88008C20.4898 6.88008 20.478 6.86837 20.4546 6.86837C19.7517 6.79847 19.0605 6.7637 18.3576 6.7637C17.8422 6.7637 17.3268 6.78694 16.8229 6.82189C16.1083 6.86837 15.3936 6.96152 14.6791 7.07791C14.5033 7.10133 14.3274 7.1361 14.1519 7.17106C13.7886 7.24096 13.4373 7.3224 13.0975 7.40401L12.5703 7.54364C12.3945 7.61355 12.2306 7.69498 12.0665 7.76489L11.68 7.93965C11.6564 7.95118 11.6331 7.95118 11.6215 7.96271C11.5043 8.02091 11.3988 8.06757 11.2933 8.12576C11.2583 8.13747 11.2348 8.14918 11.2114 8.16071C11.0826 8.21891 10.9537 8.28863 10.8482 8.34701C10.7663 8.38196 10.6842 8.42844 10.614 8.4634C10.5788 8.48682 10.5319 8.51006 10.5085 8.52159C10.403 8.57978 10.2976 8.63798 10.2039 8.69635C10.0984 8.75437 10.0047 8.81274 9.92273 8.87093C9.84079 8.92913 9.75866 8.97561 9.6885 9.03381C9.67672 9.04552 9.66493 9.04552 9.65333 9.05723C9.58299 9.10371 9.50104 9.1619 9.4307 9.2201L9.40713 9.24352L9.23164 9.38315C9.20807 9.39468 9.18451 9.4181 9.1613 9.42963C9.10274 9.4763 9.04418 9.53449 8.98545 9.58097C8.97384 9.60439 8.95046 9.61593 8.93867 9.62764C8.86833 9.69754 8.79817 9.75556 8.72783 9.82546C8.71604 9.82546 8.71604 9.83717 8.70426 9.84888C8.6341 9.90708 8.56376 9.9768 8.49341 10.0467C8.48181 10.0584 8.48181 10.0701 8.47003 10.0701C8.40858 10.1294 8.34996 10.1915 8.29435 10.2562C8.27079 10.2797 8.2358 10.3029 8.21241 10.3261C8.15385 10.3961 8.08351 10.4658 8.01317 10.5357C8.00138 10.5591 7.978 10.5706 7.9664 10.5939C7.87267 10.687 7.79054 10.7802 7.69681 10.8733L7.66182 10.9083C7.47437 11.1061 7.27512 11.3041 7.06428 11.4787C6.85657 11.6629 6.63744 11.834 6.40818 11.9909C6.18099 12.1493 5.94644 12.2969 5.7053 12.4334C5.4662 12.5637 5.21978 12.6804 4.96726 12.7827C4.7181 12.8879 4.464 12.9811 4.20583 13.062C3.7138 13.1668 3.20998 13.3647 2.77651 13.3996C2.68278 13.3996 2.57745 13.423 2.48372 13.4346C2.37821 13.458 2.28448 13.4812 2.19075 13.5045L1.90974 13.6093C1.81583 13.6441 1.72211 13.6908 1.62838 13.7373C1.54643 13.7954 1.4527 13.8421 1.37076 13.9003C1.28863 13.9585 1.20669 14.0282 1.13635 14.0983C1.0544 14.1565 0.972458 14.2379 0.902116 14.3078C0.831774 14.3893 0.761614 14.4592 0.702875 14.5406C0.644317 14.6338 0.574156 14.7154 0.527201 14.8084C0.468643 14.89 0.410086 14.9831 0.363312 15.0763C0.316176 15.1809 0.269583 15.2741 0.234412 15.3789C0.197432 15.4792 0.162255 15.5801 0.1289 15.6816C0.105513 15.7748 0.0821259 15.8679 0.0703418 15.9609C0.0703418 15.9728 0.0585578 15.9843 0.0585578 15.996C0.0351709 16.1007 0.035171 16.2405 0.0233869 16.3102C0.0117841 16.3918 0 16.4616 0 16.5432C0 16.5897 1.08059e-08 16.6479 0.0117841 16.6945C0.0235682 16.776 0.0353522 16.8459 0.058739 16.9158C0.0821259 16.9855 0.105513 17.0554 0.140684 17.1253V17.1368C0.175855 17.2067 0.222628 17.2766 0.269402 17.3465C0.316538 17.4163 0.363312 17.4862 0.421688 17.5561C0.480428 17.6143 0.550769 17.684 0.621111 17.7424C0.691272 17.8121 0.761614 17.8703 0.843558 17.9287C1.12474 18.1732 1.19509 18.2546 1.55822 18.4409C1.61677 18.4758 1.67533 18.4991 1.74567 18.534C1.75746 18.534 1.76906 18.5456 1.78085 18.5456C1.78085 18.569 1.78085 18.5805 1.79245 18.6039C1.80423 18.6971 1.82762 18.7902 1.85119 18.8832C1.87349 18.979 1.90481 19.0726 1.94473 19.1626C1.97991 19.2325 2.00347 19.3024 2.03846 19.3723C2.05025 19.3956 2.06203 19.4188 2.07363 19.4305C2.12059 19.5237 2.16736 19.6051 2.21432 19.6866L2.38999 19.931C2.44855 20.001 2.51871 20.0824 2.58923 20.1523C2.65939 20.2222 2.72973 20.2802 2.81168 20.3503C2.81168 20.3503 2.82346 20.3618 2.83525 20.3618C2.90541 20.42 2.97575 20.4784 3.04609 20.5249C3.12804 20.5831 3.20998 20.6297 3.30371 20.6762C3.38584 20.7229 3.47956 20.7694 3.57329 20.8041C3.64345 20.8393 3.72558 20.8625 3.80752 20.8858C3.81931 20.8975 3.83091 20.8975 3.8543 20.9092C3.90143 20.9207 3.95981 20.9324 4.00658 20.944C3.97159 21.5727 3.95981 22.1664 4.05372 22.3759C4.15887 22.6089 4.67447 21.8987 5.18989 21.0838C5.11954 21.8869 5.07277 22.8301 5.18989 23.1094C5.31879 23.4005 6.02166 22.4925 6.63081 21.4911C14.9369 19.5819 22.5166 25.2867 23.3132 33.3431C23.161 32.0857 21.6027 31.3872 20.8881 31.5618C20.5367 32.4233 19.9392 33.5294 18.9785 34.2163C19.0624 33.4389 19.0229 32.6531 18.8614 31.8879C18.6038 32.959 18.1 33.9601 17.4087 34.8217C16.2959 34.9031 15.183 34.3677 14.5972 33.5641C14.5502 33.5294 14.5386 33.4596 14.5035 33.4128C14.4683 33.3314 14.4331 33.2499 14.4097 33.1685C14.3756 33.0904 14.3519 33.0082 14.3394 32.924C14.3276 32.8424 14.3276 32.7609 14.3276 32.6678V32.493C14.3394 32.4116 14.3628 32.3302 14.3862 32.2487C14.4097 32.1671 14.4331 32.0857 14.4683 32.0042C14.5151 31.9226 14.5502 31.8412 14.6088 31.7598C14.808 31.2009 14.808 30.7469 14.4449 30.4791C14.3746 30.4334 14.3 30.3944 14.2223 30.3626C14.1753 30.351 14.1168 30.3278 14.07 30.3161C14.0348 30.3044 14.0114 30.2927 13.9763 30.2811C13.8941 30.2577 13.8122 30.2345 13.7303 30.2229C13.6503 30.1999 13.5675 30.1882 13.4842 30.188C13.4021 30.1763 13.3084 30.1646 13.2264 30.1646C13.1679 30.1646 13.1093 30.1764 13.0506 30.1764C12.957 30.1764 12.8751 30.188 12.7932 30.2112C12.711 30.2229 12.6291 30.2346 12.547 30.2579C12.465 30.2813 12.3829 30.3045 12.3009 30.3393C12.219 30.3743 12.1487 30.4092 12.0667 30.4442C11.9964 30.4791 11.926 30.5256 11.8441 30.5606C9.11453 32.3302 10.7429 36.4749 12.6055 37.6741C11.9026 37.802 11.188 37.9534 10.9889 38.1047L10.9654 38.1281C11.4693 38.4308 11.9964 38.687 12.547 38.9083C13.2968 39.1526 14.0934 39.3738 14.4449 39.467V39.4787C15.4155 39.6764 16.4081 39.7469 17.3971 39.6882C22.5868 39.3273 26.8394 35.4038 27.6126 30.2346C27.6362 30.3393 27.6596 30.4325 27.683 30.5373C27.7181 30.7469 27.7649 30.9679 27.7883 31.1893V31.2009C27.8119 31.3057 27.8235 31.4106 27.8352 31.5036V31.5504C27.847 31.6549 27.8588 31.7598 27.8588 31.8531C27.8704 31.981 27.882 32.1089 27.882 32.2372V32.4235C27.882 32.4817 27.8938 32.5514 27.8938 32.6096C27.8938 32.6795 27.882 32.7494 27.882 32.8193V32.9822C27.882 33.0638 27.8702 33.1335 27.8702 33.2151C27.8702 33.2616 27.8702 33.3083 27.8586 33.3665C27.8586 33.4479 27.8468 33.5294 27.8468 33.6225C27.8351 33.6575 27.8351 33.6924 27.8351 33.7274C27.8235 33.8205 27.8117 33.9021 27.7999 33.9951C27.7999 34.03 27.7999 34.065 27.7883 34.0999C27.7765 34.2163 27.7531 34.3212 27.7413 34.4376V34.4608C27.7179 34.5657 27.6946 34.6821 27.671 34.7869V34.8217L27.6008 35.1361C27.6008 35.1478 27.5891 35.171 27.5891 35.1828C27.5655 35.2874 27.5421 35.3923 27.5071 35.497V35.5319C27.4719 35.6485 27.4368 35.7532 27.4134 35.858C27.4016 35.8696 27.4016 35.8813 27.4016 35.8813L27.2961 36.2304C27.2493 36.347 27.2141 36.4517 27.1674 36.5681C27.1204 36.6846 27.0852 36.801 27.0385 36.9057C26.9915 37.0223 26.9447 37.1269 26.8978 37.2433H26.8862C26.839 37.3482 26.7924 37.4646 26.7339 37.5694C26.7221 37.6044 26.7103 37.6276 26.6987 37.6509C26.6869 37.6626 26.6869 37.6743 26.6751 37.6858C25.9137 39.2109 24.7892 40.5498 23.3832 41.5976C23.2895 41.6558 23.1958 41.7255 23.1022 41.7956C23.0787 41.8189 23.0435 41.8304 23.0201 41.8538C22.9382 41.912 22.856 41.9702 22.7625 42.0284L22.7975 42.0983H22.8093L23.3013 42.0284H23.3131C23.6176 41.9817 23.9222 41.9235 24.2268 41.8653C24.3087 41.8536 24.4026 41.8304 24.4846 41.8071C24.5431 41.7954 24.5899 41.7839 24.6485 41.7722C24.7306 41.7607 24.8125 41.7372 24.8945 41.7257C24.9648 41.7023 25.0352 41.6908 25.1055 41.6675C26.277 41.3881 27.4134 41.0038 28.503 40.5498C26.6402 43.0762 24.1447 45.1136 21.2276 46.4524C22.575 46.3593 23.9222 46.1382 25.2226 45.7656C29.9439 44.3801 33.9153 41.225 36.2933 36.9756C35.8106 39.6711 34.7346 42.2274 33.1421 44.4616C34.2774 43.7173 35.3264 42.8505 36.2699 41.8771C38.8941 39.1527 40.6162 35.695 41.202 31.981C41.6016 33.8235 41.7162 35.7158 41.5418 37.5927C50 25.8688 42.2446 13.7142 38.9995 10.5126C38.9879 10.4892 38.9761 10.4777 38.9761 10.4544C38.9645 10.466 38.9645 10.466 38.9645 10.4777C38.9645 10.466 38.9645 10.466 38.9527 10.4542C38.9527 10.5941 38.9409 10.7337 38.9291 10.8735C38.8941 11.1412 38.859 11.3974 38.812 11.6536C38.7535 11.9096 38.6833 12.1658 38.613 12.4219C38.5296 12.674 38.4359 12.9226 38.332 13.167C38.2242 13.4083 38.1069 13.6452 37.9802 13.8772C37.8515 14.0983 37.7108 14.3313 37.5586 14.5408C37.4079 14.7574 37.2476 14.9672 37.0781 15.1696C36.9025 15.3791 36.7152 15.5654 36.5277 15.7515C36.4174 15.8519 36.3041 15.949 36.188 16.0427C36.0942 16.1241 36.0121 16.194 35.9184 16.2755C35.7076 16.4385 35.4967 16.5898 35.2625 16.7295C35.0398 16.8693 34.8056 17.0089 34.5712 17.1255C34.3252 17.2419 34.0792 17.3465 33.8333 17.4514C33.5871 17.5446 33.3293 17.6262 33.0717 17.6959C32.8127 17.7652 32.5508 17.8235 32.2867 17.8707C32.0173 17.9171 31.7479 17.9404 31.4901 17.9636C31.3027 17.9753 31.1152 17.987 30.9277 17.987C30.6583 17.987 30.3889 17.9636 30.1311 17.9402C29.8617 17.9171 29.5923 17.8822 29.3345 17.824C29.0651 17.7771 28.8073 17.7074 28.5495 17.626H28.5379C28.7957 17.6026 29.0534 17.5793 29.3112 17.5328C29.5755 17.4869 29.8374 17.4286 30.0962 17.3581C30.3538 17.2889 30.6079 17.2074 30.8576 17.1138C31.1152 17.0206 31.3612 16.9042 31.5955 16.7877C31.8417 16.6713 32.0643 16.5432 32.2985 16.4036C32.5211 16.2522 32.7436 16.1009 32.9546 15.9378C33.1645 15.7757 33.364 15.6007 33.552 15.4139C33.7512 15.2391 33.9269 15.0413 34.1026 14.8435C34.2738 14.6396 34.4379 14.4299 34.5946 14.2147C34.6182 14.1799 34.6415 14.1333 34.6649 14.0983C34.782 13.912 34.8992 13.7257 35.0047 13.5394C35.1335 13.3086 35.2509 13.0717 35.3562 12.8294C35.462 12.5857 35.5558 12.337 35.6372 12.0842C35.7193 11.8397 35.7779 11.5835 35.8365 11.3275C35.8834 11.0598 35.9302 10.8036 35.9536 10.5474C35.9771 10.2797 36.0005 10.0119 36.0005 9.75574C36.0005 9.56944 35.9887 9.38315 35.977 9.19686C35.9537 8.92913 35.9186 8.67311 35.8834 8.41673C35.8372 8.15414 35.7785 7.89386 35.7076 7.63679C35.6256 7.3923 35.5437 7.13628 35.4499 6.8918C35.3562 6.64731 35.2391 6.40282 35.1218 6.16987C34.9931 5.93709 34.8642 5.70431 34.7235 5.48307C34.574 5.2649 34.4178 5.05136 34.255 4.84275C34.0786 4.64192 33.8989 4.44395 33.716 4.24892C33.6174 4.14904 33.5158 4.05201 33.4115 3.95795C32.8867 3.55289 32.3433 3.17215 31.7831 2.81695C31.7011 2.77029 31.6308 2.73551 31.5487 2.70056C31.1622 2.45608 30.799 2.3278 30.4359 2.21141Z" fill="#E0234E"/>
</svg>
