<svg width="50" height="30" viewBox="0 0 50 30" fill="none" xmlns="http://www.w3.org/2000/svg">
<g clip-path="url(#clip0_266_1320)">
<path d="M11.7979 7.82817H21.2283V8.57331H12.6623V14.181H20.7176V14.926H12.6623V21.0827H21.3266V21.8278H11.7979V7.82817ZM22.0732 7.82817H23.0752L27.5153 13.9849L32.0537 7.82808L38.2267 0.0078125L28.0851 14.632L33.3111 21.8278H32.2698L27.5153 15.279L22.7411 21.8278H21.7195L26.9849 14.6319L22.0732 7.82817ZM33.6844 8.57331V7.82808H44.4313V8.57322H39.4802V21.8277H38.6157V8.57331H33.6844ZM0 7.82808H1.08057L15.981 29.9923L9.82344 21.8277L0.903711 8.88696L0.864453 21.8279H0L0 7.82808ZM44.3441 20.8577C44.1675 20.8577 44.0351 20.7218 44.0351 20.5459C44.0351 20.3702 44.1675 20.2341 44.3441 20.2341C44.5229 20.2341 44.6532 20.3701 44.6532 20.5459C44.6532 20.7217 44.5229 20.8577 44.3441 20.8577ZM45.1936 20.0374H45.6562C45.6624 20.2864 45.8453 20.4539 46.1145 20.4539C46.4151 20.4539 46.5854 20.2739 46.5854 19.937V17.8023H47.0564V19.939C47.0564 20.5459 46.7032 20.8955 46.1187 20.8955C45.5698 20.8955 45.1936 20.5564 45.1936 20.0373V20.0374ZM47.6725 20.0103H48.1393C48.1792 20.2969 48.4609 20.4789 48.8668 20.4789C49.2452 20.4789 49.5228 20.2843 49.5228 20.0165C49.5228 19.7863 49.3461 19.6482 48.9445 19.554L48.5534 19.4598C48.0046 19.3321 47.7545 19.0684 47.7545 18.6248C47.7545 18.087 48.196 17.7291 48.8583 17.7291C49.4743 17.7291 49.9243 18.0869 49.9517 18.5955H49.4933C49.4491 18.3172 49.2052 18.1434 48.852 18.1434C48.4799 18.1434 48.2318 18.3214 48.2318 18.5934C48.2318 18.8089 48.3915 18.9324 48.7868 19.0245L49.1211 19.1061C49.7435 19.2506 50 19.5017 50 19.9558C50 20.5334 49.5501 20.8955 48.8311 20.8955C48.1582 20.8955 47.7061 20.5501 47.6725 20.0102V20.0103Z" fill="black"/>
</g>
<defs>
<clipPath id="clip0_266_1320">
<rect width="50" height="30" fill="white"/>
</clipPath>
</defs>
</svg>
