<svg width="46" height="50" viewBox="0 0 46 50" fill="none" xmlns="http://www.w3.org/2000/svg">
<path d="M20.9245 0.53343C22.1814 -0.176206 23.8186 -0.179412 25.0744 0.53343C31.3923 4.05472 37.7123 7.57049 44.0291 11.0939C45.2172 11.754 46.012 13.0583 45.9999 14.4086V35.5941C46.0087 37.0003 45.1354 38.3357 43.882 38.9809C37.5848 42.4828 31.2909 45.9889 24.9948 49.4908C23.7119 50.2143 22.0419 50.1586 20.7991 49.3758C18.9112 48.2963 17.02 47.2221 15.132 46.1437C14.7462 45.9168 14.3112 45.7363 14.0388 45.3673C14.2796 45.0471 14.7102 45.0072 15.0601 44.8674C15.8482 44.6202 16.5719 44.2235 17.2959 43.8385C17.479 43.7149 17.7025 43.7623 17.878 43.8729C19.4923 44.7859 21.0924 45.7254 22.7122 46.6297C23.0578 46.8264 23.4077 46.5652 23.703 46.4028C29.8825 42.9579 36.0695 39.526 42.2479 36.08C42.4768 35.9714 42.6034 35.7317 42.5848 35.4844C42.5891 28.4958 42.5859 21.5059 42.587 14.5173C42.6131 14.2366 42.4485 13.9786 42.1912 13.8637C35.9159 10.3779 29.6438 6.88667 23.3696 3.39993C23.2609 3.32622 23.1321 3.28666 23.0002 3.28647C22.8683 3.28628 22.7394 3.32546 22.6304 3.39886C16.3562 6.88667 10.0852 10.3811 3.81096 13.8667C3.55459 13.9818 3.38254 14.2355 3.41305 14.5173C3.41413 21.5059 3.41305 28.4958 3.41305 35.4854C3.40217 35.6061 3.42904 35.7272 3.49005 35.8324C3.55106 35.9375 3.64327 36.0217 3.75427 36.0736C5.42858 37.0101 7.10506 37.9401 8.78045 38.8734C9.72431 39.3745 10.8832 39.6722 11.9231 39.2883C12.8408 38.9636 13.484 38.04 13.4665 37.0789C13.4752 30.131 13.4622 23.1821 13.473 16.2353C13.4501 15.9269 13.7467 15.6721 14.0507 15.7011C14.8552 15.6958 15.6608 15.6904 16.4652 15.7033C16.801 15.6958 17.0321 16.0279 16.9906 16.3386C16.9874 23.3305 16.9993 30.3225 16.9852 37.3143C16.9874 39.1777 16.2112 41.2053 14.4638 42.117C12.3111 43.217 9.65029 42.9837 7.52355 41.929C5.68242 41.0226 3.92542 39.9529 2.11697 38.9818C0.86024 38.3402 -0.00869099 36.9995 0.000155389 35.5942V14.4086C-0.0130239 13.0303 0.8133 11.7024 2.03843 11.0519C8.33453 7.54716 14.6295 4.03976 20.9245 0.53343Z" fill="#8CC84B"/>
<path d="M26.4171 15.2087C29.1631 15.0344 32.1028 15.1054 34.5739 16.4397C36.487 17.4623 37.5477 19.6083 37.5815 21.7048C37.528 21.9876 37.2283 22.1436 36.9546 22.1241C36.1579 22.1231 35.361 22.1348 34.5643 22.1188C34.2263 22.1316 34.0299 21.8243 33.9875 21.5295C33.7586 20.5264 33.2039 19.5329 32.2467 19.0491C30.7773 18.3234 29.0736 18.36 27.4713 18.3751C26.3016 18.4363 25.0438 18.5362 24.0528 19.2147C23.292 19.7287 23.0609 20.7661 23.3325 21.6017C23.5885 22.2016 24.2906 22.3952 24.8651 22.5736C28.1743 23.4273 31.6811 23.3424 34.9272 24.4659C36.2711 24.9239 37.5858 25.8142 38.0458 27.2022C38.6475 29.0624 38.3838 31.2858 37.042 32.7792C35.9539 34.0081 34.3691 34.677 32.7885 35.0402C30.6858 35.5027 28.5036 35.5145 26.3682 35.3091C24.3603 35.0833 22.2707 34.563 20.7206 33.2135C19.3951 32.0783 18.7477 30.3094 18.812 28.6022C18.8273 28.3139 19.1183 28.1129 19.3984 28.1366C20.2007 28.1301 21.003 28.128 21.8053 28.1376C22.1258 28.115 22.3633 28.3882 22.3798 28.6861C22.5278 29.6418 22.892 30.6449 23.7369 31.2116C25.3675 32.2492 27.4135 32.1782 29.2807 32.2072C30.8275 32.1395 32.5639 32.1191 33.8263 31.1106C34.4923 30.5354 34.6896 29.5731 34.5096 28.7452C34.3146 28.0463 33.5733 27.7206 32.9367 27.5076C29.6699 26.4883 26.124 26.8581 22.8887 25.7054C21.5753 25.2476 20.3052 24.382 19.8006 23.051C19.0965 21.1673 19.4191 18.8374 20.9015 17.3944C22.3469 15.9591 24.4334 15.4064 26.4171 15.2085V15.2087Z" fill="#8CC84B"/>
</svg>
