<svg width="46" height="50" viewBox="0 0 46 50" fill="none" xmlns="http://www.w3.org/2000/svg">
<g clip-path="url(#clip0_266_1288)">
<path d="M34.4188 34.0315L34.4296 45.0764L24.7795 49.9674V38.9272L34.4188 34.0315ZM46.0001 28.1285V39.2119L37.7695 43.3839L37.7635 32.351L46.0001 28.1285ZM34.4043 19.2481L34.4151 30.1771L24.7793 35.0402V24.1075L34.4043 19.2481ZM46.0001 13.3931V24.2535L37.7612 28.5074L37.754 17.5565L46.0001 13.3931ZM23.3124 12.1083L31.9253 16.5239L22.9893 21.0818L14.5389 16.7712L23.3124 12.1083ZM11.332 5.96646L19.547 10.178L10.7535 14.8396L2.31641 10.5363L11.332 5.96646ZM34.8154 6.03034L43.6638 10.5363L35.7503 14.5732L27.1196 10.1516L34.8154 6.03034ZM23.0419 0.0332031L31.0075 4.08927L23.3697 8.23092L15.1615 4.0263L23.0419 0.0332031Z" fill="#4DABCF"/>
<path d="M21.3727 24.1071L14.8727 20.7882V35.1338C14.8727 35.1338 6.9239 17.9556 6.18736 16.4126C6.09248 16.2134 5.70166 15.995 5.60176 15.9421C4.17648 15.182 0 13.0332 0 13.0332V38.3779L5.77767 41.5147V28.267C5.77767 28.267 13.6422 43.6162 13.7218 43.7839C13.8014 43.9518 14.5915 45.5695 15.4348 46.1376C16.5584 46.893 21.374 49.8341 21.374 49.8341L21.3727 24.1071Z" fill="#4D77CF"/>
</g>
<defs>
<clipPath id="clip0_266_1288">
<rect width="46" height="50" fill="white"/>
</clipPath>
</defs>
</svg>
