<svg width="50" height="50" viewBox="0 0 50 50" fill="none" xmlns="http://www.w3.org/2000/svg">
<path d="M32.1427 21.429C34.1152 21.429 35.7141 19.83 35.7141 17.8576C35.7141 15.8851 34.1152 14.2861 32.1427 14.2861C30.1703 14.2861 28.5713 15.8851 28.5713 17.8576C28.5713 19.83 30.1703 21.429 32.1427 21.429Z" fill="#8C99CD"/>
<path d="M46.4286 7.14286C48.4011 7.14286 50 5.54387 50 3.57143C50 1.59898 48.4011 0 46.4286 0C44.4562 0 42.8572 1.59898 42.8572 3.57143C42.8572 5.54387 44.4562 7.14286 46.4286 7.14286Z" fill="#8C99CD"/>
<path d="M32.1427 7.14286C34.1152 7.14286 35.7141 5.54387 35.7141 3.57143C35.7141 1.59898 34.1152 0 32.1427 0C30.1703 0 28.5713 1.59898 28.5713 3.57143C28.5713 5.54387 30.1703 7.14286 32.1427 7.14286Z" fill="#8C99CD"/>
<path d="M17.8571 7.14286C19.8295 7.14286 21.4285 5.54387 21.4285 3.57143C21.4285 1.59898 19.8295 0 17.8571 0C15.8846 0 14.2856 1.59898 14.2856 3.57143C14.2856 5.54387 15.8846 7.14286 17.8571 7.14286Z" fill="#8C99CD"/>
<path d="M3.57143 7.14286C5.54387 7.14286 7.14286 5.54387 7.14286 3.57143C7.14286 1.59898 5.54387 0 3.57143 0C1.59898 0 0 1.59898 0 3.57143C0 5.54387 1.59898 7.14286 3.57143 7.14286Z" fill="#8C99CD"/>
<path d="M3.57143 21.429C5.54387 21.429 7.14286 19.83 7.14286 17.8576C7.14286 15.8851 5.54387 14.2861 3.57143 14.2861C1.59898 14.2861 0 15.8851 0 17.8576C0 19.83 1.59898 21.429 3.57143 21.429Z" fill="#8C99CD"/>
<path d="M32.1427 21.429C34.1152 21.429 35.7141 19.83 35.7141 17.8576C35.7141 15.8851 34.1152 14.2861 32.1427 14.2861C30.1703 14.2861 28.5713 15.8851 28.5713 17.8576C28.5713 19.83 30.1703 21.429 32.1427 21.429Z" fill="url(#paint0_linear_266_1542)"/>
<path d="M46.4286 7.14286C48.4011 7.14286 50 5.54387 50 3.57143C50 1.59898 48.4011 0 46.4286 0C44.4562 0 42.8572 1.59898 42.8572 3.57143C42.8572 5.54387 44.4562 7.14286 46.4286 7.14286Z" fill="url(#paint1_linear_266_1542)"/>
<path d="M32.1427 7.14286C34.1152 7.14286 35.7141 5.54387 35.7141 3.57143C35.7141 1.59898 34.1152 0 32.1427 0C30.1703 0 28.5713 1.59898 28.5713 3.57143C28.5713 5.54387 30.1703 7.14286 32.1427 7.14286Z" fill="url(#paint2_linear_266_1542)"/>
<path d="M17.8571 7.14286C19.8295 7.14286 21.4285 5.54387 21.4285 3.57143C21.4285 1.59898 19.8295 0 17.8571 0C15.8846 0 14.2856 1.59898 14.2856 3.57143C14.2856 5.54387 15.8846 7.14286 17.8571 7.14286Z" fill="url(#paint3_linear_266_1542)"/>
<path d="M3.57143 7.14286C5.54387 7.14286 7.14286 5.54387 7.14286 3.57143C7.14286 1.59898 5.54387 0 3.57143 0C1.59898 0 0 1.59898 0 3.57143C0 5.54387 1.59898 7.14286 3.57143 7.14286Z" fill="url(#paint4_linear_266_1542)"/>
<path d="M3.57143 21.429C5.54387 21.429 7.14286 19.83 7.14286 17.8576C7.14286 15.8851 5.54387 14.2861 3.57143 14.2861C1.59898 14.2861 0 15.8851 0 17.8576C0 19.83 1.59898 21.429 3.57143 21.429Z" fill="url(#paint5_linear_266_1542)"/>
<path d="M3.57143 28.5713C2.62423 28.5713 1.71582 28.9476 1.04605 29.6173C0.376274 30.2871 0 31.1955 0 32.1427L0 46.4284C0 47.3756 0.376274 48.284 1.04605 48.9538C1.71582 49.6236 2.62423 49.9999 3.57143 49.9999C4.51863 49.9999 5.42704 49.6236 6.09681 48.9538C6.76658 48.284 7.14286 47.3756 7.14286 46.4284V32.1427C7.14286 31.1955 6.76658 30.2871 6.09681 29.6173C5.42704 28.9476 4.51863 28.5713 3.57143 28.5713Z" fill="#434343"/>
<path d="M32.1427 28.5713C31.1955 28.5713 30.2871 28.9476 29.6173 29.6173C28.9476 30.2871 28.5713 31.1955 28.5713 32.1427V46.4284C28.5713 47.3756 28.9476 48.284 29.6173 48.9538C30.2871 49.6236 31.1955 49.9999 32.1427 49.9999C33.0899 49.9999 33.9983 49.6236 34.6681 48.9538C35.3379 48.284 35.7141 47.3756 35.7141 46.4284V32.1427C35.7141 31.1955 35.3379 30.2871 34.6681 29.6173C33.9983 28.9476 33.0899 28.5713 32.1427 28.5713Z" fill="#434343"/>
<path d="M17.8571 14.2861C16.9099 14.2861 16.0015 14.6624 15.3317 15.3322C14.6619 16.002 14.2856 16.9104 14.2856 17.8576V46.429C14.2856 46.898 14.378 47.3624 14.5575 47.7957C14.737 48.229 15.0001 48.6227 15.3317 48.9544C15.6633 49.286 16.057 49.5491 16.4903 49.7286C16.9237 49.908 17.3881 50.0004 17.8571 50.0004C18.3261 50.0004 18.7905 49.908 19.2238 49.7286C19.6571 49.5491 20.0508 49.286 20.3825 48.9544C20.7141 48.6227 20.9772 48.229 21.1566 47.7957C21.3361 47.3624 21.4285 46.898 21.4285 46.429V17.8576C21.4285 16.9104 21.0522 16.002 20.3825 15.3322C19.7127 14.6624 18.8043 14.2861 17.8571 14.2861Z" fill="#434343"/>
<path d="M46.4286 14.2861C45.4814 14.2861 44.573 14.6624 43.9032 15.3322C43.2335 16.002 42.8572 16.9104 42.8572 17.8576V46.429C42.8572 47.3762 43.2335 48.2846 43.9032 48.9544C44.573 49.6241 45.4814 50.0004 46.4286 50.0004C47.3758 50.0004 48.2842 49.6241 48.954 48.9544C49.6238 48.2846 50 47.3762 50 46.429V17.8576C50 16.9104 49.6238 16.002 48.954 15.3322C48.2842 14.6624 47.3758 14.2861 46.4286 14.2861Z" fill="#434343"/>
<defs>
<linearGradient id="paint0_linear_266_1542" x1="-0.000133514" y1="10.7147" x2="49.9999" y2="10.7147" gradientUnits="userSpaceOnUse">
<stop stop-color="#3479F3"/>
<stop offset="1" stop-color="#7FE4FF"/>
</linearGradient>
<linearGradient id="paint1_linear_266_1542" x1="3.3915e-05" y1="10.7143" x2="50" y2="10.7143" gradientUnits="userSpaceOnUse">
<stop stop-color="#3479F3"/>
<stop offset="1" stop-color="#7FE4FF"/>
</linearGradient>
<linearGradient id="paint2_linear_266_1542" x1="-0.000133514" y1="10.7143" x2="49.9999" y2="10.7143" gradientUnits="userSpaceOnUse">
<stop stop-color="#3479F3"/>
<stop offset="1" stop-color="#7FE4FF"/>
</linearGradient>
<linearGradient id="paint3_linear_266_1542" x1="-6.86646e-05" y1="10.7143" x2="49.9999" y2="10.7143" gradientUnits="userSpaceOnUse">
<stop stop-color="#3479F3"/>
<stop offset="1" stop-color="#7FE4FF"/>
</linearGradient>
<linearGradient id="paint4_linear_266_1542" x1="0" y1="10.7143" x2="50" y2="10.7143" gradientUnits="userSpaceOnUse">
<stop stop-color="#3479F3"/>
<stop offset="1" stop-color="#7FE4FF"/>
</linearGradient>
<linearGradient id="paint5_linear_266_1542" x1="0" y1="10.7147" x2="50" y2="10.7147" gradientUnits="userSpaceOnUse">
<stop stop-color="#3479F3"/>
<stop offset="1" stop-color="#7FE4FF"/>
</linearGradient>
</defs>
</svg>
