<svg width="50" height="50" viewBox="0 0 50 50" fill="none" xmlns="http://www.w3.org/2000/svg">
<path d="M37.0763 36.3987C37.3947 33.7483 37.299 33.3616 39.2716 33.7893L39.7736 33.8342C41.2911 33.9026 43.2755 33.5901 44.4611 33.0491C46.9708 31.885 48.4591 29.9397 45.9845 30.4514C40.34 31.6155 39.9298 29.7034 39.9298 29.7034C45.8927 20.8557 48.3868 9.62525 46.2325 6.8772C40.3654 -0.622802 30.2072 2.92407 30.0372 3.01782L29.9825 3.02759C28.8693 2.79321 27.6388 2.6565 26.213 2.63696C23.6583 2.5979 21.7208 3.30689 20.2482 4.42212C20.2482 4.42212 2.12903 -3.04272 2.97083 13.8108C3.15052 17.3967 8.10755 40.9592 14.0255 33.8303C16.1915 31.2249 18.2814 29.0237 18.2814 29.0237C19.3165 29.7131 20.5607 30.0647 21.8634 29.9378L21.965 29.8518C21.9349 30.1894 21.9487 30.5295 22.006 30.8635C20.4825 32.5667 20.9318 32.8655 17.8849 33.4924C14.8029 34.1272 16.6154 35.2581 17.795 35.5549C19.2286 35.9143 22.545 36.4221 24.7872 33.2854L24.6974 33.6428C25.295 34.1213 25.254 37.0803 25.3419 39.1936C25.4298 41.3069 25.5685 43.2815 26.0001 44.4436C26.4318 45.6057 26.9376 48.6038 30.9415 47.7639C34.2872 47.0471 36.8458 46.0139 37.0802 36.4163" fill="black"/>
<path d="M37.0763 36.3987C37.3947 33.7483 37.299 33.3616 39.2716 33.7893L39.7736 33.8342C41.2911 33.9026 43.2755 33.5901 44.4611 33.0491C46.9708 31.885 48.4591 29.9397 45.9845 30.4514C40.34 31.6155 39.9298 29.7034 39.9298 29.7034C45.8927 20.8557 48.3868 9.62525 46.2325 6.8772C40.3654 -0.622802 30.2072 2.92407 30.0372 3.01782L29.9825 3.02759C28.8693 2.79321 27.6388 2.6565 26.213 2.63696C23.6583 2.5979 21.7208 3.30689 20.2482 4.42212C20.2482 4.42212 2.12904 -3.04272 2.97083 13.8108C3.15052 17.3967 8.10755 40.9592 14.0255 33.8303C16.1915 31.2249 18.2814 29.0237 18.2814 29.0237C19.3165 29.7131 20.5607 30.0647 21.8634 29.9378L21.965 29.8518C21.9349 30.1894 21.9487 30.5295 22.006 30.8635C20.4825 32.5667 20.9318 32.8655 17.8849 33.4924C14.8029 34.1272 16.6154 35.2581 17.795 35.5549C19.2286 35.9143 22.545 36.4221 24.7872 33.2854L24.6974 33.6428C25.295 34.1213 25.254 37.0803 25.3419 39.1936C25.4298 41.3069 25.5685 43.2815 26.0001 44.4436C26.4318 45.6057 26.9376 48.6038 30.9415 47.7639C34.2872 47.0471 36.8458 46.0139 37.0802 36.4163" stroke="black" stroke-width="1.39685"/>
<path d="M45.967 30.4692C40.3225 31.6333 39.9124 29.7212 39.9124 29.7212C45.8752 20.8735 48.3694 9.64305 46.217 6.895C40.3499 -0.604994 30.1917 2.94383 30.0217 3.03563L29.967 3.0454C28.7263 2.79644 27.4649 2.665 26.1995 2.65282C23.6448 2.61376 21.7073 3.32274 20.2346 4.43797C20.2346 4.43797 2.11354 -3.02687 2.95729 13.8266C3.13697 17.4126 8.094 40.9751 14.012 33.8462C16.1917 31.2251 18.2815 29.0239 18.2815 29.0239C19.3167 29.7134 20.5608 30.0649 21.8635 29.938L21.9651 29.852C21.9353 30.1896 21.949 30.5297 22.0061 30.8637C20.4827 32.5669 20.9319 32.8657 17.885 33.4927C14.803 34.1274 16.6155 35.2583 17.7952 35.5552C19.2288 35.9145 22.5452 36.4223 24.7874 33.2856L24.6975 33.643C25.2952 34.1216 25.7131 36.7544 25.6428 39.1411C25.5725 41.5278 25.5256 43.1645 25.9944 44.4458C26.4631 45.727 26.9319 48.6059 30.9358 47.7661C34.2815 47.0493 36.0139 45.188 36.2581 42.0903C36.4299 39.8872 36.8167 40.2114 36.844 38.2426L37.1565 37.3091C37.5139 34.3208 37.2151 33.3579 39.2756 33.8071L39.7776 33.852C41.2952 33.9204 43.2815 33.6079 44.4456 33.0669C46.9553 31.9028 48.4436 29.9575 45.969 30.4692H45.967Z" fill="#336791"/>
<path d="M30.0198 2.94338C29.3948 3.13869 40.1057 -0.972637 46.1956 6.80666C48.344 9.55471 45.8538 20.7852 39.8909 29.6328M25.0276 32.1621C24.8713 37.7207 25.0666 43.3184 25.6096 44.6621C26.1526 46.0059 27.3186 48.666 31.3245 47.8106C34.6702 47.0938 35.8889 45.7051 36.4163 42.6406L37.6526 32.8418L25.0276 32.1621ZM20.2268 4.29689C20.2268 4.29689 2.09399 -3.11717 2.93774 13.7363C3.11743 17.3223 8.07446 40.8848 13.9924 33.7559C16.1526 31.1524 18.1057 29.1153 18.1057 29.1153L20.2268 4.29689Z" stroke="white" stroke-width="0.4654" stroke-linecap="round" stroke-linejoin="round"/>
<path d="M39.8928 29.6293C39.8928 29.6293 40.2835 31.5434 45.9475 30.3754C48.4221 29.8637 46.9319 31.809 44.4241 32.9731C42.3655 33.9301 37.7483 34.1742 37.6721 32.8559C37.4768 29.4477 40.1018 30.4828 39.9124 29.6293C39.7405 28.8598 38.5647 28.1059 37.7913 26.2231C37.1135 24.5825 28.4944 11.9848 40.1819 13.8539C40.6116 13.766 37.135 2.72113 26.1975 2.56097C15.26 2.40082 15.6057 16.0082 15.6057 16.0082" stroke="white" stroke-width="0.4654" stroke-linecap="round" stroke-linejoin="bevel"/>
<path d="M21.9672 30.7967C20.4438 32.4999 20.893 32.7987 17.8461 33.4256C14.7641 34.0604 16.5766 35.1913 17.7563 35.4881C19.1899 35.8475 22.5063 36.3553 24.7485 33.2167C25.4321 32.2596 24.7446 30.7362 23.8071 30.3495C23.3539 30.162 22.7485 29.9276 21.9711 30.7987L21.9672 30.7967Z" stroke="white" stroke-width="0.4654" stroke-linejoin="round"/>
<path d="M21.8676 30.7675C21.7113 29.7656 22.1957 28.5761 22.7133 27.1816C23.4906 25.0917 25.2836 23.0019 23.85 16.3671C22.7817 11.4257 15.6078 15.3378 15.6078 16.0078C15.6078 16.6777 15.932 19.4062 15.4906 22.58C14.9106 26.7246 18.1273 30.2285 21.8305 29.871" stroke="white" stroke-width="0.4654" stroke-linecap="round" stroke-linejoin="round"/>
<path d="M20.1606 15.9085C20.1274 16.137 20.5806 16.7484 21.1685 16.8304C21.7564 16.9124 22.2583 16.4359 22.2915 16.2054C22.3247 15.9749 21.8716 15.7249 21.2837 15.6429C20.6958 15.5609 20.1899 15.682 20.1606 15.9085Z" fill="white" stroke="white" stroke-width="0.15535"/>
<path d="M38.0592 15.4417C38.0905 15.6702 37.6393 16.2816 37.0514 16.3636C36.4635 16.4456 35.9577 15.9691 35.9284 15.7386C35.8991 15.5081 36.3483 15.2581 36.9362 15.1761C37.5241 15.0941 38.0299 15.2152 38.0592 15.4417Z" fill="white" stroke="white" stroke-width="0.07735"/>
<path d="M40.1606 13.8574C40.2583 15.6543 39.7739 16.875 39.7114 18.7871C39.6216 21.5645 41.0356 24.7441 38.9048 27.9277" stroke="white" stroke-width="0.4654" stroke-linecap="round" stroke-linejoin="round"/>
</svg>
