<svg width="50" height="50" viewBox="0 0 50 50" fill="none" xmlns="http://www.w3.org/2000/svg">
<g clip-path="url(#clip0_266_1115)">
<path d="M24.7859 0.0136719C12.1246 0.0136719 12.9152 5.52642 12.9152 5.52642L12.9293 11.2378H25.0117V12.9525H8.13029C8.13029 12.9525 0.0283203 12.0299 0.0283203 24.8564C0.0283203 37.6833 7.09992 37.2284 7.09992 37.2284H11.3202V31.2762C11.3202 31.2762 11.0927 24.1762 18.2789 24.1762H30.2626C30.2626 24.1762 36.9953 24.2854 36.9953 17.6431V6.66034C36.9953 6.66034 38.0179 0.0136719 24.7859 0.0136719ZM18.1237 3.85446C18.4092 3.8542 18.692 3.91047 18.9558 4.02005C19.2196 4.12963 19.4593 4.29038 19.6612 4.49308C19.8631 4.69578 20.0232 4.93646 20.1324 5.20135C20.2415 5.46625 20.2976 5.75015 20.2973 6.03681C20.2976 6.32347 20.2415 6.60737 20.1324 6.87226C20.0232 7.13716 19.8631 7.37784 19.6612 7.58054C19.4593 7.78324 19.2196 7.94398 18.9558 8.05357C18.692 8.16315 18.4092 8.21942 18.1237 8.21916C17.8382 8.21942 17.5554 8.16315 17.2916 8.05357C17.0277 7.94398 16.788 7.78324 16.5861 7.58054C16.3842 7.37784 16.2241 7.13716 16.115 6.87226C16.0058 6.60737 15.9498 6.32347 15.9501 6.03681C15.9498 5.75015 16.0058 5.46625 16.115 5.20135C16.2241 4.93646 16.3842 4.69578 16.5861 4.49308C16.788 4.29038 17.0277 4.12963 17.2916 4.02005C17.5554 3.91047 17.8382 3.8542 18.1237 3.85446Z" fill="url(#paint0_linear_266_1115)"/>
<path d="M25.1454 49.829C37.8067 49.829 37.0161 44.3162 37.0161 44.3162L37.0021 38.6051H24.9194V36.8904H41.8008C41.8008 36.8904 49.9028 37.8129 49.9028 24.9861C49.9028 12.1594 42.8312 12.6143 42.8312 12.6143H38.6109V18.5663C38.6109 18.5663 38.8384 25.6663 31.6522 25.6663H19.6686C19.6686 25.6663 12.9358 25.557 12.9358 32.1996V43.1825C12.9358 43.1825 11.9134 49.829 25.1452 49.829H25.1454ZM31.8077 45.9886C31.5221 45.9889 31.2394 45.9326 30.9755 45.823C30.7117 45.7134 30.472 45.5527 30.2701 45.35C30.0682 45.1473 29.9081 44.9066 29.799 44.6417C29.6898 44.3768 29.6338 44.0929 29.634 43.8063C29.6337 43.5196 29.6898 43.2356 29.7989 42.9707C29.908 42.7058 30.0681 42.4651 30.27 42.2624C30.4719 42.0597 30.7116 41.8989 30.9755 41.7893C31.2393 41.6797 31.5221 41.6234 31.8077 41.6237C32.0932 41.6234 32.3759 41.6797 32.6398 41.7893C32.9036 41.8989 33.1433 42.0596 33.3452 42.2623C33.5471 42.465 33.7072 42.7057 33.8163 42.9706C33.9255 43.2355 33.9815 43.5194 33.9813 43.8061C33.9815 44.0927 33.9255 44.3766 33.8163 44.6415C33.7072 44.9064 33.5471 45.1471 33.3452 45.3498C33.1433 45.5525 32.9036 45.7132 32.6398 45.8228C32.3759 45.9324 32.0932 45.9887 31.8077 45.9884V45.9886Z" fill="url(#paint1_linear_266_1115)"/>
</g>
<defs>
<linearGradient id="paint0_linear_266_1115" x1="4.82125" y1="4.49419" x2="29.6357" y2="28.9628" gradientUnits="userSpaceOnUse">
<stop stop-color="#387EB8"/>
<stop offset="1" stop-color="#366994"/>
</linearGradient>
<linearGradient id="paint1_linear_266_1115" x1="19.992" y1="20.2711" x2="46.6349" y2="45.3568" gradientUnits="userSpaceOnUse">
<stop stop-color="#FFE052"/>
<stop offset="1" stop-color="#FFC331"/>
</linearGradient>
<clipPath id="clip0_266_1115">
<rect width="50" height="50" fill="white"/>
</clipPath>
</defs>
</svg>
