<svg width="50" height="50" viewBox="0 0 50 50" fill="none" xmlns="http://www.w3.org/2000/svg">
<g clip-path="url(#clip0_266_1449)">
<path d="M39.704 14.6932L36.0739 18.3233C42.124 24.3734 42.124 34.2265 36.0739 40.2766C30.0237 46.3267 20.1707 46.3267 14.1205 40.2766C8.07041 34.2265 8.07041 24.3734 14.1205 18.3233L23.8008 8.64305L25.0108 7.26016V0L10.3176 14.6932C8.38695 16.6044 6.85434 18.8793 5.80838 21.3865C4.76243 23.8937 4.22388 26.5833 4.22388 29.2999C4.22388 32.0165 4.76243 34.7062 5.80838 37.2134C6.85434 39.7206 8.38695 41.9955 10.3176 43.9067C12.2288 45.8373 14.5037 47.3699 17.0109 48.4159C19.5181 49.4618 22.2077 50.0004 24.9243 50.0004C27.641 50.0004 30.3306 49.4618 32.8378 48.4159C35.345 47.3699 37.6199 45.8373 39.5311 43.9067C47.8284 35.7822 47.8284 22.6448 39.704 14.6932Z" fill="#EE4C2C"/>
<path d="M32.4438 13.6556C33.9712 13.6556 35.2095 12.4173 35.2095 10.8898C35.2095 9.3623 33.9712 8.12402 32.4438 8.12402C30.9163 8.12402 29.678 9.3623 29.678 10.8898C29.678 12.4173 30.9163 13.6556 32.4438 13.6556Z" fill="#EE4C2C"/>
</g>
<defs>
<clipPath id="clip0_266_1449">
<rect width="50" height="50" fill="white"/>
</clipPath>
</defs>
</svg>
