<svg width="48" height="38" viewBox="0 0 48 38" fill="none" xmlns="http://www.w3.org/2000/svg">
<g clip-path="url(#clip0_266_1158)">
<path d="M27.9999 29.4016C18 29.4016 9.50138 24.1427 9.50138 17.843C9.50138 11.5433 17.0001 6.30266 27 6.30266C39.6294 6.30266 45.4823 11.4037 45.4823 17.7034C45.4823 24.0031 39.0309 29.4016 27.9999 29.4016ZM24 0.00292969C11.0001 0.00292969 0 7.35255 0 16.8022C0 25.7269 10.9335 33.136 23.9336 33.136C36.9336 33.136 48 26.2518 48 16.8022C48 7.35255 36.9999 0.00292969 24 0.00292969Z" fill="url(#paint0_linear_266_1158)"/>
<path d="M19.865 10.2061V37.9857H27.8606V27.1827C29.8595 27.1827 31.0501 26.7244 32.3579 29.2403C34.3569 32.8414 36.8555 37.9857 36.8555 37.9857H46.3501C46.3501 37.9857 40.3535 27.6971 39.8538 27.1827C38.9322 26.1536 37.8549 26.1536 36.3558 25.6392C39.3541 25.1248 42.1494 23.8186 43.1212 21.0199C43.9707 18.4479 43.8708 15.176 42.0498 12.9819C40.4727 11.2457 38.8544 10.2061 34.8566 10.2061H19.865ZM27.8606 15.9916H33.1076C34.3518 15.9916 35.3562 17.2777 35.3562 18.5636C35.3562 19.8498 34.3569 21.1359 33.1076 21.1359H27.8606V15.9916Z" fill="#2165B6"/>
</g>
<defs>
<linearGradient id="paint0_linear_266_1158" x1="18.227" y1="5.63522" x2="34.0768" y2="31.2664" gradientUnits="userSpaceOnUse">
<stop stop-color="#C9CBCE"/>
<stop offset="1" stop-color="#7B7A81"/>
</linearGradient>
<clipPath id="clip0_266_1158">
<rect width="48" height="38" fill="white"/>
</clipPath>
</defs>
</svg>
