<svg width="51" height="59" viewBox="0 0 51 59" fill="none" xmlns="http://www.w3.org/2000/svg">
<path d="M51 29.0357C51 25.6602 46.7691 22.4612 40.2823 20.4774C41.7793 13.8718 41.1139 8.61638 38.1824 6.93381C37.5067 6.53913 36.7167 6.35218 35.8538 6.35218V8.66831C36.332 8.66831 36.7167 8.76179 37.0389 8.93835C38.4527 9.74848 39.066 12.8332 38.5879 16.8007C38.4735 17.777 38.2864 18.8053 38.0577 19.8543C36.0202 19.3557 33.7956 18.9714 31.4566 18.7222C30.0532 16.8007 28.5978 15.0558 27.1321 13.5291C30.521 10.382 33.702 8.65792 35.8642 8.65792V6.3418C33.0055 6.3418 29.2631 8.3775 25.4792 11.9088C21.6953 8.39827 17.9529 6.38334 15.0942 6.38334V8.69947C17.246 8.69947 20.4374 10.4132 23.8263 13.5394C22.371 15.0662 20.9156 16.8007 19.533 18.7222C17.1837 18.9714 14.959 19.3557 12.9215 19.8647C12.6824 18.826 12.5057 17.8186 12.381 16.8527C11.8924 12.8851 12.4953 9.80041 13.8987 8.9799C14.2106 8.79295 14.616 8.70986 15.0942 8.70986V6.39373C14.221 6.39373 13.4309 6.58068 12.7448 6.97536C9.82368 8.65792 9.16877 13.903 10.6761 20.4878C4.21015 22.482 0 25.6706 0 29.0357C0 32.4112 4.23094 35.6102 10.7177 37.5939C9.22075 44.1996 9.88606 49.455 12.8176 51.1376C13.4933 51.5322 14.2833 51.7192 15.1565 51.7192C18.0153 51.7192 21.7576 49.6835 25.5416 46.1522C29.3255 49.6627 33.0679 51.6777 35.9266 51.6777C36.7998 51.6777 37.5899 51.4907 38.276 51.096C41.1971 49.4135 41.852 44.1684 40.3447 37.5836C46.7898 35.5998 51 32.4008 51 29.0357V29.0357ZM37.4651 22.1081C37.0805 23.4479 36.6023 24.8293 36.0618 26.2106C35.6355 25.3797 35.1885 24.5488 34.7 23.7179C34.2218 22.887 33.7124 22.0769 33.203 21.2876C34.6792 21.5057 36.1033 21.7757 37.4651 22.1081ZM32.704 33.1694C31.8932 34.5715 31.0616 35.901 30.1987 37.1369C28.6498 37.272 27.0801 37.3447 25.5 37.3447C23.9303 37.3447 22.3606 37.272 20.8221 37.1473C19.9592 35.9114 19.1172 34.5923 18.3064 33.2006C17.5163 31.84 16.799 30.4586 16.1441 29.0668C16.7886 27.6751 17.5163 26.2833 18.296 24.9227C19.1068 23.5206 19.9384 22.1912 20.8013 20.9552C22.3502 20.8202 23.9199 20.7475 25.5 20.7475C27.0697 20.7475 28.6394 20.8202 30.1779 20.9448C31.0408 22.1808 31.8828 23.4998 32.6936 24.8916C33.4837 26.2522 34.201 27.6336 34.8559 29.0253C34.201 30.4171 33.4837 31.8088 32.704 33.1694ZM36.0618 31.8192C36.6231 33.211 37.1013 34.6027 37.4963 35.9529C36.1345 36.2853 34.7 36.5657 33.2134 36.7838C33.7228 35.9841 34.2322 35.1636 34.7104 34.3223C35.1885 33.4914 35.6355 32.6501 36.0618 31.8192ZM25.5208 42.9013C24.554 41.9042 23.5872 40.7929 22.6309 39.5777C23.5664 39.6193 24.5228 39.6504 25.4896 39.6504C26.4668 39.6504 27.4336 39.6296 28.3795 39.5777C27.4439 40.7929 26.4772 41.9042 25.5208 42.9013ZM17.7866 36.7838C16.3104 36.5657 14.8863 36.2957 13.5245 35.9633C13.9091 34.6235 14.3873 33.2421 14.9278 31.8607C15.3541 32.6916 15.8011 33.5225 16.2896 34.3534C16.7782 35.1843 17.2772 35.9945 17.7866 36.7838ZM25.4688 15.1701C26.4356 16.1672 27.4024 17.2785 28.3587 18.4937C27.4232 18.4521 26.4668 18.421 25.5 18.421C24.5228 18.421 23.5561 18.4417 22.6101 18.4937C23.5457 17.2785 24.5124 16.1672 25.4688 15.1701ZM17.7762 21.2876C17.2668 22.0873 16.7574 22.9078 16.2792 23.7491C15.8011 24.58 15.3541 25.4109 14.9278 26.2418C14.3665 24.85 13.8883 23.4583 13.4933 22.1081C14.8551 21.7861 16.2896 21.5057 17.7762 21.2876V21.2876ZM8.36833 34.2911C4.68834 32.7228 2.30779 30.6663 2.30779 29.0357C2.30779 27.4051 4.68834 25.3382 8.36833 23.7803C9.26233 23.396 10.2395 23.0532 11.2479 22.7313C11.8404 24.767 12.6201 26.8857 13.5868 29.0565C12.6305 31.2168 11.8612 33.3252 11.279 35.3505C10.2499 35.0285 9.27273 34.6754 8.36833 34.2911ZM13.9611 49.133C12.5473 48.3229 11.934 45.2382 12.4121 41.2707C12.5265 40.2944 12.7136 39.2661 12.9423 38.2171C14.9798 38.7156 17.2044 39.0999 19.5434 39.3492C20.9468 41.2707 22.4022 43.0155 23.8679 44.5423C20.479 47.6893 17.298 49.4135 15.1358 49.4135C14.668 49.4031 14.2729 49.3096 13.9611 49.133V49.133ZM38.619 41.2187C39.1076 45.1863 38.5047 48.271 37.1013 49.0915C36.7894 49.2784 36.384 49.3615 35.9058 49.3615C33.754 49.3615 30.5626 47.6478 27.1737 44.5215C28.629 42.9948 30.0844 41.2603 31.467 39.3388C33.8163 39.0896 36.041 38.7053 38.0785 38.1963C38.3176 39.2453 38.5047 40.2528 38.619 41.2187V41.2187ZM42.6213 34.2911C41.7273 34.6754 40.7501 35.0182 39.7417 35.3401C39.1492 33.3044 38.3695 31.1856 37.4028 29.0149C38.3592 26.8546 39.1284 24.7462 39.7106 22.7209C40.7397 23.0428 41.7169 23.396 42.6317 23.7803C46.3117 25.3486 48.6922 27.4051 48.6922 29.0357C48.6818 30.6663 46.3013 32.7332 42.6213 34.2911V34.2911Z" fill="#61DAFB"/>
<path d="M25.4897 33.7821C28.1135 33.7821 30.2404 31.657 30.2404 29.0356C30.2404 26.4141 28.1135 24.2891 25.4897 24.2891C22.866 24.2891 20.739 26.4141 20.739 29.0356C20.739 31.657 22.866 33.7821 25.4897 33.7821Z" fill="#61DAFB"/>
</svg>
