<svg width="50" height="44" viewBox="0 0 50 44" fill="none" xmlns="http://www.w3.org/2000/svg">
<g clip-path="url(#clip0_266_1216)">
<path d="M48.0312 33.7881C45.3634 35.2123 31.5436 41.0321 28.6014 42.6031C25.6592 44.1743 24.0248 44.1591 21.7005 43.0211C19.3763 41.8831 4.66956 35.7987 2.02029 34.5017C0.696342 33.8537 0 33.3065 0 32.7897V27.6145C0 27.6145 19.1465 23.3455 22.2375 22.2097C25.3282 21.0739 26.4007 21.0329 29.031 22.0197C31.6617 23.0069 47.3901 25.9133 49.9898 26.8885L49.9886 31.9905C49.989 32.5021 49.3892 33.0633 48.0312 33.7881Z" fill="#912626"/>
<path d="M48.0302 28.6443C45.3626 30.0679 31.5431 35.8879 28.601 37.4587C25.659 39.0301 24.0246 39.0147 21.7004 37.8767C19.3761 36.7395 4.6699 30.6541 2.02083 29.3579C-0.628236 28.0609 -0.683694 27.1683 1.91851 26.1247C4.52072 25.0807 19.1463 19.2037 22.2376 18.0679C25.3284 16.9325 26.4006 16.8911 29.031 17.8783C31.6615 18.8651 45.3985 24.4653 47.9978 25.4403C50.598 26.4165 50.6978 27.2203 48.0302 28.6443Z" fill="#C6302B"/>
<path d="M48.0312 25.415C45.3634 26.8394 31.5436 32.659 28.6014 34.2306C25.6592 35.8012 24.0248 35.786 21.7005 34.648C19.3761 33.5106 4.66956 27.4256 2.02029 26.1286C0.696342 25.4806 0 24.9342 0 24.4172V19.2414C0 19.2414 19.1465 14.9726 22.2375 13.8368C25.3282 12.701 26.4007 12.6598 29.031 13.6468C31.6619 14.6338 47.3903 17.5396 49.9898 18.515L49.9886 23.6176C49.989 24.129 49.3892 24.6902 48.0312 25.415Z" fill="#912626"/>
<path d="M48.0302 20.2702C45.3626 21.6942 31.5431 27.5138 28.601 29.0852C25.659 30.656 24.0246 30.6406 21.7004 29.5026C19.3761 28.3654 4.6699 22.2802 2.02083 20.9838C-0.628236 19.6872 -0.683694 18.7944 1.91851 17.7504C4.52072 16.707 19.1464 10.8296 22.2376 9.69401C25.3284 8.55841 26.4006 8.51721 29.031 9.50421C31.6615 10.491 45.3985 16.0908 47.9978 17.0662C50.598 18.0422 50.6978 18.8462 48.0302 20.2702Z" fill="#C6302B"/>
<path d="M48.0312 16.731C45.3634 18.155 31.5436 23.975 28.6014 25.5466C25.6592 27.1174 24.0248 27.102 21.7005 25.964C19.3761 24.8266 4.66956 18.7414 2.02029 17.445C0.696342 16.7964 0 16.2498 0 15.7334V10.5574C0 10.5574 19.1465 6.28877 22.2375 5.15317C25.3282 4.01717 26.4007 3.97637 29.031 4.96317C31.6619 5.95017 47.3903 8.85597 49.9898 9.83137L49.9886 14.9338C49.989 15.4448 49.3892 16.006 48.0312 16.731Z" fill="#912626"/>
<path d="M48.0304 11.5864C45.3627 13.0104 31.5433 18.8304 28.6011 20.4012C25.6591 21.972 24.0247 21.9566 21.7006 20.8192C19.3764 19.6812 4.67005 13.5964 2.02118 12.2998C-0.62809 11.0034 -0.683352 10.1104 1.91866 9.06658C4.52086 8.02298 19.1466 2.14638 22.2378 1.01038C25.3285 -0.125417 26.4008 -0.166217 29.0311 0.820783C31.6616 1.80778 45.3987 7.40758 47.9979 8.38298C50.5982 9.35818 50.698 10.1624 48.0304 11.5864Z" fill="#C6302B"/>
<path d="M31.1037 6.55157L26.8058 7.00857L25.8436 9.37977L24.2897 6.73377L19.3268 6.27697L23.03 4.90917L21.9189 2.80957L25.3859 4.19837L28.6544 3.10237L27.771 5.27337L31.1037 6.55157ZM25.5871 18.0552L17.5658 14.6478L29.0596 12.8408L25.5871 18.0552ZM14.4663 7.86957C17.8591 7.86957 20.6096 8.96157 20.6096 10.3084C20.6096 11.6556 17.8591 12.7474 14.4663 12.7474C11.0734 12.7474 8.323 11.6554 8.323 10.3084C8.323 8.96157 11.0734 7.86957 14.4663 7.86957Z" fill="white"/>
<path d="M36.1831 7.19942L42.9856 9.95262L36.189 12.7032L36.1831 7.19942Z" fill="#621B1C"/>
<path d="M28.6572 10.2482L36.183 7.19922L36.1889 12.703L35.451 12.9986L28.6572 10.2482Z" fill="#9A2928"/>
</g>
<defs>
<clipPath id="clip0_266_1216">
<rect width="50" height="44" fill="white"/>
</clipPath>
</defs>
</svg>
