<svg width="50" height="50" viewBox="0 0 50 50" fill="none" xmlns="http://www.w3.org/2000/svg">
<g clip-path="url(#clip0_266_1371)">
<path d="M49.6584 24.3863L47.5594 23.0869C47.5417 22.8829 47.5217 22.6791 47.4996 22.4756L49.3035 20.7929C49.3937 20.7092 49.4609 20.6036 49.4987 20.4864C49.5365 20.3692 49.5436 20.2443 49.5193 20.1236C49.4956 20.0028 49.4414 19.8901 49.3617 19.7963C49.282 19.7025 49.1796 19.6306 49.0643 19.5877L46.7582 18.7254C46.7003 18.5262 46.6401 18.3278 46.5775 18.1301L48.016 16.1322C48.0881 16.0323 48.1334 15.9157 48.1477 15.7934C48.162 15.6711 48.1447 15.5471 48.0976 15.4333C48.0505 15.3196 47.9751 15.2197 47.8785 15.1433C47.782 15.0668 47.6675 15.0164 47.5459 14.9967L45.1143 14.6012C45.0197 14.4168 44.9213 14.2351 44.8221 14.0551L45.8438 11.8123C45.8952 11.7004 45.917 11.5771 45.9072 11.4544C45.8973 11.3316 45.8561 11.2134 45.7875 11.1111C45.7194 11.0085 45.6261 10.9251 45.5165 10.869C45.4069 10.8128 45.2848 10.7858 45.1617 10.7904L42.6937 10.8763C42.5663 10.7167 42.4363 10.5591 42.3039 10.4035L42.8711 7.99959C42.8995 7.8797 42.8967 7.75454 42.8629 7.63604C42.8292 7.51754 42.7657 7.40964 42.6785 7.32264C42.5915 7.23554 42.4837 7.17212 42.3653 7.13842C42.2468 7.10471 42.1218 7.10183 42.002 7.13006L39.5986 7.69666C39.4426 7.56438 39.2847 7.43442 39.1248 7.30682L39.2111 4.83904C39.2158 4.71602 39.1887 4.59386 39.1327 4.48426C39.0766 4.37466 38.9933 4.28129 38.8908 4.21307C38.7885 4.14456 38.6703 4.10339 38.5476 4.09347C38.4249 4.08356 38.3016 4.10523 38.1897 4.15643L35.9475 5.17869C35.7666 5.07887 35.5846 4.98121 35.4014 4.88572L35.0049 2.45369C34.985 2.33225 34.9345 2.21789 34.8581 2.12144C34.7817 2.025 34.6819 1.94966 34.5682 1.90258C34.4545 1.8555 34.3307 1.83822 34.2084 1.8524C34.0862 1.86657 33.9696 1.91172 33.8697 1.98357L31.8705 3.42205C31.6738 3.35955 31.476 3.2992 31.2764 3.24197L30.4141 0.935527C30.3712 0.81998 30.2994 0.717364 30.2055 0.637486C30.1116 0.557608 29.9989 0.503136 29.8779 0.479276C29.7573 0.455537 29.6326 0.462911 29.5156 0.500704C29.3986 0.538497 29.2931 0.605464 29.2092 0.695292L27.5266 2.50057C27.3231 2.47776 27.1193 2.45784 26.9152 2.4408L25.6158 0.341191C25.5511 0.236567 25.4607 0.15022 25.3532 0.0903375C25.2457 0.0304552 25.1247 -0.000976563 25.0017 -0.000976562C24.8786 -0.000976562 24.7576 0.0304552 24.6501 0.0903375C24.5427 0.15022 24.4522 0.236567 24.3875 0.341191L23.0881 2.4408C22.8838 2.45781 22.6798 2.47774 22.4762 2.50057L20.7932 0.695292C20.7093 0.605131 20.6037 0.537933 20.4865 0.500093C20.3694 0.462253 20.2444 0.455028 20.1237 0.479107C20.0029 0.503186 19.8903 0.557768 19.7966 0.637659C19.7029 0.717549 19.6312 0.820091 19.5883 0.935527L18.7262 3.24197C18.5264 3.2992 18.3287 3.35994 18.1314 3.42205L16.1326 1.98357C16.0328 1.91139 15.9161 1.86604 15.7937 1.85185C15.6713 1.83765 15.5473 1.8551 15.4336 1.90252C15.32 1.94971 15.2203 2.02508 15.1439 2.12153C15.0675 2.21797 15.017 2.33229 14.9971 2.45369L14.6006 4.88572C14.417 4.98084 14.2355 5.07869 14.0545 5.17869L11.8121 4.15623C11.7002 4.105 11.577 4.08333 11.4543 4.09328C11.3316 4.10323 11.2135 4.14447 11.1113 4.21307C11.0088 4.28124 10.9254 4.3746 10.8693 4.4842C10.8131 4.5938 10.786 4.71598 10.7906 4.83904L10.8766 7.30682C10.7169 7.43466 10.5589 7.56462 10.4027 7.69666L7.99941 7.13025C7.87953 7.10216 7.75446 7.10508 7.63601 7.13874C7.51757 7.1724 7.40966 7.23569 7.32246 7.32264C7.23523 7.40964 7.17174 7.51754 7.13803 7.63604C7.10432 7.75454 7.10151 7.8797 7.12988 7.99959L7.69609 10.4035C7.56465 10.5592 7.43477 10.7168 7.30723 10.8763L4.83926 10.7904C4.71635 10.7865 4.59448 10.8139 4.48503 10.87C4.37558 10.926 4.28215 11.0089 4.21348 11.1109C4.14499 11.2132 4.10382 11.3314 4.09387 11.4541C4.08392 11.5768 4.10553 11.7001 4.15664 11.8121L5.17891 14.0551C5.07949 14.2351 4.98125 14.4168 4.88594 14.6012L2.45449 14.9967C2.33299 15.0165 2.21856 15.067 2.12206 15.1434C2.02556 15.2199 1.95019 15.3197 1.9031 15.4335C1.856 15.5472 1.83875 15.6711 1.85298 15.7934C1.8672 15.9157 1.91243 16.0323 1.98438 16.1322L3.42285 18.1303C3.36035 18.3275 3.29961 18.5256 3.24219 18.7254L0.935938 19.5877C0.820763 19.6309 0.718533 19.7029 0.638925 19.7967C0.559316 19.8905 0.504962 20.0031 0.481006 20.1238C0.45705 20.2444 0.464285 20.3692 0.502026 20.4863C0.539766 20.6034 0.606765 20.709 0.69668 20.7929L2.50078 22.4754C2.47832 22.6785 2.4584 22.883 2.44121 23.0869L0.341797 24.3863C0.23719 24.4511 0.150877 24.5415 0.0910547 24.649C0.0312328 24.7565 -0.00011103 24.8775 2.9552e-07 25.0006C2.9552e-07 25.2514 0.129492 25.4836 0.341992 25.6144L2.44121 26.9139C2.4584 27.1183 2.47832 27.3224 2.50078 27.5254L0.696485 29.2084C0.606409 29.2923 0.539269 29.3978 0.501439 29.5149C0.463608 29.632 0.456344 29.7569 0.480335 29.8776C0.504326 29.9983 0.558776 30.1109 0.638516 30.2046C0.718255 30.2984 0.820636 30.3702 0.935938 30.4133L3.24219 31.2756C3.29961 31.4752 3.36035 31.6734 3.42285 31.8707L1.98438 33.8689C1.9123 33.9688 1.86697 34.0855 1.85271 34.2078C1.83845 34.3301 1.85573 34.4541 1.90291 34.5679C1.95009 34.6817 2.0256 34.7815 2.12225 34.8578C2.21889 34.9342 2.33347 34.9845 2.45508 35.0041L4.88613 35.3996C4.98125 35.584 5.07871 35.7656 5.1791 35.9465L4.15664 38.1887C4.10544 38.3007 4.08378 38.4239 4.09373 38.5466C4.10368 38.6694 4.1449 38.7875 4.21348 38.8898C4.28166 38.9923 4.37499 39.0756 4.48455 39.1317C4.59412 39.1878 4.71625 39.2149 4.83926 39.2103L7.30606 39.124C7.43477 39.2844 7.56426 39.4416 7.69609 39.5978L7.12988 42.0021C7.10153 42.1218 7.10435 42.2468 7.13807 42.365C7.17178 42.4833 7.23527 42.591 7.32246 42.6777C7.40941 42.765 7.51732 42.8285 7.63586 42.8621C7.7544 42.8958 7.87958 42.8984 7.99941 42.8697L10.4027 42.3037C10.559 42.4365 10.7172 42.5654 10.8768 42.6924L10.7908 45.1609C10.7864 45.2839 10.8135 45.406 10.8696 45.5156C10.9256 45.6252 11.0088 45.7186 11.1112 45.7869C11.2135 45.8553 11.3317 45.8963 11.4543 45.9061C11.577 45.9159 11.7002 45.8942 11.8121 45.843L14.0545 44.8213C14.235 44.9216 14.4171 45.0192 14.6006 45.1141L14.9971 47.5447C15.0167 47.6663 15.0671 47.7809 15.1435 47.8774C15.2199 47.974 15.3198 48.0494 15.4336 48.0965C15.5474 48.1436 15.6712 48.1609 15.7936 48.1468C15.9159 48.1327 16.0326 48.0876 16.1326 48.0158L18.1305 46.5764C18.3277 46.6389 18.526 46.7 18.7256 46.7574L19.5879 49.0629C19.6308 49.1783 19.7026 49.2807 19.7965 49.3604C19.8903 49.4401 20.003 49.4944 20.1238 49.5182C20.2445 49.5425 20.3694 49.5354 20.4865 49.4976C20.6037 49.4598 20.7091 49.3925 20.7928 49.3021L22.4758 47.4978C22.6789 47.5213 22.8832 47.5408 23.0877 47.559L24.3871 49.6582C24.4519 49.7627 24.5423 49.8489 24.6497 49.9087C24.7571 49.9685 24.878 49.9999 25.001 50C25.124 49.9999 25.2449 49.9685 25.3524 49.9087C25.4599 49.8489 25.5504 49.7627 25.6152 49.6582L26.9146 47.559C27.1191 47.5408 27.3232 47.5213 27.5262 47.4978L29.2088 49.3021C29.2924 49.3924 29.3979 49.4596 29.515 49.4975C29.6321 49.5353 29.7569 49.5424 29.8775 49.5182C29.9983 49.4944 30.111 49.44 30.2048 49.3603C30.2986 49.2806 30.3705 49.1782 30.4135 49.0629L31.2758 46.7574C31.4754 46.7 31.6738 46.6389 31.8711 46.5764L33.8693 48.0158C33.9693 48.0877 34.086 48.1328 34.2083 48.1469C34.3306 48.161 34.4544 48.1437 34.5682 48.0965C34.6819 48.0493 34.7816 47.9739 34.858 47.8773C34.9344 47.7807 34.9848 47.6662 35.0045 47.5447L35.401 45.1141C35.5844 45.0189 35.7658 44.9201 35.9469 44.8211L38.1893 45.843C38.3012 45.8943 38.4244 45.9162 38.5471 45.9065C38.6699 45.8967 38.7881 45.8557 38.8906 45.7873C38.993 45.719 39.0762 45.6255 39.1322 45.5158C39.1883 45.4062 39.2153 45.284 39.2107 45.1609L39.1248 42.6926C39.2846 42.5655 39.4424 42.4358 39.598 42.3037L42.0016 42.8697C42.2457 42.9271 42.5016 42.856 42.6779 42.6777C42.7651 42.591 42.8286 42.4833 42.8623 42.365C42.896 42.2468 42.8989 42.1218 42.8705 42.0021L42.3045 39.5978C42.4363 39.4416 42.5662 39.2844 42.6932 39.124L45.1611 39.2103C45.2841 39.215 45.4063 39.188 45.5158 39.1319C45.6254 39.0758 45.7188 38.9925 45.7869 38.89C45.8556 38.7877 45.8969 38.6695 45.9067 38.5466C45.9166 38.4238 45.8948 38.3005 45.8434 38.1885L44.8215 35.9467C44.9213 35.7656 45.0193 35.584 45.1139 35.3998L47.5455 35.0041C47.6671 34.9846 47.7816 34.9342 47.8781 34.8577C47.9746 34.7812 48.0499 34.6813 48.0967 34.5674C48.1438 34.4537 48.1611 34.3299 48.1469 34.2076C48.1328 34.0854 48.0875 33.9688 48.0156 33.8689L46.5771 31.8709C46.6393 31.6734 46.7 31.4752 46.7578 31.2756L49.0637 30.4133C49.1791 30.3703 49.2816 30.2985 49.3613 30.2046C49.441 30.1108 49.4953 29.998 49.5189 29.8771C49.5433 29.7565 49.5362 29.6316 49.4983 29.5145C49.4605 29.3974 49.3932 29.292 49.3029 29.2084L47.4992 27.5254C47.5211 27.3223 47.5412 27.118 47.5588 26.914L49.658 25.6144C49.7627 25.5498 49.849 25.4595 49.9089 25.352C49.9688 25.2446 50.0001 25.1236 50 25.0006C50 24.7504 49.8711 24.5178 49.6584 24.3863ZM35.6092 41.7996C34.8076 41.6267 34.2979 40.8367 34.4699 40.0326C34.6414 39.2295 35.4309 38.7183 36.2322 38.8912C37.0338 39.0629 37.5443 39.8543 37.3725 40.6568C37.2006 41.4596 36.4104 41.9713 35.6092 41.7996ZM34.8959 36.9756C34.722 36.9383 34.5424 36.9356 34.3674 36.9678C34.1925 37 34.0256 37.0663 33.8763 37.163C33.727 37.2597 33.5982 37.385 33.4974 37.5315C33.3965 37.678 33.3255 37.843 33.2885 38.017L32.5432 41.4949C30.2434 42.5387 27.6896 43.1185 25 43.1185C22.2488 43.1185 19.6395 42.5099 17.2988 41.4217L16.5539 37.9439C16.3973 37.2121 15.6777 36.7459 14.9469 36.9029L11.8766 37.5623C11.3059 36.975 10.7756 36.3499 10.2891 35.6912H25.2285C25.3975 35.6912 25.5102 35.6605 25.5102 35.5066V30.2221C25.5102 30.0683 25.3975 30.0377 25.2283 30.0377H20.8594V26.6881H25.585C26.0162 26.6881 27.8914 26.8111 28.4908 29.208C28.6787 29.9451 29.0908 32.3428 29.3729 33.1103C29.6537 33.9713 30.7973 35.691 32.016 35.691H39.4604C39.5449 35.691 39.6352 35.6814 39.7303 35.6642C39.2138 36.3657 38.6479 37.0295 38.0371 37.6506L34.8961 36.9756H34.8959ZM14.2338 41.7269C13.432 41.9 12.6428 41.3889 12.4703 40.5857C12.2988 39.7812 12.8086 38.9916 13.6102 38.8187C14.4119 38.6473 15.2016 39.1584 15.3734 39.9613C15.5449 40.764 15.0348 41.5551 14.2336 41.7269H14.2338ZM8.56641 18.7465C8.89902 19.4969 8.56055 20.3763 7.81113 20.7084C7.06172 21.0414 6.18457 20.7025 5.85215 19.9515C5.51953 19.2006 5.85781 18.3226 6.60742 17.9896C6.78571 17.9106 6.97785 17.8674 7.17283 17.8626C7.36781 17.8579 7.56182 17.8916 7.74376 17.9619C7.9257 18.0321 8.09201 18.1376 8.23316 18.2722C8.37432 18.4068 8.48756 18.5679 8.56641 18.7463V18.7465ZM6.82461 22.8754L10.023 21.4541C10.3514 21.308 10.6083 21.0376 10.7374 20.7022C10.8664 20.3668 10.8571 19.9939 10.7113 19.6654L10.0527 18.176H12.6434V29.8533H7.4166C6.95329 28.2223 6.71888 26.5348 6.72012 24.8392C6.72012 24.1756 6.75586 23.5197 6.82461 22.8752V22.8754ZM20.8602 21.7412V18.2992H27.0293C27.348 18.2992 29.2793 18.6676 29.2793 20.1117C29.2793 21.3107 27.798 21.7406 26.5799 21.7406H20.8602V21.7412ZM43.2805 24.8392C43.2805 25.2959 43.2637 25.7478 43.2303 26.1963H41.3547C41.167 26.1963 41.0914 26.3197 41.0914 26.5035V27.3648C41.0914 29.3922 39.9482 29.8332 38.9465 29.9455C37.9926 30.0529 36.9348 29.5461 36.8045 28.9623C36.2416 25.7971 35.3039 25.1211 33.823 23.9529C35.6609 22.7859 37.573 21.0642 37.573 18.7596C37.573 16.2713 35.8672 14.7039 34.7043 13.9353C33.073 12.8599 31.2668 12.6443 30.7795 12.6443H11.3826C14.0129 9.70877 17.5777 7.62928 21.6096 6.87264L23.8959 9.27108C24.0186 9.39982 24.1654 9.5031 24.328 9.57501C24.4907 9.64692 24.6659 9.68605 24.8437 9.69015C25.0215 9.69425 25.1983 9.66325 25.3641 9.59891C25.5298 9.53457 25.6813 9.43817 25.8098 9.31522L28.368 6.86834C33.7283 7.86639 38.2668 11.2031 40.8822 15.781L39.1309 19.7367C38.8285 20.4213 39.1371 21.2219 39.8197 21.5252L43.1916 23.0228C43.2498 23.6215 43.2805 24.2262 43.2805 24.8392ZM23.8969 4.83221C24.4893 4.26482 25.4289 4.28728 25.9961 4.88045C26.5621 5.47537 26.5406 6.416 25.9469 6.98299C25.3545 7.55057 24.4148 7.5285 23.8477 6.93416C23.5759 6.64868 23.4284 6.26706 23.4377 5.87301C23.4469 5.47896 23.612 5.10466 23.8969 4.83221ZM41.2764 18.8185C41.3552 18.6402 41.4684 18.4791 41.6095 18.3445C41.7506 18.2099 41.9169 18.1045 42.0988 18.0342C42.2808 17.964 42.4747 17.9303 42.6697 17.9351C42.8646 17.9399 43.0567 17.9832 43.235 18.0623C43.9846 18.3947 44.3228 19.2738 43.9902 20.0242C43.9115 20.2027 43.7983 20.3638 43.6571 20.4985C43.516 20.6332 43.3497 20.7387 43.1677 20.809C42.9858 20.8793 42.7917 20.913 42.5967 20.9082C42.4017 20.9034 42.2095 20.8602 42.0312 20.781C41.2826 20.4484 40.9443 19.5701 41.2764 18.8185Z" fill="black"/>
</g>
<defs>
<clipPath id="clip0_266_1371">
<rect width="50" height="50" fill="white"/>
</clipPath>
</defs>
</svg>
