<svg width="50" height="28" viewBox="0 0 50 28" fill="none" xmlns="http://www.w3.org/2000/svg">
<g clip-path="url(#clip0_266_1384)">
<path d="M38.3514 23.793C44.4579 17.4526 45.4728 8.22667 40.6181 3.18603C35.7641 -1.85405 26.8796 -0.800386 20.7735 5.53973C14.6673 11.88 16.4337 23.9934 18.5071 26.1467C20.1826 27.8866 32.2456 30.1332 38.3514 23.793Z" fill="#F89939"/>
<path d="M13.2954 14.6315C9.75291 10.9531 4.59748 10.3407 1.78033 13.2658C-1.0361 16.1905 -0.447249 21.5445 3.09596 25.2224C6.63917 28.902 13.4081 27.8377 14.6103 26.5882C15.5832 25.5796 16.839 18.3104 13.2954 14.6315Z" fill="#3499CD"/>
<path d="M25.5183 22.2388C24.8925 22.8369 24.3435 23.2784 23.8717 23.562C23.3998 23.8466 22.9498 23.9887 22.5216 23.9887C22.029 23.9887 21.6316 23.7904 21.3304 23.3937C21.0285 22.9966 20.8782 22.4642 20.8782 21.7943C20.8782 20.7906 21.0877 19.5857 21.5067 18.1808C21.925 16.7748 22.4343 15.4793 23.0326 14.294L24.7867 13.6197C24.8417 13.6006 24.8835 13.5908 24.9113 13.5908C25.0443 13.5908 25.1543 13.6927 25.2387 13.8954C25.324 14.0991 25.3669 14.3728 25.3669 14.7169C25.3669 15.6921 25.1507 16.6363 24.7174 17.5493C24.2844 18.4628 23.6079 19.4376 22.6873 20.475C22.6503 20.9722 22.6319 21.3137 22.6319 21.5004C22.6319 21.9166 22.7055 22.2459 22.8528 22.4898C23.0003 22.7341 23.1957 22.8555 23.4398 22.8555C23.6888 22.8555 23.9533 22.763 24.2342 22.5765C24.5146 22.3897 24.9428 22.0029 25.5181 21.4144V22.2388H25.5183ZM22.8737 19.4356C23.4582 18.7606 23.933 18.0037 24.2964 17.1663C24.6599 16.3285 24.8415 15.6079 24.8415 15.0041C24.8415 14.8281 24.8164 14.6851 24.7661 14.5776C24.7154 14.47 24.6505 14.4159 24.5725 14.4159C24.4028 14.4159 24.1549 14.8562 23.8302 15.7371C23.5055 16.6177 23.1867 17.8508 22.8737 19.4356Z" fill="#010101"/>
<path d="M30.6842 22.239C30.0997 22.8372 29.575 23.2786 29.1098 23.5623C28.6446 23.8468 28.1319 23.9889 27.5699 23.9889C26.9437 23.9889 26.4385 23.7809 26.0536 23.3655C25.6694 22.9489 25.4775 22.4021 25.4775 21.723C25.4775 20.7098 25.8156 19.793 26.4932 18.9732C27.1693 18.153 27.92 17.7432 28.744 17.7432C29.1722 17.7432 29.5148 17.8583 29.7729 18.0876C30.0308 18.3174 30.1597 18.6182 30.1597 18.9912C30.1597 19.981 29.147 20.7836 27.1213 21.4005C27.3052 22.3322 27.7862 22.7988 28.5644 22.7988C28.8684 22.7988 29.1581 22.714 29.4342 22.5447C29.7109 22.3747 30.1272 21.9977 30.6844 21.4149L30.6842 22.239ZM27.0656 20.9128C28.2438 20.5683 28.8334 19.9329 28.8334 19.0054C28.8334 18.5465 28.6721 18.3172 28.3502 18.3172C28.0462 18.3172 27.7565 18.557 27.4805 19.038C27.2035 19.5182 27.0656 20.1427 27.0656 20.9128Z" fill="#010101"/>
<path d="M38.0593 22.2391C37.3226 22.9657 36.7954 23.4396 36.4781 23.6597C36.1604 23.8795 35.8566 23.9892 35.5664 23.9892C34.8389 23.9892 34.4961 23.3226 34.5374 21.9886C34.0771 22.672 33.6521 23.1763 33.2631 23.5021C32.8743 23.8271 32.4728 23.9892 32.0579 23.9892C31.6534 23.9892 31.3093 23.7925 31.0257 23.398C30.7421 23.0035 30.6013 22.5198 30.6013 21.9456C30.6013 21.2289 30.7908 20.5452 31.1703 19.8946C31.5506 19.2444 32.0374 18.7191 32.6311 18.3175C33.2248 17.9159 33.7502 17.7148 34.2055 17.7148C34.7812 17.7148 35.1841 17.9899 35.4144 18.5393L36.8257 17.7294H37.213L36.6034 19.8302C36.2904 20.8871 36.1334 21.6114 36.1334 22.0032C36.1334 22.4142 36.2735 22.6197 36.5546 22.6197C36.7334 22.6197 36.9314 22.5207 37.1479 22.3221C37.3645 22.1234 37.6677 21.8211 38.059 21.4148V22.2391H38.0593ZM33.0043 22.634C33.4646 22.634 33.8984 22.2266 34.3066 21.4116C34.7141 20.5963 34.9176 19.8441 34.9176 19.1559C34.9176 18.8885 34.8596 18.679 34.7451 18.5287C34.6295 18.3776 34.4754 18.3027 34.2825 18.3027C33.8218 18.3027 33.3851 18.709 32.9739 19.5219C32.5619 20.3348 32.3554 21.0829 32.3554 21.7659C32.3554 22.0244 32.4167 22.2335 32.5386 22.3938C32.6605 22.554 32.8152 22.634 33.0043 22.634Z" fill="#010101"/>
<path d="M43.2183 22.2384C42.0626 23.4143 41.1715 24.0027 40.5455 24.0027C40.2645 24.0027 40.0272 23.8795 39.8343 23.6341C39.6414 23.3877 39.5442 23.0827 39.5442 22.7192C39.5442 22.0452 39.8922 21.142 40.5872 20.0088C40.2463 20.1906 39.8738 20.3168 39.4684 20.3887C39.1692 20.9623 38.6993 21.5792 38.0596 22.2382H37.9011V21.5936C38.2599 21.2065 38.5846 20.7903 38.8747 20.3456C38.4783 20.1638 38.2807 19.8937 38.2807 19.5357C38.2807 19.1671 38.4011 18.7741 38.6434 18.3553C38.885 17.9374 39.2175 17.7285 39.6414 17.7285C40.0005 17.7285 40.1797 17.9191 40.1797 18.3018C40.1797 18.603 40.0762 19.033 39.8687 19.5926C40.6328 19.5063 41.3005 18.8997 41.8716 17.7712L42.4998 17.7424L41.8576 19.578C41.5907 20.3526 41.418 20.8801 41.3399 21.1595C41.2619 21.4388 41.2224 21.6867 41.2224 21.9014C41.2224 22.1025 41.2675 22.2631 41.3569 22.3818C41.4467 22.5022 41.5678 22.5613 41.7196 22.5613C41.8852 22.5613 42.0444 22.5026 42.1962 22.3861C42.348 22.268 42.6887 21.9445 43.2185 21.4139V22.2384H43.2183Z" fill="#010101"/>
<path d="M50.0001 22.239C48.9367 23.4061 48.0245 23.9891 47.2653 23.9891C46.9568 23.9891 46.7082 23.8767 46.5194 23.6519C46.3303 23.4274 46.236 23.1264 46.236 22.7487C46.236 22.2373 46.4388 21.4555 46.8441 20.4042C47.0603 19.84 47.1688 19.4809 47.1688 19.3285C47.1688 19.1753 47.1108 19.0988 46.9963 19.0988C46.9319 19.0988 46.8463 19.1325 46.7406 19.1989C46.6435 19.2658 46.5308 19.3597 46.4019 19.479C46.287 19.5887 46.1577 19.7226 46.0151 19.8798C45.8905 20.0148 45.7569 20.1676 45.615 20.3391L45.2278 20.8056C45.0577 21.0205 44.9517 21.2473 44.9104 21.4865C44.841 21.8928 44.7952 22.2661 44.772 22.6059C44.7579 22.8586 44.7512 23.2001 44.7512 23.6313L43.225 24.0035C43.1747 23.3581 43.1489 22.8776 43.1489 22.5625C43.1489 21.7928 43.2353 21.0636 43.4082 20.3754C43.5807 19.6864 43.8579 18.9125 44.2403 18.0516L45.925 17.7148C45.5707 18.7047 45.3383 19.4835 45.2278 20.0521C45.9828 19.1774 46.5814 18.5719 47.0251 18.2344C47.4681 17.8972 47.8626 17.7294 48.2074 17.7294C48.4416 17.7294 48.6374 17.8212 48.7933 18.0048C48.95 18.1887 49.0279 18.4195 49.0279 18.6955C49.0279 19.154 48.8299 19.9094 48.4345 20.9616C48.1626 21.6831 48.0267 22.1513 48.0267 22.3676C48.0267 22.6553 48.1397 22.7991 48.3658 22.7991C48.7025 22.7991 49.2477 22.3376 50.0001 21.415V22.239Z" fill="#010101"/>
<path d="M28.131 14.2439C28.1419 14.3705 28.1724 14.4676 28.2225 14.5351C28.3146 14.6574 28.4744 14.7186 28.702 14.7186C28.8374 14.7186 28.9566 14.6884 29.0596 14.6279C29.1625 14.566 29.214 14.4711 29.214 14.3431C29.214 14.246 29.1727 14.1722 29.0901 14.1216C29.0372 14.0906 28.9329 14.0547 28.7772 14.014L28.4866 13.938C28.301 13.8902 28.1642 13.8367 28.0762 13.7777C27.9191 13.675 27.8405 13.5329 27.8405 13.3515C27.8405 13.1377 27.9143 12.9647 28.062 12.8325C28.211 12.7003 28.4108 12.6341 28.6614 12.6341C28.9892 12.6341 29.2255 12.734 29.3705 12.9337C29.4612 13.0603 29.5052 13.1968 29.5025 13.343H29.1571C29.1503 13.2572 29.1212 13.1792 29.0697 13.1089C28.9858 13.009 28.8402 12.9591 28.6329 12.9591C28.4947 12.9591 28.3898 12.9865 28.318 13.0413C28.2475 13.0962 28.2123 13.1686 28.2123 13.2586C28.2123 13.3571 28.2591 13.4359 28.3525 13.4949C28.4067 13.5301 28.4866 13.5611 28.5923 13.5878L28.8341 13.649C29.0968 13.7151 29.2729 13.7791 29.3623 13.841C29.5046 13.938 29.5757 14.0906 29.5757 14.2988C29.5757 14.4999 29.5019 14.6736 29.3542 14.8199C29.2079 14.9662 28.9844 15.0393 28.6837 15.0393C28.36 15.0393 28.1304 14.9634 27.9949 14.8115C27.8608 14.6582 27.789 14.469 27.7795 14.2439H28.131Z" fill="white"/>
<path d="M30.8334 12.6278C31.0785 12.6278 31.2777 12.6897 31.4307 12.8135C31.5851 12.9373 31.6779 13.1503 31.7091 13.4527H31.3535C31.3318 13.3135 31.2824 13.1982 31.2052 13.1067C31.128 13.0139 31.004 12.9675 30.8334 12.9675C30.6004 12.9675 30.4338 13.0856 30.3335 13.3219C30.2685 13.4753 30.236 13.6644 30.236 13.8895C30.236 14.1159 30.2821 14.3065 30.3742 14.4612C30.4663 14.616 30.6112 14.6933 30.809 14.6933C30.9607 14.6933 31.0806 14.6455 31.1686 14.5498C31.258 14.4528 31.3197 14.3206 31.3535 14.1532H31.7091C31.6685 14.4528 31.5669 14.6722 31.4043 14.8115C31.2418 14.9493 31.0338 15.0182 30.7805 15.0182C30.4961 15.0182 30.2692 14.9106 30.0999 14.6954C29.9306 14.4788 29.8459 14.2088 29.8459 13.8853C29.8459 13.4886 29.9387 13.1799 30.1243 12.9591C30.3098 12.7382 30.5462 12.6278 30.8334 12.6278Z" fill="white"/>
<path d="M32.0748 12.7038H32.4466V14.9528H32.0748V12.7038ZM32.0748 11.8535H32.4466V12.2839H32.0748V11.8535Z" fill="white"/>
<path d="M32.9932 11.8535H33.3447V13.6532L34.2834 12.6932H34.7507L33.9177 13.5393L34.7975 14.9528H34.3301L33.6515 13.8135L33.3447 14.1047V14.9528H32.9932V11.8535Z" fill="white"/>
<path d="M35.0819 12.7038H35.4537V14.9528H35.0819V12.7038ZM35.0819 11.8535H35.4537V12.2839H35.0819V11.8535Z" fill="white"/>
<path d="M36.0816 12.0624H36.4514V12.6932H36.7988V13.0034H36.4514V14.4781C36.4514 14.5569 36.4771 14.6096 36.5286 14.6363C36.557 14.6518 36.6044 14.6596 36.6708 14.6596C36.6884 14.6596 36.7074 14.6596 36.7277 14.6596C36.748 14.6582 36.7717 14.656 36.7988 14.6532V14.9528C36.7568 14.9655 36.7128 14.9746 36.6667 14.9802C36.622 14.9859 36.5733 14.9887 36.5205 14.9887C36.3498 14.9887 36.234 14.9437 36.173 14.8537C36.1121 14.7622 36.0816 14.6441 36.0816 14.4992V13.0034H35.787V12.6932H36.0816V12.0624Z" fill="white"/>
</g>
<defs>
<clipPath id="clip0_266_1384">
<rect width="50" height="28" fill="white"/>
</clipPath>
</defs>
</svg>
