<svg width="48" height="50" viewBox="0 0 48 50" fill="none" xmlns="http://www.w3.org/2000/svg">
<g clip-path="url(#clip0_266_1419)">
<path d="M27.4289 7.69238V15.3844L41.1443 23.0764V15.3844L27.4289 7.69238ZM0 15.3844V23.0764L6.85773 26.9224V19.2304L0 15.3844ZM20.5711 19.2304L13.7134 23.0764V46.1524L20.5711 50.0004V34.6164L27.4289 38.4624V30.7704L20.5711 26.9244V19.2304Z" fill="#E55B2D"/>
<path d="M27.4288 7.69238L6.85767 19.2304V26.9224L20.5731 19.2304V26.9224L27.4309 23.0764V7.69238H27.4288ZM47.9999 11.5384L41.1422 15.3844V23.0764L47.9999 19.2304V11.5384ZM34.2865 26.9244L27.4288 30.7704V38.4624L34.2865 34.6164V26.9244ZM27.4288 38.4624L20.5711 34.6164V50.0004L27.4288 46.1544V38.4624Z" fill="#ED8E24"/>
<path d="M27.4289 0L0 15.384L6.85773 19.23L27.4289 7.692L41.1443 15.384L48.0021 11.538L27.4289 0ZM27.4289 23.076L20.5711 26.922L27.4289 30.768L34.2866 26.922L27.4289 23.076Z" fill="#F8BF3C"/>
</g>
<defs>
<clipPath id="clip0_266_1419">
<rect width="48" height="50" fill="white"/>
</clipPath>
</defs>
</svg>
