<svg width="42" height="42" viewBox="0 0 42 42" fill="none" xmlns="http://www.w3.org/2000/svg">
<rect x="1" width="41" height="42" fill="#007ACC"/>
<path d="M9.2085 21.073V22.7845H14.6685V38.3245H18.543V22.7845H24.003V21.1045C24.003 20.1595 24.003 19.393 23.961 19.372C23.961 19.3405 20.6325 19.33 16.59 19.33L9.24 19.3615V21.0835L9.2085 21.073ZM33.747 19.3195C34.818 19.5715 35.637 20.0545 36.372 20.821C36.7605 21.241 37.338 21.976 37.38 22.165C37.38 22.228 35.5635 23.4565 34.461 24.139C34.419 24.1705 34.251 23.992 34.083 23.719C33.537 22.942 32.9805 22.606 32.109 22.543C30.849 22.459 30.009 23.1205 30.009 24.223C30.009 24.559 30.072 24.748 30.198 25.021C30.4815 25.5985 31.0065 25.945 32.634 26.659C35.637 27.9505 36.939 28.801 37.7265 30.019C38.619 31.384 38.8185 33.526 38.22 35.1325C37.548 36.886 35.91 38.0725 33.5685 38.461C32.8335 38.587 31.1535 38.566 30.366 38.4295C28.686 38.1145 27.0795 37.2745 26.0925 36.193C25.704 35.773 24.9585 34.6495 25.0005 34.576L25.3995 34.324L26.9745 33.4105L28.161 32.7175L28.434 33.085C28.7805 33.631 29.5575 34.366 30.009 34.618C31.374 35.3215 33.201 35.227 34.104 34.408C34.4925 34.051 34.6605 33.673 34.6605 33.148C34.6605 32.665 34.587 32.4445 34.3455 32.077C34.0095 31.615 33.3375 31.237 31.4475 30.397C29.274 29.473 28.35 28.885 27.489 27.982C26.9955 27.436 26.544 26.5855 26.334 25.882C26.1765 25.273 26.124 23.782 26.271 23.1835C26.7225 21.0835 28.308 19.6135 30.576 19.1935C31.311 19.0465 33.0435 19.1095 33.768 19.2985L33.747 19.3195Z" fill="white"/>
</svg>
