<svg width="64" height="64" viewBox="0 0 64 64" fill="none" xmlns="http://www.w3.org/2000/svg">
<path d="M42.3639 59H21.6355C20.7336 59 20 58.2909 20 57.4192V18.5808C20 17.7091 20.7337 17 21.6355 17H42.3639C43.2658 17 43.9995 17.7091 43.9995 18.5808V57.4192C43.9995 58.2909 43.2658 59 42.3639 59ZM21.6355 17.9544C21.2782 17.9544 20.9876 18.2353 20.9876 18.5807V57.4191C20.9876 57.7645 21.2782 58.0454 21.6355 58.0454H42.3639C42.7212 58.0454 43.0119 57.7645 43.0119 57.4191V18.5807C43.0119 18.2353 42.7212 17.9544 42.3639 17.9544H21.6355Z" fill="url(#paint0_linear_1407_4375)"/>
<path d="M20.4942 22.6061C20.2216 22.6061 20.0004 22.3923 20.0004 22.1288C20.0004 21.8653 20.2215 21.6515 20.4942 21.6515H43.5062C43.7788 21.6515 44 21.8653 44 22.1288C43.9996 22.3923 43.7788 22.6061 43.5058 22.6061H20.4942Z" fill="url(#paint1_linear_1407_4375)"/>
<path d="M20.4942 53.0148C20.2216 53.0148 20.0004 52.801 20.0004 52.5375C20.0004 52.274 20.2215 52.0602 20.4942 52.0602H43.5062C43.7788 52.0602 44 52.274 44 52.5375C43.9996 52.801 43.7788 53.0148 43.5058 53.0148H20.4942Z" fill="url(#paint2_linear_1407_4375)"/>
<path d="M34.5831 56.0205H29.4157C29.1431 56.0205 28.9219 55.8067 28.9219 55.5432C28.9219 55.2797 29.1431 55.0659 29.4157 55.0659H34.5828C34.8554 55.0659 35.0766 55.2797 35.0766 55.5432C35.0769 55.8067 34.8558 56.0205 34.5831 56.0205Z" fill="url(#paint3_linear_1407_4375)"/>
<path d="M23.8496 36.5314C23.577 36.5314 23.3558 36.3177 23.3558 36.0542V25.7637C23.3558 25.5002 23.577 25.2865 23.8496 25.2865H40.1517C40.4243 25.2865 40.6455 25.5002 40.6455 25.7637V36.0542C40.6452 36.3177 40.4244 36.5314 40.1513 36.5314H23.8496ZM24.3435 35.5768H39.6578V26.2403H24.3435V35.5768Z" fill="url(#paint4_linear_1407_4375)"/>
<path d="M30.3455 42.8108H23.8492C23.5765 42.8108 23.3554 42.597 23.3554 42.3335V38.2323C23.3554 37.9688 23.5765 37.755 23.8492 37.755H30.3455C30.6182 37.755 30.8393 37.9688 30.8393 38.2323V42.3335C30.8393 42.597 30.6182 42.8108 30.3455 42.8108ZM24.3429 41.8562H29.8517V38.7095H24.3429V41.8562Z" fill="url(#paint5_linear_1407_4375)"/>
<path d="M40.1508 42.8108H33.6544C33.3818 42.8108 33.1606 42.597 33.1606 42.3335V38.2323C33.1606 37.9688 33.3818 37.755 33.6544 37.755H40.1508C40.4234 37.755 40.6446 37.9688 40.6446 38.2323V42.3335C40.6446 42.597 40.4238 42.8108 40.1508 42.8108ZM34.1482 41.8562H39.6569V38.7095H34.1482V41.8562Z" fill="url(#paint6_linear_1407_4375)"/>
<path d="M23.8496 45.1942C23.577 45.1942 23.3558 44.9805 23.3558 44.7169C23.3558 44.4534 23.577 44.2396 23.8496 44.2396H40.1517C40.4243 44.2396 40.6455 44.4534 40.6455 44.7169C40.6452 44.9808 40.4244 45.1942 40.1513 45.1942H23.8496Z" fill="url(#paint7_linear_1407_4375)"/>
<path d="M23.8496 47.287C23.577 47.287 23.3558 47.0733 23.3558 46.8098C23.3558 46.5462 23.577 46.3325 23.8496 46.3325H40.1517C40.4243 46.3325 40.6455 46.5462 40.6455 46.8098C40.6452 47.0733 40.4244 47.287 40.1513 47.287H23.8496Z" fill="url(#paint8_linear_1407_4375)"/>
<path d="M23.8496 49.3798C23.577 49.3798 23.3558 49.1661 23.3558 48.9026C23.3558 48.639 23.577 48.4253 23.8496 48.4253H40.1517C40.4243 48.4253 40.6455 48.639 40.6455 48.9026C40.6452 49.1664 40.4244 49.3798 40.1513 49.3798H23.8496Z" fill="url(#paint9_linear_1407_4375)"/>
<path d="M29.4534 33.3416C29.3483 33.3416 29.2421 33.3092 29.1522 33.2424L26.5297 31.2873C26.4084 31.1969 26.3375 31.0572 26.3375 30.9092C26.3375 30.7613 26.4084 30.6218 26.5297 30.5311L29.1522 28.576C29.368 28.4151 29.6781 28.4537 29.8449 28.6623C30.0114 28.8709 29.9715 29.1706 29.7557 29.3319L27.64 30.9092L29.7557 32.4866C29.9715 32.6475 30.0118 32.9472 29.8449 33.1562C29.7476 33.2775 29.6012 33.3416 29.4534 33.3416Z" fill="url(#paint10_linear_1407_4375)"/>
<path d="M34.5461 33.3416C34.3983 33.3416 34.2519 33.2778 34.1546 33.1558C33.9881 32.9472 34.028 32.6475 34.2438 32.4862L36.3595 30.9089L34.2438 29.3315C34.028 29.1706 33.9878 28.8709 34.1546 28.6619C34.3211 28.4533 34.6315 28.4144 34.8473 28.5757L37.4698 30.5308C37.5911 30.6211 37.662 30.7609 37.662 30.9088C37.662 31.0568 37.5911 31.1962 37.4698 31.2869L34.8473 33.242C34.7574 33.3092 34.6512 33.3416 34.5461 33.3416Z" fill="url(#paint11_linear_1407_4375)"/>
<path d="M31.0453 34.8314C31.003 34.8314 30.96 34.8259 30.9173 34.815C30.6538 34.7468 30.4976 34.485 30.5681 34.2303L32.478 27.3402C32.5486 27.0855 32.8195 26.9345 33.083 27.0027C33.3464 27.0709 33.5027 27.3327 33.4321 27.5873L31.5218 34.4775C31.4629 34.6909 31.2633 34.8314 31.0453 34.8314Z" fill="url(#paint12_linear_1407_4375)"/>
<defs>
<linearGradient id="paint0_linear_1407_4375" x1="20" y1="59" x2="56.1846" y2="38.3231" gradientUnits="userSpaceOnUse">
<stop stop-color="#19C8A2"/>
<stop offset="1" stop-color="#5694F2"/>
</linearGradient>
<linearGradient id="paint1_linear_1407_4375" x1="20" y1="59" x2="56.1846" y2="38.3231" gradientUnits="userSpaceOnUse">
<stop stop-color="#19C8A2"/>
<stop offset="1" stop-color="#5694F2"/>
</linearGradient>
<linearGradient id="paint2_linear_1407_4375" x1="20" y1="59" x2="56.1846" y2="38.3231" gradientUnits="userSpaceOnUse">
<stop stop-color="#19C8A2"/>
<stop offset="1" stop-color="#5694F2"/>
</linearGradient>
<linearGradient id="paint3_linear_1407_4375" x1="20" y1="59" x2="56.1846" y2="38.3231" gradientUnits="userSpaceOnUse">
<stop stop-color="#19C8A2"/>
<stop offset="1" stop-color="#5694F2"/>
</linearGradient>
<linearGradient id="paint4_linear_1407_4375" x1="20" y1="59" x2="56.1846" y2="38.3231" gradientUnits="userSpaceOnUse">
<stop stop-color="#19C8A2"/>
<stop offset="1" stop-color="#5694F2"/>
</linearGradient>
<linearGradient id="paint5_linear_1407_4375" x1="20" y1="59" x2="56.1846" y2="38.3231" gradientUnits="userSpaceOnUse">
<stop stop-color="#19C8A2"/>
<stop offset="1" stop-color="#5694F2"/>
</linearGradient>
<linearGradient id="paint6_linear_1407_4375" x1="20" y1="59" x2="56.1846" y2="38.3231" gradientUnits="userSpaceOnUse">
<stop stop-color="#19C8A2"/>
<stop offset="1" stop-color="#5694F2"/>
</linearGradient>
<linearGradient id="paint7_linear_1407_4375" x1="20" y1="59" x2="56.1846" y2="38.3231" gradientUnits="userSpaceOnUse">
<stop stop-color="#19C8A2"/>
<stop offset="1" stop-color="#5694F2"/>
</linearGradient>
<linearGradient id="paint8_linear_1407_4375" x1="20" y1="59" x2="56.1846" y2="38.3231" gradientUnits="userSpaceOnUse">
<stop stop-color="#19C8A2"/>
<stop offset="1" stop-color="#5694F2"/>
</linearGradient>
<linearGradient id="paint9_linear_1407_4375" x1="20" y1="59" x2="56.1846" y2="38.3231" gradientUnits="userSpaceOnUse">
<stop stop-color="#19C8A2"/>
<stop offset="1" stop-color="#5694F2"/>
</linearGradient>
<linearGradient id="paint10_linear_1407_4375" x1="20" y1="59" x2="56.1846" y2="38.3231" gradientUnits="userSpaceOnUse">
<stop stop-color="#19C8A2"/>
<stop offset="1" stop-color="#5694F2"/>
</linearGradient>
<linearGradient id="paint11_linear_1407_4375" x1="20" y1="59" x2="56.1846" y2="38.3231" gradientUnits="userSpaceOnUse">
<stop stop-color="#19C8A2"/>
<stop offset="1" stop-color="#5694F2"/>
</linearGradient>
<linearGradient id="paint12_linear_1407_4375" x1="20" y1="59" x2="56.1846" y2="38.3231" gradientUnits="userSpaceOnUse">
<stop stop-color="#19C8A2"/>
<stop offset="1" stop-color="#5694F2"/>
</linearGradient>
</defs>
</svg>
