<svg width="64" height="64" viewBox="0 0 64 64" fill="none" xmlns="http://www.w3.org/2000/svg">
<path d="M42.8526 22.8754H21.3023C20.9635 22.8754 20.6887 22.5939 20.6887 22.2468C20.6887 21.8997 20.9635 21.6182 21.3023 21.6182H42.8526C43.1914 21.6182 43.4662 21.8997 43.4662 22.2468C43.4662 22.5943 43.1914 22.8754 42.8526 22.8754Z" fill="url(#paint0_linear_1407_4485)"/>
<path d="M42.8526 53.0584H21.3023C20.9635 53.0584 20.6887 52.7768 20.6887 52.4297C20.6887 52.0827 20.9635 51.8011 21.3023 51.8011H42.8526C43.1914 51.8011 43.4662 52.0826 43.4662 52.4297C43.4662 52.7768 43.1914 53.0584 42.8526 53.0584Z" fill="url(#paint1_linear_1407_4485)"/>
<path d="M34.4966 56.0424H29.6577C29.3189 56.0424 29.0441 55.7609 29.0441 55.4138C29.0441 55.0667 29.3189 54.7852 29.6577 54.7852H34.4966C34.8354 54.7852 35.1102 55.0667 35.1102 55.4138C35.1102 55.7609 34.8354 56.0424 34.4966 56.0424Z" fill="url(#paint2_linear_1407_4485)"/>
<path d="M28.8885 40.5635C28.7579 40.5635 28.626 40.5209 28.5142 40.4329L25.2292 37.8371C25.0784 37.7181 24.9903 37.5341 24.9903 37.3392C24.9903 37.1443 25.0784 36.9607 25.2292 36.8412L28.5142 34.2455C28.7825 34.0335 29.1677 34.0843 29.375 34.3591C29.5819 34.6339 29.5324 35.0286 29.2642 35.241L26.6089 37.3392L29.2642 39.4375C29.5324 39.6494 29.5824 40.0441 29.375 40.3193C29.2536 40.4792 29.0722 40.5635 28.8885 40.5635Z" fill="url(#paint3_linear_1407_4485)"/>
<path d="M35.2675 40.5636C35.0838 40.5636 34.9019 40.4796 34.7809 40.3188C34.5741 40.0441 34.6236 39.6494 34.8918 39.437L37.5471 37.3387L34.8918 35.2405C34.6236 35.0285 34.5736 34.6339 34.7809 34.3586C34.9878 34.0838 35.3735 34.0326 35.6418 34.245L38.9268 36.8407C39.0776 36.9597 39.1657 37.1438 39.1657 37.3387C39.1657 37.5336 39.0776 37.7172 38.9268 37.8367L35.6418 40.4324C35.53 40.5204 35.3981 40.5636 35.2675 40.5636Z" fill="url(#paint4_linear_1407_4485)"/>
<path d="M30.8813 42.5407C30.8287 42.5407 30.7752 42.5335 30.7222 42.5191C30.3948 42.4293 30.2006 42.0845 30.2883 41.7491L32.681 32.6013C32.7686 32.2659 33.1052 32.0665 33.4327 32.1568C33.7601 32.2466 33.9542 32.5914 33.8666 32.9268L31.4739 42.0746C31.4003 42.3557 31.1522 42.5407 30.8813 42.5407Z" fill="url(#paint5_linear_1407_4485)"/>
<path d="M41.7844 59H22.3716C21.4441 59 20.6894 58.2268 20.6894 57.2767V18.7233C20.6894 17.7732 21.4442 17 22.3716 17H41.7844C42.7118 17 43.4666 17.7732 43.4666 18.7233V57.2767C43.4666 58.2273 42.7118 59 41.7844 59ZM22.3716 18.2568C22.1209 18.2568 21.9166 18.4661 21.9166 18.7229V57.2763C21.9166 57.5332 22.1209 57.7424 22.3716 57.7424H41.7844C42.0351 57.7424 42.2393 57.5332 42.2393 57.2763V18.7218C42.2393 18.4649 42.0351 18.2557 41.7844 18.2557H22.3716V18.2568Z" fill="url(#paint6_linear_1407_4485)"/>
<path d="M25.5504 28.3515H17.0534C16.7146 28.3515 16.4398 28.07 16.4398 27.7229C16.4398 27.3758 16.7146 27.0943 17.0534 27.0943H25.5504C25.8892 27.0943 26.1641 27.3758 26.1641 27.7229C26.1641 28.07 25.8897 28.3515 25.5504 28.3515Z" fill="url(#paint7_linear_1407_4485)"/>
<path d="M11.16 31.1931H5.61363C5.27483 31.1931 5 30.9115 5 30.5644V24.8826C5 24.5355 5.27481 24.2539 5.61363 24.2539H11.16C11.4988 24.2539 11.7736 24.5355 11.7736 24.8826V30.5644C11.7736 30.9115 11.4988 31.1931 11.16 31.1931ZM6.22729 29.9358H10.5463V25.5112H6.22729V29.9358Z" fill="url(#paint8_linear_1407_4485)"/>
<path d="M25.5504 47.5811H17.0534C16.7146 47.5811 16.4398 47.2996 16.4398 46.9525C16.4398 46.6054 16.7146 46.3239 17.0534 46.3239H25.5504C25.8892 46.3239 26.1641 46.6054 26.1641 46.9525C26.1641 47.2996 25.8897 47.5811 25.5504 47.5811Z" fill="url(#paint9_linear_1407_4485)"/>
<path d="M11.16 50.4214H5.61363C5.27483 50.4214 5 50.1399 5 49.7928V44.111C5 43.7639 5.27481 43.4823 5.61363 43.4823H11.16C11.4988 43.4823 11.7736 43.7639 11.7736 44.111V49.7928C11.7736 50.1399 11.4988 50.4214 11.16 50.4214ZM6.22729 49.1641H10.5463V44.7396H6.22729V49.1641Z" fill="url(#paint10_linear_1407_4485)"/>
<path d="M47.1007 47.5811H38.6037C38.2648 47.5811 37.99 47.2996 37.99 46.9525C37.99 46.6054 38.2648 46.3239 38.6037 46.3239H47.1007C47.4395 46.3239 47.7143 46.6054 47.7143 46.9525C47.7143 47.2996 47.4399 47.5811 47.1007 47.5811Z" fill="url(#paint11_linear_1407_4485)"/>
<path d="M58.3864 50.4214H52.84C52.5012 50.4214 52.2264 50.1399 52.2264 49.7928V44.111C52.2264 43.7639 52.5012 43.4823 52.84 43.4823H58.3864C58.7252 43.4823 59 43.7639 59 44.111V49.7928C59 50.1399 58.7252 50.4214 58.3864 50.4214ZM53.4537 49.1641H57.7727V44.7396H53.4537V49.1641Z" fill="url(#paint12_linear_1407_4485)"/>
<path d="M47.1007 28.3515H38.6037C38.2648 28.3515 37.99 28.07 37.99 27.7229C37.99 27.3758 38.2648 27.0943 38.6037 27.0943H47.1007C47.4395 27.0943 47.7143 27.3758 47.7143 27.7229C47.7143 28.07 47.4399 28.3515 47.1007 28.3515Z" fill="url(#paint13_linear_1407_4485)"/>
<path d="M58.3864 31.1931H52.84C52.5012 31.1931 52.2264 30.9115 52.2264 30.5644V24.8826C52.2264 24.5355 52.5012 24.2539 52.84 24.2539H58.3864C58.7252 24.2539 59 24.5355 59 24.8826V30.5644C59 30.9115 58.7252 31.1931 58.3864 31.1931ZM53.4537 29.9358H57.7727V25.5112H53.4537V29.9358Z" fill="url(#paint14_linear_1407_4485)"/>
<defs>
<linearGradient id="paint0_linear_1407_4485" x1="5" y1="59" x2="45.7077" y2="6.66154" gradientUnits="userSpaceOnUse">
<stop stop-color="#19C8A2"/>
<stop offset="1" stop-color="#5694F2"/>
</linearGradient>
<linearGradient id="paint1_linear_1407_4485" x1="5" y1="59" x2="45.7077" y2="6.66154" gradientUnits="userSpaceOnUse">
<stop stop-color="#19C8A2"/>
<stop offset="1" stop-color="#5694F2"/>
</linearGradient>
<linearGradient id="paint2_linear_1407_4485" x1="5" y1="59" x2="45.7077" y2="6.66154" gradientUnits="userSpaceOnUse">
<stop stop-color="#19C8A2"/>
<stop offset="1" stop-color="#5694F2"/>
</linearGradient>
<linearGradient id="paint3_linear_1407_4485" x1="5" y1="59" x2="45.7077" y2="6.66154" gradientUnits="userSpaceOnUse">
<stop stop-color="#19C8A2"/>
<stop offset="1" stop-color="#5694F2"/>
</linearGradient>
<linearGradient id="paint4_linear_1407_4485" x1="5" y1="59" x2="45.7077" y2="6.66154" gradientUnits="userSpaceOnUse">
<stop stop-color="#19C8A2"/>
<stop offset="1" stop-color="#5694F2"/>
</linearGradient>
<linearGradient id="paint5_linear_1407_4485" x1="5" y1="59" x2="45.7077" y2="6.66154" gradientUnits="userSpaceOnUse">
<stop stop-color="#19C8A2"/>
<stop offset="1" stop-color="#5694F2"/>
</linearGradient>
<linearGradient id="paint6_linear_1407_4485" x1="5" y1="59" x2="45.7077" y2="6.66154" gradientUnits="userSpaceOnUse">
<stop stop-color="#19C8A2"/>
<stop offset="1" stop-color="#5694F2"/>
</linearGradient>
<linearGradient id="paint7_linear_1407_4485" x1="5" y1="59" x2="45.7077" y2="6.66154" gradientUnits="userSpaceOnUse">
<stop stop-color="#19C8A2"/>
<stop offset="1" stop-color="#5694F2"/>
</linearGradient>
<linearGradient id="paint8_linear_1407_4485" x1="5" y1="59" x2="45.7077" y2="6.66154" gradientUnits="userSpaceOnUse">
<stop stop-color="#19C8A2"/>
<stop offset="1" stop-color="#5694F2"/>
</linearGradient>
<linearGradient id="paint9_linear_1407_4485" x1="5" y1="59" x2="45.7077" y2="6.66154" gradientUnits="userSpaceOnUse">
<stop stop-color="#19C8A2"/>
<stop offset="1" stop-color="#5694F2"/>
</linearGradient>
<linearGradient id="paint10_linear_1407_4485" x1="5" y1="59" x2="45.7077" y2="6.66154" gradientUnits="userSpaceOnUse">
<stop stop-color="#19C8A2"/>
<stop offset="1" stop-color="#5694F2"/>
</linearGradient>
<linearGradient id="paint11_linear_1407_4485" x1="5" y1="59" x2="45.7077" y2="6.66154" gradientUnits="userSpaceOnUse">
<stop stop-color="#19C8A2"/>
<stop offset="1" stop-color="#5694F2"/>
</linearGradient>
<linearGradient id="paint12_linear_1407_4485" x1="5" y1="59" x2="45.7077" y2="6.66154" gradientUnits="userSpaceOnUse">
<stop stop-color="#19C8A2"/>
<stop offset="1" stop-color="#5694F2"/>
</linearGradient>
<linearGradient id="paint13_linear_1407_4485" x1="5" y1="59" x2="45.7077" y2="6.66154" gradientUnits="userSpaceOnUse">
<stop stop-color="#19C8A2"/>
<stop offset="1" stop-color="#5694F2"/>
</linearGradient>
<linearGradient id="paint14_linear_1407_4485" x1="5" y1="59" x2="45.7077" y2="6.66154" gradientUnits="userSpaceOnUse">
<stop stop-color="#19C8A2"/>
<stop offset="1" stop-color="#5694F2"/>
</linearGradient>
</defs>
</svg>
