<svg width="64" height="64" viewBox="0 0 64 64" fill="none" xmlns="http://www.w3.org/2000/svg">
<path d="M18.0049 45.6261L31.3999 58.7615C31.5554 58.9139 31.7663 59 31.9868 59C32.2073 59 32.4182 58.9144 32.5737 58.7615L45.9591 45.6578C46.0108 45.6083 46.0608 45.5571 46.1104 45.4982C50.0158 41.495 49.9572 35.2957 45.9666 31.3617C42.1292 27.6256 36.0142 27.4498 31.9821 30.8357C30.1169 29.2646 27.7656 28.4094 25.2801 28.4094H25.2716C22.5235 28.4115 19.942 29.4608 18.0066 31.3632C14.0464 35.2307 13.993 41.5564 17.8783 45.4904C17.931 45.5551 17.9778 45.601 18.0049 45.6261ZM19.1793 32.5119C20.8036 30.9163 22.9681 30.0355 25.2715 30.0334H25.279C27.5872 30.0334 29.7559 30.9142 31.3722 32.4967C31.6033 32.7446 31.9666 32.8218 32.2856 32.7023C32.4161 32.6527 32.529 32.5718 32.6163 32.4706C35.9801 29.2204 41.4305 29.2396 44.7928 32.5108C48.148 35.8184 48.1879 41.0409 44.8855 44.3987C44.8626 44.4221 44.8152 44.4717 44.7949 44.4983L31.9869 57.0369L19.2097 44.5228C19.1794 44.4763 19.1447 44.4341 19.1059 44.3949C15.8124 41.0977 15.8448 35.7684 19.1793 32.5119Z" fill="url(#paint0_linear_1495_4278)"/>
<path d="M24.3012 25.7524C24.5925 26.0999 25.115 26.15 25.4691 25.8656C25.8238 25.5807 25.8755 25.0683 25.5847 24.7213L22.3754 20.8846C22.0835 20.5371 21.5605 20.4864 21.2074 20.7713C20.8527 21.0562 20.8011 21.5686 21.0918 21.9156L24.3012 25.7524Z" fill="url(#paint1_linear_1495_4278)"/>
<path d="M31.9826 23.5871C32.4406 23.5871 32.8124 23.2229 32.8124 22.7741V17.8129C32.8124 17.3642 32.4406 17 31.9826 17C31.5246 17 31.1529 17.3642 31.1529 17.8129V22.7741C31.1523 23.2229 31.5241 23.5871 31.9826 23.5871Z" fill="url(#paint2_linear_1495_4278)"/>
<path d="M39.6613 25.7524L42.8718 21.9156C43.1626 21.5681 43.1104 21.0557 42.7562 20.7713C42.4042 20.4875 41.8796 20.5376 41.5882 20.8846L38.3778 24.7213C38.087 25.0688 38.1392 25.5812 38.4934 25.8656C38.847 26.1494 39.369 26.1004 39.6613 25.7524Z" fill="url(#paint3_linear_1495_4278)"/>
<path d="M28.8885 45.4285C28.7579 45.4285 28.6259 45.3858 28.5142 45.2978L25.2291 42.7021C25.0783 42.5831 24.9902 42.399 24.9902 42.2041C24.9902 42.0093 25.0783 41.8256 25.2291 41.7062L28.5142 39.1104C28.7824 38.8985 29.1677 38.9492 29.375 39.224C29.5819 39.4988 29.5323 39.8935 29.2641 40.1059L26.6089 42.2041L29.2641 44.3024C29.5323 44.5143 29.5823 44.909 29.375 45.1843C29.2536 45.3441 29.0721 45.4285 28.8885 45.4285Z" fill="url(#paint4_linear_1495_4278)"/>
<path d="M35.2674 45.4285C35.0838 45.4285 34.9019 45.3445 34.7809 45.1838C34.574 44.909 34.6235 44.5143 34.8918 44.3019L37.547 42.2037L34.8918 40.1054C34.6235 39.8935 34.5736 39.4988 34.7809 39.2235C34.9878 38.9487 35.3735 38.8976 35.6417 39.1099L38.9268 41.7057C39.0776 41.8247 39.1657 42.0088 39.1657 42.2036C39.1657 42.3985 39.0776 42.5822 38.9268 42.7016L35.6417 45.2973C35.53 45.3853 35.398 45.4285 35.2674 45.4285Z" fill="url(#paint5_linear_1495_4278)"/>
<path d="M30.8813 47.4056C30.8287 47.4056 30.7752 47.3984 30.7222 47.384C30.3947 47.2942 30.2006 46.9494 30.2882 46.614L32.6809 37.4662C32.7686 37.1308 33.1052 36.9315 33.4326 37.0217C33.76 37.1115 33.9542 37.4564 33.8665 37.7918L31.4738 46.9395C31.4002 47.2206 31.1521 47.4056 30.8813 47.4056Z" fill="url(#paint6_linear_1495_4278)"/>
<defs>
<linearGradient id="paint0_linear_1495_4278" x1="15" y1="59" x2="56.0795" y2="25.7452" gradientUnits="userSpaceOnUse">
<stop stop-color="#19C8A2"/>
<stop offset="1" stop-color="#5694F2"/>
</linearGradient>
<linearGradient id="paint1_linear_1495_4278" x1="15" y1="59" x2="56.0795" y2="25.7452" gradientUnits="userSpaceOnUse">
<stop stop-color="#19C8A2"/>
<stop offset="1" stop-color="#5694F2"/>
</linearGradient>
<linearGradient id="paint2_linear_1495_4278" x1="15" y1="59" x2="56.0795" y2="25.7452" gradientUnits="userSpaceOnUse">
<stop stop-color="#19C8A2"/>
<stop offset="1" stop-color="#5694F2"/>
</linearGradient>
<linearGradient id="paint3_linear_1495_4278" x1="15" y1="59" x2="56.0795" y2="25.7452" gradientUnits="userSpaceOnUse">
<stop stop-color="#19C8A2"/>
<stop offset="1" stop-color="#5694F2"/>
</linearGradient>
<linearGradient id="paint4_linear_1495_4278" x1="5" y1="63.8647" x2="45.7077" y2="11.5263" gradientUnits="userSpaceOnUse">
<stop stop-color="#19C8A2"/>
<stop offset="1" stop-color="#5694F2"/>
</linearGradient>
<linearGradient id="paint5_linear_1495_4278" x1="5" y1="63.8647" x2="45.7077" y2="11.5263" gradientUnits="userSpaceOnUse">
<stop stop-color="#19C8A2"/>
<stop offset="1" stop-color="#5694F2"/>
</linearGradient>
<linearGradient id="paint6_linear_1495_4278" x1="5" y1="63.8647" x2="45.7077" y2="11.5263" gradientUnits="userSpaceOnUse">
<stop stop-color="#19C8A2"/>
<stop offset="1" stop-color="#5694F2"/>
</linearGradient>
</defs>
</svg>
